%FSLAX34Y34*%
%MOMM*%
%LNCOPPER_TOP*%
G71*
G01*
%ADD10C, 0.700*%
%ADD11C, 0.600*%
%ADD12C, 1.700*%
%ADD13C, 0.500*%
%ADD14C, 0.150*%
%ADD15R, 0.900X0.900*%
%ADD16C, 1.500*%
%LPD*%
X94000Y-121000D02*
G54D10*
D03*
X149000Y-55000D02*
G54D10*
D03*
G54D11*
X132000Y-62000D02*
X139000Y-55000D01*
X149000Y-55000D01*
X149000Y-67000D02*
G54D10*
D03*
X148000Y-112000D02*
G54D10*
D03*
G54D11*
X132000Y-116000D02*
X136000Y-112000D01*
X148000Y-112000D01*
G54D11*
X94000Y-121000D02*
X94000Y-112000D01*
X112000Y-146000D02*
G54D10*
D03*
X76000Y-145000D02*
G54D10*
D03*
G54D11*
X108000Y-133000D02*
X112000Y-137000D01*
X112000Y-146000D01*
G54D11*
X80000Y-133000D02*
X76000Y-137000D01*
X76000Y-145000D01*
X36000Y-112000D02*
G54D10*
D03*
X35000Y-79000D02*
G54D10*
D03*
X42000Y-53000D02*
G54D10*
D03*
G54D11*
X57000Y-62000D02*
X52000Y-57000D01*
X42000Y-53000D01*
G54D12*
X122500Y-301500D02*
X139500Y-301500D01*
G54D12*
X48500Y-301500D02*
X65500Y-301500D01*
G54D11*
X108000Y-45000D02*
X119000Y-34000D01*
X148000Y-34000D01*
X158000Y-44000D01*
X158000Y-124000D01*
X143000Y-139000D01*
G54D11*
X143000Y-139000D02*
X143000Y-165000D01*
X160000Y-182000D01*
X160000Y-296000D01*
X136000Y-173000D02*
G54D10*
D03*
G54D11*
X136000Y-173000D02*
X136000Y-175700D01*
X148900Y-188600D01*
X148900Y-208900D01*
X149000Y-209000D01*
X148900Y-208900D01*
X149000Y-209000D02*
G54D10*
D03*
X122000Y-201000D02*
G54D10*
D03*
X122000Y-174000D02*
G54D10*
D03*
X130000Y-138000D02*
G54D10*
D03*
G54D11*
X122000Y-174000D02*
X122000Y-201000D01*
G54D11*
X130000Y-140000D02*
X130000Y-143000D01*
X113000Y-160000D01*
X113000Y-204000D01*
X119000Y-210000D01*
X128000Y-210000D01*
X134000Y-204000D01*
X134000Y-204000D02*
G54D10*
D03*
X34500Y-209000D02*
G54D10*
D03*
X57000Y-140000D02*
G54D10*
D03*
G54D11*
X34000Y-209000D02*
X57000Y-209000D01*
X70000Y-196000D01*
X70000Y-153000D01*
X57000Y-140000D01*
G54D13*
X27000Y-55000D02*
X27000Y-142000D01*
X27000Y-142000D02*
G54D10*
D03*
X66000Y-266000D02*
G54D10*
D03*
G54D11*
X66000Y-266000D02*
X66000Y-258000D01*
X26000Y-218000D01*
X26000Y-188000D01*
X45000Y-169000D01*
X45000Y-135000D01*
X37000Y-127000D01*
X37000Y-127000D02*
G54D10*
D03*
X94000Y-158000D02*
G54D10*
D03*
X94000Y-166000D02*
G54D10*
D03*
G54D11*
X94000Y-158000D02*
X94000Y-166000D01*
X94000Y-285500D01*
G54D11*
X80000Y-45000D02*
X71000Y-36000D01*
X44000Y-36000D01*
X27000Y-53000D01*
G36*
X94000Y-158000D02*
X86000Y-158000D01*
X80000Y-164000D01*
X80000Y-265000D01*
X66000Y-279000D01*
X25000Y-279000D01*
X25000Y-306000D01*
X34000Y-306000D01*
X34000Y-296000D01*
X44000Y-286000D01*
X134000Y-286000D01*
X139000Y-281000D01*
X139000Y-242000D01*
X104000Y-207000D01*
X104000Y-162000D01*
X100000Y-158000D01*
X94000Y-158000D01*
G37*
G54D13*
X94000Y-158000D02*
X86000Y-158000D01*
X80000Y-164000D01*
X80000Y-265000D01*
X66000Y-279000D01*
X25000Y-279000D01*
X25000Y-306000D01*
X34000Y-306000D01*
X34000Y-296000D01*
X44000Y-286000D01*
X134000Y-286000D01*
X139000Y-281000D01*
X139000Y-242000D01*
X104000Y-207000D01*
X104000Y-162000D01*
X100000Y-158000D01*
X94000Y-158000D01*
G36*
X70000Y-171000D02*
X69000Y-171000D01*
X61000Y-179000D01*
X52000Y-179000D01*
X35000Y-196000D01*
X35000Y-208500D01*
X34500Y-209000D01*
X57000Y-209000D01*
X70000Y-196000D01*
X70000Y-171000D01*
G37*
G54D11*
X70000Y-171000D02*
X69000Y-171000D01*
X61000Y-179000D01*
X52000Y-179000D01*
X35000Y-196000D01*
X35000Y-208500D01*
X34500Y-209000D01*
X57000Y-209000D01*
X70000Y-196000D01*
X70000Y-171000D01*
G36*
X26000Y-218000D02*
X54000Y-218000D01*
X66000Y-230000D01*
X66000Y-266000D01*
X38000Y-266000D01*
X26000Y-254000D01*
X26000Y-218000D01*
G37*
G54D11*
X26000Y-218000D02*
X54000Y-218000D01*
X66000Y-230000D01*
X66000Y-266000D01*
X38000Y-266000D01*
X26000Y-254000D01*
X26000Y-218000D01*
G54D11*
X26000Y-214000D02*
X31000Y-219000D01*
G36*
X89958Y-128583D02*
X103964Y-141207D01*
X109059Y-141001D01*
X116599Y-138146D01*
X123418Y-134295D01*
X130292Y-128996D01*
X108350Y-126424D01*
X100205Y-128610D01*
X89958Y-128583D01*
G37*
G54D14*
X89958Y-128583D02*
X103964Y-141207D01*
X109059Y-141001D01*
X116599Y-138146D01*
X123418Y-134295D01*
X130292Y-128996D01*
X108350Y-126424D01*
X100205Y-128610D01*
X89958Y-128583D01*
G36*
X67453Y-118644D02*
X71364Y-137089D01*
X75607Y-139918D01*
X83385Y-142039D01*
X91165Y-142932D01*
X99841Y-142686D01*
X83602Y-127707D01*
X75728Y-124688D01*
X67453Y-118644D01*
G37*
G54D14*
X67453Y-118644D02*
X71364Y-137089D01*
X75607Y-139918D01*
X83385Y-142039D01*
X91165Y-142932D01*
X99841Y-142686D01*
X83602Y-127707D01*
X75728Y-124688D01*
X67453Y-118644D01*
G36*
X55125Y-97236D02*
X47448Y-114457D01*
X49217Y-119239D01*
X54263Y-125528D01*
X60033Y-130823D01*
X67196Y-135724D01*
X62863Y-114061D01*
X58266Y-106990D01*
X55125Y-97236D01*
G37*
G54D14*
X55125Y-97236D02*
X47448Y-114457D01*
X49217Y-119239D01*
X54263Y-125528D01*
X60033Y-130823D01*
X67196Y-135724D01*
X62863Y-114061D01*
X58266Y-106990D01*
X55125Y-97236D01*
G36*
X57406Y-73038D02*
X41072Y-82457D01*
X39693Y-87366D01*
X40079Y-95419D01*
X41634Y-103095D01*
X44549Y-111270D01*
X53776Y-91197D01*
X54214Y-82775D01*
X57406Y-73038D01*
G37*
G54D14*
X57406Y-73038D02*
X41072Y-82457D01*
X39693Y-87366D01*
X40079Y-95419D01*
X41634Y-103095D01*
X44549Y-111270D01*
X53776Y-91197D01*
X54214Y-82775D01*
X57406Y-73038D01*
G36*
X74130Y-54616D02*
X55379Y-52636D01*
X51378Y-55797D01*
X46956Y-62538D01*
X43703Y-69662D01*
X41256Y-77989D01*
X60520Y-67174D01*
X65824Y-60618D01*
X74130Y-54616D01*
G37*
G54D14*
X74130Y-54616D02*
X55379Y-52636D01*
X51378Y-55797D01*
X46956Y-62538D01*
X43703Y-69662D01*
X41256Y-77989D01*
X60520Y-67174D01*
X65824Y-60618D01*
X74130Y-54616D01*
G36*
X98057Y-49430D02*
X84051Y-36806D01*
X78956Y-37012D01*
X71416Y-39867D01*
X64597Y-43718D01*
X57723Y-49017D01*
X79664Y-51589D01*
X87810Y-49403D01*
X98057Y-49430D01*
G37*
G54D14*
X98057Y-49430D02*
X84051Y-36806D01*
X78956Y-37012D01*
X71416Y-39867D01*
X64597Y-43718D01*
X57723Y-49017D01*
X79664Y-51589D01*
X87810Y-49403D01*
X98057Y-49430D01*
G36*
X120573Y-59474D02*
X116662Y-41029D01*
X112419Y-38201D01*
X104641Y-36079D01*
X96860Y-35187D01*
X88185Y-35433D01*
X104424Y-50411D01*
X112298Y-53430D01*
X120573Y-59474D01*
G37*
G54D14*
X120573Y-59474D02*
X116662Y-41029D01*
X112419Y-38201D01*
X104641Y-36079D01*
X96860Y-35187D01*
X88185Y-35433D01*
X104424Y-50411D01*
X112298Y-53430D01*
X120573Y-59474D01*
G36*
X133094Y-80266D02*
X140830Y-63172D01*
X139094Y-58672D01*
X134049Y-52383D01*
X128279Y-47088D01*
X121116Y-42187D01*
X125449Y-63850D01*
X130045Y-70921D01*
X133094Y-80266D01*
G37*
G54D14*
X133094Y-80266D02*
X140830Y-63172D01*
X139094Y-58672D01*
X134049Y-52383D01*
X128279Y-47088D01*
X121116Y-42187D01*
X125449Y-63850D01*
X130045Y-70921D01*
X133094Y-80266D01*
G36*
X130373Y-105042D02*
X146706Y-95622D01*
X148086Y-90713D01*
X147700Y-82660D01*
X146144Y-74985D01*
X143230Y-66810D01*
X134002Y-86882D01*
X133565Y-95304D01*
X130373Y-105042D01*
G37*
G54D14*
X130373Y-105042D02*
X146706Y-95622D01*
X148086Y-90713D01*
X147700Y-82660D01*
X146144Y-74985D01*
X143230Y-66810D01*
X134002Y-86882D01*
X133565Y-95304D01*
X130373Y-105042D01*
G36*
X113885Y-123398D02*
X132636Y-125378D01*
X136637Y-122217D01*
X141058Y-115475D01*
X144312Y-108351D01*
X146759Y-100024D01*
X127495Y-110840D01*
X122191Y-117396D01*
X113885Y-123398D01*
G37*
G54D14*
X113885Y-123398D02*
X132636Y-125378D01*
X136637Y-122217D01*
X141058Y-115475D01*
X144312Y-108351D01*
X146759Y-100024D01*
X127495Y-110840D01*
X122191Y-117396D01*
X113885Y-123398D01*
X132000Y-116000D02*
G54D15*
D03*
X141000Y-87000D02*
G54D15*
D03*
X132000Y-61000D02*
G54D15*
D03*
X108000Y-44000D02*
G54D15*
D03*
X79000Y-44000D02*
G54D15*
D03*
X56000Y-62000D02*
G54D15*
D03*
X47000Y-89000D02*
G54D15*
D03*
X57000Y-116000D02*
G54D15*
D03*
X80000Y-133000D02*
G54D15*
D03*
X109000Y-133000D02*
G54D15*
D03*
G54D16*
G75*
G01X117000Y-89000D02*
G03X117000Y-89000I-23000J0D01*
G01*
G54D11*
X36000Y-112000D02*
X36000Y-113000D01*
X46000Y-123000D01*
X50000Y-123000D01*
X57000Y-116000D01*
G54D11*
X47000Y-89000D02*
X38000Y-89000D01*
X35000Y-86000D01*
X35000Y-79000D01*
G54D11*
X57000Y-301500D02*
X27500Y-301500D01*
X27000Y-302000D01*
G54D11*
X57000Y-301500D02*
X57000Y-283000D01*
G36*
X131000Y-301500D02*
X134500Y-301500D01*
X148000Y-288000D01*
X148000Y-224000D01*
X160000Y-212000D01*
X160000Y-297000D01*
X155000Y-302000D01*
X131500Y-302000D01*
X131000Y-301500D01*
G37*
G54D11*
X131000Y-301500D02*
X134500Y-301500D01*
X148000Y-288000D01*
X148000Y-224000D01*
X160000Y-212000D01*
X160000Y-297000D01*
X155000Y-302000D01*
X131500Y-302000D01*
X131000Y-301500D01*
G54D11*
X149000Y-67000D02*
X144000Y-72000D01*
M02*
