; Drill file
; Format: 3.3 (000.000)
M48
METRIC
T01C0.3
T02C1.0
T03C1.2
T04C1.5
%
G05
G90
T01
X006.600Y-026.600
X003.450Y-020.900
X002.700Y-014.200
X003.700Y-012.700
X003.600Y-011.200
X003.500Y-007.900
X004.200Y-005.300
X009.400Y-012.100
X007.600Y-014.500
X005.700Y-014.000
X009.400Y-015.800
X009.400Y-016.600
X011.200Y-014.600
X013.000Y-013.800
X014.800Y-011.200
X014.900Y-006.700
X014.900Y-005.500
X013.600Y-017.300
X012.200Y-017.400
X012.200Y-020.100
X013.400Y-020.400
X014.900Y-020.900
T02
X005.700Y-030.150
X013.100Y-030.150
T03
X005.700Y-016.200
X013.100Y-016.200
X012.600Y-002.000
X006.200Y-002.000
T04
X003.100Y-015.800
X009.400Y-008.900
X015.700Y-015.800
M30
