%FSLAX34Y34*%
%MOMM*%
%LNSILK_TOP*%
G71*
G01*
%ADD10C, 0.150*%
%ADD11C, 0.175*%
%ADD12C, 0.300*%
%ADD13C, 0.151*%
%LPD*%
G54D10*
X169000Y-174000D02*
X19000Y-174000D01*
G54D11*
X76319Y-266278D02*
X78764Y-276056D01*
X81208Y-266278D01*
G54D11*
X84630Y-276056D02*
X87074Y-266278D01*
X89519Y-276056D01*
G54D11*
X85608Y-272389D02*
X88541Y-272389D01*
G54D11*
X92941Y-266278D02*
X92941Y-276056D01*
X96363Y-276056D01*
G54D11*
X99785Y-266278D02*
X99785Y-274222D01*
X100274Y-275444D01*
X101252Y-276056D01*
X102230Y-276056D01*
X103207Y-275444D01*
X103696Y-274222D01*
X103696Y-266278D01*
G54D11*
X110540Y-276056D02*
X107118Y-276056D01*
X107118Y-266278D01*
X110540Y-266278D01*
G54D11*
X107118Y-271167D02*
X110540Y-271167D01*
G36*
X23669Y-217919D02*
X163669Y-217919D01*
X163669Y-259919D01*
X23669Y-259919D01*
X23669Y-217919D01*
G37*
G54D12*
X23669Y-217919D02*
X163669Y-217919D01*
X163669Y-259919D01*
X23669Y-259919D01*
X23669Y-217919D01*
G36*
X73000Y-266000D02*
X62000Y-277000D01*
X49000Y-277000D01*
X60000Y-266000D01*
X73000Y-266000D01*
G37*
G54D10*
X73000Y-266000D02*
X62000Y-277000D01*
X49000Y-277000D01*
X60000Y-266000D01*
X73000Y-266000D01*
G36*
X53000Y-266000D02*
X42000Y-277000D01*
X29000Y-277000D01*
X40000Y-266000D01*
X53000Y-266000D01*
G37*
G54D10*
X53000Y-266000D02*
X42000Y-277000D01*
X29000Y-277000D01*
X40000Y-266000D01*
X53000Y-266000D01*
G36*
X139000Y-266000D02*
X128000Y-277000D01*
X115000Y-277000D01*
X126000Y-266000D01*
X139000Y-266000D01*
G37*
G54D10*
X139000Y-266000D02*
X128000Y-277000D01*
X115000Y-277000D01*
X126000Y-266000D01*
X139000Y-266000D01*
G36*
X159000Y-266000D02*
X148000Y-277000D01*
X135000Y-277000D01*
X146000Y-266000D01*
X159000Y-266000D01*
G37*
G54D10*
X159000Y-266000D02*
X148000Y-277000D01*
X135000Y-277000D01*
X146000Y-266000D01*
X159000Y-266000D01*
G54D13*
X26319Y-289056D02*
X26319Y-284306D01*
G54D13*
X26319Y-285150D02*
X28008Y-284306D01*
X29697Y-284622D01*
X30541Y-285361D01*
X30541Y-289056D01*
G54D13*
X30541Y-285150D02*
X32230Y-284306D01*
X33919Y-284622D01*
X34763Y-285361D01*
X34763Y-289056D01*
G54D13*
X37719Y-284833D02*
X39408Y-284306D01*
X41435Y-284306D01*
X42786Y-285361D01*
X42786Y-289056D01*
G54D13*
X42786Y-287472D02*
X41941Y-286417D01*
X40252Y-286206D01*
X38563Y-286417D01*
X37719Y-287472D01*
X38057Y-288528D01*
X39408Y-289056D01*
X40252Y-289056D01*
X40590Y-289056D01*
X41941Y-288528D01*
X42786Y-287472D01*
G54D13*
X45742Y-289056D02*
X45742Y-280611D01*
G54D13*
X48275Y-285889D02*
X50809Y-289056D01*
G54D13*
X45742Y-286944D02*
X50809Y-284306D01*
G54D13*
X58832Y-288528D02*
X57481Y-289056D01*
X55792Y-289056D01*
X54103Y-288528D01*
X53765Y-287472D01*
X53765Y-285678D01*
X54609Y-284622D01*
X56298Y-284306D01*
X57987Y-284622D01*
X58832Y-285361D01*
X58832Y-286417D01*
X53765Y-286417D01*
G54D13*
X61788Y-285361D02*
X68544Y-285361D01*
G54D13*
X71500Y-289056D02*
X71500Y-280611D01*
G54D13*
X71500Y-285678D02*
X72344Y-284622D01*
X74033Y-284306D01*
X75722Y-284622D01*
X76567Y-285678D01*
X76567Y-287789D01*
X75722Y-288844D01*
X74033Y-289056D01*
X72344Y-288844D01*
X71500Y-287789D01*
G54D13*
X84590Y-288528D02*
X83239Y-289056D01*
X81550Y-289056D01*
X79861Y-288528D01*
X79523Y-287472D01*
X79523Y-285678D01*
X80367Y-284622D01*
X82056Y-284306D01*
X83745Y-284622D01*
X84590Y-285361D01*
X84590Y-286417D01*
X79523Y-286417D01*
G54D13*
X89235Y-289056D02*
X89235Y-281139D01*
X90079Y-280611D01*
X90924Y-280928D01*
G54D13*
X87546Y-284306D02*
X90924Y-284306D01*
G54D13*
X98947Y-287789D02*
X98947Y-285678D01*
X98102Y-284622D01*
X96413Y-284306D01*
X94724Y-284622D01*
X93880Y-285678D01*
X93880Y-287789D01*
X94724Y-288844D01*
X96413Y-289056D01*
X98102Y-288844D01*
X98947Y-287789D01*
G54D13*
X101903Y-289056D02*
X101903Y-284306D01*
G54D13*
X101903Y-285361D02*
X103592Y-284306D01*
X105281Y-284306D01*
G54D13*
X113304Y-288528D02*
X111953Y-289056D01*
X110264Y-289056D01*
X108575Y-288528D01*
X108237Y-287472D01*
X108237Y-285678D01*
X109081Y-284622D01*
X110770Y-284306D01*
X112459Y-284622D01*
X113304Y-285361D01*
X113304Y-286417D01*
X108237Y-286417D01*
G54D13*
X116260Y-285361D02*
X123016Y-285361D01*
G54D13*
X125972Y-289056D02*
X125972Y-280611D01*
G54D13*
X125972Y-285678D02*
X126816Y-284622D01*
X128505Y-284306D01*
X130194Y-284622D01*
X131039Y-285678D01*
X131039Y-287789D01*
X130194Y-288844D01*
X128505Y-289056D01*
X126816Y-288844D01*
X125972Y-287789D01*
G54D13*
X133995Y-289056D02*
X133995Y-284306D01*
G54D13*
X133995Y-285361D02*
X135684Y-284306D01*
X137373Y-284306D01*
G54D13*
X145396Y-288528D02*
X144045Y-289056D01*
X142356Y-289056D01*
X140667Y-288528D01*
X140329Y-287472D01*
X140329Y-285678D01*
X141173Y-284622D01*
X142862Y-284306D01*
X144551Y-284622D01*
X145396Y-285361D01*
X145396Y-286417D01*
X140329Y-286417D01*
G54D13*
X148352Y-284833D02*
X150041Y-284306D01*
X152068Y-284306D01*
X153419Y-285361D01*
X153419Y-289056D01*
G54D13*
X153419Y-287472D02*
X152574Y-286417D01*
X150885Y-286206D01*
X149196Y-286417D01*
X148352Y-287472D01*
X148690Y-288528D01*
X150041Y-289056D01*
X150885Y-289056D01*
X151223Y-289056D01*
X152574Y-288528D01*
X153419Y-287472D01*
G54D13*
X156375Y-289056D02*
X156375Y-280611D01*
G54D13*
X158908Y-285889D02*
X161442Y-289056D01*
G54D13*
X156375Y-286944D02*
X161442Y-284306D01*
M02*
