%FSLAX34Y34*%
%MOMM*%
%LNSOLDERMASK_BOTTOM*%
G71*
G01*
%ADD10C, 1.100*%
%ADD11C, 2.100*%
%ADD12R, 2.200X1.700*%
%LPD*%
X94000Y-121000D02*
G54D10*
D03*
X149000Y-55000D02*
G54D10*
D03*
X149000Y-67000D02*
G54D10*
D03*
X148000Y-112000D02*
G54D10*
D03*
X112000Y-146000D02*
G54D10*
D03*
X76000Y-145000D02*
G54D10*
D03*
X36000Y-112000D02*
G54D10*
D03*
X35000Y-79000D02*
G54D10*
D03*
X42000Y-53000D02*
G54D10*
D03*
G54D11*
X122500Y-301500D02*
X139500Y-301500D01*
G54D11*
X48500Y-301500D02*
X65500Y-301500D01*
X38900Y-188600D02*
G54D12*
D03*
X39000Y-221100D02*
G54D12*
D03*
X66400Y-188600D02*
G54D12*
D03*
X66500Y-221100D02*
G54D12*
D03*
X93900Y-188600D02*
G54D12*
D03*
X94000Y-221100D02*
G54D12*
D03*
X121400Y-188600D02*
G54D12*
D03*
X121500Y-221100D02*
G54D12*
D03*
X148900Y-188600D02*
G54D12*
D03*
X149000Y-221100D02*
G54D12*
D03*
X38900Y-246100D02*
G54D12*
D03*
X39000Y-278600D02*
G54D12*
D03*
X66400Y-246100D02*
G54D12*
D03*
X66500Y-278600D02*
G54D12*
D03*
X121400Y-246100D02*
G54D12*
D03*
X121500Y-278600D02*
G54D12*
D03*
X148900Y-246100D02*
G54D12*
D03*
X149000Y-278600D02*
G54D12*
D03*
X136000Y-173000D02*
G54D10*
D03*
X149000Y-209000D02*
G54D10*
D03*
X122000Y-201000D02*
G54D10*
D03*
X122000Y-174000D02*
G54D10*
D03*
X130000Y-138000D02*
G54D10*
D03*
X134000Y-204000D02*
G54D10*
D03*
X34500Y-209000D02*
G54D10*
D03*
X57000Y-140000D02*
G54D10*
D03*
X27000Y-142000D02*
G54D10*
D03*
X66000Y-266000D02*
G54D10*
D03*
X37000Y-127000D02*
G54D10*
D03*
X94000Y-158000D02*
G54D10*
D03*
X94000Y-166000D02*
G54D10*
D03*
M02*
