; Drill file
; Format: 3.3 (000.000)
M48
METRIC
T01C1.2
T02C1.5
%
G05
G90
T01
X004.080Y-045.020
X004.080Y-038.620
X018.280Y-038.120
X018.280Y-045.520
X014.500Y-018.700
X007.100Y-018.700
X007.600Y-004.500
X014.000Y-004.500
X023.100Y-004.500
X029.500Y-004.500
X038.700Y-004.500
X045.100Y-004.500
X045.600Y-018.700
X038.200Y-018.700
X030.000Y-018.700
X022.600Y-018.700
T02
X010.980Y-041.820
X017.880Y-035.520
X017.880Y-048.120
X017.100Y-018.300
X020.000Y-018.300
X026.300Y-011.400
X032.600Y-018.300
X035.600Y-018.300
X041.900Y-011.400
X048.200Y-018.300
X010.800Y-011.400
X004.500Y-018.300
M30
