%FSLAX34Y34*%
%MOMM*%
%LNSILK_BOTTOM*%
G71*
G01*
%ADD10C, 0.150*%
%ADD11C, 0.200*%
%ADD12C, 0.175*%
%LPD*%
G54D10*
X380000Y-432000D02*
X380000Y-412000D01*
X457200Y-412000D01*
X457200Y-432000D01*
X380000Y-432000D01*
G54D10*
X380000Y-427000D02*
X380000Y-417000D01*
X385000Y-417000D01*
X385000Y-427000D01*
X380000Y-427000D01*
G54D11*
X64669Y-204081D02*
X64669Y-255919D01*
X41131Y-255919D01*
X41131Y-204081D01*
X64669Y-204081D01*
G54D11*
X92169Y-204081D02*
X92169Y-255919D01*
X68631Y-255919D01*
X68631Y-204081D01*
X92169Y-204081D01*
G54D11*
X119669Y-204081D02*
X119669Y-255919D01*
X96131Y-255919D01*
X96131Y-204081D01*
X119669Y-204081D01*
G54D11*
X147169Y-204081D02*
X147169Y-255919D01*
X123631Y-255919D01*
X123631Y-204081D01*
X147169Y-204081D01*
G54D11*
X174669Y-204081D02*
X174669Y-255919D01*
X151131Y-255919D01*
X151131Y-204081D01*
X174669Y-204081D01*
G54D11*
X64669Y-261581D02*
X64669Y-313419D01*
X41131Y-313419D01*
X41131Y-261581D01*
X64669Y-261581D01*
G54D11*
X92169Y-261581D02*
X92169Y-313419D01*
X68631Y-313419D01*
X68631Y-261581D01*
X92169Y-261581D01*
G54D11*
X147169Y-261581D02*
X147169Y-313419D01*
X123631Y-313419D01*
X123631Y-261581D01*
X147169Y-261581D01*
G54D11*
X174669Y-261581D02*
X174669Y-313419D01*
X151131Y-313419D01*
X151131Y-261581D01*
X174669Y-261581D01*
G54D12*
X103541Y-296056D02*
X113319Y-296056D01*
X113319Y-293612D01*
X112708Y-292634D01*
X111485Y-292145D01*
X110263Y-292145D01*
X109041Y-292634D01*
X108430Y-293612D01*
X107819Y-292634D01*
X106597Y-292145D01*
X105374Y-292145D01*
X104152Y-292634D01*
X103541Y-293612D01*
X103541Y-296056D01*
G54D12*
X108430Y-296056D02*
X108430Y-293612D01*
G54D12*
X103541Y-288723D02*
X113319Y-288723D01*
X113319Y-286279D01*
X112708Y-285301D01*
X111485Y-284812D01*
X110263Y-284812D01*
X109041Y-285301D01*
X108430Y-286279D01*
X107819Y-285301D01*
X106597Y-284812D01*
X105374Y-284812D01*
X104152Y-285301D01*
X103541Y-286279D01*
X103541Y-288723D01*
G54D12*
X108430Y-288723D02*
X108430Y-286279D01*
G54D12*
X103541Y-281390D02*
X113319Y-281390D01*
X107208Y-278946D01*
X113319Y-276501D01*
X103541Y-276501D01*
G54D11*
X219669Y-204081D02*
X219669Y-255919D01*
X196131Y-255919D01*
X196131Y-204081D01*
X219669Y-204081D01*
G54D11*
X247169Y-204081D02*
X247169Y-255919D01*
X223631Y-255919D01*
X223631Y-204081D01*
X247169Y-204081D01*
G54D11*
X274669Y-204081D02*
X274669Y-255919D01*
X251131Y-255919D01*
X251131Y-204081D01*
X274669Y-204081D01*
G54D11*
X302169Y-204081D02*
X302169Y-255919D01*
X278631Y-255919D01*
X278631Y-204081D01*
X302169Y-204081D01*
G54D11*
X329669Y-204081D02*
X329669Y-255919D01*
X306131Y-255919D01*
X306131Y-204081D01*
X329669Y-204081D01*
G54D11*
X219669Y-261581D02*
X219669Y-313419D01*
X196131Y-313419D01*
X196131Y-261581D01*
X219669Y-261581D01*
G54D11*
X247169Y-261581D02*
X247169Y-313419D01*
X223631Y-313419D01*
X223631Y-261581D01*
X247169Y-261581D01*
G54D11*
X302169Y-261581D02*
X302169Y-313419D01*
X278631Y-313419D01*
X278631Y-261581D01*
X302169Y-261581D01*
G54D11*
X329669Y-261581D02*
X329669Y-313419D01*
X306131Y-313419D01*
X306131Y-261581D01*
X329669Y-261581D01*
G54D12*
X258541Y-296056D02*
X268319Y-296056D01*
X268319Y-293612D01*
X267708Y-292634D01*
X266485Y-292145D01*
X265263Y-292145D01*
X264041Y-292634D01*
X263430Y-293612D01*
X262819Y-292634D01*
X261597Y-292145D01*
X260374Y-292145D01*
X259152Y-292634D01*
X258541Y-293612D01*
X258541Y-296056D01*
G54D12*
X263430Y-296056D02*
X263430Y-293612D01*
G54D12*
X258541Y-288723D02*
X268319Y-288723D01*
X268319Y-286279D01*
X267708Y-285301D01*
X266485Y-284812D01*
X265263Y-284812D01*
X264041Y-285301D01*
X263430Y-286279D01*
X262819Y-285301D01*
X261597Y-284812D01*
X260374Y-284812D01*
X259152Y-285301D01*
X258541Y-286279D01*
X258541Y-288723D01*
G54D12*
X263430Y-288723D02*
X263430Y-286279D01*
G54D12*
X258541Y-281390D02*
X268319Y-281390D01*
X262208Y-278946D01*
X268319Y-276501D01*
X258541Y-276501D01*
G54D11*
X199831Y-461581D02*
X251669Y-461581D01*
X251669Y-485119D01*
X199831Y-485119D01*
X199831Y-461581D01*
G54D11*
X199831Y-434081D02*
X251669Y-434081D01*
X251669Y-457619D01*
X199831Y-457619D01*
X199831Y-434081D01*
G54D11*
X199831Y-406581D02*
X251669Y-406581D01*
X251669Y-430119D01*
X199831Y-430119D01*
X199831Y-406581D01*
G54D11*
X199831Y-379081D02*
X251669Y-379081D01*
X251669Y-402619D01*
X199831Y-402619D01*
X199831Y-379081D01*
G54D11*
X199831Y-351581D02*
X251669Y-351581D01*
X251669Y-375119D01*
X199831Y-375119D01*
X199831Y-351581D01*
G54D11*
X257331Y-461581D02*
X309169Y-461581D01*
X309169Y-485119D01*
X257331Y-485119D01*
X257331Y-461581D01*
G54D11*
X257331Y-434081D02*
X309169Y-434081D01*
X309169Y-457619D01*
X257331Y-457619D01*
X257331Y-434081D01*
G54D11*
X257331Y-379081D02*
X309169Y-379081D01*
X309169Y-402619D01*
X257331Y-402619D01*
X257331Y-379081D01*
G54D11*
X257331Y-351581D02*
X309169Y-351581D01*
X309169Y-375119D01*
X257331Y-375119D01*
X257331Y-351581D01*
G54D12*
X291694Y-422042D02*
X291694Y-412264D01*
X289250Y-418375D01*
X286806Y-412264D01*
X286806Y-422042D01*
G54D12*
X283384Y-422042D02*
X283384Y-412264D01*
X280939Y-412264D01*
X279961Y-412875D01*
X279472Y-414098D01*
X279472Y-415320D01*
X279961Y-416542D01*
X280939Y-417153D01*
X279961Y-417764D01*
X279472Y-418986D01*
X279472Y-420209D01*
X279961Y-421431D01*
X280939Y-422042D01*
X283384Y-422042D01*
G54D12*
X283384Y-417153D02*
X280939Y-417153D01*
G54D12*
X276050Y-422042D02*
X276050Y-412264D01*
X273606Y-412264D01*
X272628Y-412875D01*
X272139Y-414098D01*
X272139Y-415320D01*
X272628Y-416542D01*
X273606Y-417153D01*
X272628Y-417764D01*
X272139Y-418986D01*
X272139Y-420209D01*
X272628Y-421431D01*
X273606Y-422042D01*
X276050Y-422042D01*
G54D12*
X276050Y-417153D02*
X273606Y-417153D01*
G54D11*
X375669Y-204081D02*
X375669Y-255919D01*
X352131Y-255919D01*
X352131Y-204081D01*
X375669Y-204081D01*
G54D11*
X403169Y-204081D02*
X403169Y-255919D01*
X379631Y-255919D01*
X379631Y-204081D01*
X403169Y-204081D01*
G54D11*
X430669Y-204081D02*
X430669Y-255919D01*
X407131Y-255919D01*
X407131Y-204081D01*
X430669Y-204081D01*
G54D11*
X458169Y-204081D02*
X458169Y-255919D01*
X434631Y-255919D01*
X434631Y-204081D01*
X458169Y-204081D01*
G54D11*
X485669Y-204081D02*
X485669Y-255919D01*
X462131Y-255919D01*
X462131Y-204081D01*
X485669Y-204081D01*
G54D11*
X375669Y-261581D02*
X375669Y-313419D01*
X352131Y-313419D01*
X352131Y-261581D01*
X375669Y-261581D01*
G54D11*
X403169Y-261581D02*
X403169Y-313419D01*
X379631Y-313419D01*
X379631Y-261581D01*
X403169Y-261581D01*
G54D11*
X458169Y-261581D02*
X458169Y-313419D01*
X434631Y-313419D01*
X434631Y-261581D01*
X458169Y-261581D01*
G54D11*
X485669Y-261581D02*
X485669Y-313419D01*
X462131Y-313419D01*
X462131Y-261581D01*
X485669Y-261581D01*
G54D12*
X415208Y-295945D02*
X424986Y-295945D01*
X418875Y-293500D01*
X424986Y-291056D01*
X415208Y-291056D01*
G54D12*
X415208Y-287634D02*
X424986Y-287634D01*
X424986Y-285189D01*
X424375Y-284211D01*
X423152Y-283722D01*
X421930Y-283722D01*
X420708Y-284211D01*
X420097Y-285189D01*
X419486Y-284211D01*
X418264Y-283722D01*
X417041Y-283722D01*
X415819Y-284211D01*
X415208Y-285189D01*
X415208Y-287634D01*
G54D12*
X420097Y-287634D02*
X420097Y-285189D01*
G54D12*
X415208Y-280300D02*
X424986Y-280300D01*
X424986Y-277856D01*
X424375Y-276878D01*
X423152Y-276389D01*
X421930Y-276389D01*
X420708Y-276878D01*
X420097Y-277856D01*
X419486Y-276878D01*
X418264Y-276389D01*
X417041Y-276389D01*
X415819Y-276878D01*
X415208Y-277856D01*
X415208Y-280300D01*
G54D12*
X420097Y-280300D02*
X420097Y-277856D01*
M02*
