; Drill file
; Format: 3.3 (000.000)
M48
METRIC
T01C0.3
T02C0.9
T03C1.0
%
G05
G90
T01
X007.380Y-047.020
X009.980Y-047.720
X013.280Y-047.620
X014.780Y-047.520
X016.280Y-048.520
X016.080Y-045.520
X016.580Y-043.620
X017.880Y-041.820
X018.680Y-041.820
X016.680Y-040.020
X015.880Y-038.220
X013.280Y-036.420
X008.780Y-036.320
X007.580Y-036.320
X008.000Y-029.100
X004.850Y-023.400
X004.100Y-016.700
X005.100Y-015.200
X005.000Y-013.700
X004.900Y-010.400
X005.600Y-007.800
X010.800Y-014.600
X009.000Y-017.000
X007.100Y-016.500
X010.800Y-018.300
X010.800Y-019.100
X012.600Y-017.100
X014.400Y-016.300
X016.700Y-013.700
X016.700Y-010.900
X016.600Y-008.000
X020.400Y-010.400
X021.100Y-007.800
X020.500Y-013.700
X020.600Y-015.200
X019.600Y-016.700
X022.600Y-016.500
X024.500Y-017.000
X026.300Y-018.300
X026.300Y-019.100
X028.100Y-017.100
X029.900Y-016.300
X032.200Y-013.700
X032.200Y-010.900
X032.100Y-008.000
X036.000Y-010.400
X036.700Y-007.800
X036.100Y-013.700
X036.200Y-015.200
X035.200Y-016.700
X038.200Y-016.500
X040.100Y-017.000
X041.900Y-018.300
X041.900Y-019.100
X043.700Y-017.100
X045.500Y-016.300
X047.300Y-013.700
X047.400Y-009.200
X047.400Y-008.000
X041.900Y-014.600
X044.700Y-019.900
X046.100Y-019.800
X045.900Y-022.900
X044.700Y-022.600
X047.400Y-023.400
X039.100Y-029.100
X035.950Y-023.400
X031.800Y-023.400
X030.300Y-022.900
X029.100Y-022.600
X029.100Y-019.900
X030.500Y-019.800
X026.300Y-014.600
X020.350Y-023.400
X016.300Y-023.400
X014.800Y-022.900
X013.600Y-022.600
X013.600Y-019.900
X015.000Y-019.800
X023.500Y-029.100
X022.980Y-036.320
X022.480Y-037.820
X022.180Y-039.020
X019.480Y-039.020
X019.380Y-037.620
X014.180Y-041.820
X022.980Y-047.780
X028.680Y-044.620
T02
X035.560Y-047.130
X038.100Y-047.130
X040.640Y-047.130
X043.180Y-047.130
X045.720Y-047.130
X048.260Y-047.130
X048.260Y-036.970
X045.720Y-036.970
X043.180Y-036.970
X040.640Y-036.970
X038.100Y-036.970
X035.560Y-036.970
T03
X007.100Y-032.650
X014.500Y-032.650
X022.600Y-032.650
X030.000Y-032.650
X032.220Y-038.120
X032.220Y-045.520
X038.200Y-032.650
X045.600Y-032.650
M30
