%FSLAX34Y34*%
%MOMM*%
%LNCOPPER_TOP*%
G71*
G01*
%ADD10C, 2.000*%
%ADD11R, 0.300X1.450*%
%ADD12C, 0.300*%
%ADD13C, 0.700*%
%ADD14C, 0.600*%
%ADD15C, 1.700*%
%ADD16C, 0.500*%
%ADD17C, 1.500*%
%ADD18C, 0.150*%
%ADD19R, 0.900X0.900*%
%LPD*%
G36*
X345597Y-461325D02*
X365597Y-461325D01*
X365597Y-481325D01*
X345597Y-481325D01*
X345597Y-461325D01*
G37*
X380997Y-471325D02*
G54D10*
D03*
X406397Y-471325D02*
G54D10*
D03*
X431797Y-471325D02*
G54D10*
D03*
X457197Y-471325D02*
G54D10*
D03*
X457197Y-369725D02*
G54D10*
D03*
X431797Y-369725D02*
G54D10*
D03*
X406397Y-369725D02*
G54D10*
D03*
X380997Y-369725D02*
G54D10*
D03*
G36*
X345597Y-359725D02*
X365597Y-359725D01*
X365597Y-379725D01*
X345597Y-379725D01*
X345597Y-359725D01*
G37*
X406600Y-441000D02*
G54D11*
D03*
X406600Y-397000D02*
G54D11*
D03*
X411600Y-441000D02*
G54D11*
D03*
X411600Y-397000D02*
G54D11*
D03*
X416600Y-441000D02*
G54D11*
D03*
X416600Y-397000D02*
G54D11*
D03*
X421600Y-441000D02*
G54D11*
D03*
X421600Y-397000D02*
G54D11*
D03*
X426600Y-441000D02*
G54D11*
D03*
X426600Y-397000D02*
G54D11*
D03*
X431600Y-441000D02*
G54D11*
D03*
X431600Y-397000D02*
G54D11*
D03*
X482597Y-471325D02*
G54D10*
D03*
X482597Y-369725D02*
G54D10*
D03*
G54D12*
X406600Y-441000D02*
X385922Y-441000D01*
X355597Y-471325D01*
G54D12*
X411600Y-441000D02*
X411600Y-449400D01*
X409000Y-452000D01*
X388000Y-452000D01*
X381000Y-459000D01*
X380997Y-471325D01*
G54D12*
X416600Y-441000D02*
X416600Y-461122D01*
X406397Y-471325D01*
G54D12*
X421600Y-441000D02*
X421600Y-461128D01*
X431797Y-471325D01*
G54D12*
X426600Y-441000D02*
X426600Y-452600D01*
X430000Y-456000D01*
X441872Y-456000D01*
X457197Y-471325D01*
G54D12*
X431600Y-441000D02*
X452272Y-441000D01*
X482597Y-471325D01*
G54D12*
X431600Y-397000D02*
X455322Y-397000D01*
X482597Y-369725D01*
G54D12*
X426600Y-397000D02*
X426600Y-388400D01*
X430000Y-385000D01*
X441922Y-385000D01*
X457197Y-369725D01*
G54D12*
X421600Y-397000D02*
X421600Y-379922D01*
X431797Y-369725D01*
G54D12*
X416600Y-397000D02*
X416600Y-379928D01*
X406397Y-369725D01*
G54D12*
X411600Y-397000D02*
X411600Y-387600D01*
X409000Y-385000D01*
X396272Y-385000D01*
X380997Y-369725D01*
G54D12*
X406600Y-397000D02*
X382872Y-397000D01*
X355597Y-369725D01*
X108000Y-146000D02*
G54D13*
D03*
X166000Y-80000D02*
G54D13*
D03*
G54D14*
X146000Y-87000D02*
X153000Y-80000D01*
X166000Y-80000D01*
X167000Y-109000D02*
G54D13*
D03*
X167000Y-137000D02*
G54D13*
D03*
G54D14*
X146000Y-141000D02*
X150000Y-137000D01*
X167000Y-137000D01*
G54D14*
X108000Y-146000D02*
X108000Y-137000D01*
X126000Y-171000D02*
G54D13*
D03*
X90000Y-170000D02*
G54D13*
D03*
G54D14*
X122000Y-158000D02*
X126000Y-162000D01*
X126000Y-171000D01*
G54D14*
X94000Y-158000D02*
X90000Y-162000D01*
X90000Y-170000D01*
X50000Y-137000D02*
G54D13*
D03*
X49000Y-104000D02*
G54D13*
D03*
X56000Y-78000D02*
G54D13*
D03*
G54D14*
X71000Y-87000D02*
X66000Y-82000D01*
X56000Y-78000D01*
G54D15*
X136500Y-326500D02*
X153500Y-326500D01*
G54D15*
X62500Y-326500D02*
X79500Y-326500D01*
G54D14*
X122000Y-70000D02*
X133000Y-59000D01*
X162000Y-59000D01*
X176000Y-73000D01*
X176000Y-145000D01*
X157000Y-164000D01*
G54D14*
X157000Y-164000D02*
X157000Y-190000D01*
X174000Y-207000D01*
X174000Y-321000D01*
X150000Y-198000D02*
G54D13*
D03*
G54D14*
X150000Y-198000D02*
X150000Y-200700D01*
X162900Y-213600D01*
X162900Y-233900D01*
X163000Y-234000D01*
X162900Y-233900D01*
X163000Y-234000D02*
G54D13*
D03*
X136000Y-226000D02*
G54D13*
D03*
X136000Y-199000D02*
G54D13*
D03*
X144000Y-163000D02*
G54D13*
D03*
G54D14*
X136000Y-199000D02*
X136000Y-226000D01*
G54D14*
X144000Y-165000D02*
X144000Y-168000D01*
X127000Y-185000D01*
X127000Y-229000D01*
X133000Y-235000D01*
X142000Y-235000D01*
X148000Y-229000D01*
X148000Y-229000D02*
G54D13*
D03*
X48500Y-234000D02*
G54D13*
D03*
X71000Y-165000D02*
G54D13*
D03*
G54D14*
X48000Y-234000D02*
X71000Y-234000D01*
X84000Y-221000D01*
X84000Y-178000D01*
X71000Y-165000D01*
G54D16*
X41000Y-80000D02*
X41000Y-167000D01*
X41000Y-167000D02*
G54D13*
D03*
X80000Y-291000D02*
G54D13*
D03*
G54D14*
X80000Y-291000D02*
X80000Y-283000D01*
X40000Y-243000D01*
X40000Y-213000D01*
X59000Y-194000D01*
X59000Y-160000D01*
X51000Y-152000D01*
X51000Y-152000D02*
G54D13*
D03*
X108000Y-183000D02*
G54D13*
D03*
X108000Y-191000D02*
G54D13*
D03*
G54D14*
X108000Y-183000D02*
X108000Y-191000D01*
X108000Y-310500D01*
G54D14*
X94000Y-70000D02*
X85000Y-61000D01*
X58000Y-61000D01*
X41000Y-78000D01*
G36*
X108000Y-183000D02*
X100000Y-183000D01*
X94000Y-189000D01*
X94000Y-290000D01*
X80000Y-304000D01*
X39000Y-304000D01*
X39000Y-331000D01*
X48000Y-331000D01*
X48000Y-321000D01*
X58000Y-311000D01*
X148000Y-311000D01*
X153000Y-306000D01*
X153000Y-267000D01*
X118000Y-232000D01*
X118000Y-187000D01*
X114000Y-183000D01*
X108000Y-183000D01*
G37*
G54D16*
X108000Y-183000D02*
X100000Y-183000D01*
X94000Y-189000D01*
X94000Y-290000D01*
X80000Y-304000D01*
X39000Y-304000D01*
X39000Y-331000D01*
X48000Y-331000D01*
X48000Y-321000D01*
X58000Y-311000D01*
X148000Y-311000D01*
X153000Y-306000D01*
X153000Y-267000D01*
X118000Y-232000D01*
X118000Y-187000D01*
X114000Y-183000D01*
X108000Y-183000D01*
G36*
X84000Y-196000D02*
X83000Y-196000D01*
X75000Y-204000D01*
X66000Y-204000D01*
X49000Y-221000D01*
X49000Y-233500D01*
X48500Y-234000D01*
X71000Y-234000D01*
X84000Y-221000D01*
X84000Y-196000D01*
G37*
G54D14*
X84000Y-196000D02*
X83000Y-196000D01*
X75000Y-204000D01*
X66000Y-204000D01*
X49000Y-221000D01*
X49000Y-233500D01*
X48500Y-234000D01*
X71000Y-234000D01*
X84000Y-221000D01*
X84000Y-196000D01*
G36*
X40000Y-243000D02*
X68000Y-243000D01*
X80000Y-255000D01*
X80000Y-291000D01*
X52000Y-291000D01*
X40000Y-279000D01*
X40000Y-243000D01*
G37*
G54D14*
X40000Y-243000D02*
X68000Y-243000D01*
X80000Y-255000D01*
X80000Y-291000D01*
X52000Y-291000D01*
X40000Y-279000D01*
X40000Y-243000D01*
G54D14*
X40000Y-239000D02*
X45000Y-244000D01*
G54D14*
X50000Y-137000D02*
X50000Y-138000D01*
X60000Y-148000D01*
X64000Y-148000D01*
X71000Y-141000D01*
G54D14*
X61000Y-114000D02*
X52000Y-114000D01*
X49000Y-111000D01*
X49000Y-104000D01*
G54D14*
X155000Y-112000D02*
X164000Y-112000D01*
X167000Y-109000D01*
G54D14*
X71000Y-326500D02*
X41500Y-326500D01*
X41000Y-327000D01*
G54D14*
X71000Y-326500D02*
X71000Y-308000D01*
G36*
X145000Y-326500D02*
X148500Y-326500D01*
X162000Y-313000D01*
X162000Y-249000D01*
X174000Y-237000D01*
X174000Y-322000D01*
X169000Y-327000D01*
X145500Y-327000D01*
X145000Y-326500D01*
G37*
G54D14*
X145000Y-326500D02*
X148500Y-326500D01*
X162000Y-313000D01*
X162000Y-249000D01*
X174000Y-237000D01*
X174000Y-322000D01*
X169000Y-327000D01*
X145500Y-327000D01*
X145000Y-326500D01*
G54D17*
G75*
G01X131000Y-114000D02*
G03X131000Y-114000I-23000J0D01*
G01*
G36*
X112250Y-74250D02*
X113644Y-60296D01*
X124687Y-62643D01*
X135000Y-67235D01*
X128000Y-79500D01*
X120500Y-76000D01*
X112250Y-74250D01*
G37*
G54D18*
X112250Y-74250D02*
X113644Y-60296D01*
X124687Y-62643D01*
X135000Y-67235D01*
X128000Y-79500D01*
X120500Y-76000D01*
X112250Y-74250D01*
G36*
X135119Y-84234D02*
X144449Y-73765D01*
X152003Y-82154D01*
X157648Y-91931D01*
X144775Y-97739D01*
X140765Y-90499D01*
X135119Y-84234D01*
G37*
G54D18*
X135119Y-84234D02*
X144449Y-73765D01*
X152003Y-82154D01*
X157648Y-91931D01*
X144775Y-97739D01*
X140765Y-90499D01*
X135119Y-84234D01*
G36*
X147170Y-105645D02*
X160872Y-102659D01*
X162052Y-113886D01*
X160872Y-125114D01*
X147044Y-122246D01*
X148055Y-114032D01*
X147170Y-105645D01*
G37*
G54D18*
X147170Y-105645D02*
X160872Y-102659D01*
X162052Y-113886D01*
X160872Y-125114D01*
X147044Y-122246D01*
X148055Y-114032D01*
X147170Y-105645D01*
G36*
X144491Y-130325D02*
X157332Y-135964D01*
X151687Y-145740D01*
X144133Y-154130D01*
X134631Y-143682D01*
X140277Y-137631D01*
X144491Y-130325D01*
G37*
G54D18*
X144491Y-130325D02*
X157332Y-135964D01*
X151687Y-145740D01*
X144133Y-154130D01*
X134631Y-143682D01*
X140277Y-137631D01*
X144491Y-130325D01*
G36*
X128020Y-148712D02*
X135094Y-160821D01*
X124780Y-165413D01*
X113738Y-167760D01*
X112192Y-153723D01*
X120317Y-152146D01*
X128020Y-148712D01*
G37*
G54D18*
X128020Y-148712D02*
X135094Y-160821D01*
X124780Y-165413D01*
X113738Y-167760D01*
X112192Y-153723D01*
X120317Y-152146D01*
X128020Y-148712D01*
G36*
X103777Y-153852D02*
X102383Y-167806D01*
X91340Y-165459D01*
X81027Y-160867D01*
X88027Y-148602D01*
X95527Y-152102D01*
X103777Y-153852D01*
G37*
G54D18*
X103777Y-153852D02*
X102383Y-167806D01*
X91340Y-165459D01*
X81027Y-160867D01*
X88027Y-148602D01*
X95527Y-152102D01*
X103777Y-153852D01*
G36*
X81158Y-143618D02*
X71828Y-154087D01*
X64274Y-145698D01*
X58629Y-135921D01*
X71502Y-130113D01*
X75512Y-137353D01*
X81158Y-143618D01*
G37*
G54D18*
X81158Y-143618D02*
X71828Y-154087D01*
X64274Y-145698D01*
X58629Y-135921D01*
X71502Y-130113D01*
X75512Y-137353D01*
X81158Y-143618D01*
G36*
X68607Y-122457D02*
X54904Y-125443D01*
X53724Y-114216D01*
X54904Y-102988D01*
X68733Y-105856D01*
X67722Y-114070D01*
X68607Y-122457D01*
G37*
G54D18*
X68607Y-122457D02*
X54904Y-125443D01*
X53724Y-114216D01*
X54904Y-102988D01*
X68733Y-105856D01*
X67722Y-114070D01*
X68607Y-122457D01*
G36*
X71509Y-97675D02*
X58668Y-92036D01*
X64313Y-82260D01*
X71867Y-73870D01*
X81369Y-84318D01*
X75723Y-90369D01*
X71509Y-97675D01*
G37*
G54D18*
X71509Y-97675D02*
X58668Y-92036D01*
X64313Y-82260D01*
X71867Y-73870D01*
X81369Y-84318D01*
X75723Y-90369D01*
X71509Y-97675D01*
G36*
X87980Y-79287D02*
X80906Y-67178D01*
X91219Y-62586D01*
X102262Y-60239D01*
X103808Y-74277D01*
X95683Y-75854D01*
X87980Y-79287D01*
G37*
G54D18*
X87980Y-79287D02*
X80906Y-67178D01*
X91219Y-62586D01*
X102262Y-60239D01*
X103808Y-74277D01*
X95683Y-75854D01*
X87980Y-79287D01*
X155000Y-114000D02*
G54D19*
D03*
X62000Y-114000D02*
G54D19*
D03*
G36*
X119111Y-64330D02*
X127670Y-67111D01*
X124889Y-75670D01*
X116330Y-72889D01*
X119111Y-64330D01*
G37*
G36*
X146996Y-80714D02*
X152285Y-87996D01*
X145004Y-93286D01*
X139714Y-86004D01*
X146996Y-80714D01*
G37*
G36*
X152286Y-140005D02*
X146995Y-147286D01*
X139714Y-141995D01*
X145005Y-134714D01*
X152286Y-140005D01*
G37*
G36*
X127670Y-160889D02*
X119111Y-163670D01*
X116330Y-155111D01*
X124889Y-152330D01*
X127670Y-160889D01*
G37*
G36*
X96889Y-163670D02*
X88330Y-160889D01*
X91111Y-152330D01*
X99670Y-155111D01*
X96889Y-163670D01*
G37*
G36*
X70005Y-147286D02*
X64715Y-140004D01*
X71996Y-134714D01*
X77286Y-141996D01*
X70005Y-147286D01*
G37*
G36*
X70005Y-80714D02*
X77286Y-86005D01*
X71995Y-93286D01*
X64714Y-87996D01*
X70005Y-80714D01*
G37*
G36*
X96889Y-64330D02*
X99670Y-72889D01*
X91111Y-75670D01*
X88330Y-67111D01*
X96889Y-64330D01*
G37*
X263000Y-146000D02*
G54D13*
D03*
X321000Y-80000D02*
G54D13*
D03*
G54D14*
X301000Y-87000D02*
X308000Y-80000D01*
X321000Y-80000D01*
X322000Y-109000D02*
G54D13*
D03*
X322000Y-137000D02*
G54D13*
D03*
G54D14*
X301000Y-141000D02*
X305000Y-137000D01*
X322000Y-137000D01*
G54D14*
X263000Y-146000D02*
X263000Y-137000D01*
X281000Y-171000D02*
G54D13*
D03*
X245000Y-170000D02*
G54D13*
D03*
G54D14*
X277000Y-158000D02*
X281000Y-162000D01*
X281000Y-171000D01*
G54D14*
X249000Y-158000D02*
X245000Y-162000D01*
X245000Y-170000D01*
X205000Y-137000D02*
G54D13*
D03*
X204000Y-104000D02*
G54D13*
D03*
X211000Y-78000D02*
G54D13*
D03*
G54D14*
X226000Y-87000D02*
X221000Y-82000D01*
X211000Y-78000D01*
G54D15*
X291500Y-326500D02*
X308500Y-326500D01*
G54D15*
X217500Y-326500D02*
X234500Y-326500D01*
G54D14*
X277000Y-70000D02*
X288000Y-59000D01*
X317000Y-59000D01*
X331000Y-73000D01*
X331000Y-145000D01*
X312000Y-164000D01*
G54D14*
X312000Y-164000D02*
X312000Y-190000D01*
X329000Y-207000D01*
X329000Y-321000D01*
X305000Y-198000D02*
G54D13*
D03*
G54D14*
X305000Y-198000D02*
X305000Y-200700D01*
X317900Y-213600D01*
X317900Y-233900D01*
X318000Y-234000D01*
X317900Y-233900D01*
X318000Y-234000D02*
G54D13*
D03*
X291000Y-226000D02*
G54D13*
D03*
X291000Y-199000D02*
G54D13*
D03*
X299000Y-163000D02*
G54D13*
D03*
G54D14*
X291000Y-199000D02*
X291000Y-226000D01*
G54D14*
X299000Y-165000D02*
X299000Y-168000D01*
X282000Y-185000D01*
X282000Y-229000D01*
X288000Y-235000D01*
X297000Y-235000D01*
X303000Y-229000D01*
X303000Y-229000D02*
G54D13*
D03*
X203500Y-234000D02*
G54D13*
D03*
X226000Y-165000D02*
G54D13*
D03*
G54D14*
X203000Y-234000D02*
X226000Y-234000D01*
X239000Y-221000D01*
X239000Y-178000D01*
X226000Y-165000D01*
G54D16*
X196000Y-80000D02*
X196000Y-167000D01*
X196000Y-167000D02*
G54D13*
D03*
X235000Y-291000D02*
G54D13*
D03*
G54D14*
X235000Y-291000D02*
X235000Y-283000D01*
X195000Y-243000D01*
X195000Y-213000D01*
X214000Y-194000D01*
X214000Y-160000D01*
X206000Y-152000D01*
X206000Y-152000D02*
G54D13*
D03*
X263000Y-183000D02*
G54D13*
D03*
X263000Y-191000D02*
G54D13*
D03*
G54D14*
X263000Y-183000D02*
X263000Y-191000D01*
X263000Y-310500D01*
G54D14*
X249000Y-70000D02*
X240000Y-61000D01*
X213000Y-61000D01*
X196000Y-78000D01*
G36*
X263000Y-183000D02*
X255000Y-183000D01*
X249000Y-189000D01*
X249000Y-290000D01*
X235000Y-304000D01*
X194000Y-304000D01*
X194000Y-331000D01*
X203000Y-331000D01*
X203000Y-321000D01*
X213000Y-311000D01*
X303000Y-311000D01*
X308000Y-306000D01*
X308000Y-267000D01*
X273000Y-232000D01*
X273000Y-187000D01*
X269000Y-183000D01*
X263000Y-183000D01*
G37*
G54D16*
X263000Y-183000D02*
X255000Y-183000D01*
X249000Y-189000D01*
X249000Y-290000D01*
X235000Y-304000D01*
X194000Y-304000D01*
X194000Y-331000D01*
X203000Y-331000D01*
X203000Y-321000D01*
X213000Y-311000D01*
X303000Y-311000D01*
X308000Y-306000D01*
X308000Y-267000D01*
X273000Y-232000D01*
X273000Y-187000D01*
X269000Y-183000D01*
X263000Y-183000D01*
G36*
X239000Y-196000D02*
X238000Y-196000D01*
X230000Y-204000D01*
X221000Y-204000D01*
X204000Y-221000D01*
X204000Y-233500D01*
X203500Y-234000D01*
X226000Y-234000D01*
X239000Y-221000D01*
X239000Y-196000D01*
G37*
G54D14*
X239000Y-196000D02*
X238000Y-196000D01*
X230000Y-204000D01*
X221000Y-204000D01*
X204000Y-221000D01*
X204000Y-233500D01*
X203500Y-234000D01*
X226000Y-234000D01*
X239000Y-221000D01*
X239000Y-196000D01*
G36*
X195000Y-243000D02*
X223000Y-243000D01*
X235000Y-255000D01*
X235000Y-291000D01*
X207000Y-291000D01*
X195000Y-279000D01*
X195000Y-243000D01*
G37*
G54D14*
X195000Y-243000D02*
X223000Y-243000D01*
X235000Y-255000D01*
X235000Y-291000D01*
X207000Y-291000D01*
X195000Y-279000D01*
X195000Y-243000D01*
G54D14*
X195000Y-239000D02*
X200000Y-244000D01*
G54D14*
X205000Y-137000D02*
X205000Y-138000D01*
X215000Y-148000D01*
X219000Y-148000D01*
X226000Y-141000D01*
G54D14*
X216000Y-114000D02*
X207000Y-114000D01*
X204000Y-111000D01*
X204000Y-104000D01*
G54D14*
X310000Y-112000D02*
X319000Y-112000D01*
X322000Y-109000D01*
G54D14*
X226000Y-326500D02*
X196500Y-326500D01*
X196000Y-327000D01*
G54D14*
X226000Y-326500D02*
X226000Y-308000D01*
G36*
X300000Y-326500D02*
X303500Y-326500D01*
X317000Y-313000D01*
X317000Y-249000D01*
X329000Y-237000D01*
X329000Y-322000D01*
X324000Y-327000D01*
X300500Y-327000D01*
X300000Y-326500D01*
G37*
G54D14*
X300000Y-326500D02*
X303500Y-326500D01*
X317000Y-313000D01*
X317000Y-249000D01*
X329000Y-237000D01*
X329000Y-322000D01*
X324000Y-327000D01*
X300500Y-327000D01*
X300000Y-326500D01*
G54D17*
G75*
G01X286000Y-114000D02*
G03X286000Y-114000I-23000J0D01*
G01*
G36*
X267250Y-74250D02*
X268644Y-60296D01*
X279687Y-62643D01*
X290000Y-67235D01*
X283000Y-79500D01*
X275500Y-76000D01*
X267250Y-74250D01*
G37*
G54D18*
X267250Y-74250D02*
X268644Y-60296D01*
X279687Y-62643D01*
X290000Y-67235D01*
X283000Y-79500D01*
X275500Y-76000D01*
X267250Y-74250D01*
G36*
X290119Y-84234D02*
X299449Y-73765D01*
X307003Y-82154D01*
X312648Y-91931D01*
X299775Y-97739D01*
X295765Y-90499D01*
X290119Y-84234D01*
G37*
G54D18*
X290119Y-84234D02*
X299449Y-73765D01*
X307003Y-82154D01*
X312648Y-91931D01*
X299775Y-97739D01*
X295765Y-90499D01*
X290119Y-84234D01*
G36*
X302170Y-105645D02*
X315872Y-102659D01*
X317052Y-113886D01*
X315872Y-125114D01*
X302044Y-122246D01*
X303055Y-114032D01*
X302170Y-105645D01*
G37*
G54D18*
X302170Y-105645D02*
X315872Y-102659D01*
X317052Y-113886D01*
X315872Y-125114D01*
X302044Y-122246D01*
X303055Y-114032D01*
X302170Y-105645D01*
G36*
X299491Y-130325D02*
X312332Y-135964D01*
X306687Y-145740D01*
X299133Y-154130D01*
X289631Y-143682D01*
X295277Y-137631D01*
X299491Y-130325D01*
G37*
G54D18*
X299491Y-130325D02*
X312332Y-135964D01*
X306687Y-145740D01*
X299133Y-154130D01*
X289631Y-143682D01*
X295277Y-137631D01*
X299491Y-130325D01*
G36*
X283020Y-148712D02*
X290094Y-160821D01*
X279780Y-165413D01*
X268738Y-167760D01*
X267192Y-153723D01*
X275317Y-152146D01*
X283020Y-148712D01*
G37*
G54D18*
X283020Y-148712D02*
X290094Y-160821D01*
X279780Y-165413D01*
X268738Y-167760D01*
X267192Y-153723D01*
X275317Y-152146D01*
X283020Y-148712D01*
G36*
X258777Y-153852D02*
X257383Y-167806D01*
X246340Y-165459D01*
X236027Y-160867D01*
X243027Y-148602D01*
X250527Y-152102D01*
X258777Y-153852D01*
G37*
G54D18*
X258777Y-153852D02*
X257383Y-167806D01*
X246340Y-165459D01*
X236027Y-160867D01*
X243027Y-148602D01*
X250527Y-152102D01*
X258777Y-153852D01*
G36*
X236158Y-143618D02*
X226828Y-154087D01*
X219274Y-145698D01*
X213629Y-135921D01*
X226502Y-130113D01*
X230512Y-137353D01*
X236158Y-143618D01*
G37*
G54D18*
X236158Y-143618D02*
X226828Y-154087D01*
X219274Y-145698D01*
X213629Y-135921D01*
X226502Y-130113D01*
X230512Y-137353D01*
X236158Y-143618D01*
G36*
X223607Y-122457D02*
X209904Y-125443D01*
X208724Y-114216D01*
X209904Y-102988D01*
X223733Y-105856D01*
X222722Y-114070D01*
X223607Y-122457D01*
G37*
G54D18*
X223607Y-122457D02*
X209904Y-125443D01*
X208724Y-114216D01*
X209904Y-102988D01*
X223733Y-105856D01*
X222722Y-114070D01*
X223607Y-122457D01*
G36*
X226509Y-97675D02*
X213668Y-92036D01*
X219313Y-82260D01*
X226867Y-73870D01*
X236369Y-84318D01*
X230723Y-90369D01*
X226509Y-97675D01*
G37*
G54D18*
X226509Y-97675D02*
X213668Y-92036D01*
X219313Y-82260D01*
X226867Y-73870D01*
X236369Y-84318D01*
X230723Y-90369D01*
X226509Y-97675D01*
G36*
X242980Y-79287D02*
X235906Y-67178D01*
X246219Y-62586D01*
X257262Y-60239D01*
X258808Y-74277D01*
X250683Y-75854D01*
X242980Y-79287D01*
G37*
G54D18*
X242980Y-79287D02*
X235906Y-67178D01*
X246219Y-62586D01*
X257262Y-60239D01*
X258808Y-74277D01*
X250683Y-75854D01*
X242980Y-79287D01*
X310000Y-114000D02*
G54D19*
D03*
X217000Y-114000D02*
G54D19*
D03*
G36*
X274111Y-64330D02*
X282670Y-67111D01*
X279889Y-75670D01*
X271330Y-72889D01*
X274111Y-64330D01*
G37*
G36*
X301996Y-80714D02*
X307285Y-87996D01*
X300004Y-93286D01*
X294714Y-86004D01*
X301996Y-80714D01*
G37*
G36*
X307286Y-140004D02*
X301995Y-147286D01*
X294714Y-141996D01*
X300005Y-134714D01*
X307286Y-140004D01*
G37*
G36*
X282670Y-160889D02*
X274111Y-163670D01*
X271330Y-155111D01*
X279889Y-152330D01*
X282670Y-160889D01*
G37*
G36*
X251889Y-163670D02*
X243330Y-160889D01*
X246111Y-152330D01*
X254670Y-155111D01*
X251889Y-163670D01*
G37*
G36*
X225005Y-147286D02*
X219715Y-140004D01*
X226996Y-134714D01*
X232286Y-141996D01*
X225005Y-147286D01*
G37*
G36*
X225004Y-80714D02*
X232286Y-86005D01*
X226996Y-93286D01*
X219714Y-87996D01*
X225004Y-80714D01*
G37*
G36*
X251889Y-64330D02*
X254670Y-72889D01*
X246111Y-75670D01*
X243330Y-67111D01*
X251889Y-64330D01*
G37*
X141750Y-418250D02*
G54D13*
D03*
X75750Y-363250D02*
G54D13*
D03*
G54D14*
X82750Y-380250D02*
X75750Y-373250D01*
X75750Y-363250D01*
X87750Y-363250D02*
G54D13*
D03*
X132750Y-364250D02*
G54D13*
D03*
G54D14*
X136750Y-380250D02*
X132750Y-376250D01*
X132750Y-364250D01*
G54D14*
X141750Y-418250D02*
X132750Y-418250D01*
X166750Y-400250D02*
G54D13*
D03*
X165750Y-436250D02*
G54D13*
D03*
G54D14*
X153750Y-404250D02*
X157750Y-400250D01*
X166750Y-400250D01*
G54D14*
X153750Y-432250D02*
X157750Y-436250D01*
X165750Y-436250D01*
X132750Y-476250D02*
G54D13*
D03*
X99750Y-477250D02*
G54D13*
D03*
X73750Y-470250D02*
G54D13*
D03*
G54D14*
X82750Y-455250D02*
X77750Y-460250D01*
X73750Y-470250D01*
G54D15*
X322250Y-389750D02*
X322250Y-372750D01*
G54D15*
X322250Y-463750D02*
X322250Y-446750D01*
G54D14*
X65750Y-404250D02*
X54750Y-393250D01*
X54750Y-364250D01*
X64750Y-354250D01*
X144750Y-354250D01*
X159750Y-369250D01*
G54D14*
X159750Y-369250D02*
X185750Y-369250D01*
X202750Y-352250D01*
X316750Y-352250D01*
X193750Y-376250D02*
G54D13*
D03*
G54D14*
X193750Y-376250D02*
X196450Y-376250D01*
X209350Y-363350D01*
X229650Y-363350D01*
X229750Y-363250D01*
X229650Y-363350D01*
X229750Y-363250D02*
G54D13*
D03*
X221750Y-390250D02*
G54D13*
D03*
X194750Y-390250D02*
G54D13*
D03*
X158750Y-382250D02*
G54D13*
D03*
G54D14*
X194750Y-390250D02*
X221750Y-390250D01*
G54D14*
X160750Y-382250D02*
X163750Y-382250D01*
X180750Y-399250D01*
X224750Y-399250D01*
X230750Y-393250D01*
X230750Y-384250D01*
X224750Y-378250D01*
X224750Y-378250D02*
G54D13*
D03*
X229750Y-477750D02*
G54D13*
D03*
X160750Y-455250D02*
G54D13*
D03*
G54D14*
X229750Y-478250D02*
X229750Y-455250D01*
X216750Y-442250D01*
X173750Y-442250D01*
X160750Y-455250D01*
G54D16*
X75750Y-485250D02*
X162750Y-485250D01*
X162750Y-485250D02*
G54D13*
D03*
X286750Y-446250D02*
G54D13*
D03*
G54D14*
X286750Y-446250D02*
X278750Y-446250D01*
X238750Y-486250D01*
X208750Y-486250D01*
X189750Y-467250D01*
X155750Y-467250D01*
X147750Y-475250D01*
X147750Y-475250D02*
G54D13*
D03*
X178750Y-418250D02*
G54D13*
D03*
X186750Y-418250D02*
G54D13*
D03*
G54D14*
X178750Y-418250D02*
X186750Y-418250D01*
X306250Y-418250D01*
G54D14*
X65750Y-432250D02*
X56750Y-441250D01*
X56750Y-468250D01*
X73750Y-485250D01*
G36*
X178750Y-418250D02*
X178750Y-426250D01*
X184750Y-432250D01*
X285750Y-432250D01*
X299750Y-446250D01*
X299750Y-487250D01*
X326750Y-487250D01*
X326750Y-478250D01*
X316750Y-478250D01*
X306750Y-468250D01*
X306750Y-378250D01*
X301750Y-373250D01*
X262750Y-373250D01*
X227750Y-408250D01*
X182750Y-408250D01*
X178750Y-412250D01*
X178750Y-418250D01*
G37*
G54D16*
X178750Y-418250D02*
X178750Y-426250D01*
X184750Y-432250D01*
X285750Y-432250D01*
X299750Y-446250D01*
X299750Y-487250D01*
X326750Y-487250D01*
X326750Y-478250D01*
X316750Y-478250D01*
X306750Y-468250D01*
X306750Y-378250D01*
X301750Y-373250D01*
X262750Y-373250D01*
X227750Y-408250D01*
X182750Y-408250D01*
X178750Y-412250D01*
X178750Y-418250D01*
G36*
X191750Y-442250D02*
X191750Y-443250D01*
X199750Y-451250D01*
X199750Y-460250D01*
X216750Y-477250D01*
X229250Y-477250D01*
X229750Y-477750D01*
X229750Y-455250D01*
X216750Y-442250D01*
X191750Y-442250D01*
G37*
G54D14*
X191750Y-442250D02*
X191750Y-443250D01*
X199750Y-451250D01*
X199750Y-460250D01*
X216750Y-477250D01*
X229250Y-477250D01*
X229750Y-477750D01*
X229750Y-455250D01*
X216750Y-442250D01*
X191750Y-442250D01*
G36*
X238750Y-486250D02*
X238750Y-458250D01*
X250750Y-446250D01*
X286750Y-446250D01*
X286750Y-474250D01*
X274750Y-486250D01*
X238750Y-486250D01*
G37*
G54D14*
X238750Y-486250D02*
X238750Y-458250D01*
X250750Y-446250D01*
X286750Y-446250D01*
X286750Y-474250D01*
X274750Y-486250D01*
X238750Y-486250D01*
G54D14*
X234750Y-486250D02*
X239750Y-481250D01*
G36*
X149333Y-422292D02*
X161957Y-408286D01*
X161751Y-403191D01*
X158896Y-395651D01*
X155045Y-388832D01*
X149746Y-381958D01*
X147174Y-403900D01*
X149360Y-412045D01*
X149333Y-422292D01*
G37*
G54D18*
X149333Y-422292D02*
X161957Y-408286D01*
X161751Y-403191D01*
X158896Y-395651D01*
X155045Y-388832D01*
X149746Y-381958D01*
X147174Y-403900D01*
X149360Y-412045D01*
X149333Y-422292D01*
G36*
X139394Y-444797D02*
X157839Y-440886D01*
X160668Y-436643D01*
X162789Y-428865D01*
X163682Y-421085D01*
X163436Y-412409D01*
X148457Y-428648D01*
X145438Y-436522D01*
X139394Y-444797D01*
G37*
G54D18*
X139394Y-444797D02*
X157839Y-440886D01*
X160668Y-436643D01*
X162789Y-428865D01*
X163682Y-421085D01*
X163436Y-412409D01*
X148457Y-428648D01*
X145438Y-436522D01*
X139394Y-444797D01*
G36*
X117986Y-457125D02*
X135207Y-464802D01*
X139990Y-463033D01*
X146277Y-457987D01*
X151573Y-452217D01*
X156474Y-445054D01*
X134811Y-449387D01*
X127740Y-453984D01*
X117986Y-457125D01*
G37*
G54D18*
X117986Y-457125D02*
X135207Y-464802D01*
X139990Y-463033D01*
X146277Y-457987D01*
X151573Y-452217D01*
X156474Y-445054D01*
X134811Y-449387D01*
X127740Y-453984D01*
X117986Y-457125D01*
G36*
X93788Y-454844D02*
X103207Y-471178D01*
X108116Y-472557D01*
X116169Y-472171D01*
X123845Y-470616D01*
X132020Y-467701D01*
X111947Y-458474D01*
X103525Y-458036D01*
X93788Y-454844D01*
G37*
G54D18*
X93788Y-454844D02*
X103207Y-471178D01*
X108116Y-472557D01*
X116169Y-472171D01*
X123845Y-470616D01*
X132020Y-467701D01*
X111947Y-458474D01*
X103525Y-458036D01*
X93788Y-454844D01*
G36*
X75366Y-438120D02*
X73386Y-456871D01*
X76546Y-460872D01*
X83288Y-465294D01*
X90412Y-468547D01*
X98739Y-470994D01*
X87924Y-451730D01*
X81367Y-446426D01*
X75366Y-438120D01*
G37*
G54D18*
X75366Y-438120D02*
X73386Y-456871D01*
X76546Y-460872D01*
X83288Y-465294D01*
X90412Y-468547D01*
X98739Y-470994D01*
X87924Y-451730D01*
X81367Y-446426D01*
X75366Y-438120D01*
G36*
X70180Y-414193D02*
X57556Y-428199D01*
X57762Y-433294D01*
X60617Y-440834D01*
X64468Y-447653D01*
X69766Y-454527D01*
X72339Y-432586D01*
X70153Y-424440D01*
X70180Y-414193D01*
G37*
G54D18*
X70180Y-414193D02*
X57556Y-428199D01*
X57762Y-433294D01*
X60617Y-440834D01*
X64468Y-447653D01*
X69766Y-454527D01*
X72339Y-432586D01*
X70153Y-424440D01*
X70180Y-414193D01*
G36*
X80224Y-391677D02*
X61779Y-395588D01*
X58951Y-399831D01*
X56829Y-407609D01*
X55937Y-415390D01*
X56182Y-424065D01*
X71161Y-407826D01*
X74180Y-399952D01*
X80224Y-391677D01*
G37*
G54D18*
X80224Y-391677D02*
X61779Y-395588D01*
X58951Y-399831D01*
X56829Y-407609D01*
X55937Y-415390D01*
X56182Y-424065D01*
X71161Y-407826D01*
X74180Y-399952D01*
X80224Y-391677D01*
G36*
X101016Y-379157D02*
X83922Y-371420D01*
X79421Y-373156D01*
X73133Y-378201D01*
X67838Y-383971D01*
X62937Y-391134D01*
X84600Y-386801D01*
X91671Y-382205D01*
X101016Y-379157D01*
G37*
G54D18*
X101016Y-379157D02*
X83922Y-371420D01*
X79421Y-373156D01*
X73133Y-378201D01*
X67838Y-383971D01*
X62937Y-391134D01*
X84600Y-386801D01*
X91671Y-382205D01*
X101016Y-379157D01*
G36*
X125792Y-381877D02*
X116372Y-365544D01*
X111463Y-364165D01*
X103410Y-364551D01*
X95735Y-366106D01*
X87560Y-369021D01*
X107632Y-378248D01*
X116054Y-378685D01*
X125792Y-381877D01*
G37*
G54D18*
X125792Y-381877D02*
X116372Y-365544D01*
X111463Y-364165D01*
X103410Y-364551D01*
X95735Y-366106D01*
X87560Y-369021D01*
X107632Y-378248D01*
X116054Y-378685D01*
X125792Y-381877D01*
G36*
X144148Y-398365D02*
X146127Y-379614D01*
X142967Y-375613D01*
X136225Y-371192D01*
X129101Y-367938D01*
X120774Y-365491D01*
X131590Y-384755D01*
X138146Y-390059D01*
X144148Y-398365D01*
G37*
G54D18*
X144148Y-398365D02*
X146127Y-379614D01*
X142967Y-375613D01*
X136225Y-371192D01*
X129101Y-367938D01*
X120774Y-365491D01*
X131590Y-384755D01*
X138146Y-390059D01*
X144148Y-398365D01*
X136750Y-380250D02*
G54D19*
D03*
X107750Y-371250D02*
G54D19*
D03*
X81750Y-380250D02*
G54D19*
D03*
X64750Y-404250D02*
G54D19*
D03*
X64750Y-433250D02*
G54D19*
D03*
X82750Y-456250D02*
G54D19*
D03*
X109750Y-465250D02*
G54D19*
D03*
X136750Y-455250D02*
G54D19*
D03*
X153750Y-432250D02*
G54D19*
D03*
X153750Y-403250D02*
G54D19*
D03*
G54D17*
G75*
G01X132750Y-418250D02*
G03X132750Y-418250I-23000J0D01*
G01*
G54D14*
X132750Y-476250D02*
X133750Y-476250D01*
X143750Y-466250D01*
X143750Y-462250D01*
X136750Y-455250D01*
G54D14*
X109750Y-465250D02*
X109750Y-474250D01*
X106750Y-477250D01*
X99750Y-477250D01*
G54D14*
X322250Y-455250D02*
X322250Y-484750D01*
X322750Y-485250D01*
G54D14*
X322250Y-455250D02*
X303750Y-455250D01*
G36*
X322250Y-381250D02*
X322250Y-377750D01*
X308750Y-364250D01*
X244750Y-364250D01*
X232750Y-352250D01*
X317750Y-352250D01*
X322750Y-357250D01*
X322750Y-380750D01*
X322250Y-381250D01*
G37*
G54D14*
X322250Y-381250D02*
X322250Y-377750D01*
X308750Y-364250D01*
X244750Y-364250D01*
X232750Y-352250D01*
X317750Y-352250D01*
X322750Y-357250D01*
X322750Y-380750D01*
X322250Y-381250D01*
G54D14*
X87750Y-363250D02*
X92750Y-368250D01*
X419000Y-146000D02*
G54D13*
D03*
X474000Y-80000D02*
G54D13*
D03*
G54D14*
X457000Y-87000D02*
X464000Y-80000D01*
X474000Y-80000D01*
X474000Y-92000D02*
G54D13*
D03*
X473000Y-137000D02*
G54D13*
D03*
G54D14*
X457000Y-141000D02*
X461000Y-137000D01*
X473000Y-137000D01*
G54D14*
X419000Y-146000D02*
X419000Y-137000D01*
X437000Y-171000D02*
G54D13*
D03*
X401000Y-170000D02*
G54D13*
D03*
G54D14*
X433000Y-158000D02*
X437000Y-162000D01*
X437000Y-171000D01*
G54D14*
X405000Y-158000D02*
X401000Y-162000D01*
X401000Y-170000D01*
X361000Y-137000D02*
G54D13*
D03*
X360000Y-104000D02*
G54D13*
D03*
X367000Y-78000D02*
G54D13*
D03*
G54D14*
X382000Y-87000D02*
X377000Y-82000D01*
X367000Y-78000D01*
G54D15*
X447500Y-326500D02*
X464500Y-326500D01*
G54D15*
X373500Y-326500D02*
X390500Y-326500D01*
G54D14*
X433000Y-70000D02*
X444000Y-59000D01*
X473000Y-59000D01*
X483000Y-69000D01*
X483000Y-149000D01*
X468000Y-164000D01*
G54D14*
X468000Y-164000D02*
X468000Y-190000D01*
X485000Y-207000D01*
X485000Y-321000D01*
X461000Y-198000D02*
G54D13*
D03*
G54D14*
X461000Y-198000D02*
X461000Y-200700D01*
X473900Y-213600D01*
X473900Y-233900D01*
X474000Y-234000D01*
X473900Y-233900D01*
X474000Y-234000D02*
G54D13*
D03*
X447000Y-226000D02*
G54D13*
D03*
X447000Y-199000D02*
G54D13*
D03*
X455000Y-163000D02*
G54D13*
D03*
G54D14*
X447000Y-199000D02*
X447000Y-226000D01*
G54D14*
X455000Y-165000D02*
X455000Y-168000D01*
X438000Y-185000D01*
X438000Y-229000D01*
X444000Y-235000D01*
X453000Y-235000D01*
X459000Y-229000D01*
X459000Y-229000D02*
G54D13*
D03*
X359500Y-234000D02*
G54D13*
D03*
X382000Y-165000D02*
G54D13*
D03*
G54D14*
X359000Y-234000D02*
X382000Y-234000D01*
X395000Y-221000D01*
X395000Y-178000D01*
X382000Y-165000D01*
G54D16*
X352000Y-80000D02*
X352000Y-167000D01*
X352000Y-167000D02*
G54D13*
D03*
X391000Y-291000D02*
G54D13*
D03*
G54D14*
X391000Y-291000D02*
X391000Y-283000D01*
X351000Y-243000D01*
X351000Y-213000D01*
X370000Y-194000D01*
X370000Y-160000D01*
X362000Y-152000D01*
X362000Y-152000D02*
G54D13*
D03*
X419000Y-183000D02*
G54D13*
D03*
X419000Y-191000D02*
G54D13*
D03*
G54D14*
X419000Y-183000D02*
X419000Y-191000D01*
X419000Y-310500D01*
G54D14*
X405000Y-70000D02*
X396000Y-61000D01*
X369000Y-61000D01*
X352000Y-78000D01*
G36*
X419000Y-183000D02*
X411000Y-183000D01*
X405000Y-189000D01*
X405000Y-290000D01*
X391000Y-304000D01*
X350000Y-304000D01*
X350000Y-331000D01*
X359000Y-331000D01*
X359000Y-321000D01*
X369000Y-311000D01*
X459000Y-311000D01*
X464000Y-306000D01*
X464000Y-267000D01*
X429000Y-232000D01*
X429000Y-187000D01*
X425000Y-183000D01*
X419000Y-183000D01*
G37*
G54D16*
X419000Y-183000D02*
X411000Y-183000D01*
X405000Y-189000D01*
X405000Y-290000D01*
X391000Y-304000D01*
X350000Y-304000D01*
X350000Y-331000D01*
X359000Y-331000D01*
X359000Y-321000D01*
X369000Y-311000D01*
X459000Y-311000D01*
X464000Y-306000D01*
X464000Y-267000D01*
X429000Y-232000D01*
X429000Y-187000D01*
X425000Y-183000D01*
X419000Y-183000D01*
G36*
X395000Y-196000D02*
X394000Y-196000D01*
X386000Y-204000D01*
X377000Y-204000D01*
X360000Y-221000D01*
X360000Y-233500D01*
X359500Y-234000D01*
X382000Y-234000D01*
X395000Y-221000D01*
X395000Y-196000D01*
G37*
G54D14*
X395000Y-196000D02*
X394000Y-196000D01*
X386000Y-204000D01*
X377000Y-204000D01*
X360000Y-221000D01*
X360000Y-233500D01*
X359500Y-234000D01*
X382000Y-234000D01*
X395000Y-221000D01*
X395000Y-196000D01*
G36*
X351000Y-243000D02*
X379000Y-243000D01*
X391000Y-255000D01*
X391000Y-291000D01*
X363000Y-291000D01*
X351000Y-279000D01*
X351000Y-243000D01*
G37*
G54D14*
X351000Y-243000D02*
X379000Y-243000D01*
X391000Y-255000D01*
X391000Y-291000D01*
X363000Y-291000D01*
X351000Y-279000D01*
X351000Y-243000D01*
G54D14*
X351000Y-239000D02*
X356000Y-244000D01*
G36*
X414958Y-153583D02*
X428964Y-166207D01*
X434059Y-166001D01*
X441599Y-163146D01*
X448418Y-159295D01*
X455292Y-153996D01*
X433350Y-151424D01*
X425205Y-153610D01*
X414958Y-153583D01*
G37*
G54D18*
X414958Y-153583D02*
X428964Y-166207D01*
X434059Y-166001D01*
X441599Y-163146D01*
X448418Y-159295D01*
X455292Y-153996D01*
X433350Y-151424D01*
X425205Y-153610D01*
X414958Y-153583D01*
G36*
X392453Y-143644D02*
X396364Y-162089D01*
X400607Y-164918D01*
X408385Y-167039D01*
X416165Y-167932D01*
X424841Y-167686D01*
X408602Y-152707D01*
X400728Y-149688D01*
X392453Y-143644D01*
G37*
G54D18*
X392453Y-143644D02*
X396364Y-162089D01*
X400607Y-164918D01*
X408385Y-167039D01*
X416165Y-167932D01*
X424841Y-167686D01*
X408602Y-152707D01*
X400728Y-149688D01*
X392453Y-143644D01*
G36*
X380125Y-122236D02*
X372448Y-139457D01*
X374217Y-144239D01*
X379263Y-150527D01*
X385033Y-155823D01*
X392196Y-160724D01*
X387863Y-139061D01*
X383266Y-131990D01*
X380125Y-122236D01*
G37*
G54D18*
X380125Y-122236D02*
X372448Y-139457D01*
X374217Y-144239D01*
X379263Y-150527D01*
X385033Y-155823D01*
X392196Y-160724D01*
X387863Y-139061D01*
X383266Y-131990D01*
X380125Y-122236D01*
G36*
X382406Y-98038D02*
X366072Y-107457D01*
X364693Y-112366D01*
X365079Y-120419D01*
X366634Y-128095D01*
X369549Y-136270D01*
X378776Y-116197D01*
X379214Y-107775D01*
X382406Y-98038D01*
G37*
G54D18*
X382406Y-98038D02*
X366072Y-107457D01*
X364693Y-112366D01*
X365079Y-120419D01*
X366634Y-128095D01*
X369549Y-136270D01*
X378776Y-116197D01*
X379214Y-107775D01*
X382406Y-98038D01*
G36*
X399130Y-79616D02*
X380379Y-77636D01*
X376378Y-80796D01*
X371956Y-87538D01*
X368703Y-94662D01*
X366256Y-102989D01*
X385520Y-92174D01*
X390824Y-85617D01*
X399130Y-79616D01*
G37*
G54D18*
X399130Y-79616D02*
X380379Y-77636D01*
X376378Y-80796D01*
X371956Y-87538D01*
X368703Y-94662D01*
X366256Y-102989D01*
X385520Y-92174D01*
X390824Y-85617D01*
X399130Y-79616D01*
G36*
X423057Y-74430D02*
X409051Y-61806D01*
X403956Y-62012D01*
X396416Y-64867D01*
X389597Y-68718D01*
X382723Y-74017D01*
X404664Y-76589D01*
X412810Y-74403D01*
X423057Y-74430D01*
G37*
G54D18*
X423057Y-74430D02*
X409051Y-61806D01*
X403956Y-62012D01*
X396416Y-64867D01*
X389597Y-68718D01*
X382723Y-74017D01*
X404664Y-76589D01*
X412810Y-74403D01*
X423057Y-74430D01*
G36*
X445573Y-84474D02*
X441662Y-66029D01*
X437419Y-63201D01*
X429641Y-61079D01*
X421860Y-60187D01*
X413185Y-60432D01*
X429424Y-75411D01*
X437298Y-78430D01*
X445573Y-84474D01*
G37*
G54D18*
X445573Y-84474D02*
X441662Y-66029D01*
X437419Y-63201D01*
X429641Y-61079D01*
X421860Y-60187D01*
X413185Y-60432D01*
X429424Y-75411D01*
X437298Y-78430D01*
X445573Y-84474D01*
G36*
X458093Y-105266D02*
X465830Y-88172D01*
X464094Y-83671D01*
X459049Y-77383D01*
X453279Y-72088D01*
X446116Y-67187D01*
X450449Y-88850D01*
X455045Y-95921D01*
X458093Y-105266D01*
G37*
G54D18*
X458093Y-105266D02*
X465830Y-88172D01*
X464094Y-83671D01*
X459049Y-77383D01*
X453279Y-72088D01*
X446116Y-67187D01*
X450449Y-88850D01*
X455045Y-95921D01*
X458093Y-105266D01*
G36*
X455373Y-130042D02*
X471706Y-120622D01*
X473086Y-115713D01*
X472700Y-107660D01*
X471144Y-99985D01*
X468229Y-91810D01*
X459002Y-111882D01*
X458565Y-120304D01*
X455373Y-130042D01*
G37*
G54D18*
X455373Y-130042D02*
X471706Y-120622D01*
X473086Y-115713D01*
X472700Y-107660D01*
X471144Y-99985D01*
X468229Y-91810D01*
X459002Y-111882D01*
X458565Y-120304D01*
X455373Y-130042D01*
G36*
X438885Y-148398D02*
X457636Y-150377D01*
X461637Y-147217D01*
X466058Y-140475D01*
X469312Y-133351D01*
X471759Y-125024D01*
X452495Y-135840D01*
X447191Y-142396D01*
X438885Y-148398D01*
G37*
G54D18*
X438885Y-148398D02*
X457636Y-150377D01*
X461637Y-147217D01*
X466058Y-140475D01*
X469312Y-133351D01*
X471759Y-125024D01*
X452495Y-135840D01*
X447191Y-142396D01*
X438885Y-148398D01*
X457000Y-141000D02*
G54D19*
D03*
X466000Y-112000D02*
G54D19*
D03*
X457000Y-86000D02*
G54D19*
D03*
X433000Y-69000D02*
G54D19*
D03*
X404000Y-69000D02*
G54D19*
D03*
X381000Y-87000D02*
G54D19*
D03*
X372000Y-114000D02*
G54D19*
D03*
X382000Y-141000D02*
G54D19*
D03*
X405000Y-158000D02*
G54D19*
D03*
X434000Y-158000D02*
G54D19*
D03*
G54D17*
G75*
G01X442000Y-114000D02*
G03X442000Y-114000I-23000J0D01*
G01*
G54D14*
X361000Y-137000D02*
X361000Y-138000D01*
X371000Y-148000D01*
X375000Y-148000D01*
X382000Y-141000D01*
G54D14*
X372000Y-114000D02*
X363000Y-114000D01*
X360000Y-111000D01*
X360000Y-104000D01*
G54D14*
X382000Y-326500D02*
X352500Y-326500D01*
X352000Y-327000D01*
G54D14*
X382000Y-326500D02*
X382000Y-308000D01*
G36*
X456000Y-326500D02*
X459500Y-326500D01*
X473000Y-313000D01*
X473000Y-249000D01*
X485000Y-237000D01*
X485000Y-322000D01*
X480000Y-327000D01*
X456500Y-327000D01*
X456000Y-326500D01*
G37*
G54D14*
X456000Y-326500D02*
X459500Y-326500D01*
X473000Y-313000D01*
X473000Y-249000D01*
X485000Y-237000D01*
X485000Y-322000D01*
X480000Y-327000D01*
X456500Y-327000D01*
X456000Y-326500D01*
G54D14*
X474000Y-92000D02*
X469000Y-97000D01*
M02*
