%FSLAX34Y34*%
%MOMM*%
%LNCOPPER_TOP*%
G71*
G01*
%ADD10C, 0.700*%
%ADD11C, 0.600*%
%ADD12C, 1.700*%
%ADD13C, 0.500*%
%ADD14C, 0.150*%
%ADD15R, 0.900X0.900*%
%ADD16C, 1.500*%
%LPD*%
X84000Y-116000D02*
G54D10*
D03*
X139000Y-50000D02*
G54D10*
D03*
G54D11*
X122000Y-57000D02*
X129000Y-50000D01*
X139000Y-50000D01*
X139000Y-62000D02*
G54D10*
D03*
X138000Y-107000D02*
G54D10*
D03*
G54D11*
X122000Y-111000D02*
X126000Y-107000D01*
X138000Y-107000D01*
G54D11*
X84000Y-116000D02*
X84000Y-107000D01*
X102000Y-141000D02*
G54D10*
D03*
X66000Y-140000D02*
G54D10*
D03*
G54D11*
X98000Y-128000D02*
X102000Y-132000D01*
X102000Y-141000D01*
G54D11*
X70000Y-128000D02*
X66000Y-132000D01*
X66000Y-140000D01*
X26000Y-107000D02*
G54D10*
D03*
X25000Y-74000D02*
G54D10*
D03*
X32000Y-48000D02*
G54D10*
D03*
G54D11*
X47000Y-57000D02*
X42000Y-52000D01*
X32000Y-48000D01*
G54D12*
X112500Y-296500D02*
X129500Y-296500D01*
G54D12*
X38500Y-296500D02*
X55500Y-296500D01*
G54D11*
X98000Y-40000D02*
X109000Y-29000D01*
X138000Y-29000D01*
X148000Y-39000D01*
X148000Y-119000D01*
X133000Y-134000D01*
G54D11*
X133000Y-134000D02*
X133000Y-160000D01*
X150000Y-177000D01*
X150000Y-291000D01*
X126000Y-168000D02*
G54D10*
D03*
G54D11*
X126000Y-168000D02*
X126000Y-170700D01*
X138900Y-183600D01*
X138900Y-203900D01*
X139000Y-204000D01*
X138900Y-203900D01*
X139000Y-204000D02*
G54D10*
D03*
X112000Y-196000D02*
G54D10*
D03*
X112000Y-169000D02*
G54D10*
D03*
X120000Y-133000D02*
G54D10*
D03*
G54D11*
X112000Y-169000D02*
X112000Y-196000D01*
G54D11*
X120000Y-135000D02*
X120000Y-138000D01*
X103000Y-155000D01*
X103000Y-199000D01*
X109000Y-205000D01*
X118000Y-205000D01*
X124000Y-199000D01*
X124000Y-199000D02*
G54D10*
D03*
X24500Y-204000D02*
G54D10*
D03*
X47000Y-135000D02*
G54D10*
D03*
G54D11*
X24000Y-204000D02*
X47000Y-204000D01*
X60000Y-191000D01*
X60000Y-148000D01*
X47000Y-135000D01*
G54D13*
X17000Y-50000D02*
X17000Y-137000D01*
X17000Y-137000D02*
G54D10*
D03*
X56000Y-261000D02*
G54D10*
D03*
G54D11*
X56000Y-261000D02*
X56000Y-253000D01*
X16000Y-213000D01*
X16000Y-183000D01*
X35000Y-164000D01*
X35000Y-130000D01*
X27000Y-122000D01*
X27000Y-122000D02*
G54D10*
D03*
X84000Y-153000D02*
G54D10*
D03*
X84000Y-161000D02*
G54D10*
D03*
G54D11*
X84000Y-153000D02*
X84000Y-161000D01*
X84000Y-280500D01*
G54D11*
X70000Y-40000D02*
X61000Y-31000D01*
X34000Y-31000D01*
X17000Y-48000D01*
G36*
X84000Y-153000D02*
X76000Y-153000D01*
X70000Y-159000D01*
X70000Y-260000D01*
X56000Y-274000D01*
X15000Y-274000D01*
X15000Y-301000D01*
X24000Y-301000D01*
X24000Y-291000D01*
X34000Y-281000D01*
X124000Y-281000D01*
X129000Y-276000D01*
X129000Y-237000D01*
X94000Y-202000D01*
X94000Y-157000D01*
X90000Y-153000D01*
X84000Y-153000D01*
G37*
G54D13*
X84000Y-153000D02*
X76000Y-153000D01*
X70000Y-159000D01*
X70000Y-260000D01*
X56000Y-274000D01*
X15000Y-274000D01*
X15000Y-301000D01*
X24000Y-301000D01*
X24000Y-291000D01*
X34000Y-281000D01*
X124000Y-281000D01*
X129000Y-276000D01*
X129000Y-237000D01*
X94000Y-202000D01*
X94000Y-157000D01*
X90000Y-153000D01*
X84000Y-153000D01*
G36*
X60000Y-166000D02*
X59000Y-166000D01*
X51000Y-174000D01*
X42000Y-174000D01*
X25000Y-191000D01*
X25000Y-203500D01*
X24500Y-204000D01*
X47000Y-204000D01*
X60000Y-191000D01*
X60000Y-166000D01*
G37*
G54D11*
X60000Y-166000D02*
X59000Y-166000D01*
X51000Y-174000D01*
X42000Y-174000D01*
X25000Y-191000D01*
X25000Y-203500D01*
X24500Y-204000D01*
X47000Y-204000D01*
X60000Y-191000D01*
X60000Y-166000D01*
G36*
X16000Y-213000D02*
X44000Y-213000D01*
X56000Y-225000D01*
X56000Y-261000D01*
X28000Y-261000D01*
X16000Y-249000D01*
X16000Y-213000D01*
G37*
G54D11*
X16000Y-213000D02*
X44000Y-213000D01*
X56000Y-225000D01*
X56000Y-261000D01*
X28000Y-261000D01*
X16000Y-249000D01*
X16000Y-213000D01*
G54D11*
X16000Y-209000D02*
X21000Y-214000D01*
G36*
X79958Y-123583D02*
X93964Y-136207D01*
X99059Y-136001D01*
X106599Y-133146D01*
X113418Y-129295D01*
X120292Y-123996D01*
X98350Y-121424D01*
X90205Y-123610D01*
X79958Y-123583D01*
G37*
G54D14*
X79958Y-123583D02*
X93964Y-136207D01*
X99059Y-136001D01*
X106599Y-133146D01*
X113418Y-129295D01*
X120292Y-123996D01*
X98350Y-121424D01*
X90205Y-123610D01*
X79958Y-123583D01*
G36*
X57453Y-113644D02*
X61364Y-132089D01*
X65607Y-134918D01*
X73385Y-137039D01*
X81165Y-137932D01*
X89841Y-137686D01*
X73602Y-122707D01*
X65728Y-119688D01*
X57453Y-113644D01*
G37*
G54D14*
X57453Y-113644D02*
X61364Y-132089D01*
X65607Y-134918D01*
X73385Y-137039D01*
X81165Y-137932D01*
X89841Y-137686D01*
X73602Y-122707D01*
X65728Y-119688D01*
X57453Y-113644D01*
G36*
X45125Y-92236D02*
X37448Y-109457D01*
X39217Y-114239D01*
X44263Y-120527D01*
X50033Y-125823D01*
X57196Y-130724D01*
X52863Y-109061D01*
X48266Y-101990D01*
X45125Y-92236D01*
G37*
G54D14*
X45125Y-92236D02*
X37448Y-109457D01*
X39217Y-114239D01*
X44263Y-120527D01*
X50033Y-125823D01*
X57196Y-130724D01*
X52863Y-109061D01*
X48266Y-101990D01*
X45125Y-92236D01*
G36*
X47406Y-68038D02*
X31072Y-77457D01*
X29693Y-82366D01*
X30079Y-90419D01*
X31634Y-98095D01*
X34549Y-106270D01*
X43776Y-86197D01*
X44214Y-77775D01*
X47406Y-68038D01*
G37*
G54D14*
X47406Y-68038D02*
X31072Y-77457D01*
X29693Y-82366D01*
X30079Y-90419D01*
X31634Y-98095D01*
X34549Y-106270D01*
X43776Y-86197D01*
X44214Y-77775D01*
X47406Y-68038D01*
G36*
X64130Y-49616D02*
X45379Y-47636D01*
X41378Y-50796D01*
X36956Y-57538D01*
X33703Y-64662D01*
X31256Y-72989D01*
X50520Y-62174D01*
X55824Y-55617D01*
X64130Y-49616D01*
G37*
G54D14*
X64130Y-49616D02*
X45379Y-47636D01*
X41378Y-50796D01*
X36956Y-57538D01*
X33703Y-64662D01*
X31256Y-72989D01*
X50520Y-62174D01*
X55824Y-55617D01*
X64130Y-49616D01*
G36*
X88057Y-44430D02*
X74051Y-31806D01*
X68956Y-32012D01*
X61416Y-34867D01*
X54597Y-38718D01*
X47723Y-44016D01*
X69664Y-46589D01*
X77810Y-44403D01*
X88057Y-44430D01*
G37*
G54D14*
X88057Y-44430D02*
X74051Y-31806D01*
X68956Y-32012D01*
X61416Y-34867D01*
X54597Y-38718D01*
X47723Y-44016D01*
X69664Y-46589D01*
X77810Y-44403D01*
X88057Y-44430D01*
G36*
X110572Y-54474D02*
X106662Y-36029D01*
X102419Y-33201D01*
X94641Y-31079D01*
X86860Y-30187D01*
X78185Y-30432D01*
X94424Y-45411D01*
X102298Y-48430D01*
X110572Y-54474D01*
G37*
G54D14*
X110572Y-54474D02*
X106662Y-36029D01*
X102419Y-33201D01*
X94641Y-31079D01*
X86860Y-30187D01*
X78185Y-30432D01*
X94424Y-45411D01*
X102298Y-48430D01*
X110572Y-54474D01*
G36*
X123093Y-75266D02*
X130830Y-58172D01*
X129094Y-53671D01*
X124048Y-47383D01*
X118279Y-42088D01*
X111116Y-37187D01*
X115449Y-58850D01*
X120045Y-65921D01*
X123093Y-75266D01*
G37*
G54D14*
X123093Y-75266D02*
X130830Y-58172D01*
X129094Y-53671D01*
X124048Y-47383D01*
X118279Y-42088D01*
X111116Y-37187D01*
X115449Y-58850D01*
X120045Y-65921D01*
X123093Y-75266D01*
G36*
X120373Y-100042D02*
X136706Y-90622D01*
X138085Y-85713D01*
X137699Y-77660D01*
X136144Y-69985D01*
X133229Y-61810D01*
X124002Y-81882D01*
X123564Y-90304D01*
X120373Y-100042D01*
G37*
G54D14*
X120373Y-100042D02*
X136706Y-90622D01*
X138085Y-85713D01*
X137699Y-77660D01*
X136144Y-69985D01*
X133229Y-61810D01*
X124002Y-81882D01*
X123564Y-90304D01*
X120373Y-100042D01*
G36*
X103885Y-118398D02*
X122636Y-120377D01*
X126637Y-117217D01*
X131058Y-110475D01*
X134312Y-103351D01*
X136759Y-95024D01*
X117495Y-105840D01*
X112191Y-112396D01*
X103885Y-118398D01*
G37*
G54D14*
X103885Y-118398D02*
X122636Y-120377D01*
X126637Y-117217D01*
X131058Y-110475D01*
X134312Y-103351D01*
X136759Y-95024D01*
X117495Y-105840D01*
X112191Y-112396D01*
X103885Y-118398D01*
X122000Y-111000D02*
G54D15*
D03*
X131000Y-82000D02*
G54D15*
D03*
X122000Y-56000D02*
G54D15*
D03*
X98000Y-39000D02*
G54D15*
D03*
X69000Y-39000D02*
G54D15*
D03*
X46000Y-57000D02*
G54D15*
D03*
X37000Y-84000D02*
G54D15*
D03*
X47000Y-111000D02*
G54D15*
D03*
X70000Y-128000D02*
G54D15*
D03*
X99000Y-128000D02*
G54D15*
D03*
G54D16*
G75*
G01X107000Y-84000D02*
G03X107000Y-84000I-23000J0D01*
G01*
G54D11*
X26000Y-107000D02*
X26000Y-108000D01*
X36000Y-118000D01*
X40000Y-118000D01*
X47000Y-111000D01*
G54D11*
X37000Y-84000D02*
X28000Y-84000D01*
X25000Y-81000D01*
X25000Y-74000D01*
G54D11*
X47000Y-296500D02*
X17500Y-296500D01*
X17000Y-297000D01*
G54D11*
X47000Y-296500D02*
X47000Y-278000D01*
G36*
X121000Y-296500D02*
X124500Y-296500D01*
X138000Y-283000D01*
X138000Y-219000D01*
X150000Y-207000D01*
X150000Y-292000D01*
X145000Y-297000D01*
X121500Y-297000D01*
X121000Y-296500D01*
G37*
G54D11*
X121000Y-296500D02*
X124500Y-296500D01*
X138000Y-283000D01*
X138000Y-219000D01*
X150000Y-207000D01*
X150000Y-292000D01*
X145000Y-297000D01*
X121500Y-297000D01*
X121000Y-296500D01*
G54D11*
X139000Y-62000D02*
X134000Y-67000D01*
X239000Y-116000D02*
G54D10*
D03*
X294000Y-50000D02*
G54D10*
D03*
G54D11*
X277000Y-57000D02*
X284000Y-50000D01*
X294000Y-50000D01*
X294000Y-62000D02*
G54D10*
D03*
X293000Y-107000D02*
G54D10*
D03*
G54D11*
X277000Y-111000D02*
X281000Y-107000D01*
X293000Y-107000D01*
G54D11*
X239000Y-116000D02*
X239000Y-107000D01*
X257000Y-141000D02*
G54D10*
D03*
X221000Y-140000D02*
G54D10*
D03*
G54D11*
X253000Y-128000D02*
X257000Y-132000D01*
X257000Y-141000D01*
G54D11*
X225000Y-128000D02*
X221000Y-132000D01*
X221000Y-140000D01*
X181000Y-107000D02*
G54D10*
D03*
X180000Y-74000D02*
G54D10*
D03*
X187000Y-48000D02*
G54D10*
D03*
G54D11*
X202000Y-57000D02*
X197000Y-52000D01*
X187000Y-48000D01*
G54D12*
X267500Y-296500D02*
X284500Y-296500D01*
G54D12*
X193500Y-296500D02*
X210500Y-296500D01*
G54D11*
X253000Y-40000D02*
X264000Y-29000D01*
X293000Y-29000D01*
X303000Y-39000D01*
X303000Y-119000D01*
X288000Y-134000D01*
G54D11*
X288000Y-134000D02*
X288000Y-160000D01*
X305000Y-177000D01*
X305000Y-291000D01*
X281000Y-168000D02*
G54D10*
D03*
G54D11*
X281000Y-168000D02*
X281000Y-170700D01*
X293900Y-183600D01*
X293900Y-203900D01*
X294000Y-204000D01*
X293900Y-203900D01*
X294000Y-204000D02*
G54D10*
D03*
X267000Y-196000D02*
G54D10*
D03*
X267000Y-169000D02*
G54D10*
D03*
X275000Y-133000D02*
G54D10*
D03*
G54D11*
X267000Y-169000D02*
X267000Y-196000D01*
G54D11*
X275000Y-135000D02*
X275000Y-138000D01*
X258000Y-155000D01*
X258000Y-199000D01*
X264000Y-205000D01*
X273000Y-205000D01*
X279000Y-199000D01*
X279000Y-199000D02*
G54D10*
D03*
X179500Y-204000D02*
G54D10*
D03*
X202000Y-135000D02*
G54D10*
D03*
G54D11*
X179000Y-204000D02*
X202000Y-204000D01*
X215000Y-191000D01*
X215000Y-148000D01*
X202000Y-135000D01*
G54D13*
X172000Y-50000D02*
X172000Y-137000D01*
X172000Y-137000D02*
G54D10*
D03*
X211000Y-261000D02*
G54D10*
D03*
G54D11*
X211000Y-261000D02*
X211000Y-253000D01*
X171000Y-213000D01*
X171000Y-183000D01*
X190000Y-164000D01*
X190000Y-130000D01*
X182000Y-122000D01*
X182000Y-122000D02*
G54D10*
D03*
X239000Y-153000D02*
G54D10*
D03*
X239000Y-161000D02*
G54D10*
D03*
G54D11*
X239000Y-153000D02*
X239000Y-161000D01*
X239000Y-280500D01*
G54D11*
X225000Y-40000D02*
X216000Y-31000D01*
X189000Y-31000D01*
X172000Y-48000D01*
G36*
X239000Y-153000D02*
X231000Y-153000D01*
X225000Y-159000D01*
X225000Y-260000D01*
X211000Y-274000D01*
X170000Y-274000D01*
X170000Y-301000D01*
X179000Y-301000D01*
X179000Y-291000D01*
X189000Y-281000D01*
X279000Y-281000D01*
X284000Y-276000D01*
X284000Y-237000D01*
X249000Y-202000D01*
X249000Y-157000D01*
X245000Y-153000D01*
X239000Y-153000D01*
G37*
G54D13*
X239000Y-153000D02*
X231000Y-153000D01*
X225000Y-159000D01*
X225000Y-260000D01*
X211000Y-274000D01*
X170000Y-274000D01*
X170000Y-301000D01*
X179000Y-301000D01*
X179000Y-291000D01*
X189000Y-281000D01*
X279000Y-281000D01*
X284000Y-276000D01*
X284000Y-237000D01*
X249000Y-202000D01*
X249000Y-157000D01*
X245000Y-153000D01*
X239000Y-153000D01*
G36*
X215000Y-166000D02*
X214000Y-166000D01*
X206000Y-174000D01*
X197000Y-174000D01*
X180000Y-191000D01*
X180000Y-203500D01*
X179500Y-204000D01*
X202000Y-204000D01*
X215000Y-191000D01*
X215000Y-166000D01*
G37*
G54D11*
X215000Y-166000D02*
X214000Y-166000D01*
X206000Y-174000D01*
X197000Y-174000D01*
X180000Y-191000D01*
X180000Y-203500D01*
X179500Y-204000D01*
X202000Y-204000D01*
X215000Y-191000D01*
X215000Y-166000D01*
G36*
X171000Y-213000D02*
X199000Y-213000D01*
X211000Y-225000D01*
X211000Y-261000D01*
X183000Y-261000D01*
X171000Y-249000D01*
X171000Y-213000D01*
G37*
G54D11*
X171000Y-213000D02*
X199000Y-213000D01*
X211000Y-225000D01*
X211000Y-261000D01*
X183000Y-261000D01*
X171000Y-249000D01*
X171000Y-213000D01*
G54D11*
X171000Y-209000D02*
X176000Y-214000D01*
G36*
X234958Y-123583D02*
X248964Y-136207D01*
X254059Y-136001D01*
X261599Y-133146D01*
X268418Y-129295D01*
X275292Y-123996D01*
X253350Y-121424D01*
X245205Y-123610D01*
X234958Y-123583D01*
G37*
G54D14*
X234958Y-123583D02*
X248964Y-136207D01*
X254059Y-136001D01*
X261599Y-133146D01*
X268418Y-129295D01*
X275292Y-123996D01*
X253350Y-121424D01*
X245205Y-123610D01*
X234958Y-123583D01*
G36*
X212453Y-113644D02*
X216364Y-132089D01*
X220607Y-134918D01*
X228385Y-137039D01*
X236165Y-137932D01*
X244841Y-137686D01*
X228602Y-122707D01*
X220728Y-119688D01*
X212453Y-113644D01*
G37*
G54D14*
X212453Y-113644D02*
X216364Y-132089D01*
X220607Y-134918D01*
X228385Y-137039D01*
X236165Y-137932D01*
X244841Y-137686D01*
X228602Y-122707D01*
X220728Y-119688D01*
X212453Y-113644D01*
G36*
X200125Y-92236D02*
X192448Y-109457D01*
X194217Y-114239D01*
X199263Y-120527D01*
X205033Y-125823D01*
X212196Y-130724D01*
X207863Y-109061D01*
X203266Y-101990D01*
X200125Y-92236D01*
G37*
G54D14*
X200125Y-92236D02*
X192448Y-109457D01*
X194217Y-114239D01*
X199263Y-120527D01*
X205033Y-125823D01*
X212196Y-130724D01*
X207863Y-109061D01*
X203266Y-101990D01*
X200125Y-92236D01*
G36*
X202406Y-68038D02*
X186072Y-77457D01*
X184693Y-82366D01*
X185079Y-90419D01*
X186634Y-98095D01*
X189549Y-106270D01*
X198776Y-86197D01*
X199214Y-77775D01*
X202406Y-68038D01*
G37*
G54D14*
X202406Y-68038D02*
X186072Y-77457D01*
X184693Y-82366D01*
X185079Y-90419D01*
X186634Y-98095D01*
X189549Y-106270D01*
X198776Y-86197D01*
X199214Y-77775D01*
X202406Y-68038D01*
G36*
X219130Y-49616D02*
X200379Y-47636D01*
X196378Y-50796D01*
X191956Y-57538D01*
X188703Y-64662D01*
X186256Y-72989D01*
X205520Y-62174D01*
X210824Y-55617D01*
X219130Y-49616D01*
G37*
G54D14*
X219130Y-49616D02*
X200379Y-47636D01*
X196378Y-50796D01*
X191956Y-57538D01*
X188703Y-64662D01*
X186256Y-72989D01*
X205520Y-62174D01*
X210824Y-55617D01*
X219130Y-49616D01*
G36*
X243057Y-44430D02*
X229051Y-31806D01*
X223956Y-32012D01*
X216416Y-34867D01*
X209597Y-38718D01*
X202723Y-44016D01*
X224664Y-46589D01*
X232810Y-44403D01*
X243057Y-44430D01*
G37*
G54D14*
X243057Y-44430D02*
X229051Y-31806D01*
X223956Y-32012D01*
X216416Y-34867D01*
X209597Y-38718D01*
X202723Y-44016D01*
X224664Y-46589D01*
X232810Y-44403D01*
X243057Y-44430D01*
G36*
X265572Y-54474D02*
X261662Y-36029D01*
X257419Y-33201D01*
X249641Y-31079D01*
X241860Y-30187D01*
X233185Y-30433D01*
X249424Y-45411D01*
X257298Y-48430D01*
X265572Y-54474D01*
G37*
G54D14*
X265572Y-54474D02*
X261662Y-36029D01*
X257419Y-33201D01*
X249641Y-31079D01*
X241860Y-30187D01*
X233185Y-30433D01*
X249424Y-45411D01*
X257298Y-48430D01*
X265572Y-54474D01*
G36*
X278093Y-75266D02*
X285830Y-58172D01*
X284094Y-53671D01*
X279048Y-47383D01*
X273279Y-42088D01*
X266116Y-37187D01*
X270449Y-58850D01*
X275045Y-65921D01*
X278093Y-75266D01*
G37*
G54D14*
X278093Y-75266D02*
X285830Y-58172D01*
X284094Y-53671D01*
X279048Y-47383D01*
X273279Y-42088D01*
X266116Y-37187D01*
X270449Y-58850D01*
X275045Y-65921D01*
X278093Y-75266D01*
G36*
X275373Y-100042D02*
X291706Y-90622D01*
X293085Y-85713D01*
X292699Y-77660D01*
X291144Y-69985D01*
X288229Y-61810D01*
X279002Y-81882D01*
X278564Y-90304D01*
X275373Y-100042D01*
G37*
G54D14*
X275373Y-100042D02*
X291706Y-90622D01*
X293085Y-85713D01*
X292699Y-77660D01*
X291144Y-69985D01*
X288229Y-61810D01*
X279002Y-81882D01*
X278564Y-90304D01*
X275373Y-100042D01*
G36*
X258885Y-118398D02*
X277636Y-120377D01*
X281637Y-117217D01*
X286058Y-110475D01*
X289312Y-103351D01*
X291759Y-95024D01*
X272495Y-105840D01*
X267191Y-112396D01*
X258885Y-118398D01*
G37*
G54D14*
X258885Y-118398D02*
X277636Y-120377D01*
X281637Y-117217D01*
X286058Y-110475D01*
X289312Y-103351D01*
X291759Y-95024D01*
X272495Y-105840D01*
X267191Y-112396D01*
X258885Y-118398D01*
X277000Y-111000D02*
G54D15*
D03*
X286000Y-82000D02*
G54D15*
D03*
X277000Y-56000D02*
G54D15*
D03*
X253000Y-39000D02*
G54D15*
D03*
X224000Y-39000D02*
G54D15*
D03*
X201000Y-57000D02*
G54D15*
D03*
X192000Y-84000D02*
G54D15*
D03*
X202000Y-111000D02*
G54D15*
D03*
X225000Y-128000D02*
G54D15*
D03*
X254000Y-128000D02*
G54D15*
D03*
G54D16*
G75*
G01X262000Y-84000D02*
G03X262000Y-84000I-23000J0D01*
G01*
G54D11*
X181000Y-107000D02*
X181000Y-108000D01*
X191000Y-118000D01*
X195000Y-118000D01*
X202000Y-111000D01*
G54D11*
X192000Y-84000D02*
X183000Y-84000D01*
X180000Y-81000D01*
X180000Y-74000D01*
G54D11*
X202000Y-296500D02*
X172500Y-296500D01*
X172000Y-297000D01*
G54D11*
X202000Y-296500D02*
X202000Y-278000D01*
G36*
X276000Y-296500D02*
X279500Y-296500D01*
X293000Y-283000D01*
X293000Y-219000D01*
X305000Y-207000D01*
X305000Y-292000D01*
X300000Y-297000D01*
X276500Y-297000D01*
X276000Y-296500D01*
G37*
G54D11*
X276000Y-296500D02*
X279500Y-296500D01*
X293000Y-283000D01*
X293000Y-219000D01*
X305000Y-207000D01*
X305000Y-292000D01*
X300000Y-297000D01*
X276500Y-297000D01*
X276000Y-296500D01*
G54D11*
X294000Y-62000D02*
X289000Y-67000D01*
X394000Y-116000D02*
G54D10*
D03*
X449000Y-50000D02*
G54D10*
D03*
G54D11*
X432000Y-57000D02*
X439000Y-50000D01*
X449000Y-50000D01*
X449000Y-62000D02*
G54D10*
D03*
X448000Y-107000D02*
G54D10*
D03*
G54D11*
X432000Y-111000D02*
X436000Y-107000D01*
X448000Y-107000D01*
G54D11*
X394000Y-116000D02*
X394000Y-107000D01*
X412000Y-141000D02*
G54D10*
D03*
X376000Y-140000D02*
G54D10*
D03*
G54D11*
X408000Y-128000D02*
X412000Y-132000D01*
X412000Y-141000D01*
G54D11*
X380000Y-128000D02*
X376000Y-132000D01*
X376000Y-140000D01*
X336000Y-107000D02*
G54D10*
D03*
X335000Y-74000D02*
G54D10*
D03*
X342000Y-48000D02*
G54D10*
D03*
G54D11*
X357000Y-57000D02*
X352000Y-52000D01*
X342000Y-48000D01*
G54D12*
X422500Y-296500D02*
X439500Y-296500D01*
G54D12*
X348500Y-296500D02*
X365500Y-296500D01*
G54D11*
X408000Y-40000D02*
X419000Y-29000D01*
X448000Y-29000D01*
X458000Y-39000D01*
X458000Y-119000D01*
X443000Y-134000D01*
G54D11*
X443000Y-134000D02*
X443000Y-160000D01*
X460000Y-177000D01*
X460000Y-291000D01*
X436000Y-168000D02*
G54D10*
D03*
G54D11*
X436000Y-168000D02*
X436000Y-170700D01*
X448900Y-183600D01*
X448900Y-203900D01*
X449000Y-204000D01*
X448900Y-203900D01*
X449000Y-204000D02*
G54D10*
D03*
X422000Y-196000D02*
G54D10*
D03*
X422000Y-169000D02*
G54D10*
D03*
X430000Y-133000D02*
G54D10*
D03*
G54D11*
X422000Y-169000D02*
X422000Y-196000D01*
G54D11*
X430000Y-135000D02*
X430000Y-138000D01*
X413000Y-155000D01*
X413000Y-199000D01*
X419000Y-205000D01*
X428000Y-205000D01*
X434000Y-199000D01*
X434000Y-199000D02*
G54D10*
D03*
X334500Y-204000D02*
G54D10*
D03*
X357000Y-135000D02*
G54D10*
D03*
G54D11*
X334000Y-204000D02*
X357000Y-204000D01*
X370000Y-191000D01*
X370000Y-148000D01*
X357000Y-135000D01*
G54D13*
X327000Y-50000D02*
X327000Y-137000D01*
X327000Y-137000D02*
G54D10*
D03*
X366000Y-261000D02*
G54D10*
D03*
G54D11*
X366000Y-261000D02*
X366000Y-253000D01*
X326000Y-213000D01*
X326000Y-183000D01*
X345000Y-164000D01*
X345000Y-130000D01*
X337000Y-122000D01*
X337000Y-122000D02*
G54D10*
D03*
X394000Y-153000D02*
G54D10*
D03*
X394000Y-161000D02*
G54D10*
D03*
G54D11*
X394000Y-153000D02*
X394000Y-161000D01*
X394000Y-280500D01*
G54D11*
X380000Y-40000D02*
X371000Y-31000D01*
X344000Y-31000D01*
X327000Y-48000D01*
G36*
X394000Y-153000D02*
X386000Y-153000D01*
X380000Y-159000D01*
X380000Y-260000D01*
X366000Y-274000D01*
X325000Y-274000D01*
X325000Y-301000D01*
X334000Y-301000D01*
X334000Y-291000D01*
X344000Y-281000D01*
X434000Y-281000D01*
X439000Y-276000D01*
X439000Y-237000D01*
X404000Y-202000D01*
X404000Y-157000D01*
X400000Y-153000D01*
X394000Y-153000D01*
G37*
G54D13*
X394000Y-153000D02*
X386000Y-153000D01*
X380000Y-159000D01*
X380000Y-260000D01*
X366000Y-274000D01*
X325000Y-274000D01*
X325000Y-301000D01*
X334000Y-301000D01*
X334000Y-291000D01*
X344000Y-281000D01*
X434000Y-281000D01*
X439000Y-276000D01*
X439000Y-237000D01*
X404000Y-202000D01*
X404000Y-157000D01*
X400000Y-153000D01*
X394000Y-153000D01*
G36*
X370000Y-166000D02*
X369000Y-166000D01*
X361000Y-174000D01*
X352000Y-174000D01*
X335000Y-191000D01*
X335000Y-203500D01*
X334500Y-204000D01*
X357000Y-204000D01*
X370000Y-191000D01*
X370000Y-166000D01*
G37*
G54D11*
X370000Y-166000D02*
X369000Y-166000D01*
X361000Y-174000D01*
X352000Y-174000D01*
X335000Y-191000D01*
X335000Y-203500D01*
X334500Y-204000D01*
X357000Y-204000D01*
X370000Y-191000D01*
X370000Y-166000D01*
G36*
X326000Y-213000D02*
X354000Y-213000D01*
X366000Y-225000D01*
X366000Y-261000D01*
X338000Y-261000D01*
X326000Y-249000D01*
X326000Y-213000D01*
G37*
G54D11*
X326000Y-213000D02*
X354000Y-213000D01*
X366000Y-225000D01*
X366000Y-261000D01*
X338000Y-261000D01*
X326000Y-249000D01*
X326000Y-213000D01*
G54D11*
X326000Y-209000D02*
X331000Y-214000D01*
G36*
X389958Y-123583D02*
X403964Y-136207D01*
X409059Y-136001D01*
X416599Y-133146D01*
X423418Y-129295D01*
X430292Y-123996D01*
X408350Y-121424D01*
X400205Y-123610D01*
X389958Y-123583D01*
G37*
G54D14*
X389958Y-123583D02*
X403964Y-136207D01*
X409059Y-136001D01*
X416599Y-133146D01*
X423418Y-129295D01*
X430292Y-123996D01*
X408350Y-121424D01*
X400205Y-123610D01*
X389958Y-123583D01*
G36*
X367453Y-113644D02*
X371364Y-132089D01*
X375607Y-134918D01*
X383385Y-137039D01*
X391165Y-137932D01*
X399841Y-137686D01*
X383602Y-122707D01*
X375728Y-119688D01*
X367453Y-113644D01*
G37*
G54D14*
X367453Y-113644D02*
X371364Y-132089D01*
X375607Y-134918D01*
X383385Y-137039D01*
X391165Y-137932D01*
X399841Y-137686D01*
X383602Y-122707D01*
X375728Y-119688D01*
X367453Y-113644D01*
G36*
X355125Y-92236D02*
X347448Y-109457D01*
X349217Y-114239D01*
X354263Y-120527D01*
X360033Y-125823D01*
X367196Y-130724D01*
X362863Y-109061D01*
X358266Y-101990D01*
X355125Y-92236D01*
G37*
G54D14*
X355125Y-92236D02*
X347448Y-109457D01*
X349217Y-114239D01*
X354263Y-120527D01*
X360033Y-125823D01*
X367196Y-130724D01*
X362863Y-109061D01*
X358266Y-101990D01*
X355125Y-92236D01*
G36*
X357406Y-68038D02*
X341072Y-77457D01*
X339693Y-82366D01*
X340079Y-90419D01*
X341634Y-98095D01*
X344549Y-106270D01*
X353776Y-86197D01*
X354214Y-77775D01*
X357406Y-68038D01*
G37*
G54D14*
X357406Y-68038D02*
X341072Y-77457D01*
X339693Y-82366D01*
X340079Y-90419D01*
X341634Y-98095D01*
X344549Y-106270D01*
X353776Y-86197D01*
X354214Y-77775D01*
X357406Y-68038D01*
G36*
X374130Y-49616D02*
X355379Y-47636D01*
X351378Y-50796D01*
X346956Y-57538D01*
X343703Y-64662D01*
X341256Y-72989D01*
X360520Y-62174D01*
X365824Y-55617D01*
X374130Y-49616D01*
G37*
G54D14*
X374130Y-49616D02*
X355379Y-47636D01*
X351378Y-50796D01*
X346956Y-57538D01*
X343703Y-64662D01*
X341256Y-72989D01*
X360520Y-62174D01*
X365824Y-55617D01*
X374130Y-49616D01*
G36*
X398057Y-44430D02*
X384051Y-31806D01*
X378956Y-32012D01*
X371416Y-34867D01*
X364597Y-38718D01*
X357723Y-44016D01*
X379664Y-46589D01*
X387810Y-44403D01*
X398057Y-44430D01*
G37*
G54D14*
X398057Y-44430D02*
X384051Y-31806D01*
X378956Y-32012D01*
X371416Y-34867D01*
X364597Y-38718D01*
X357723Y-44016D01*
X379664Y-46589D01*
X387810Y-44403D01*
X398057Y-44430D01*
G36*
X420572Y-54474D02*
X416662Y-36029D01*
X412419Y-33201D01*
X404641Y-31079D01*
X396860Y-30187D01*
X388185Y-30433D01*
X404424Y-45411D01*
X412298Y-48430D01*
X420572Y-54474D01*
G37*
G54D14*
X420572Y-54474D02*
X416662Y-36029D01*
X412419Y-33201D01*
X404641Y-31079D01*
X396860Y-30187D01*
X388185Y-30433D01*
X404424Y-45411D01*
X412298Y-48430D01*
X420572Y-54474D01*
G36*
X433094Y-75266D02*
X440830Y-58172D01*
X439094Y-53671D01*
X434048Y-47383D01*
X428279Y-42088D01*
X421116Y-37187D01*
X425449Y-58850D01*
X430045Y-65921D01*
X433094Y-75266D01*
G37*
G54D14*
X433094Y-75266D02*
X440830Y-58172D01*
X439094Y-53671D01*
X434048Y-47383D01*
X428279Y-42088D01*
X421116Y-37187D01*
X425449Y-58850D01*
X430045Y-65921D01*
X433094Y-75266D01*
G36*
X430373Y-100042D02*
X446706Y-90622D01*
X448086Y-85713D01*
X447700Y-77660D01*
X446144Y-69985D01*
X443230Y-61810D01*
X434002Y-81882D01*
X433564Y-90304D01*
X430373Y-100042D01*
G37*
G54D14*
X430373Y-100042D02*
X446706Y-90622D01*
X448086Y-85713D01*
X447700Y-77660D01*
X446144Y-69985D01*
X443230Y-61810D01*
X434002Y-81882D01*
X433564Y-90304D01*
X430373Y-100042D01*
G36*
X413885Y-118398D02*
X432636Y-120377D01*
X436637Y-117217D01*
X441058Y-110475D01*
X444312Y-103351D01*
X446759Y-95024D01*
X427495Y-105840D01*
X422191Y-112396D01*
X413885Y-118398D01*
G37*
G54D14*
X413885Y-118398D02*
X432636Y-120377D01*
X436637Y-117217D01*
X441058Y-110475D01*
X444312Y-103351D01*
X446759Y-95024D01*
X427495Y-105840D01*
X422191Y-112396D01*
X413885Y-118398D01*
X432000Y-111000D02*
G54D15*
D03*
X441000Y-82000D02*
G54D15*
D03*
X432000Y-56000D02*
G54D15*
D03*
X408000Y-39000D02*
G54D15*
D03*
X379000Y-39000D02*
G54D15*
D03*
X356000Y-57000D02*
G54D15*
D03*
X347000Y-84000D02*
G54D15*
D03*
X357000Y-111000D02*
G54D15*
D03*
X380000Y-128000D02*
G54D15*
D03*
X409000Y-128000D02*
G54D15*
D03*
G54D16*
G75*
G01X417000Y-84000D02*
G03X417000Y-84000I-23000J0D01*
G01*
G54D11*
X336000Y-107000D02*
X336000Y-108000D01*
X346000Y-118000D01*
X350000Y-118000D01*
X357000Y-111000D01*
G54D11*
X347000Y-84000D02*
X338000Y-84000D01*
X335000Y-81000D01*
X335000Y-74000D01*
G54D11*
X357000Y-296500D02*
X327500Y-296500D01*
X327000Y-297000D01*
G54D11*
X357000Y-296500D02*
X357000Y-278000D01*
G36*
X431000Y-296500D02*
X434500Y-296500D01*
X448000Y-283000D01*
X448000Y-219000D01*
X460000Y-207000D01*
X460000Y-292000D01*
X455000Y-297000D01*
X431500Y-297000D01*
X431000Y-296500D01*
G37*
G54D11*
X431000Y-296500D02*
X434500Y-296500D01*
X448000Y-283000D01*
X448000Y-219000D01*
X460000Y-207000D01*
X460000Y-292000D01*
X455000Y-297000D01*
X431500Y-297000D01*
X431000Y-296500D01*
G54D11*
X449000Y-62000D02*
X444000Y-67000D01*
X549000Y-116000D02*
G54D10*
D03*
X604000Y-50000D02*
G54D10*
D03*
G54D11*
X587000Y-57000D02*
X594000Y-50000D01*
X604000Y-50000D01*
X604000Y-62000D02*
G54D10*
D03*
X603000Y-107000D02*
G54D10*
D03*
G54D11*
X587000Y-111000D02*
X591000Y-107000D01*
X603000Y-107000D01*
G54D11*
X549000Y-116000D02*
X549000Y-107000D01*
X567000Y-141000D02*
G54D10*
D03*
X531000Y-140000D02*
G54D10*
D03*
G54D11*
X563000Y-128000D02*
X567000Y-132000D01*
X567000Y-141000D01*
G54D11*
X535000Y-128000D02*
X531000Y-132000D01*
X531000Y-140000D01*
X491000Y-107000D02*
G54D10*
D03*
X490000Y-74000D02*
G54D10*
D03*
X497000Y-48000D02*
G54D10*
D03*
G54D11*
X512000Y-57000D02*
X507000Y-52000D01*
X497000Y-48000D01*
G54D12*
X577500Y-296500D02*
X594500Y-296500D01*
G54D12*
X503500Y-296500D02*
X520500Y-296500D01*
G54D11*
X563000Y-40000D02*
X574000Y-29000D01*
X603000Y-29000D01*
X613000Y-39000D01*
X613000Y-119000D01*
X598000Y-134000D01*
G54D11*
X598000Y-134000D02*
X598000Y-160000D01*
X615000Y-177000D01*
X615000Y-291000D01*
X591000Y-168000D02*
G54D10*
D03*
G54D11*
X591000Y-168000D02*
X591000Y-170700D01*
X603900Y-183600D01*
X603900Y-203900D01*
X604000Y-204000D01*
X603900Y-203900D01*
X604000Y-204000D02*
G54D10*
D03*
X577000Y-196000D02*
G54D10*
D03*
X577000Y-169000D02*
G54D10*
D03*
X585000Y-133000D02*
G54D10*
D03*
G54D11*
X577000Y-169000D02*
X577000Y-196000D01*
G54D11*
X585000Y-135000D02*
X585000Y-138000D01*
X568000Y-155000D01*
X568000Y-199000D01*
X574000Y-205000D01*
X583000Y-205000D01*
X589000Y-199000D01*
X589000Y-199000D02*
G54D10*
D03*
X489500Y-204000D02*
G54D10*
D03*
X512000Y-135000D02*
G54D10*
D03*
G54D11*
X489000Y-204000D02*
X512000Y-204000D01*
X525000Y-191000D01*
X525000Y-148000D01*
X512000Y-135000D01*
G54D13*
X482000Y-50000D02*
X482000Y-137000D01*
X482000Y-137000D02*
G54D10*
D03*
X521000Y-261000D02*
G54D10*
D03*
G54D11*
X521000Y-261000D02*
X521000Y-253000D01*
X481000Y-213000D01*
X481000Y-183000D01*
X500000Y-164000D01*
X500000Y-130000D01*
X492000Y-122000D01*
X492000Y-122000D02*
G54D10*
D03*
X549000Y-153000D02*
G54D10*
D03*
X549000Y-161000D02*
G54D10*
D03*
G54D11*
X549000Y-153000D02*
X549000Y-161000D01*
X549000Y-280500D01*
G54D11*
X535000Y-40000D02*
X526000Y-31000D01*
X499000Y-31000D01*
X482000Y-48000D01*
G36*
X549000Y-153000D02*
X541000Y-153000D01*
X535000Y-159000D01*
X535000Y-260000D01*
X521000Y-274000D01*
X480000Y-274000D01*
X480000Y-301000D01*
X489000Y-301000D01*
X489000Y-291000D01*
X499000Y-281000D01*
X589000Y-281000D01*
X594000Y-276000D01*
X594000Y-237000D01*
X559000Y-202000D01*
X559000Y-157000D01*
X555000Y-153000D01*
X549000Y-153000D01*
G37*
G54D13*
X549000Y-153000D02*
X541000Y-153000D01*
X535000Y-159000D01*
X535000Y-260000D01*
X521000Y-274000D01*
X480000Y-274000D01*
X480000Y-301000D01*
X489000Y-301000D01*
X489000Y-291000D01*
X499000Y-281000D01*
X589000Y-281000D01*
X594000Y-276000D01*
X594000Y-237000D01*
X559000Y-202000D01*
X559000Y-157000D01*
X555000Y-153000D01*
X549000Y-153000D01*
G36*
X525000Y-166000D02*
X524000Y-166000D01*
X516000Y-174000D01*
X507000Y-174000D01*
X490000Y-191000D01*
X490000Y-203500D01*
X489500Y-204000D01*
X512000Y-204000D01*
X525000Y-191000D01*
X525000Y-166000D01*
G37*
G54D11*
X525000Y-166000D02*
X524000Y-166000D01*
X516000Y-174000D01*
X507000Y-174000D01*
X490000Y-191000D01*
X490000Y-203500D01*
X489500Y-204000D01*
X512000Y-204000D01*
X525000Y-191000D01*
X525000Y-166000D01*
G36*
X481000Y-213000D02*
X509000Y-213000D01*
X521000Y-225000D01*
X521000Y-261000D01*
X493000Y-261000D01*
X481000Y-249000D01*
X481000Y-213000D01*
G37*
G54D11*
X481000Y-213000D02*
X509000Y-213000D01*
X521000Y-225000D01*
X521000Y-261000D01*
X493000Y-261000D01*
X481000Y-249000D01*
X481000Y-213000D01*
G54D11*
X481000Y-209000D02*
X486000Y-214000D01*
G36*
X544958Y-123583D02*
X558964Y-136207D01*
X564059Y-136001D01*
X571599Y-133146D01*
X578418Y-129295D01*
X585292Y-123996D01*
X563350Y-121424D01*
X555205Y-123610D01*
X544958Y-123583D01*
G37*
G54D14*
X544958Y-123583D02*
X558964Y-136207D01*
X564059Y-136001D01*
X571599Y-133146D01*
X578418Y-129295D01*
X585292Y-123996D01*
X563350Y-121424D01*
X555205Y-123610D01*
X544958Y-123583D01*
G36*
X522453Y-113644D02*
X526364Y-132089D01*
X530607Y-134918D01*
X538385Y-137039D01*
X546165Y-137932D01*
X554841Y-137686D01*
X538602Y-122707D01*
X530728Y-119688D01*
X522453Y-113644D01*
G37*
G54D14*
X522453Y-113644D02*
X526364Y-132089D01*
X530607Y-134918D01*
X538385Y-137039D01*
X546165Y-137932D01*
X554841Y-137686D01*
X538602Y-122707D01*
X530728Y-119688D01*
X522453Y-113644D01*
G36*
X510125Y-92236D02*
X502448Y-109457D01*
X504217Y-114239D01*
X509263Y-120527D01*
X515033Y-125823D01*
X522196Y-130724D01*
X517863Y-109061D01*
X513266Y-101990D01*
X510125Y-92236D01*
G37*
G54D14*
X510125Y-92236D02*
X502448Y-109457D01*
X504217Y-114239D01*
X509263Y-120527D01*
X515033Y-125823D01*
X522196Y-130724D01*
X517863Y-109061D01*
X513266Y-101990D01*
X510125Y-92236D01*
G36*
X512406Y-68038D02*
X496072Y-77457D01*
X494693Y-82366D01*
X495079Y-90419D01*
X496634Y-98095D01*
X499549Y-106270D01*
X508776Y-86197D01*
X509214Y-77775D01*
X512406Y-68038D01*
G37*
G54D14*
X512406Y-68038D02*
X496072Y-77457D01*
X494693Y-82366D01*
X495079Y-90419D01*
X496634Y-98095D01*
X499549Y-106270D01*
X508776Y-86197D01*
X509214Y-77775D01*
X512406Y-68038D01*
G36*
X529130Y-49616D02*
X510379Y-47636D01*
X506378Y-50796D01*
X501956Y-57538D01*
X498703Y-64662D01*
X496256Y-72989D01*
X515520Y-62174D01*
X520824Y-55617D01*
X529130Y-49616D01*
G37*
G54D14*
X529130Y-49616D02*
X510379Y-47636D01*
X506378Y-50796D01*
X501956Y-57538D01*
X498703Y-64662D01*
X496256Y-72989D01*
X515520Y-62174D01*
X520824Y-55617D01*
X529130Y-49616D01*
G36*
X553057Y-44430D02*
X539051Y-31806D01*
X533956Y-32012D01*
X526416Y-34867D01*
X519597Y-38718D01*
X512723Y-44016D01*
X534664Y-46589D01*
X542810Y-44403D01*
X553057Y-44430D01*
G37*
G54D14*
X553057Y-44430D02*
X539051Y-31806D01*
X533956Y-32012D01*
X526416Y-34867D01*
X519597Y-38718D01*
X512723Y-44016D01*
X534664Y-46589D01*
X542810Y-44403D01*
X553057Y-44430D01*
G36*
X575573Y-54474D02*
X571662Y-36029D01*
X567419Y-33201D01*
X559641Y-31079D01*
X551860Y-30187D01*
X543185Y-30433D01*
X559424Y-45411D01*
X567298Y-48430D01*
X575573Y-54474D01*
G37*
G54D14*
X575573Y-54474D02*
X571662Y-36029D01*
X567419Y-33201D01*
X559641Y-31079D01*
X551860Y-30187D01*
X543185Y-30433D01*
X559424Y-45411D01*
X567298Y-48430D01*
X575573Y-54474D01*
G36*
X588093Y-75266D02*
X595830Y-58172D01*
X594094Y-53671D01*
X589049Y-47383D01*
X583279Y-42088D01*
X576116Y-37187D01*
X580449Y-58850D01*
X585045Y-65921D01*
X588093Y-75266D01*
G37*
G54D14*
X588093Y-75266D02*
X595830Y-58172D01*
X594094Y-53671D01*
X589049Y-47383D01*
X583279Y-42088D01*
X576116Y-37187D01*
X580449Y-58850D01*
X585045Y-65921D01*
X588093Y-75266D01*
G36*
X585373Y-100042D02*
X601706Y-90622D01*
X603085Y-85713D01*
X602699Y-77660D01*
X601144Y-69985D01*
X598229Y-61810D01*
X589002Y-81882D01*
X588565Y-90304D01*
X585373Y-100042D01*
G37*
G54D14*
X585373Y-100042D02*
X601706Y-90622D01*
X603085Y-85713D01*
X602699Y-77660D01*
X601144Y-69985D01*
X598229Y-61810D01*
X589002Y-81882D01*
X588565Y-90304D01*
X585373Y-100042D01*
G36*
X568885Y-118398D02*
X587636Y-120377D01*
X591637Y-117217D01*
X596058Y-110475D01*
X599312Y-103351D01*
X601759Y-95024D01*
X582495Y-105840D01*
X577191Y-112396D01*
X568885Y-118398D01*
G37*
G54D14*
X568885Y-118398D02*
X587636Y-120377D01*
X591637Y-117217D01*
X596058Y-110475D01*
X599312Y-103351D01*
X601759Y-95024D01*
X582495Y-105840D01*
X577191Y-112396D01*
X568885Y-118398D01*
X587000Y-111000D02*
G54D15*
D03*
X596000Y-82000D02*
G54D15*
D03*
X587000Y-56000D02*
G54D15*
D03*
X563000Y-39000D02*
G54D15*
D03*
X534000Y-39000D02*
G54D15*
D03*
X511000Y-57000D02*
G54D15*
D03*
X502000Y-84000D02*
G54D15*
D03*
X512000Y-111000D02*
G54D15*
D03*
X535000Y-128000D02*
G54D15*
D03*
X564000Y-128000D02*
G54D15*
D03*
G54D16*
G75*
G01X572000Y-84000D02*
G03X572000Y-84000I-23000J0D01*
G01*
G54D11*
X491000Y-107000D02*
X491000Y-108000D01*
X501000Y-118000D01*
X505000Y-118000D01*
X512000Y-111000D01*
G54D11*
X502000Y-84000D02*
X493000Y-84000D01*
X490000Y-81000D01*
X490000Y-74000D01*
G54D11*
X512000Y-296500D02*
X482500Y-296500D01*
X482000Y-297000D01*
G54D11*
X512000Y-296500D02*
X512000Y-278000D01*
G36*
X586000Y-296500D02*
X589500Y-296500D01*
X603000Y-283000D01*
X603000Y-219000D01*
X615000Y-207000D01*
X615000Y-292000D01*
X610000Y-297000D01*
X586500Y-297000D01*
X586000Y-296500D01*
G37*
G54D11*
X586000Y-296500D02*
X589500Y-296500D01*
X603000Y-283000D01*
X603000Y-219000D01*
X615000Y-207000D01*
X615000Y-292000D01*
X610000Y-297000D01*
X586500Y-297000D01*
X586000Y-296500D01*
G54D11*
X604000Y-62000D02*
X599000Y-67000D01*
X704000Y-116000D02*
G54D10*
D03*
X759000Y-50000D02*
G54D10*
D03*
G54D11*
X742000Y-57000D02*
X749000Y-50000D01*
X759000Y-50000D01*
X759000Y-62000D02*
G54D10*
D03*
X758000Y-107000D02*
G54D10*
D03*
G54D11*
X742000Y-111000D02*
X746000Y-107000D01*
X758000Y-107000D01*
G54D11*
X704000Y-116000D02*
X704000Y-107000D01*
X722000Y-141000D02*
G54D10*
D03*
X686000Y-140000D02*
G54D10*
D03*
G54D11*
X718000Y-128000D02*
X722000Y-132000D01*
X722000Y-141000D01*
G54D11*
X690000Y-128000D02*
X686000Y-132000D01*
X686000Y-140000D01*
X646000Y-107000D02*
G54D10*
D03*
X645000Y-74000D02*
G54D10*
D03*
X652000Y-48000D02*
G54D10*
D03*
G54D11*
X667000Y-57000D02*
X662000Y-52000D01*
X652000Y-48000D01*
G54D12*
X732500Y-296500D02*
X749500Y-296500D01*
G54D12*
X658500Y-296500D02*
X675500Y-296500D01*
G54D11*
X718000Y-40000D02*
X729000Y-29000D01*
X758000Y-29000D01*
X768000Y-39000D01*
X768000Y-119000D01*
X753000Y-134000D01*
G54D11*
X753000Y-134000D02*
X753000Y-160000D01*
X770000Y-177000D01*
X770000Y-291000D01*
X746000Y-168000D02*
G54D10*
D03*
G54D11*
X746000Y-168000D02*
X746000Y-170700D01*
X758900Y-183600D01*
X758900Y-203900D01*
X759000Y-204000D01*
X758900Y-203900D01*
X759000Y-204000D02*
G54D10*
D03*
X732000Y-196000D02*
G54D10*
D03*
X732000Y-169000D02*
G54D10*
D03*
X740000Y-133000D02*
G54D10*
D03*
G54D11*
X732000Y-169000D02*
X732000Y-196000D01*
G54D11*
X740000Y-135000D02*
X740000Y-138000D01*
X723000Y-155000D01*
X723000Y-199000D01*
X729000Y-205000D01*
X738000Y-205000D01*
X744000Y-199000D01*
X744000Y-199000D02*
G54D10*
D03*
X644500Y-204000D02*
G54D10*
D03*
X667000Y-135000D02*
G54D10*
D03*
G54D11*
X644000Y-204000D02*
X667000Y-204000D01*
X680000Y-191000D01*
X680000Y-148000D01*
X667000Y-135000D01*
G54D13*
X637000Y-50000D02*
X637000Y-137000D01*
X637000Y-137000D02*
G54D10*
D03*
X676000Y-261000D02*
G54D10*
D03*
G54D11*
X676000Y-261000D02*
X676000Y-253000D01*
X636000Y-213000D01*
X636000Y-183000D01*
X655000Y-164000D01*
X655000Y-130000D01*
X647000Y-122000D01*
X647000Y-122000D02*
G54D10*
D03*
X704000Y-153000D02*
G54D10*
D03*
X704000Y-161000D02*
G54D10*
D03*
G54D11*
X704000Y-153000D02*
X704000Y-161000D01*
X704000Y-280500D01*
G54D11*
X690000Y-40000D02*
X681000Y-31000D01*
X654000Y-31000D01*
X637000Y-48000D01*
G36*
X704000Y-153000D02*
X696000Y-153000D01*
X690000Y-159000D01*
X690000Y-260000D01*
X676000Y-274000D01*
X635000Y-274000D01*
X635000Y-301000D01*
X644000Y-301000D01*
X644000Y-291000D01*
X654000Y-281000D01*
X744000Y-281000D01*
X749000Y-276000D01*
X749000Y-237000D01*
X714000Y-202000D01*
X714000Y-157000D01*
X710000Y-153000D01*
X704000Y-153000D01*
G37*
G54D13*
X704000Y-153000D02*
X696000Y-153000D01*
X690000Y-159000D01*
X690000Y-260000D01*
X676000Y-274000D01*
X635000Y-274000D01*
X635000Y-301000D01*
X644000Y-301000D01*
X644000Y-291000D01*
X654000Y-281000D01*
X744000Y-281000D01*
X749000Y-276000D01*
X749000Y-237000D01*
X714000Y-202000D01*
X714000Y-157000D01*
X710000Y-153000D01*
X704000Y-153000D01*
G36*
X680000Y-166000D02*
X679000Y-166000D01*
X671000Y-174000D01*
X662000Y-174000D01*
X645000Y-191000D01*
X645000Y-203500D01*
X644500Y-204000D01*
X667000Y-204000D01*
X680000Y-191000D01*
X680000Y-166000D01*
G37*
G54D11*
X680000Y-166000D02*
X679000Y-166000D01*
X671000Y-174000D01*
X662000Y-174000D01*
X645000Y-191000D01*
X645000Y-203500D01*
X644500Y-204000D01*
X667000Y-204000D01*
X680000Y-191000D01*
X680000Y-166000D01*
G36*
X636000Y-213000D02*
X664000Y-213000D01*
X676000Y-225000D01*
X676000Y-261000D01*
X648000Y-261000D01*
X636000Y-249000D01*
X636000Y-213000D01*
G37*
G54D11*
X636000Y-213000D02*
X664000Y-213000D01*
X676000Y-225000D01*
X676000Y-261000D01*
X648000Y-261000D01*
X636000Y-249000D01*
X636000Y-213000D01*
G54D11*
X636000Y-209000D02*
X641000Y-214000D01*
G36*
X699958Y-123583D02*
X713964Y-136207D01*
X719059Y-136001D01*
X726599Y-133146D01*
X733418Y-129295D01*
X740292Y-123996D01*
X718350Y-121424D01*
X710205Y-123610D01*
X699958Y-123583D01*
G37*
G54D14*
X699958Y-123583D02*
X713964Y-136207D01*
X719059Y-136001D01*
X726599Y-133146D01*
X733418Y-129295D01*
X740292Y-123996D01*
X718350Y-121424D01*
X710205Y-123610D01*
X699958Y-123583D01*
G36*
X677453Y-113644D02*
X681364Y-132089D01*
X685607Y-134918D01*
X693385Y-137039D01*
X701165Y-137932D01*
X709841Y-137686D01*
X693602Y-122707D01*
X685728Y-119688D01*
X677453Y-113644D01*
G37*
G54D14*
X677453Y-113644D02*
X681364Y-132089D01*
X685607Y-134918D01*
X693385Y-137039D01*
X701165Y-137932D01*
X709841Y-137686D01*
X693602Y-122707D01*
X685728Y-119688D01*
X677453Y-113644D01*
G36*
X665125Y-92236D02*
X657448Y-109457D01*
X659217Y-114239D01*
X664263Y-120527D01*
X670033Y-125823D01*
X677196Y-130724D01*
X672863Y-109061D01*
X668266Y-101990D01*
X665125Y-92236D01*
G37*
G54D14*
X665125Y-92236D02*
X657448Y-109457D01*
X659217Y-114239D01*
X664263Y-120527D01*
X670033Y-125823D01*
X677196Y-130724D01*
X672863Y-109061D01*
X668266Y-101990D01*
X665125Y-92236D01*
G36*
X667406Y-68038D02*
X651072Y-77457D01*
X649693Y-82366D01*
X650079Y-90419D01*
X651634Y-98095D01*
X654549Y-106270D01*
X663776Y-86197D01*
X664214Y-77775D01*
X667406Y-68038D01*
G37*
G54D14*
X667406Y-68038D02*
X651072Y-77457D01*
X649693Y-82366D01*
X650079Y-90419D01*
X651634Y-98095D01*
X654549Y-106270D01*
X663776Y-86197D01*
X664214Y-77775D01*
X667406Y-68038D01*
G36*
X684130Y-49616D02*
X665379Y-47636D01*
X661378Y-50796D01*
X656956Y-57538D01*
X653703Y-64662D01*
X651256Y-72989D01*
X670520Y-62174D01*
X675824Y-55617D01*
X684130Y-49616D01*
G37*
G54D14*
X684130Y-49616D02*
X665379Y-47636D01*
X661378Y-50796D01*
X656956Y-57538D01*
X653703Y-64662D01*
X651256Y-72989D01*
X670520Y-62174D01*
X675824Y-55617D01*
X684130Y-49616D01*
G36*
X708057Y-44430D02*
X694051Y-31806D01*
X688956Y-32012D01*
X681416Y-34867D01*
X674597Y-38718D01*
X667723Y-44016D01*
X689664Y-46589D01*
X697810Y-44403D01*
X708057Y-44430D01*
G37*
G54D14*
X708057Y-44430D02*
X694051Y-31806D01*
X688956Y-32012D01*
X681416Y-34867D01*
X674597Y-38718D01*
X667723Y-44016D01*
X689664Y-46589D01*
X697810Y-44403D01*
X708057Y-44430D01*
G36*
X730573Y-54474D02*
X726662Y-36029D01*
X722419Y-33201D01*
X714641Y-31079D01*
X706860Y-30187D01*
X698185Y-30432D01*
X714424Y-45411D01*
X722298Y-48430D01*
X730573Y-54474D01*
G37*
G54D14*
X730573Y-54474D02*
X726662Y-36029D01*
X722419Y-33201D01*
X714641Y-31079D01*
X706860Y-30187D01*
X698185Y-30432D01*
X714424Y-45411D01*
X722298Y-48430D01*
X730573Y-54474D01*
G36*
X743093Y-75266D02*
X750830Y-58172D01*
X749094Y-53671D01*
X744049Y-47383D01*
X738279Y-42088D01*
X731116Y-37187D01*
X735449Y-58850D01*
X740045Y-65921D01*
X743093Y-75266D01*
G37*
G54D14*
X743093Y-75266D02*
X750830Y-58172D01*
X749094Y-53671D01*
X744049Y-47383D01*
X738279Y-42088D01*
X731116Y-37187D01*
X735449Y-58850D01*
X740045Y-65921D01*
X743093Y-75266D01*
G36*
X740373Y-100042D02*
X756706Y-90622D01*
X758085Y-85713D01*
X757699Y-77660D01*
X756144Y-69985D01*
X753229Y-61810D01*
X744002Y-81882D01*
X743565Y-90304D01*
X740373Y-100042D01*
G37*
G54D14*
X740373Y-100042D02*
X756706Y-90622D01*
X758085Y-85713D01*
X757699Y-77660D01*
X756144Y-69985D01*
X753229Y-61810D01*
X744002Y-81882D01*
X743565Y-90304D01*
X740373Y-100042D01*
G36*
X723885Y-118398D02*
X742636Y-120377D01*
X746637Y-117217D01*
X751058Y-110475D01*
X754312Y-103351D01*
X756759Y-95024D01*
X737495Y-105840D01*
X732191Y-112396D01*
X723885Y-118398D01*
G37*
G54D14*
X723885Y-118398D02*
X742636Y-120377D01*
X746637Y-117217D01*
X751058Y-110475D01*
X754312Y-103351D01*
X756759Y-95024D01*
X737495Y-105840D01*
X732191Y-112396D01*
X723885Y-118398D01*
X742000Y-111000D02*
G54D15*
D03*
X751000Y-82000D02*
G54D15*
D03*
X742000Y-56000D02*
G54D15*
D03*
X718000Y-39000D02*
G54D15*
D03*
X689000Y-39000D02*
G54D15*
D03*
X666000Y-57000D02*
G54D15*
D03*
X657000Y-84000D02*
G54D15*
D03*
X667000Y-111000D02*
G54D15*
D03*
X690000Y-128000D02*
G54D15*
D03*
X719000Y-128000D02*
G54D15*
D03*
G54D16*
G75*
G01X727000Y-84000D02*
G03X727000Y-84000I-23000J0D01*
G01*
G54D11*
X646000Y-107000D02*
X646000Y-108000D01*
X656000Y-118000D01*
X660000Y-118000D01*
X667000Y-111000D01*
G54D11*
X657000Y-84000D02*
X648000Y-84000D01*
X645000Y-81000D01*
X645000Y-74000D01*
G54D11*
X667000Y-296500D02*
X637500Y-296500D01*
X637000Y-297000D01*
G54D11*
X667000Y-296500D02*
X667000Y-278000D01*
G36*
X741000Y-296500D02*
X744500Y-296500D01*
X758000Y-283000D01*
X758000Y-219000D01*
X770000Y-207000D01*
X770000Y-292000D01*
X765000Y-297000D01*
X741500Y-297000D01*
X741000Y-296500D01*
G37*
G54D11*
X741000Y-296500D02*
X744500Y-296500D01*
X758000Y-283000D01*
X758000Y-219000D01*
X770000Y-207000D01*
X770000Y-292000D01*
X765000Y-297000D01*
X741500Y-297000D01*
X741000Y-296500D01*
G54D11*
X759000Y-62000D02*
X754000Y-67000D01*
X859000Y-116000D02*
G54D10*
D03*
X914000Y-50000D02*
G54D10*
D03*
G54D11*
X897000Y-57000D02*
X904000Y-50000D01*
X914000Y-50000D01*
X914000Y-62000D02*
G54D10*
D03*
X913000Y-107000D02*
G54D10*
D03*
G54D11*
X897000Y-111000D02*
X901000Y-107000D01*
X913000Y-107000D01*
G54D11*
X859000Y-116000D02*
X859000Y-107000D01*
X877000Y-141000D02*
G54D10*
D03*
X841000Y-140000D02*
G54D10*
D03*
G54D11*
X873000Y-128000D02*
X877000Y-132000D01*
X877000Y-141000D01*
G54D11*
X845000Y-128000D02*
X841000Y-132000D01*
X841000Y-140000D01*
X801000Y-107000D02*
G54D10*
D03*
X800000Y-74000D02*
G54D10*
D03*
X807000Y-48000D02*
G54D10*
D03*
G54D11*
X822000Y-57000D02*
X817000Y-52000D01*
X807000Y-48000D01*
G54D12*
X887500Y-296500D02*
X904500Y-296500D01*
G54D12*
X813500Y-296500D02*
X830500Y-296500D01*
G54D11*
X873000Y-40000D02*
X884000Y-29000D01*
X913000Y-29000D01*
X923000Y-39000D01*
X923000Y-119000D01*
X908000Y-134000D01*
G54D11*
X908000Y-134000D02*
X908000Y-160000D01*
X925000Y-177000D01*
X925000Y-291000D01*
X901000Y-168000D02*
G54D10*
D03*
G54D11*
X901000Y-168000D02*
X901000Y-170700D01*
X913900Y-183600D01*
X913900Y-203900D01*
X914000Y-204000D01*
X913900Y-203900D01*
X914000Y-204000D02*
G54D10*
D03*
X887000Y-196000D02*
G54D10*
D03*
X887000Y-169000D02*
G54D10*
D03*
X895000Y-133000D02*
G54D10*
D03*
G54D11*
X887000Y-169000D02*
X887000Y-196000D01*
G54D11*
X895000Y-135000D02*
X895000Y-138000D01*
X878000Y-155000D01*
X878000Y-199000D01*
X884000Y-205000D01*
X893000Y-205000D01*
X899000Y-199000D01*
X899000Y-199000D02*
G54D10*
D03*
X799500Y-204000D02*
G54D10*
D03*
X822000Y-135000D02*
G54D10*
D03*
G54D11*
X799000Y-204000D02*
X822000Y-204000D01*
X835000Y-191000D01*
X835000Y-148000D01*
X822000Y-135000D01*
G54D13*
X792000Y-50000D02*
X792000Y-137000D01*
X792000Y-137000D02*
G54D10*
D03*
X831000Y-261000D02*
G54D10*
D03*
G54D11*
X831000Y-261000D02*
X831000Y-253000D01*
X791000Y-213000D01*
X791000Y-183000D01*
X810000Y-164000D01*
X810000Y-130000D01*
X802000Y-122000D01*
X802000Y-122000D02*
G54D10*
D03*
X859000Y-153000D02*
G54D10*
D03*
X859000Y-161000D02*
G54D10*
D03*
G54D11*
X859000Y-153000D02*
X859000Y-161000D01*
X859000Y-280500D01*
G54D11*
X845000Y-40000D02*
X836000Y-31000D01*
X809000Y-31000D01*
X792000Y-48000D01*
G36*
X859000Y-153000D02*
X851000Y-153000D01*
X845000Y-159000D01*
X845000Y-260000D01*
X831000Y-274000D01*
X790000Y-274000D01*
X790000Y-301000D01*
X799000Y-301000D01*
X799000Y-291000D01*
X809000Y-281000D01*
X899000Y-281000D01*
X904000Y-276000D01*
X904000Y-237000D01*
X869000Y-202000D01*
X869000Y-157000D01*
X865000Y-153000D01*
X859000Y-153000D01*
G37*
G54D13*
X859000Y-153000D02*
X851000Y-153000D01*
X845000Y-159000D01*
X845000Y-260000D01*
X831000Y-274000D01*
X790000Y-274000D01*
X790000Y-301000D01*
X799000Y-301000D01*
X799000Y-291000D01*
X809000Y-281000D01*
X899000Y-281000D01*
X904000Y-276000D01*
X904000Y-237000D01*
X869000Y-202000D01*
X869000Y-157000D01*
X865000Y-153000D01*
X859000Y-153000D01*
G36*
X835000Y-166000D02*
X834000Y-166000D01*
X826000Y-174000D01*
X817000Y-174000D01*
X800000Y-191000D01*
X800000Y-203500D01*
X799500Y-204000D01*
X822000Y-204000D01*
X835000Y-191000D01*
X835000Y-166000D01*
G37*
G54D11*
X835000Y-166000D02*
X834000Y-166000D01*
X826000Y-174000D01*
X817000Y-174000D01*
X800000Y-191000D01*
X800000Y-203500D01*
X799500Y-204000D01*
X822000Y-204000D01*
X835000Y-191000D01*
X835000Y-166000D01*
G36*
X791000Y-213000D02*
X819000Y-213000D01*
X831000Y-225000D01*
X831000Y-261000D01*
X803000Y-261000D01*
X791000Y-249000D01*
X791000Y-213000D01*
G37*
G54D11*
X791000Y-213000D02*
X819000Y-213000D01*
X831000Y-225000D01*
X831000Y-261000D01*
X803000Y-261000D01*
X791000Y-249000D01*
X791000Y-213000D01*
G54D11*
X791000Y-209000D02*
X796000Y-214000D01*
G36*
X854958Y-123583D02*
X868964Y-136207D01*
X874059Y-136001D01*
X881599Y-133146D01*
X888418Y-129295D01*
X895292Y-123996D01*
X873350Y-121424D01*
X865205Y-123610D01*
X854958Y-123583D01*
G37*
G54D14*
X854958Y-123583D02*
X868964Y-136207D01*
X874059Y-136001D01*
X881599Y-133146D01*
X888418Y-129295D01*
X895292Y-123996D01*
X873350Y-121424D01*
X865205Y-123610D01*
X854958Y-123583D01*
G36*
X832453Y-113644D02*
X836364Y-132089D01*
X840607Y-134918D01*
X848385Y-137039D01*
X856165Y-137932D01*
X864841Y-137686D01*
X848602Y-122707D01*
X840728Y-119688D01*
X832453Y-113644D01*
G37*
G54D14*
X832453Y-113644D02*
X836364Y-132089D01*
X840607Y-134918D01*
X848385Y-137039D01*
X856165Y-137932D01*
X864841Y-137686D01*
X848602Y-122707D01*
X840728Y-119688D01*
X832453Y-113644D01*
G36*
X820125Y-92236D02*
X812448Y-109457D01*
X814217Y-114239D01*
X819263Y-120527D01*
X825033Y-125823D01*
X832196Y-130724D01*
X827863Y-109061D01*
X823266Y-101990D01*
X820125Y-92236D01*
G37*
G54D14*
X820125Y-92236D02*
X812448Y-109457D01*
X814217Y-114239D01*
X819263Y-120527D01*
X825033Y-125823D01*
X832196Y-130724D01*
X827863Y-109061D01*
X823266Y-101990D01*
X820125Y-92236D01*
G36*
X822406Y-68038D02*
X806072Y-77457D01*
X804693Y-82366D01*
X805079Y-90419D01*
X806634Y-98095D01*
X809549Y-106270D01*
X818776Y-86197D01*
X819214Y-77775D01*
X822406Y-68038D01*
G37*
G54D14*
X822406Y-68038D02*
X806072Y-77457D01*
X804693Y-82366D01*
X805079Y-90419D01*
X806634Y-98095D01*
X809549Y-106270D01*
X818776Y-86197D01*
X819214Y-77775D01*
X822406Y-68038D01*
G36*
X839130Y-49616D02*
X820379Y-47636D01*
X816378Y-50796D01*
X811956Y-57538D01*
X808703Y-64662D01*
X806256Y-72989D01*
X825520Y-62174D01*
X830824Y-55617D01*
X839130Y-49616D01*
G37*
G54D14*
X839130Y-49616D02*
X820379Y-47636D01*
X816378Y-50796D01*
X811956Y-57538D01*
X808703Y-64662D01*
X806256Y-72989D01*
X825520Y-62174D01*
X830824Y-55617D01*
X839130Y-49616D01*
G36*
X863057Y-44430D02*
X849051Y-31806D01*
X843956Y-32012D01*
X836416Y-34867D01*
X829597Y-38718D01*
X822723Y-44016D01*
X844664Y-46589D01*
X852810Y-44403D01*
X863057Y-44430D01*
G37*
G54D14*
X863057Y-44430D02*
X849051Y-31806D01*
X843956Y-32012D01*
X836416Y-34867D01*
X829597Y-38718D01*
X822723Y-44016D01*
X844664Y-46589D01*
X852810Y-44403D01*
X863057Y-44430D01*
G36*
X885573Y-54474D02*
X881662Y-36029D01*
X877419Y-33201D01*
X869641Y-31079D01*
X861860Y-30187D01*
X853185Y-30432D01*
X869424Y-45411D01*
X877298Y-48430D01*
X885573Y-54474D01*
G37*
G54D14*
X885573Y-54474D02*
X881662Y-36029D01*
X877419Y-33201D01*
X869641Y-31079D01*
X861860Y-30187D01*
X853185Y-30432D01*
X869424Y-45411D01*
X877298Y-48430D01*
X885573Y-54474D01*
G36*
X898093Y-75266D02*
X905830Y-58172D01*
X904094Y-53671D01*
X899049Y-47383D01*
X893279Y-42088D01*
X886116Y-37187D01*
X890449Y-58850D01*
X895045Y-65921D01*
X898093Y-75266D01*
G37*
G54D14*
X898093Y-75266D02*
X905830Y-58172D01*
X904094Y-53671D01*
X899049Y-47383D01*
X893279Y-42088D01*
X886116Y-37187D01*
X890449Y-58850D01*
X895045Y-65921D01*
X898093Y-75266D01*
G36*
X895373Y-100042D02*
X911706Y-90622D01*
X913085Y-85713D01*
X912699Y-77660D01*
X911144Y-69985D01*
X908229Y-61810D01*
X899002Y-81882D01*
X898565Y-90304D01*
X895373Y-100042D01*
G37*
G54D14*
X895373Y-100042D02*
X911706Y-90622D01*
X913085Y-85713D01*
X912699Y-77660D01*
X911144Y-69985D01*
X908229Y-61810D01*
X899002Y-81882D01*
X898565Y-90304D01*
X895373Y-100042D01*
G36*
X878885Y-118398D02*
X897636Y-120377D01*
X901637Y-117217D01*
X906058Y-110475D01*
X909312Y-103351D01*
X911759Y-95024D01*
X892495Y-105840D01*
X887191Y-112396D01*
X878885Y-118398D01*
G37*
G54D14*
X878885Y-118398D02*
X897636Y-120377D01*
X901637Y-117217D01*
X906058Y-110475D01*
X909312Y-103351D01*
X911759Y-95024D01*
X892495Y-105840D01*
X887191Y-112396D01*
X878885Y-118398D01*
X897000Y-111000D02*
G54D15*
D03*
X906000Y-82000D02*
G54D15*
D03*
X897000Y-56000D02*
G54D15*
D03*
X873000Y-39000D02*
G54D15*
D03*
X844000Y-39000D02*
G54D15*
D03*
X821000Y-57000D02*
G54D15*
D03*
X812000Y-84000D02*
G54D15*
D03*
X822000Y-111000D02*
G54D15*
D03*
X845000Y-128000D02*
G54D15*
D03*
X874000Y-128000D02*
G54D15*
D03*
G54D16*
G75*
G01X882000Y-84000D02*
G03X882000Y-84000I-23000J0D01*
G01*
G54D11*
X801000Y-107000D02*
X801000Y-108000D01*
X811000Y-118000D01*
X815000Y-118000D01*
X822000Y-111000D01*
G54D11*
X812000Y-84000D02*
X803000Y-84000D01*
X800000Y-81000D01*
X800000Y-74000D01*
G54D11*
X822000Y-296500D02*
X792500Y-296500D01*
X792000Y-297000D01*
G54D11*
X822000Y-296500D02*
X822000Y-278000D01*
G36*
X896000Y-296500D02*
X899500Y-296500D01*
X913000Y-283000D01*
X913000Y-219000D01*
X925000Y-207000D01*
X925000Y-292000D01*
X920000Y-297000D01*
X896500Y-297000D01*
X896000Y-296500D01*
G37*
G54D11*
X896000Y-296500D02*
X899500Y-296500D01*
X913000Y-283000D01*
X913000Y-219000D01*
X925000Y-207000D01*
X925000Y-292000D01*
X920000Y-297000D01*
X896500Y-297000D01*
X896000Y-296500D01*
G54D11*
X914000Y-62000D02*
X909000Y-67000D01*
M02*
