; Drill file
; Format: 3.3 (000.000)
M48
METRIC
T01C0.3
T02C1.0
T03C1.2
T04C1.5
%
G05
G90
T01
X005.600Y-026.100
X002.450Y-020.400
X001.700Y-013.700
X002.700Y-012.200
X002.600Y-010.700
X002.500Y-007.400
X003.200Y-004.800
X008.400Y-011.600
X006.600Y-014.000
X004.700Y-013.500
X008.400Y-015.300
X008.400Y-016.100
X010.200Y-014.100
X012.000Y-013.300
X013.800Y-010.700
X018.100Y-010.700
X018.200Y-012.200
X017.200Y-013.700
X020.200Y-013.500
X022.100Y-014.000
X023.900Y-015.300
X023.900Y-016.100
X025.700Y-014.100
X027.500Y-013.300
X029.300Y-010.700
X033.600Y-010.700
X033.700Y-012.200
X032.700Y-013.700
X035.700Y-013.500
X037.600Y-014.000
X039.400Y-015.300
X039.400Y-016.100
X041.200Y-014.100
X043.000Y-013.300
X044.800Y-010.700
X049.100Y-010.700
X049.200Y-012.200
X048.200Y-013.700
X051.200Y-013.500
X053.100Y-014.000
X054.900Y-015.300
X054.900Y-016.100
X056.700Y-014.100
X058.500Y-013.300
X060.300Y-010.700
X064.600Y-010.700
X064.700Y-012.200
X063.700Y-013.700
X066.700Y-013.500
X068.600Y-014.000
X070.400Y-015.300
X070.400Y-016.100
X072.200Y-014.100
X074.000Y-013.300
X075.800Y-010.700
X080.100Y-010.700
X080.200Y-012.200
X079.200Y-013.700
X082.200Y-013.500
X084.100Y-014.000
X085.900Y-015.300
X085.900Y-016.100
X087.700Y-014.100
X089.500Y-013.300
X091.300Y-010.700
X091.400Y-006.200
X091.400Y-005.000
X085.900Y-011.600
X088.700Y-016.900
X090.100Y-016.800
X089.900Y-019.900
X088.700Y-019.600
X091.400Y-020.400
X083.100Y-026.100
X079.950Y-020.400
X075.900Y-020.400
X074.400Y-019.900
X073.200Y-019.600
X073.200Y-016.900
X074.600Y-016.800
X070.400Y-011.600
X064.500Y-007.400
X065.200Y-004.800
X060.400Y-005.000
X060.400Y-006.200
X054.900Y-011.600
X057.700Y-016.900
X059.100Y-016.800
X058.900Y-019.900
X057.700Y-019.600
X060.400Y-020.400
X064.450Y-020.400
X067.600Y-026.100
X052.100Y-026.100
X048.950Y-020.400
X044.900Y-020.400
X043.400Y-019.900
X042.200Y-019.600
X042.200Y-016.900
X043.600Y-016.800
X039.400Y-011.600
X033.500Y-007.400
X034.200Y-004.800
X029.400Y-005.000
X029.400Y-006.200
X023.900Y-011.600
X026.700Y-016.900
X028.100Y-016.800
X027.900Y-019.900
X026.700Y-019.600
X029.400Y-020.400
X033.450Y-020.400
X036.600Y-026.100
X021.100Y-026.100
X017.950Y-020.400
X013.900Y-020.400
X012.400Y-019.900
X011.200Y-019.600
X011.200Y-016.900
X012.600Y-016.800
X013.900Y-006.200
X013.900Y-005.000
X018.000Y-007.400
X018.700Y-004.800
X044.900Y-005.000
X044.900Y-006.200
X049.000Y-007.400
X049.700Y-004.800
X075.900Y-005.000
X075.900Y-006.200
X080.000Y-007.400
X080.700Y-004.800
T02
X004.700Y-029.650
X012.100Y-029.650
X020.200Y-029.650
X027.600Y-029.650
X035.700Y-029.650
X043.100Y-029.650
X051.200Y-029.650
X058.600Y-029.650
X066.700Y-029.650
X074.100Y-029.650
X082.200Y-029.650
X089.600Y-029.650
T03
X004.700Y-015.700
X012.100Y-015.700
X020.200Y-015.700
X027.600Y-015.700
X035.700Y-015.700
X043.100Y-015.700
X051.200Y-015.700
X058.600Y-015.700
X066.700Y-015.700
X074.100Y-015.700
X082.200Y-015.700
X089.600Y-015.700
X089.100Y-001.500
X082.700Y-001.500
X073.600Y-001.500
X067.200Y-001.500
X058.100Y-001.500
X051.700Y-001.500
X042.600Y-001.500
X036.200Y-001.500
X027.100Y-001.500
X020.700Y-001.500
X011.600Y-001.500
X005.200Y-001.500
T04
X002.100Y-015.300
X008.400Y-008.400
X014.700Y-015.300
X017.600Y-015.300
X023.900Y-008.400
X030.200Y-015.300
X033.100Y-015.300
X039.400Y-008.400
X045.700Y-015.300
X048.600Y-015.300
X054.900Y-008.400
X061.200Y-015.300
X064.100Y-015.300
X070.400Y-008.400
X076.700Y-015.300
X079.600Y-015.300
X085.900Y-008.400
X092.200Y-015.300
M30
