%FSLAX34Y34*%
%MOMM*%
%LNSILK_TOP*%
G71*
G01*
%ADD10C, 1.500*%
%ADD11C, 1.200*%
%ADD12C, 0.150*%
%ADD13C, 0.062*%
%LPD*%
X310000Y632000D02*
G54D10*
D03*
X247000Y563000D02*
G54D10*
D03*
X373000Y563000D02*
G54D10*
D03*
X278000Y701000D02*
G54D11*
D03*
X342000Y701000D02*
G54D11*
D03*
X347000Y559000D02*
G54D11*
D03*
X273000Y559000D02*
G54D11*
D03*
G54D12*
X235000Y707000D02*
X385000Y707000D01*
X385000Y363500D01*
X235000Y363500D01*
X235000Y707000D01*
G54D12*
X385000Y547000D02*
X235000Y547000D01*
G54D13*
X301000Y648556D02*
X303222Y651889D01*
X303222Y643000D01*
G54D13*
X305889Y643000D02*
X305889Y641889D01*
X305444Y640778D01*
X305000Y640778D01*
G54D13*
X311223Y651889D02*
X307667Y651889D01*
X307667Y648000D01*
X308111Y648000D01*
X309000Y648556D01*
X309889Y648556D01*
X310778Y648000D01*
X311223Y646889D01*
X311223Y644667D01*
X310778Y643556D01*
X309889Y643000D01*
X309000Y643000D01*
X308111Y643556D01*
X307667Y644667D01*
G54D13*
X313001Y643000D02*
X313001Y648000D01*
G54D13*
X313001Y647111D02*
X313890Y648000D01*
X314779Y647667D01*
X315223Y646889D01*
X315223Y643000D01*
G54D13*
X315223Y647111D02*
X316112Y648000D01*
X317001Y647667D01*
X317445Y646889D01*
X317445Y643000D01*
G54D13*
X319223Y643000D02*
X319223Y648000D01*
G54D13*
X319223Y647111D02*
X320112Y648000D01*
X321001Y647667D01*
X321445Y646889D01*
X321445Y643000D01*
G54D13*
X321445Y647111D02*
X322334Y648000D01*
X323223Y647667D01*
X323667Y646889D01*
X323667Y643000D01*
G54D13*
X240000Y580556D02*
X242222Y583889D01*
X242222Y575000D01*
G54D13*
X244889Y575000D02*
X244889Y573889D01*
X244444Y572778D01*
X244000Y572778D01*
G54D13*
X250223Y583889D02*
X246667Y583889D01*
X246667Y580000D01*
X247111Y580000D01*
X248000Y580556D01*
X248889Y580556D01*
X249778Y580000D01*
X250223Y578889D01*
X250223Y576667D01*
X249778Y575556D01*
X248889Y575000D01*
X248000Y575000D01*
X247111Y575556D01*
X246667Y576667D01*
G54D13*
X252001Y575000D02*
X252001Y580000D01*
G54D13*
X252001Y579111D02*
X252890Y580000D01*
X253779Y579667D01*
X254223Y578889D01*
X254223Y575000D01*
G54D13*
X254223Y579111D02*
X255112Y580000D01*
X256001Y579667D01*
X256445Y578889D01*
X256445Y575000D01*
G54D13*
X258223Y575000D02*
X258223Y580000D01*
G54D13*
X258223Y579111D02*
X259112Y580000D01*
X260001Y579667D01*
X260445Y578889D01*
X260445Y575000D01*
G54D13*
X260445Y579111D02*
X261334Y580000D01*
X262223Y579667D01*
X262667Y578889D01*
X262667Y575000D01*
G54D13*
X359000Y579556D02*
X361222Y582889D01*
X361222Y574000D01*
G54D13*
X363889Y574000D02*
X363889Y572889D01*
X363444Y571778D01*
X363000Y571778D01*
G54D13*
X369223Y582889D02*
X365667Y582889D01*
X365667Y579000D01*
X366111Y579000D01*
X367000Y579556D01*
X367889Y579556D01*
X368778Y579000D01*
X369223Y577889D01*
X369223Y575667D01*
X368778Y574556D01*
X367889Y574000D01*
X367000Y574000D01*
X366111Y574556D01*
X365667Y575667D01*
G54D13*
X371001Y574000D02*
X371001Y579000D01*
G54D13*
X371001Y578111D02*
X371890Y579000D01*
X372779Y578667D01*
X373223Y577889D01*
X373223Y574000D01*
G54D13*
X373223Y578111D02*
X374112Y579000D01*
X375001Y578667D01*
X375445Y577889D01*
X375445Y574000D01*
G54D13*
X377223Y574000D02*
X377223Y579000D01*
G54D13*
X377223Y578111D02*
X378112Y579000D01*
X379001Y578667D01*
X379445Y577889D01*
X379445Y574000D01*
G54D13*
X379445Y578111D02*
X380334Y579000D01*
X381223Y578667D01*
X381667Y577889D01*
X381667Y574000D01*
G54D13*
X270000Y689556D02*
X272222Y692889D01*
X272222Y684000D01*
G54D13*
X274889Y684000D02*
X274889Y682889D01*
X274444Y681778D01*
X274000Y681778D01*
G54D13*
X280223Y684000D02*
X276667Y684000D01*
X276667Y684556D01*
X277111Y685667D01*
X279778Y689000D01*
X280223Y690111D01*
X280223Y691222D01*
X279778Y692333D01*
X278889Y692889D01*
X278000Y692889D01*
X277111Y692333D01*
X276667Y691222D01*
G54D13*
X282001Y684000D02*
X282001Y689000D01*
G54D13*
X282001Y688111D02*
X282890Y689000D01*
X283779Y688667D01*
X284223Y687889D01*
X284223Y684000D01*
G54D13*
X284223Y688111D02*
X285112Y689000D01*
X286001Y688667D01*
X286445Y687889D01*
X286445Y684000D01*
G54D13*
X288223Y684000D02*
X288223Y689000D01*
G54D13*
X288223Y688111D02*
X289112Y689000D01*
X290001Y688667D01*
X290445Y687889D01*
X290445Y684000D01*
G54D13*
X290445Y688111D02*
X291334Y689000D01*
X292223Y688667D01*
X292667Y687889D01*
X292667Y684000D01*
G54D13*
X331000Y689556D02*
X333222Y692889D01*
X333222Y684000D01*
G54D13*
X335889Y684000D02*
X335889Y682889D01*
X335444Y681778D01*
X335000Y681778D01*
G54D13*
X341223Y684000D02*
X337667Y684000D01*
X337667Y684556D01*
X338111Y685667D01*
X340778Y689000D01*
X341223Y690111D01*
X341223Y691222D01*
X340778Y692333D01*
X339889Y692889D01*
X339000Y692889D01*
X338111Y692333D01*
X337667Y691222D01*
G54D13*
X343001Y684000D02*
X343001Y689000D01*
G54D13*
X343001Y688111D02*
X343890Y689000D01*
X344779Y688667D01*
X345223Y687889D01*
X345223Y684000D01*
G54D13*
X345223Y688111D02*
X346112Y689000D01*
X347001Y688667D01*
X347445Y687889D01*
X347445Y684000D01*
G54D13*
X349223Y684000D02*
X349223Y689000D01*
G54D13*
X349223Y688111D02*
X350112Y689000D01*
X351001Y688667D01*
X351445Y687889D01*
X351445Y684000D01*
G54D13*
X351445Y688111D02*
X352334Y689000D01*
X353223Y688667D01*
X353667Y687889D01*
X353667Y684000D01*
G54D13*
X273000Y574556D02*
X275222Y577889D01*
X275222Y569000D01*
G54D13*
X277889Y569000D02*
X277889Y567889D01*
X277444Y566778D01*
X277000Y566778D01*
G54D13*
X283223Y569000D02*
X279667Y569000D01*
X279667Y569556D01*
X280111Y570667D01*
X282778Y574000D01*
X283223Y575111D01*
X283223Y576222D01*
X282778Y577333D01*
X281889Y577889D01*
X281000Y577889D01*
X280111Y577333D01*
X279667Y576222D01*
G54D13*
X285001Y569000D02*
X285001Y574000D01*
G54D13*
X285001Y573111D02*
X285890Y574000D01*
X286779Y573667D01*
X287223Y572889D01*
X287223Y569000D01*
G54D13*
X287223Y573111D02*
X288112Y574000D01*
X289001Y573667D01*
X289445Y572889D01*
X289445Y569000D01*
G54D13*
X291223Y569000D02*
X291223Y574000D01*
G54D13*
X291223Y573111D02*
X292112Y574000D01*
X293001Y573667D01*
X293445Y572889D01*
X293445Y569000D01*
G54D13*
X293445Y573111D02*
X294334Y574000D01*
X295223Y573667D01*
X295667Y572889D01*
X295667Y569000D01*
G54D13*
X324000Y573556D02*
X326222Y576889D01*
X326222Y568000D01*
G54D13*
X328889Y568000D02*
X328889Y566889D01*
X328444Y565778D01*
X328000Y565778D01*
G54D13*
X334223Y568000D02*
X330667Y568000D01*
X330667Y568556D01*
X331111Y569667D01*
X333778Y573000D01*
X334223Y574111D01*
X334223Y575222D01*
X333778Y576333D01*
X332889Y576889D01*
X332000Y576889D01*
X331111Y576333D01*
X330667Y575222D01*
G54D13*
X336001Y568000D02*
X336001Y573000D01*
G54D13*
X336001Y572111D02*
X336890Y573000D01*
X337779Y572667D01*
X338223Y571889D01*
X338223Y568000D01*
G54D13*
X338223Y572111D02*
X339112Y573000D01*
X340001Y572667D01*
X340445Y571889D01*
X340445Y568000D01*
G54D13*
X342223Y568000D02*
X342223Y573000D01*
G54D13*
X342223Y572111D02*
X343112Y573000D01*
X344001Y572667D01*
X344445Y571889D01*
X344445Y568000D01*
G54D13*
X344445Y572111D02*
X345334Y573000D01*
X346223Y572667D01*
X346667Y571889D01*
X346667Y568000D01*
M02*
