%FSLAX34Y34*%
%MOMM*%
%LNCOPPER_BOTTOM*%
G71*
G01*
%ADD10C, 2.000*%
%ADD11R, 0.800X2.400*%
%ADD12C, 0.400*%
%ADD13C, 0.700*%
%ADD14C, 0.600*%
%ADD15C, 1.700*%
%ADD16R, 1.800X1.300*%
%ADD17C, 0.500*%
%ADD18R, 1.300X1.800*%
%LPD*%
G36*
X345597Y-461325D02*
X365597Y-461325D01*
X365597Y-481325D01*
X345597Y-481325D01*
X345597Y-461325D01*
G37*
X380997Y-471325D02*
G54D10*
D03*
X406397Y-471325D02*
G54D10*
D03*
X431797Y-471325D02*
G54D10*
D03*
X457197Y-471325D02*
G54D10*
D03*
X457197Y-369725D02*
G54D10*
D03*
X431797Y-369725D02*
G54D10*
D03*
X406397Y-369725D02*
G54D10*
D03*
X380997Y-369725D02*
G54D10*
D03*
G36*
X345597Y-359725D02*
X365597Y-359725D01*
X365597Y-379725D01*
X345597Y-379725D01*
X345597Y-359725D01*
G37*
X482597Y-471325D02*
G54D10*
D03*
X482597Y-369725D02*
G54D10*
D03*
X387000Y-397000D02*
G54D11*
D03*
X399700Y-397000D02*
G54D11*
D03*
X412400Y-397000D02*
G54D11*
D03*
X425100Y-397000D02*
G54D11*
D03*
X437800Y-397000D02*
G54D11*
D03*
X450500Y-397000D02*
G54D11*
D03*
X450500Y-447000D02*
G54D11*
D03*
X437800Y-447000D02*
G54D11*
D03*
X425100Y-447000D02*
G54D11*
D03*
X412400Y-447000D02*
G54D11*
D03*
X399700Y-447000D02*
G54D11*
D03*
X387000Y-447000D02*
G54D11*
D03*
G54D12*
X355597Y-369725D02*
X355597Y-386597D01*
X366000Y-397000D01*
X387000Y-397000D01*
G54D12*
X380997Y-369725D02*
X382725Y-369725D01*
X400000Y-387000D01*
X400000Y-396700D01*
X399700Y-397000D01*
G54D12*
X412400Y-397000D02*
X412400Y-375728D01*
X406397Y-369725D01*
G54D12*
X425100Y-397000D02*
X425100Y-376422D01*
X431797Y-369725D01*
G54D12*
X437800Y-397000D02*
X437800Y-385200D01*
X444000Y-379000D01*
X447922Y-379000D01*
X457197Y-369725D01*
G54D12*
X482597Y-369725D02*
X482597Y-387403D01*
X473000Y-397000D01*
X450500Y-397000D01*
G54D12*
X482597Y-471325D02*
X482597Y-456597D01*
X473000Y-447000D01*
X450500Y-447000D01*
G54D12*
X437800Y-447000D02*
X437800Y-456800D01*
X444000Y-463000D01*
X448872Y-463000D01*
X457197Y-471325D01*
G54D12*
X425100Y-447000D02*
X425100Y-464628D01*
X431797Y-471325D01*
G54D12*
X412400Y-447000D02*
X412400Y-465322D01*
X406397Y-471325D01*
G54D12*
X399700Y-447000D02*
X399700Y-457300D01*
X392000Y-465000D01*
X387322Y-465000D01*
X380997Y-471325D01*
G54D12*
X387000Y-447000D02*
X363000Y-447000D01*
X355000Y-455000D01*
X355000Y-470728D01*
X355597Y-471325D01*
X109000Y-146000D02*
G54D13*
D03*
X164000Y-80000D02*
G54D13*
D03*
X164000Y-92000D02*
G54D13*
D03*
X163000Y-137000D02*
G54D13*
D03*
X127000Y-171000D02*
G54D13*
D03*
X91000Y-170000D02*
G54D13*
D03*
X51000Y-137000D02*
G54D13*
D03*
X50000Y-104000D02*
G54D13*
D03*
X57000Y-78000D02*
G54D13*
D03*
G54D14*
X109000Y-149000D02*
X109000Y-183000D01*
G54D15*
X137500Y-326500D02*
X154500Y-326500D01*
G54D15*
X63500Y-326500D02*
X80500Y-326500D01*
X53900Y-213600D02*
G54D16*
D03*
X54000Y-246100D02*
G54D16*
D03*
X81400Y-213600D02*
G54D16*
D03*
X81500Y-246100D02*
G54D16*
D03*
X108900Y-213600D02*
G54D16*
D03*
X109000Y-246100D02*
G54D16*
D03*
X136400Y-213600D02*
G54D16*
D03*
X136500Y-246100D02*
G54D16*
D03*
X163900Y-213600D02*
G54D16*
D03*
X164000Y-246100D02*
G54D16*
D03*
X53900Y-271100D02*
G54D16*
D03*
X54000Y-303600D02*
G54D16*
D03*
X81400Y-271100D02*
G54D16*
D03*
X81500Y-303600D02*
G54D16*
D03*
X136400Y-271100D02*
G54D16*
D03*
X136500Y-303600D02*
G54D16*
D03*
X163900Y-271100D02*
G54D16*
D03*
X164000Y-303600D02*
G54D16*
D03*
G54D14*
X164000Y-318000D02*
X164000Y-303600D01*
G54D14*
X163900Y-271100D02*
X163900Y-246200D01*
X164000Y-246100D01*
G54D14*
X163900Y-213600D02*
X136400Y-213600D01*
G54D14*
X136500Y-246100D02*
X136500Y-271000D01*
X136400Y-271100D01*
G54D14*
X136500Y-303600D02*
X136500Y-292500D01*
X132000Y-288000D01*
X119000Y-288000D01*
X109000Y-278000D01*
X109000Y-246100D01*
G54D14*
X108900Y-213600D02*
X81400Y-213600D01*
G54D14*
X81500Y-246100D02*
X81500Y-236500D01*
X75000Y-230000D01*
X58000Y-230000D01*
X53000Y-225000D01*
X53000Y-214500D01*
X53900Y-213600D01*
G54D14*
X54000Y-246100D02*
X54000Y-271000D01*
X53900Y-271100D01*
G54D14*
X54000Y-303600D02*
X81500Y-303600D01*
G54D14*
X164000Y-80000D02*
X168000Y-80000D01*
X173000Y-85000D01*
X173000Y-161000D01*
X158000Y-176000D01*
X158000Y-196000D01*
X156000Y-198000D01*
X151000Y-198000D01*
X151000Y-198000D02*
G54D13*
D03*
X164000Y-234000D02*
G54D13*
D03*
G54D14*
X164000Y-234000D02*
X164000Y-246100D01*
G54D14*
X127000Y-171000D02*
X123000Y-175000D01*
X123000Y-200000D01*
X137000Y-226000D02*
G54D13*
D03*
G54D14*
X137000Y-246000D02*
X137000Y-226000D01*
X137000Y-199000D02*
G54D13*
D03*
X145000Y-163000D02*
G54D13*
D03*
X149000Y-229000D02*
G54D13*
D03*
G54D14*
X149000Y-229000D02*
X157000Y-229000D01*
X163000Y-223000D01*
X163000Y-214500D01*
X163900Y-213600D01*
G54D17*
X81400Y-271100D02*
X81400Y-277600D01*
X74000Y-285000D01*
X45000Y-285000D01*
X40000Y-280000D01*
X40000Y-201000D01*
X43000Y-198000D01*
G54D17*
X43000Y-198000D02*
X49000Y-198000D01*
X59000Y-188000D01*
X59000Y-178000D01*
X50000Y-169000D01*
X45000Y-169000D01*
X42000Y-167000D01*
G54D17*
X53900Y-213600D02*
X53900Y-204100D01*
X59000Y-199000D01*
X78000Y-199000D01*
X84000Y-193000D01*
X84000Y-182000D01*
X77000Y-175000D01*
X70000Y-175000D01*
X64000Y-169000D01*
X64000Y-150000D01*
X51000Y-137000D01*
X49500Y-234000D02*
G54D13*
D03*
G54D14*
X49000Y-234000D02*
X54000Y-239000D01*
X54000Y-246100D01*
X72000Y-165000D02*
G54D13*
D03*
X42000Y-167000D02*
G54D13*
D03*
G54D14*
X72000Y-165000D02*
X72000Y-143000D01*
X50000Y-121000D01*
X50000Y-104000D01*
G54D17*
X57000Y-78000D02*
X57000Y-83000D01*
X42000Y-98000D01*
X42000Y-142000D01*
X52000Y-152000D01*
X81000Y-291000D02*
G54D13*
D03*
G54D14*
X81000Y-291000D02*
X81000Y-303100D01*
X81500Y-303600D01*
X52000Y-152000D02*
G54D13*
D03*
X109000Y-183000D02*
G54D13*
D03*
X109000Y-191000D02*
G54D13*
D03*
G54D14*
X109000Y-183000D02*
X109000Y-191000D01*
G54D14*
X108900Y-213600D02*
X108900Y-203900D01*
X97000Y-192000D01*
X97000Y-176000D01*
X91000Y-170000D01*
G54D14*
X163000Y-137000D02*
X163000Y-157000D01*
X148000Y-172000D01*
X138000Y-172000D01*
X132000Y-178000D01*
X132000Y-194000D01*
X137000Y-199000D01*
G54D14*
X109000Y-246100D02*
X109000Y-232000D01*
X112000Y-229000D01*
X117000Y-229000D01*
X123000Y-223000D01*
G54D12*
X123000Y-223000D02*
X123000Y-200000D01*
G54D12*
X49000Y-234000D02*
X49000Y-240000D01*
X51000Y-242000D01*
G54D17*
X75000Y-275000D02*
X75000Y-284000D01*
X74000Y-285000D01*
G54D17*
X78000Y-274000D02*
X78000Y-278000D01*
G54D14*
X146000Y-326500D02*
X155500Y-326500D01*
X164000Y-318000D01*
G54D14*
X164000Y-92000D02*
X164000Y-123000D01*
X145000Y-142000D01*
X145000Y-163000D01*
X264000Y-146000D02*
G54D13*
D03*
X319000Y-80000D02*
G54D13*
D03*
X319000Y-92000D02*
G54D13*
D03*
X318000Y-137000D02*
G54D13*
D03*
X282000Y-171000D02*
G54D13*
D03*
X246000Y-170000D02*
G54D13*
D03*
X206000Y-137000D02*
G54D13*
D03*
X205000Y-104000D02*
G54D13*
D03*
X212000Y-78000D02*
G54D13*
D03*
G54D14*
X264000Y-149000D02*
X264000Y-183000D01*
G54D15*
X292500Y-326500D02*
X309500Y-326500D01*
G54D15*
X218500Y-326500D02*
X235500Y-326500D01*
X208900Y-213600D02*
G54D16*
D03*
X209000Y-246100D02*
G54D16*
D03*
X236400Y-213600D02*
G54D16*
D03*
X236500Y-246100D02*
G54D16*
D03*
X263900Y-213600D02*
G54D16*
D03*
X264000Y-246100D02*
G54D16*
D03*
X291400Y-213600D02*
G54D16*
D03*
X291500Y-246100D02*
G54D16*
D03*
X318900Y-213600D02*
G54D16*
D03*
X319000Y-246100D02*
G54D16*
D03*
X208900Y-271100D02*
G54D16*
D03*
X209000Y-303600D02*
G54D16*
D03*
X236400Y-271100D02*
G54D16*
D03*
X236500Y-303600D02*
G54D16*
D03*
X291400Y-271100D02*
G54D16*
D03*
X291500Y-303600D02*
G54D16*
D03*
X318900Y-271100D02*
G54D16*
D03*
X319000Y-303600D02*
G54D16*
D03*
G54D14*
X319000Y-318000D02*
X319000Y-303600D01*
G54D14*
X318900Y-271100D02*
X318900Y-246200D01*
X319000Y-246100D01*
G54D14*
X318900Y-213600D02*
X291400Y-213600D01*
G54D14*
X291500Y-246100D02*
X291500Y-271000D01*
X291400Y-271100D01*
G54D14*
X291500Y-303600D02*
X291500Y-292500D01*
X287000Y-288000D01*
X274000Y-288000D01*
X264000Y-278000D01*
X264000Y-246100D01*
G54D14*
X263900Y-213600D02*
X236400Y-213600D01*
G54D14*
X236500Y-246100D02*
X236500Y-236500D01*
X230000Y-230000D01*
X213000Y-230000D01*
X208000Y-225000D01*
X208000Y-214500D01*
X208900Y-213600D01*
G54D14*
X209000Y-246100D02*
X209000Y-271000D01*
X208900Y-271100D01*
G54D14*
X209000Y-303600D02*
X236500Y-303600D01*
G54D14*
X319000Y-80000D02*
X323000Y-80000D01*
X328000Y-85000D01*
X328000Y-161000D01*
X313000Y-176000D01*
X313000Y-196000D01*
X311000Y-198000D01*
X306000Y-198000D01*
X306000Y-198000D02*
G54D13*
D03*
X319000Y-234000D02*
G54D13*
D03*
G54D14*
X319000Y-234000D02*
X319000Y-246100D01*
G54D14*
X282000Y-171000D02*
X278000Y-175000D01*
X278000Y-200000D01*
X292000Y-226000D02*
G54D13*
D03*
G54D14*
X292000Y-246000D02*
X292000Y-226000D01*
X292000Y-199000D02*
G54D13*
D03*
X300000Y-163000D02*
G54D13*
D03*
X304000Y-229000D02*
G54D13*
D03*
G54D14*
X304000Y-229000D02*
X312000Y-229000D01*
X318000Y-223000D01*
X318000Y-214500D01*
X318900Y-213600D01*
G54D17*
X236400Y-271100D02*
X236400Y-277600D01*
X229000Y-285000D01*
X200000Y-285000D01*
X195000Y-280000D01*
X195000Y-201000D01*
X198000Y-198000D01*
G54D17*
X198000Y-198000D02*
X204000Y-198000D01*
X214000Y-188000D01*
X214000Y-178000D01*
X205000Y-169000D01*
X200000Y-169000D01*
X197000Y-167000D01*
G54D17*
X208900Y-213600D02*
X208900Y-204100D01*
X214000Y-199000D01*
X233000Y-199000D01*
X239000Y-193000D01*
X239000Y-182000D01*
X232000Y-175000D01*
X225000Y-175000D01*
X219000Y-169000D01*
X219000Y-150000D01*
X206000Y-137000D01*
X204500Y-234000D02*
G54D13*
D03*
G54D14*
X204000Y-234000D02*
X209000Y-239000D01*
X209000Y-246100D01*
X227000Y-165000D02*
G54D13*
D03*
X197000Y-167000D02*
G54D13*
D03*
G54D14*
X227000Y-165000D02*
X227000Y-143000D01*
X205000Y-121000D01*
X205000Y-104000D01*
G54D17*
X212000Y-78000D02*
X212000Y-83000D01*
X197000Y-98000D01*
X197000Y-142000D01*
X207000Y-152000D01*
X236000Y-291000D02*
G54D13*
D03*
G54D14*
X236000Y-291000D02*
X236000Y-303100D01*
X236500Y-303600D01*
X207000Y-152000D02*
G54D13*
D03*
X264000Y-183000D02*
G54D13*
D03*
X264000Y-191000D02*
G54D13*
D03*
G54D14*
X264000Y-183000D02*
X264000Y-191000D01*
G54D14*
X263900Y-213600D02*
X263900Y-203900D01*
X252000Y-192000D01*
X252000Y-176000D01*
X246000Y-170000D01*
G54D14*
X318000Y-137000D02*
X318000Y-157000D01*
X303000Y-172000D01*
X293000Y-172000D01*
X287000Y-178000D01*
X287000Y-194000D01*
X292000Y-199000D01*
G54D14*
X264000Y-246100D02*
X264000Y-232000D01*
X267000Y-229000D01*
X272000Y-229000D01*
X278000Y-223000D01*
G54D12*
X278000Y-223000D02*
X278000Y-200000D01*
G54D12*
X204000Y-234000D02*
X204000Y-240000D01*
X206000Y-242000D01*
G54D17*
X230000Y-275000D02*
X230000Y-284000D01*
X229000Y-285000D01*
G54D17*
X233000Y-274000D02*
X233000Y-278000D01*
G54D14*
X301000Y-326500D02*
X310500Y-326500D01*
X319000Y-318000D01*
G54D14*
X319000Y-92000D02*
X319000Y-123000D01*
X300000Y-142000D01*
X300000Y-163000D01*
X419000Y-146000D02*
G54D13*
D03*
X474000Y-80000D02*
G54D13*
D03*
X474000Y-92000D02*
G54D13*
D03*
X473000Y-137000D02*
G54D13*
D03*
X437000Y-171000D02*
G54D13*
D03*
X401000Y-170000D02*
G54D13*
D03*
X361000Y-137000D02*
G54D13*
D03*
X360000Y-104000D02*
G54D13*
D03*
X367000Y-78000D02*
G54D13*
D03*
G54D14*
X419000Y-149000D02*
X419000Y-183000D01*
G54D15*
X447500Y-326500D02*
X464500Y-326500D01*
G54D15*
X373500Y-326500D02*
X390500Y-326500D01*
X363900Y-213600D02*
G54D16*
D03*
X364000Y-246100D02*
G54D16*
D03*
X391400Y-213600D02*
G54D16*
D03*
X391500Y-246100D02*
G54D16*
D03*
X418900Y-213600D02*
G54D16*
D03*
X419000Y-246100D02*
G54D16*
D03*
X446400Y-213600D02*
G54D16*
D03*
X446500Y-246100D02*
G54D16*
D03*
X473900Y-213600D02*
G54D16*
D03*
X474000Y-246100D02*
G54D16*
D03*
X363900Y-271100D02*
G54D16*
D03*
X364000Y-303600D02*
G54D16*
D03*
X391400Y-271100D02*
G54D16*
D03*
X391500Y-303600D02*
G54D16*
D03*
X446400Y-271100D02*
G54D16*
D03*
X446500Y-303600D02*
G54D16*
D03*
X473900Y-271100D02*
G54D16*
D03*
X474000Y-303600D02*
G54D16*
D03*
G54D14*
X474000Y-318000D02*
X474000Y-303600D01*
G54D14*
X473900Y-271100D02*
X473900Y-246200D01*
X474000Y-246100D01*
G54D14*
X473900Y-213600D02*
X446400Y-213600D01*
G54D14*
X446500Y-246100D02*
X446500Y-271000D01*
X446400Y-271100D01*
G54D14*
X446500Y-303600D02*
X446500Y-292500D01*
X442000Y-288000D01*
X429000Y-288000D01*
X419000Y-278000D01*
X419000Y-246100D01*
G54D14*
X418900Y-213600D02*
X391400Y-213600D01*
G54D14*
X391500Y-246100D02*
X391500Y-236500D01*
X385000Y-230000D01*
X368000Y-230000D01*
X363000Y-225000D01*
X363000Y-214500D01*
X363900Y-213600D01*
G54D14*
X364000Y-246100D02*
X364000Y-271000D01*
X363900Y-271100D01*
G54D14*
X364000Y-303600D02*
X391500Y-303600D01*
G54D14*
X474000Y-80000D02*
X478000Y-80000D01*
X483000Y-85000D01*
X483000Y-161000D01*
X468000Y-176000D01*
X468000Y-196000D01*
X466000Y-198000D01*
X461000Y-198000D01*
X461000Y-198000D02*
G54D13*
D03*
X474000Y-234000D02*
G54D13*
D03*
G54D14*
X474000Y-234000D02*
X474000Y-246100D01*
G54D14*
X437000Y-171000D02*
X433000Y-175000D01*
X433000Y-200000D01*
X447000Y-226000D02*
G54D13*
D03*
G54D14*
X447000Y-246000D02*
X447000Y-226000D01*
X447000Y-199000D02*
G54D13*
D03*
X455000Y-163000D02*
G54D13*
D03*
X459000Y-229000D02*
G54D13*
D03*
G54D14*
X459000Y-229000D02*
X467000Y-229000D01*
X473000Y-223000D01*
X473000Y-214500D01*
X473900Y-213600D01*
G54D17*
X391400Y-271100D02*
X391400Y-277600D01*
X384000Y-285000D01*
X355000Y-285000D01*
X350000Y-280000D01*
X350000Y-201000D01*
X353000Y-198000D01*
G54D17*
X353000Y-198000D02*
X359000Y-198000D01*
X369000Y-188000D01*
X369000Y-178000D01*
X360000Y-169000D01*
X355000Y-169000D01*
X352000Y-167000D01*
G54D17*
X363900Y-213600D02*
X363900Y-204100D01*
X369000Y-199000D01*
X388000Y-199000D01*
X394000Y-193000D01*
X394000Y-182000D01*
X387000Y-175000D01*
X380000Y-175000D01*
X374000Y-169000D01*
X374000Y-150000D01*
X361000Y-137000D01*
X359500Y-234000D02*
G54D13*
D03*
G54D14*
X359000Y-234000D02*
X364000Y-239000D01*
X364000Y-246100D01*
X382000Y-165000D02*
G54D13*
D03*
X352000Y-167000D02*
G54D13*
D03*
G54D14*
X382000Y-165000D02*
X382000Y-143000D01*
X360000Y-121000D01*
X360000Y-104000D01*
G54D17*
X367000Y-78000D02*
X367000Y-83000D01*
X352000Y-98000D01*
X352000Y-142000D01*
X362000Y-152000D01*
X391000Y-291000D02*
G54D13*
D03*
G54D14*
X391000Y-291000D02*
X391000Y-303100D01*
X391500Y-303600D01*
X362000Y-152000D02*
G54D13*
D03*
X419000Y-183000D02*
G54D13*
D03*
X419000Y-191000D02*
G54D13*
D03*
G54D14*
X419000Y-183000D02*
X419000Y-191000D01*
G54D14*
X418900Y-213600D02*
X418900Y-203900D01*
X407000Y-192000D01*
X407000Y-176000D01*
X401000Y-170000D01*
G54D14*
X473000Y-137000D02*
X473000Y-157000D01*
X458000Y-172000D01*
X448000Y-172000D01*
X442000Y-178000D01*
X442000Y-194000D01*
X447000Y-199000D01*
G54D14*
X419000Y-246100D02*
X419000Y-232000D01*
X422000Y-229000D01*
X427000Y-229000D01*
X433000Y-223000D01*
G54D12*
X433000Y-223000D02*
X433000Y-200000D01*
G54D12*
X359000Y-234000D02*
X359000Y-240000D01*
X361000Y-242000D01*
G54D17*
X385000Y-275000D02*
X385000Y-284000D01*
X384000Y-285000D01*
G54D17*
X388000Y-274000D02*
X388000Y-278000D01*
G54D14*
X456000Y-326500D02*
X465500Y-326500D01*
X474000Y-318000D01*
G54D14*
X474000Y-92000D02*
X474000Y-123000D01*
X455000Y-142000D01*
X455000Y-163000D01*
X141750Y-418250D02*
G54D13*
D03*
X75750Y-363250D02*
G54D13*
D03*
X87750Y-363250D02*
G54D13*
D03*
X132750Y-364250D02*
G54D13*
D03*
X166750Y-400250D02*
G54D13*
D03*
X165750Y-436250D02*
G54D13*
D03*
X132750Y-476250D02*
G54D13*
D03*
X99750Y-477250D02*
G54D13*
D03*
X73750Y-470250D02*
G54D13*
D03*
G54D14*
X144750Y-418250D02*
X178750Y-418250D01*
G54D15*
X322250Y-389750D02*
X322250Y-372750D01*
G54D15*
X322250Y-463750D02*
X322250Y-446750D01*
X209350Y-473350D02*
G54D18*
D03*
X241850Y-473250D02*
G54D18*
D03*
X209350Y-445850D02*
G54D18*
D03*
X241850Y-445750D02*
G54D18*
D03*
X209350Y-418350D02*
G54D18*
D03*
X241850Y-418250D02*
G54D18*
D03*
X209350Y-390850D02*
G54D18*
D03*
X241850Y-390750D02*
G54D18*
D03*
X209350Y-363350D02*
G54D18*
D03*
X241850Y-363250D02*
G54D18*
D03*
X266850Y-473350D02*
G54D18*
D03*
X299350Y-473250D02*
G54D18*
D03*
X266850Y-445850D02*
G54D18*
D03*
X299350Y-445750D02*
G54D18*
D03*
X266850Y-390850D02*
G54D18*
D03*
X299350Y-390750D02*
G54D18*
D03*
X266850Y-363350D02*
G54D18*
D03*
X299350Y-363250D02*
G54D18*
D03*
G54D14*
X313750Y-363250D02*
X299350Y-363250D01*
G54D14*
X266850Y-363350D02*
X241950Y-363350D01*
X241850Y-363250D01*
G54D14*
X209350Y-363350D02*
X209350Y-390850D01*
G54D14*
X241850Y-390750D02*
X266750Y-390750D01*
X266850Y-390850D01*
G54D14*
X299350Y-390750D02*
X288250Y-390750D01*
X283750Y-395250D01*
X283750Y-408250D01*
X273750Y-418250D01*
X241850Y-418250D01*
G54D14*
X209350Y-418350D02*
X209350Y-445850D01*
G54D14*
X241850Y-445750D02*
X232250Y-445750D01*
X225750Y-452250D01*
X225750Y-469250D01*
X220750Y-474250D01*
X210250Y-474250D01*
X209350Y-473350D01*
G54D14*
X241850Y-473250D02*
X266750Y-473250D01*
X266850Y-473350D01*
G54D14*
X299350Y-473250D02*
X299350Y-445750D01*
G54D14*
X75750Y-363250D02*
X75750Y-359250D01*
X80750Y-354250D01*
X156750Y-354250D01*
X171750Y-369250D01*
X191750Y-369250D01*
X193750Y-371250D01*
X193750Y-376250D01*
X193750Y-376250D02*
G54D13*
D03*
X229750Y-363250D02*
G54D13*
D03*
G54D14*
X229750Y-363250D02*
X241850Y-363250D01*
G54D14*
X166750Y-400250D02*
X170750Y-404250D01*
X195750Y-404250D01*
X221750Y-390250D02*
G54D13*
D03*
G54D14*
X241750Y-390250D02*
X221750Y-390250D01*
X194750Y-390250D02*
G54D13*
D03*
X158750Y-382250D02*
G54D13*
D03*
X224750Y-378250D02*
G54D13*
D03*
G54D14*
X224750Y-378250D02*
X224750Y-370250D01*
X218750Y-364250D01*
X210250Y-364250D01*
X209350Y-363350D01*
G54D17*
X266850Y-445850D02*
X273350Y-445850D01*
X280750Y-453250D01*
X280750Y-482250D01*
X275750Y-487250D01*
X196750Y-487250D01*
X193750Y-484250D01*
G54D17*
X193750Y-484250D02*
X193750Y-478250D01*
X183750Y-468250D01*
X173750Y-468250D01*
X164750Y-477250D01*
X164750Y-482250D01*
X162750Y-485250D01*
G54D17*
X209350Y-473350D02*
X199850Y-473350D01*
X194750Y-468250D01*
X194750Y-449250D01*
X188750Y-443250D01*
X177750Y-443250D01*
X170750Y-450250D01*
X170750Y-457250D01*
X164750Y-463250D01*
X145750Y-463250D01*
X132750Y-476250D01*
X229750Y-477750D02*
G54D13*
D03*
G54D14*
X229750Y-478250D02*
X234750Y-473250D01*
X241850Y-473250D01*
X160750Y-455250D02*
G54D13*
D03*
X162750Y-485250D02*
G54D13*
D03*
G54D14*
X160750Y-455250D02*
X138750Y-455250D01*
X116750Y-477250D01*
X99750Y-477250D01*
G54D17*
X73750Y-470250D02*
X78750Y-470250D01*
X93750Y-485250D01*
X137750Y-485250D01*
X147750Y-475250D01*
X286750Y-446250D02*
G54D13*
D03*
G54D14*
X286750Y-446250D02*
X298850Y-446250D01*
X299350Y-445750D01*
X147750Y-475250D02*
G54D13*
D03*
X178750Y-418250D02*
G54D13*
D03*
X186750Y-418250D02*
G54D13*
D03*
G54D14*
X178750Y-418250D02*
X186750Y-418250D01*
G54D14*
X209350Y-418350D02*
X199650Y-418350D01*
X187750Y-430250D01*
X171750Y-430250D01*
X165750Y-436250D01*
G54D14*
X132750Y-364250D02*
X152750Y-364250D01*
X167750Y-379250D01*
X167750Y-389250D01*
X173750Y-395250D01*
X189750Y-395250D01*
X194750Y-390250D01*
G54D14*
X241850Y-418250D02*
X227750Y-418250D01*
X224750Y-415250D01*
X224750Y-410250D01*
X218750Y-404250D01*
G54D12*
X218750Y-404250D02*
X195750Y-404250D01*
G54D12*
X229750Y-478250D02*
X235750Y-478250D01*
X237750Y-476250D01*
G54D17*
X270750Y-452250D02*
X279750Y-452250D01*
X280750Y-453250D01*
G54D17*
X269750Y-449250D02*
X273750Y-449250D01*
G54D14*
X322250Y-381250D02*
X322250Y-371750D01*
X313750Y-363250D01*
G54D14*
X87750Y-363250D02*
X118750Y-363250D01*
X137750Y-382250D01*
X158750Y-382250D01*
M02*
