%FSLAX34Y34*%
%MOMM*%
%LNSILK_TOP*%
G71*
G01*
%ADD10C, 0.150*%
%ADD11C, 0.175*%
%ADD12C, 0.300*%
%ADD13C, 0.151*%
%LPD*%
G54D10*
X153000Y-174000D02*
X3000Y-174000D01*
G54D11*
X60319Y-266278D02*
X62764Y-276056D01*
X65208Y-266278D01*
G54D11*
X68630Y-276056D02*
X71074Y-266278D01*
X73519Y-276056D01*
G54D11*
X69608Y-272389D02*
X72541Y-272389D01*
G54D11*
X76941Y-266278D02*
X76941Y-276056D01*
X80363Y-276056D01*
G54D11*
X83785Y-266278D02*
X83785Y-274222D01*
X84274Y-275444D01*
X85252Y-276056D01*
X86230Y-276056D01*
X87207Y-275444D01*
X87696Y-274222D01*
X87696Y-266278D01*
G54D11*
X94540Y-276056D02*
X91118Y-276056D01*
X91118Y-266278D01*
X94540Y-266278D01*
G54D11*
X91118Y-271167D02*
X94540Y-271167D01*
G36*
X7669Y-217919D02*
X147669Y-217919D01*
X147669Y-259919D01*
X7669Y-259919D01*
X7669Y-217919D01*
G37*
G54D12*
X7669Y-217919D02*
X147669Y-217919D01*
X147669Y-259919D01*
X7669Y-259919D01*
X7669Y-217919D01*
G36*
X114000Y-265000D02*
X114000Y-277000D01*
X102000Y-277000D01*
X102000Y-265000D01*
X114000Y-265000D01*
G37*
G54D10*
X114000Y-265000D02*
X114000Y-277000D01*
X102000Y-277000D01*
X102000Y-265000D01*
X114000Y-265000D01*
G36*
X131000Y-265000D02*
X131000Y-277000D01*
X119000Y-277000D01*
X119000Y-265000D01*
X131000Y-265000D01*
G37*
G54D10*
X131000Y-265000D02*
X131000Y-277000D01*
X119000Y-277000D01*
X119000Y-265000D01*
X131000Y-265000D01*
G36*
X148000Y-265000D02*
X148000Y-277000D01*
X136000Y-277000D01*
X136000Y-265000D01*
X148000Y-265000D01*
G37*
G54D10*
X148000Y-265000D02*
X148000Y-277000D01*
X136000Y-277000D01*
X136000Y-265000D01*
X148000Y-265000D01*
G36*
X19000Y-265000D02*
X19000Y-277000D01*
X7000Y-277000D01*
X7000Y-265000D01*
X19000Y-265000D01*
G37*
G54D10*
X19000Y-265000D02*
X19000Y-277000D01*
X7000Y-277000D01*
X7000Y-265000D01*
X19000Y-265000D01*
G36*
X36000Y-265000D02*
X36000Y-277000D01*
X24000Y-277000D01*
X24000Y-265000D01*
X36000Y-265000D01*
G37*
G54D10*
X36000Y-265000D02*
X36000Y-277000D01*
X24000Y-277000D01*
X24000Y-265000D01*
X36000Y-265000D01*
G36*
X53000Y-265000D02*
X53000Y-277000D01*
X41000Y-277000D01*
X41000Y-265000D01*
X53000Y-265000D01*
G37*
G54D10*
X53000Y-265000D02*
X53000Y-277000D01*
X41000Y-277000D01*
X41000Y-265000D01*
X53000Y-265000D01*
G54D13*
X9319Y-289056D02*
X9319Y-280611D01*
G54D13*
X9319Y-285678D02*
X10163Y-284622D01*
X11852Y-284306D01*
X13541Y-284622D01*
X14386Y-285678D01*
X14386Y-287789D01*
X13541Y-288844D01*
X11852Y-289056D01*
X10163Y-288844D01*
X9319Y-287789D01*
G54D13*
X17342Y-289056D02*
X17342Y-284306D01*
G54D13*
X17342Y-285361D02*
X19031Y-284306D01*
X20720Y-284306D01*
G54D13*
X28743Y-288528D02*
X27392Y-289056D01*
X25703Y-289056D01*
X24014Y-288528D01*
X23676Y-287472D01*
X23676Y-285678D01*
X24520Y-284622D01*
X26209Y-284306D01*
X27898Y-284622D01*
X28743Y-285361D01*
X28743Y-286417D01*
X23676Y-286417D01*
G54D13*
X31699Y-284833D02*
X33388Y-284306D01*
X35415Y-284306D01*
X36766Y-285361D01*
X36766Y-289056D01*
G54D13*
X36766Y-287472D02*
X35921Y-286417D01*
X34232Y-286206D01*
X32543Y-286417D01*
X31699Y-287472D01*
X32037Y-288528D01*
X33388Y-289056D01*
X34232Y-289056D01*
X34570Y-289056D01*
X35921Y-288528D01*
X36766Y-287472D01*
G54D13*
X39722Y-289056D02*
X39722Y-280611D01*
G54D13*
X42255Y-285889D02*
X44789Y-289056D01*
G54D13*
X39722Y-286944D02*
X44789Y-284306D01*
G54D13*
X47745Y-285361D02*
X54501Y-285361D01*
G54D13*
X57457Y-289056D02*
X57457Y-280611D01*
G54D13*
X57457Y-285678D02*
X58301Y-284622D01*
X59990Y-284306D01*
X61679Y-284622D01*
X62524Y-285678D01*
X62524Y-287789D01*
X61679Y-288844D01*
X59990Y-289056D01*
X58301Y-288844D01*
X57457Y-287789D01*
G54D13*
X70547Y-288528D02*
X69196Y-289056D01*
X67507Y-289056D01*
X65818Y-288528D01*
X65480Y-287472D01*
X65480Y-285678D01*
X66324Y-284622D01*
X68013Y-284306D01*
X69702Y-284622D01*
X70547Y-285361D01*
X70547Y-286417D01*
X65480Y-286417D01*
G54D13*
X75192Y-289056D02*
X75192Y-281139D01*
X76036Y-280611D01*
X76881Y-280928D01*
G54D13*
X73503Y-284306D02*
X76881Y-284306D01*
G54D13*
X84904Y-287789D02*
X84904Y-285678D01*
X84059Y-284622D01*
X82370Y-284306D01*
X80681Y-284622D01*
X79837Y-285678D01*
X79837Y-287789D01*
X80681Y-288844D01*
X82370Y-289056D01*
X84059Y-288844D01*
X84904Y-287789D01*
G54D13*
X87860Y-289056D02*
X87860Y-284306D01*
G54D13*
X87860Y-285361D02*
X89549Y-284306D01*
X91238Y-284306D01*
G54D13*
X99261Y-288528D02*
X97910Y-289056D01*
X96221Y-289056D01*
X94532Y-288528D01*
X94194Y-287472D01*
X94194Y-285678D01*
X95038Y-284622D01*
X96727Y-284306D01*
X98416Y-284622D01*
X99261Y-285361D01*
X99261Y-286417D01*
X94194Y-286417D01*
G54D13*
X102217Y-285361D02*
X108973Y-285361D01*
G54D13*
X111929Y-289056D02*
X111929Y-284306D01*
G54D13*
X111929Y-285150D02*
X113618Y-284306D01*
X115307Y-284622D01*
X116151Y-285361D01*
X116151Y-289056D01*
G54D13*
X116151Y-285150D02*
X117840Y-284306D01*
X119529Y-284622D01*
X120373Y-285361D01*
X120373Y-289056D01*
G54D13*
X123329Y-284833D02*
X125018Y-284306D01*
X127045Y-284306D01*
X128396Y-285361D01*
X128396Y-289056D01*
G54D13*
X128396Y-287472D02*
X127551Y-286417D01*
X125862Y-286206D01*
X124173Y-286417D01*
X123329Y-287472D01*
X123667Y-288528D01*
X125018Y-289056D01*
X125862Y-289056D01*
X126200Y-289056D01*
X127551Y-288528D01*
X128396Y-287472D01*
G54D13*
X131352Y-289056D02*
X131352Y-280611D01*
G54D13*
X133885Y-285889D02*
X136419Y-289056D01*
G54D13*
X131352Y-286944D02*
X136419Y-284306D01*
G54D13*
X144442Y-288528D02*
X143091Y-289056D01*
X141402Y-289056D01*
X139713Y-288528D01*
X139375Y-287472D01*
X139375Y-285678D01*
X140219Y-284622D01*
X141908Y-284306D01*
X143597Y-284622D01*
X144442Y-285361D01*
X144442Y-286417D01*
X139375Y-286417D01*
M02*
