; Drill file
; Format: 3.3 (000.000)
M48
METRIC
T01C0.3
T02C1.0
T03C1.2
T04C1.5
%
G05
G90
T01
X005.000Y-026.600
X001.850Y-020.900
X001.100Y-014.200
X002.100Y-012.700
X002.000Y-011.200
X001.900Y-007.900
X002.600Y-005.300
X007.800Y-012.100
X006.000Y-014.500
X004.100Y-014.000
X007.800Y-015.800
X007.800Y-016.600
X009.600Y-014.600
X011.400Y-013.800
X013.700Y-011.200
X013.700Y-008.400
X013.600Y-005.500
X012.000Y-017.300
X010.600Y-017.400
X010.600Y-020.100
X011.800Y-020.400
X013.300Y-020.900
T02
X004.100Y-030.150
X011.500Y-030.150
T03
X004.100Y-016.200
X011.500Y-016.200
X011.000Y-002.000
X004.600Y-002.000
T04
X001.500Y-015.800
X007.800Y-008.900
X014.100Y-015.800
M30
