%FSLAX34Y34*%
%MOMM*%
%LNSILK_BOTTOM*%
G71*
G01*
%ADD10C, 0.200*%
%ADD11C, 0.175*%
%LPD*%
G54D10*
X34669Y-179081D02*
X34669Y-230919D01*
X11131Y-230919D01*
X11131Y-179081D01*
X34669Y-179081D01*
G54D10*
X62169Y-179081D02*
X62169Y-230919D01*
X38631Y-230919D01*
X38631Y-179081D01*
X62169Y-179081D01*
G54D10*
X89669Y-179081D02*
X89669Y-230919D01*
X66131Y-230919D01*
X66131Y-179081D01*
X89669Y-179081D01*
G54D10*
X117169Y-179081D02*
X117169Y-230919D01*
X93631Y-230919D01*
X93631Y-179081D01*
X117169Y-179081D01*
G54D10*
X144669Y-179081D02*
X144669Y-230919D01*
X121131Y-230919D01*
X121131Y-179081D01*
X144669Y-179081D01*
G54D10*
X34669Y-236581D02*
X34669Y-288419D01*
X11131Y-288419D01*
X11131Y-236581D01*
X34669Y-236581D01*
G54D10*
X62169Y-236581D02*
X62169Y-288419D01*
X38631Y-288419D01*
X38631Y-236581D01*
X62169Y-236581D01*
G54D10*
X117169Y-236581D02*
X117169Y-288419D01*
X93631Y-288419D01*
X93631Y-236581D01*
X117169Y-236581D01*
G54D10*
X144669Y-236581D02*
X144669Y-288419D01*
X121131Y-288419D01*
X121131Y-236581D01*
X144669Y-236581D01*
G54D11*
X73541Y-271056D02*
X83319Y-271056D01*
X83319Y-268612D01*
X82708Y-267634D01*
X81485Y-267145D01*
X80263Y-267145D01*
X79041Y-267634D01*
X78430Y-268612D01*
X77819Y-267634D01*
X76597Y-267145D01*
X75374Y-267145D01*
X74152Y-267634D01*
X73541Y-268612D01*
X73541Y-271056D01*
G54D11*
X78430Y-271056D02*
X78430Y-268612D01*
G54D11*
X73541Y-263723D02*
X83319Y-263723D01*
X83319Y-261279D01*
X82708Y-260301D01*
X81485Y-259812D01*
X80263Y-259812D01*
X79041Y-260301D01*
X78430Y-261279D01*
X77819Y-260301D01*
X76597Y-259812D01*
X75374Y-259812D01*
X74152Y-260301D01*
X73541Y-261279D01*
X73541Y-263723D01*
G54D11*
X78430Y-263723D02*
X78430Y-261279D01*
G54D11*
X73541Y-256390D02*
X83319Y-256390D01*
X77208Y-253946D01*
X83319Y-251501D01*
X73541Y-251501D01*
M02*
