%FSLAX34Y34*%
%MOMM*%
%LNSOLDERMASK_BOTTOM*%
G71*
G01*
%ADD10C, 1.100*%
%ADD11C, 2.100*%
%ADD12R, 2.200X1.700*%
%LPD*%
X78000Y-121000D02*
G54D10*
D03*
X136000Y-55000D02*
G54D10*
D03*
X137000Y-84000D02*
G54D10*
D03*
X137000Y-112000D02*
G54D10*
D03*
X96000Y-146000D02*
G54D10*
D03*
X60000Y-145000D02*
G54D10*
D03*
X20000Y-112000D02*
G54D10*
D03*
X19000Y-79000D02*
G54D10*
D03*
X26000Y-53000D02*
G54D10*
D03*
G54D11*
X106500Y-301500D02*
X123500Y-301500D01*
G54D11*
X32500Y-301500D02*
X49500Y-301500D01*
X22900Y-188600D02*
G54D12*
D03*
X23000Y-221100D02*
G54D12*
D03*
X50400Y-188600D02*
G54D12*
D03*
X50500Y-221100D02*
G54D12*
D03*
X77900Y-188600D02*
G54D12*
D03*
X78000Y-221100D02*
G54D12*
D03*
X105400Y-188600D02*
G54D12*
D03*
X105500Y-221100D02*
G54D12*
D03*
X132900Y-188600D02*
G54D12*
D03*
X133000Y-221100D02*
G54D12*
D03*
X22900Y-246100D02*
G54D12*
D03*
X23000Y-278600D02*
G54D12*
D03*
X50400Y-246100D02*
G54D12*
D03*
X50500Y-278600D02*
G54D12*
D03*
X105400Y-246100D02*
G54D12*
D03*
X105500Y-278600D02*
G54D12*
D03*
X132900Y-246100D02*
G54D12*
D03*
X133000Y-278600D02*
G54D12*
D03*
X120000Y-173000D02*
G54D10*
D03*
X133000Y-209000D02*
G54D10*
D03*
X106000Y-201000D02*
G54D10*
D03*
X106000Y-174000D02*
G54D10*
D03*
X114000Y-138000D02*
G54D10*
D03*
X118000Y-204000D02*
G54D10*
D03*
X18500Y-209000D02*
G54D10*
D03*
X41000Y-140000D02*
G54D10*
D03*
X11000Y-142000D02*
G54D10*
D03*
X50000Y-266000D02*
G54D10*
D03*
X21000Y-127000D02*
G54D10*
D03*
X78000Y-158000D02*
G54D10*
D03*
X78000Y-166000D02*
G54D10*
D03*
M02*
