%FSLAX34Y34*%
%MOMM*%
%LNSOLDERMASK_TOP*%
G71*
G01*
%ADD10C, 1.100*%
%ADD11C, 2.100*%
%ADD12C, 0.750*%
%ADD13R, 1.300X1.300*%
%LPD*%
X84000Y-116000D02*
G54D10*
D03*
X139000Y-50000D02*
G54D10*
D03*
X139000Y-62000D02*
G54D10*
D03*
X138000Y-107000D02*
G54D10*
D03*
X102000Y-141000D02*
G54D10*
D03*
X66000Y-140000D02*
G54D10*
D03*
X26000Y-107000D02*
G54D10*
D03*
X25000Y-74000D02*
G54D10*
D03*
X32000Y-48000D02*
G54D10*
D03*
G54D11*
X112500Y-296500D02*
X129500Y-296500D01*
G54D11*
X38500Y-296500D02*
X55500Y-296500D01*
X126000Y-168000D02*
G54D10*
D03*
X139000Y-204000D02*
G54D10*
D03*
X112000Y-196000D02*
G54D10*
D03*
X112000Y-169000D02*
G54D10*
D03*
X120000Y-133000D02*
G54D10*
D03*
X124000Y-199000D02*
G54D10*
D03*
X24500Y-204000D02*
G54D10*
D03*
X47000Y-135000D02*
G54D10*
D03*
X17000Y-137000D02*
G54D10*
D03*
X56000Y-261000D02*
G54D10*
D03*
X27000Y-122000D02*
G54D10*
D03*
X84000Y-153000D02*
G54D10*
D03*
X84000Y-161000D02*
G54D10*
D03*
G36*
X79958Y-123583D02*
X93964Y-136207D01*
X99059Y-136001D01*
X106599Y-133146D01*
X113418Y-129295D01*
X120292Y-123996D01*
X98350Y-121424D01*
X90205Y-123610D01*
X79958Y-123583D01*
G37*
G54D12*
X79958Y-123583D02*
X93964Y-136207D01*
X99059Y-136001D01*
X106599Y-133146D01*
X113418Y-129295D01*
X120292Y-123996D01*
X98350Y-121424D01*
X90205Y-123610D01*
X79958Y-123583D01*
G36*
X57453Y-113644D02*
X61364Y-132089D01*
X65607Y-134918D01*
X73385Y-137039D01*
X81165Y-137932D01*
X89841Y-137686D01*
X73602Y-122707D01*
X65728Y-119688D01*
X57453Y-113644D01*
G37*
G54D12*
X57453Y-113644D02*
X61364Y-132089D01*
X65607Y-134918D01*
X73385Y-137039D01*
X81165Y-137932D01*
X89841Y-137686D01*
X73602Y-122707D01*
X65728Y-119688D01*
X57453Y-113644D01*
G36*
X45125Y-92236D02*
X37448Y-109457D01*
X39217Y-114239D01*
X44263Y-120527D01*
X50033Y-125823D01*
X57196Y-130724D01*
X52863Y-109061D01*
X48266Y-101990D01*
X45125Y-92236D01*
G37*
G54D12*
X45125Y-92236D02*
X37448Y-109457D01*
X39217Y-114239D01*
X44263Y-120527D01*
X50033Y-125823D01*
X57196Y-130724D01*
X52863Y-109061D01*
X48266Y-101990D01*
X45125Y-92236D01*
G36*
X47406Y-68038D02*
X31072Y-77457D01*
X29693Y-82366D01*
X30079Y-90419D01*
X31634Y-98095D01*
X34549Y-106270D01*
X43776Y-86197D01*
X44214Y-77775D01*
X47406Y-68038D01*
G37*
G54D12*
X47406Y-68038D02*
X31072Y-77457D01*
X29693Y-82366D01*
X30079Y-90419D01*
X31634Y-98095D01*
X34549Y-106270D01*
X43776Y-86197D01*
X44214Y-77775D01*
X47406Y-68038D01*
G36*
X64130Y-49616D02*
X45379Y-47636D01*
X41378Y-50796D01*
X36956Y-57538D01*
X33703Y-64662D01*
X31256Y-72989D01*
X50520Y-62174D01*
X55824Y-55617D01*
X64130Y-49616D01*
G37*
G54D12*
X64130Y-49616D02*
X45379Y-47636D01*
X41378Y-50796D01*
X36956Y-57538D01*
X33703Y-64662D01*
X31256Y-72989D01*
X50520Y-62174D01*
X55824Y-55617D01*
X64130Y-49616D01*
G36*
X88057Y-44430D02*
X74051Y-31806D01*
X68956Y-32012D01*
X61416Y-34867D01*
X54597Y-38718D01*
X47723Y-44016D01*
X69664Y-46589D01*
X77810Y-44403D01*
X88057Y-44430D01*
G37*
G54D12*
X88057Y-44430D02*
X74051Y-31806D01*
X68956Y-32012D01*
X61416Y-34867D01*
X54597Y-38718D01*
X47723Y-44016D01*
X69664Y-46589D01*
X77810Y-44403D01*
X88057Y-44430D01*
G36*
X110572Y-54474D02*
X106662Y-36029D01*
X102419Y-33201D01*
X94641Y-31079D01*
X86860Y-30187D01*
X78185Y-30432D01*
X94424Y-45411D01*
X102298Y-48430D01*
X110572Y-54474D01*
G37*
G54D12*
X110572Y-54474D02*
X106662Y-36029D01*
X102419Y-33201D01*
X94641Y-31079D01*
X86860Y-30187D01*
X78185Y-30432D01*
X94424Y-45411D01*
X102298Y-48430D01*
X110572Y-54474D01*
G36*
X123093Y-75266D02*
X130830Y-58172D01*
X129094Y-53671D01*
X124048Y-47383D01*
X118279Y-42088D01*
X111116Y-37187D01*
X115449Y-58850D01*
X120045Y-65921D01*
X123093Y-75266D01*
G37*
G54D12*
X123093Y-75266D02*
X130830Y-58172D01*
X129094Y-53671D01*
X124048Y-47383D01*
X118279Y-42088D01*
X111116Y-37187D01*
X115449Y-58850D01*
X120045Y-65921D01*
X123093Y-75266D01*
G36*
X120373Y-100042D02*
X136706Y-90622D01*
X138085Y-85713D01*
X137699Y-77660D01*
X136144Y-69985D01*
X133229Y-61810D01*
X124002Y-81882D01*
X123564Y-90304D01*
X120373Y-100042D01*
G37*
G54D12*
X120373Y-100042D02*
X136706Y-90622D01*
X138085Y-85713D01*
X137699Y-77660D01*
X136144Y-69985D01*
X133229Y-61810D01*
X124002Y-81882D01*
X123564Y-90304D01*
X120373Y-100042D01*
G36*
X103885Y-118398D02*
X122636Y-120377D01*
X126637Y-117217D01*
X131058Y-110475D01*
X134312Y-103351D01*
X136759Y-95024D01*
X117495Y-105840D01*
X112191Y-112396D01*
X103885Y-118398D01*
G37*
G54D12*
X103885Y-118398D02*
X122636Y-120377D01*
X126637Y-117217D01*
X131058Y-110475D01*
X134312Y-103351D01*
X136759Y-95024D01*
X117495Y-105840D01*
X112191Y-112396D01*
X103885Y-118398D01*
X122000Y-111000D02*
G54D13*
D03*
X131000Y-82000D02*
G54D13*
D03*
X122000Y-56000D02*
G54D13*
D03*
X98000Y-39000D02*
G54D13*
D03*
X69000Y-39000D02*
G54D13*
D03*
X46000Y-57000D02*
G54D13*
D03*
X37000Y-84000D02*
G54D13*
D03*
X47000Y-111000D02*
G54D13*
D03*
X70000Y-128000D02*
G54D13*
D03*
X99000Y-128000D02*
G54D13*
D03*
G54D11*
G75*
G01X107000Y-84000D02*
G03X107000Y-84000I-23000J0D01*
G01*
X239000Y-116000D02*
G54D10*
D03*
X294000Y-50000D02*
G54D10*
D03*
X294000Y-62000D02*
G54D10*
D03*
X293000Y-107000D02*
G54D10*
D03*
X257000Y-141000D02*
G54D10*
D03*
X221000Y-140000D02*
G54D10*
D03*
X181000Y-107000D02*
G54D10*
D03*
X180000Y-74000D02*
G54D10*
D03*
X187000Y-48000D02*
G54D10*
D03*
G54D11*
X267500Y-296500D02*
X284500Y-296500D01*
G54D11*
X193500Y-296500D02*
X210500Y-296500D01*
X281000Y-168000D02*
G54D10*
D03*
X294000Y-204000D02*
G54D10*
D03*
X267000Y-196000D02*
G54D10*
D03*
X267000Y-169000D02*
G54D10*
D03*
X275000Y-133000D02*
G54D10*
D03*
X279000Y-199000D02*
G54D10*
D03*
X179500Y-204000D02*
G54D10*
D03*
X202000Y-135000D02*
G54D10*
D03*
X172000Y-137000D02*
G54D10*
D03*
X211000Y-261000D02*
G54D10*
D03*
X182000Y-122000D02*
G54D10*
D03*
X239000Y-153000D02*
G54D10*
D03*
X239000Y-161000D02*
G54D10*
D03*
G36*
X234958Y-123583D02*
X248964Y-136207D01*
X254059Y-136001D01*
X261599Y-133146D01*
X268418Y-129295D01*
X275292Y-123996D01*
X253350Y-121424D01*
X245205Y-123610D01*
X234958Y-123583D01*
G37*
G54D12*
X234958Y-123583D02*
X248964Y-136207D01*
X254059Y-136001D01*
X261599Y-133146D01*
X268418Y-129295D01*
X275292Y-123996D01*
X253350Y-121424D01*
X245205Y-123610D01*
X234958Y-123583D01*
G36*
X212453Y-113644D02*
X216364Y-132089D01*
X220607Y-134918D01*
X228385Y-137039D01*
X236165Y-137932D01*
X244841Y-137686D01*
X228602Y-122707D01*
X220728Y-119688D01*
X212453Y-113644D01*
G37*
G54D12*
X212453Y-113644D02*
X216364Y-132089D01*
X220607Y-134918D01*
X228385Y-137039D01*
X236165Y-137932D01*
X244841Y-137686D01*
X228602Y-122707D01*
X220728Y-119688D01*
X212453Y-113644D01*
G36*
X200125Y-92236D02*
X192448Y-109457D01*
X194217Y-114239D01*
X199263Y-120527D01*
X205033Y-125823D01*
X212196Y-130724D01*
X207863Y-109061D01*
X203266Y-101990D01*
X200125Y-92236D01*
G37*
G54D12*
X200125Y-92236D02*
X192448Y-109457D01*
X194217Y-114239D01*
X199263Y-120527D01*
X205033Y-125823D01*
X212196Y-130724D01*
X207863Y-109061D01*
X203266Y-101990D01*
X200125Y-92236D01*
G36*
X202406Y-68038D02*
X186072Y-77457D01*
X184693Y-82366D01*
X185079Y-90419D01*
X186634Y-98095D01*
X189549Y-106270D01*
X198776Y-86197D01*
X199214Y-77775D01*
X202406Y-68038D01*
G37*
G54D12*
X202406Y-68038D02*
X186072Y-77457D01*
X184693Y-82366D01*
X185079Y-90419D01*
X186634Y-98095D01*
X189549Y-106270D01*
X198776Y-86197D01*
X199214Y-77775D01*
X202406Y-68038D01*
G36*
X219130Y-49616D02*
X200379Y-47636D01*
X196378Y-50796D01*
X191956Y-57538D01*
X188703Y-64662D01*
X186256Y-72989D01*
X205520Y-62174D01*
X210824Y-55617D01*
X219130Y-49616D01*
G37*
G54D12*
X219130Y-49616D02*
X200379Y-47636D01*
X196378Y-50796D01*
X191956Y-57538D01*
X188703Y-64662D01*
X186256Y-72989D01*
X205520Y-62174D01*
X210824Y-55617D01*
X219130Y-49616D01*
G36*
X243057Y-44430D02*
X229051Y-31806D01*
X223956Y-32012D01*
X216416Y-34867D01*
X209597Y-38718D01*
X202723Y-44016D01*
X224664Y-46589D01*
X232810Y-44403D01*
X243057Y-44430D01*
G37*
G54D12*
X243057Y-44430D02*
X229051Y-31806D01*
X223956Y-32012D01*
X216416Y-34867D01*
X209597Y-38718D01*
X202723Y-44016D01*
X224664Y-46589D01*
X232810Y-44403D01*
X243057Y-44430D01*
G36*
X265572Y-54474D02*
X261662Y-36029D01*
X257419Y-33201D01*
X249641Y-31079D01*
X241860Y-30187D01*
X233185Y-30433D01*
X249424Y-45411D01*
X257298Y-48430D01*
X265572Y-54474D01*
G37*
G54D12*
X265572Y-54474D02*
X261662Y-36029D01*
X257419Y-33201D01*
X249641Y-31079D01*
X241860Y-30187D01*
X233185Y-30433D01*
X249424Y-45411D01*
X257298Y-48430D01*
X265572Y-54474D01*
G36*
X278093Y-75266D02*
X285830Y-58172D01*
X284094Y-53671D01*
X279048Y-47383D01*
X273279Y-42088D01*
X266116Y-37187D01*
X270449Y-58850D01*
X275045Y-65921D01*
X278093Y-75266D01*
G37*
G54D12*
X278093Y-75266D02*
X285830Y-58172D01*
X284094Y-53671D01*
X279048Y-47383D01*
X273279Y-42088D01*
X266116Y-37187D01*
X270449Y-58850D01*
X275045Y-65921D01*
X278093Y-75266D01*
G36*
X275373Y-100042D02*
X291706Y-90622D01*
X293085Y-85713D01*
X292699Y-77660D01*
X291144Y-69985D01*
X288229Y-61810D01*
X279002Y-81882D01*
X278564Y-90304D01*
X275373Y-100042D01*
G37*
G54D12*
X275373Y-100042D02*
X291706Y-90622D01*
X293085Y-85713D01*
X292699Y-77660D01*
X291144Y-69985D01*
X288229Y-61810D01*
X279002Y-81882D01*
X278564Y-90304D01*
X275373Y-100042D01*
G36*
X258885Y-118398D02*
X277636Y-120377D01*
X281637Y-117217D01*
X286058Y-110475D01*
X289312Y-103351D01*
X291759Y-95024D01*
X272495Y-105840D01*
X267191Y-112396D01*
X258885Y-118398D01*
G37*
G54D12*
X258885Y-118398D02*
X277636Y-120377D01*
X281637Y-117217D01*
X286058Y-110475D01*
X289312Y-103351D01*
X291759Y-95024D01*
X272495Y-105840D01*
X267191Y-112396D01*
X258885Y-118398D01*
X277000Y-111000D02*
G54D13*
D03*
X286000Y-82000D02*
G54D13*
D03*
X277000Y-56000D02*
G54D13*
D03*
X253000Y-39000D02*
G54D13*
D03*
X224000Y-39000D02*
G54D13*
D03*
X201000Y-57000D02*
G54D13*
D03*
X192000Y-84000D02*
G54D13*
D03*
X202000Y-111000D02*
G54D13*
D03*
X225000Y-128000D02*
G54D13*
D03*
X254000Y-128000D02*
G54D13*
D03*
G54D11*
G75*
G01X262000Y-84000D02*
G03X262000Y-84000I-23000J0D01*
G01*
X394000Y-116000D02*
G54D10*
D03*
X449000Y-50000D02*
G54D10*
D03*
X449000Y-62000D02*
G54D10*
D03*
X448000Y-107000D02*
G54D10*
D03*
X412000Y-141000D02*
G54D10*
D03*
X376000Y-140000D02*
G54D10*
D03*
X336000Y-107000D02*
G54D10*
D03*
X335000Y-74000D02*
G54D10*
D03*
X342000Y-48000D02*
G54D10*
D03*
G54D11*
X422500Y-296500D02*
X439500Y-296500D01*
G54D11*
X348500Y-296500D02*
X365500Y-296500D01*
X436000Y-168000D02*
G54D10*
D03*
X449000Y-204000D02*
G54D10*
D03*
X422000Y-196000D02*
G54D10*
D03*
X422000Y-169000D02*
G54D10*
D03*
X430000Y-133000D02*
G54D10*
D03*
X434000Y-199000D02*
G54D10*
D03*
X334500Y-204000D02*
G54D10*
D03*
X357000Y-135000D02*
G54D10*
D03*
X327000Y-137000D02*
G54D10*
D03*
X366000Y-261000D02*
G54D10*
D03*
X337000Y-122000D02*
G54D10*
D03*
X394000Y-153000D02*
G54D10*
D03*
X394000Y-161000D02*
G54D10*
D03*
G36*
X389958Y-123583D02*
X403964Y-136207D01*
X409059Y-136001D01*
X416599Y-133146D01*
X423418Y-129295D01*
X430292Y-123996D01*
X408350Y-121424D01*
X400205Y-123610D01*
X389958Y-123583D01*
G37*
G54D12*
X389958Y-123583D02*
X403964Y-136207D01*
X409059Y-136001D01*
X416599Y-133146D01*
X423418Y-129295D01*
X430292Y-123996D01*
X408350Y-121424D01*
X400205Y-123610D01*
X389958Y-123583D01*
G36*
X367453Y-113644D02*
X371364Y-132089D01*
X375607Y-134918D01*
X383385Y-137039D01*
X391165Y-137932D01*
X399841Y-137686D01*
X383602Y-122707D01*
X375728Y-119688D01*
X367453Y-113644D01*
G37*
G54D12*
X367453Y-113644D02*
X371364Y-132089D01*
X375607Y-134918D01*
X383385Y-137039D01*
X391165Y-137932D01*
X399841Y-137686D01*
X383602Y-122707D01*
X375728Y-119688D01*
X367453Y-113644D01*
G36*
X355125Y-92236D02*
X347448Y-109457D01*
X349217Y-114239D01*
X354263Y-120527D01*
X360033Y-125823D01*
X367196Y-130724D01*
X362863Y-109061D01*
X358266Y-101990D01*
X355125Y-92236D01*
G37*
G54D12*
X355125Y-92236D02*
X347448Y-109457D01*
X349217Y-114239D01*
X354263Y-120527D01*
X360033Y-125823D01*
X367196Y-130724D01*
X362863Y-109061D01*
X358266Y-101990D01*
X355125Y-92236D01*
G36*
X357406Y-68038D02*
X341072Y-77457D01*
X339693Y-82366D01*
X340079Y-90419D01*
X341634Y-98095D01*
X344549Y-106270D01*
X353776Y-86197D01*
X354214Y-77775D01*
X357406Y-68038D01*
G37*
G54D12*
X357406Y-68038D02*
X341072Y-77457D01*
X339693Y-82366D01*
X340079Y-90419D01*
X341634Y-98095D01*
X344549Y-106270D01*
X353776Y-86197D01*
X354214Y-77775D01*
X357406Y-68038D01*
G36*
X374130Y-49616D02*
X355379Y-47636D01*
X351378Y-50796D01*
X346956Y-57538D01*
X343703Y-64662D01*
X341256Y-72989D01*
X360520Y-62174D01*
X365824Y-55617D01*
X374130Y-49616D01*
G37*
G54D12*
X374130Y-49616D02*
X355379Y-47636D01*
X351378Y-50796D01*
X346956Y-57538D01*
X343703Y-64662D01*
X341256Y-72989D01*
X360520Y-62174D01*
X365824Y-55617D01*
X374130Y-49616D01*
G36*
X398057Y-44430D02*
X384051Y-31806D01*
X378956Y-32012D01*
X371416Y-34867D01*
X364597Y-38718D01*
X357723Y-44016D01*
X379664Y-46589D01*
X387810Y-44403D01*
X398057Y-44430D01*
G37*
G54D12*
X398057Y-44430D02*
X384051Y-31806D01*
X378956Y-32012D01*
X371416Y-34867D01*
X364597Y-38718D01*
X357723Y-44016D01*
X379664Y-46589D01*
X387810Y-44403D01*
X398057Y-44430D01*
G36*
X420572Y-54474D02*
X416662Y-36029D01*
X412419Y-33201D01*
X404641Y-31079D01*
X396860Y-30187D01*
X388185Y-30433D01*
X404424Y-45411D01*
X412298Y-48430D01*
X420572Y-54474D01*
G37*
G54D12*
X420572Y-54474D02*
X416662Y-36029D01*
X412419Y-33201D01*
X404641Y-31079D01*
X396860Y-30187D01*
X388185Y-30433D01*
X404424Y-45411D01*
X412298Y-48430D01*
X420572Y-54474D01*
G36*
X433094Y-75266D02*
X440830Y-58172D01*
X439094Y-53671D01*
X434048Y-47383D01*
X428279Y-42088D01*
X421116Y-37187D01*
X425449Y-58850D01*
X430045Y-65921D01*
X433094Y-75266D01*
G37*
G54D12*
X433094Y-75266D02*
X440830Y-58172D01*
X439094Y-53671D01*
X434048Y-47383D01*
X428279Y-42088D01*
X421116Y-37187D01*
X425449Y-58850D01*
X430045Y-65921D01*
X433094Y-75266D01*
G36*
X430373Y-100042D02*
X446706Y-90622D01*
X448086Y-85713D01*
X447700Y-77660D01*
X446144Y-69985D01*
X443230Y-61810D01*
X434002Y-81882D01*
X433564Y-90304D01*
X430373Y-100042D01*
G37*
G54D12*
X430373Y-100042D02*
X446706Y-90622D01*
X448086Y-85713D01*
X447700Y-77660D01*
X446144Y-69985D01*
X443230Y-61810D01*
X434002Y-81882D01*
X433564Y-90304D01*
X430373Y-100042D01*
G36*
X413885Y-118398D02*
X432636Y-120377D01*
X436637Y-117217D01*
X441058Y-110475D01*
X444312Y-103351D01*
X446759Y-95024D01*
X427495Y-105840D01*
X422191Y-112396D01*
X413885Y-118398D01*
G37*
G54D12*
X413885Y-118398D02*
X432636Y-120377D01*
X436637Y-117217D01*
X441058Y-110475D01*
X444312Y-103351D01*
X446759Y-95024D01*
X427495Y-105840D01*
X422191Y-112396D01*
X413885Y-118398D01*
X432000Y-111000D02*
G54D13*
D03*
X441000Y-82000D02*
G54D13*
D03*
X432000Y-56000D02*
G54D13*
D03*
X408000Y-39000D02*
G54D13*
D03*
X379000Y-39000D02*
G54D13*
D03*
X356000Y-57000D02*
G54D13*
D03*
X347000Y-84000D02*
G54D13*
D03*
X357000Y-111000D02*
G54D13*
D03*
X380000Y-128000D02*
G54D13*
D03*
X409000Y-128000D02*
G54D13*
D03*
G54D11*
G75*
G01X417000Y-84000D02*
G03X417000Y-84000I-23000J0D01*
G01*
X549000Y-116000D02*
G54D10*
D03*
X604000Y-50000D02*
G54D10*
D03*
X604000Y-62000D02*
G54D10*
D03*
X603000Y-107000D02*
G54D10*
D03*
X567000Y-141000D02*
G54D10*
D03*
X531000Y-140000D02*
G54D10*
D03*
X491000Y-107000D02*
G54D10*
D03*
X490000Y-74000D02*
G54D10*
D03*
X497000Y-48000D02*
G54D10*
D03*
G54D11*
X577500Y-296500D02*
X594500Y-296500D01*
G54D11*
X503500Y-296500D02*
X520500Y-296500D01*
X591000Y-168000D02*
G54D10*
D03*
X604000Y-204000D02*
G54D10*
D03*
X577000Y-196000D02*
G54D10*
D03*
X577000Y-169000D02*
G54D10*
D03*
X585000Y-133000D02*
G54D10*
D03*
X589000Y-199000D02*
G54D10*
D03*
X489500Y-204000D02*
G54D10*
D03*
X512000Y-135000D02*
G54D10*
D03*
X482000Y-137000D02*
G54D10*
D03*
X521000Y-261000D02*
G54D10*
D03*
X492000Y-122000D02*
G54D10*
D03*
X549000Y-153000D02*
G54D10*
D03*
X549000Y-161000D02*
G54D10*
D03*
G36*
X544958Y-123583D02*
X558964Y-136207D01*
X564059Y-136001D01*
X571599Y-133146D01*
X578418Y-129295D01*
X585292Y-123996D01*
X563350Y-121424D01*
X555205Y-123610D01*
X544958Y-123583D01*
G37*
G54D12*
X544958Y-123583D02*
X558964Y-136207D01*
X564059Y-136001D01*
X571599Y-133146D01*
X578418Y-129295D01*
X585292Y-123996D01*
X563350Y-121424D01*
X555205Y-123610D01*
X544958Y-123583D01*
G36*
X522453Y-113644D02*
X526364Y-132089D01*
X530607Y-134918D01*
X538385Y-137039D01*
X546165Y-137932D01*
X554841Y-137686D01*
X538602Y-122707D01*
X530728Y-119688D01*
X522453Y-113644D01*
G37*
G54D12*
X522453Y-113644D02*
X526364Y-132089D01*
X530607Y-134918D01*
X538385Y-137039D01*
X546165Y-137932D01*
X554841Y-137686D01*
X538602Y-122707D01*
X530728Y-119688D01*
X522453Y-113644D01*
G36*
X510125Y-92236D02*
X502448Y-109457D01*
X504217Y-114239D01*
X509263Y-120527D01*
X515033Y-125823D01*
X522196Y-130724D01*
X517863Y-109061D01*
X513266Y-101990D01*
X510125Y-92236D01*
G37*
G54D12*
X510125Y-92236D02*
X502448Y-109457D01*
X504217Y-114239D01*
X509263Y-120527D01*
X515033Y-125823D01*
X522196Y-130724D01*
X517863Y-109061D01*
X513266Y-101990D01*
X510125Y-92236D01*
G36*
X512406Y-68038D02*
X496072Y-77457D01*
X494693Y-82366D01*
X495079Y-90419D01*
X496634Y-98095D01*
X499549Y-106270D01*
X508776Y-86197D01*
X509214Y-77775D01*
X512406Y-68038D01*
G37*
G54D12*
X512406Y-68038D02*
X496072Y-77457D01*
X494693Y-82366D01*
X495079Y-90419D01*
X496634Y-98095D01*
X499549Y-106270D01*
X508776Y-86197D01*
X509214Y-77775D01*
X512406Y-68038D01*
G36*
X529130Y-49616D02*
X510379Y-47636D01*
X506378Y-50796D01*
X501956Y-57538D01*
X498703Y-64662D01*
X496256Y-72989D01*
X515520Y-62174D01*
X520824Y-55617D01*
X529130Y-49616D01*
G37*
G54D12*
X529130Y-49616D02*
X510379Y-47636D01*
X506378Y-50796D01*
X501956Y-57538D01*
X498703Y-64662D01*
X496256Y-72989D01*
X515520Y-62174D01*
X520824Y-55617D01*
X529130Y-49616D01*
G36*
X553057Y-44430D02*
X539051Y-31806D01*
X533956Y-32012D01*
X526416Y-34867D01*
X519597Y-38718D01*
X512723Y-44016D01*
X534664Y-46589D01*
X542810Y-44403D01*
X553057Y-44430D01*
G37*
G54D12*
X553057Y-44430D02*
X539051Y-31806D01*
X533956Y-32012D01*
X526416Y-34867D01*
X519597Y-38718D01*
X512723Y-44016D01*
X534664Y-46589D01*
X542810Y-44403D01*
X553057Y-44430D01*
G36*
X575573Y-54474D02*
X571662Y-36029D01*
X567419Y-33201D01*
X559641Y-31079D01*
X551860Y-30187D01*
X543185Y-30433D01*
X559424Y-45411D01*
X567298Y-48430D01*
X575573Y-54474D01*
G37*
G54D12*
X575573Y-54474D02*
X571662Y-36029D01*
X567419Y-33201D01*
X559641Y-31079D01*
X551860Y-30187D01*
X543185Y-30433D01*
X559424Y-45411D01*
X567298Y-48430D01*
X575573Y-54474D01*
G36*
X588093Y-75266D02*
X595830Y-58172D01*
X594094Y-53671D01*
X589049Y-47383D01*
X583279Y-42088D01*
X576116Y-37187D01*
X580449Y-58850D01*
X585045Y-65921D01*
X588093Y-75266D01*
G37*
G54D12*
X588093Y-75266D02*
X595830Y-58172D01*
X594094Y-53671D01*
X589049Y-47383D01*
X583279Y-42088D01*
X576116Y-37187D01*
X580449Y-58850D01*
X585045Y-65921D01*
X588093Y-75266D01*
G36*
X585373Y-100042D02*
X601706Y-90622D01*
X603085Y-85713D01*
X602699Y-77660D01*
X601144Y-69985D01*
X598229Y-61810D01*
X589002Y-81882D01*
X588565Y-90304D01*
X585373Y-100042D01*
G37*
G54D12*
X585373Y-100042D02*
X601706Y-90622D01*
X603085Y-85713D01*
X602699Y-77660D01*
X601144Y-69985D01*
X598229Y-61810D01*
X589002Y-81882D01*
X588565Y-90304D01*
X585373Y-100042D01*
G36*
X568885Y-118398D02*
X587636Y-120377D01*
X591637Y-117217D01*
X596058Y-110475D01*
X599312Y-103351D01*
X601759Y-95024D01*
X582495Y-105840D01*
X577191Y-112396D01*
X568885Y-118398D01*
G37*
G54D12*
X568885Y-118398D02*
X587636Y-120377D01*
X591637Y-117217D01*
X596058Y-110475D01*
X599312Y-103351D01*
X601759Y-95024D01*
X582495Y-105840D01*
X577191Y-112396D01*
X568885Y-118398D01*
X587000Y-111000D02*
G54D13*
D03*
X596000Y-82000D02*
G54D13*
D03*
X587000Y-56000D02*
G54D13*
D03*
X563000Y-39000D02*
G54D13*
D03*
X534000Y-39000D02*
G54D13*
D03*
X511000Y-57000D02*
G54D13*
D03*
X502000Y-84000D02*
G54D13*
D03*
X512000Y-111000D02*
G54D13*
D03*
X535000Y-128000D02*
G54D13*
D03*
X564000Y-128000D02*
G54D13*
D03*
G54D11*
G75*
G01X572000Y-84000D02*
G03X572000Y-84000I-23000J0D01*
G01*
X704000Y-116000D02*
G54D10*
D03*
X759000Y-50000D02*
G54D10*
D03*
X759000Y-62000D02*
G54D10*
D03*
X758000Y-107000D02*
G54D10*
D03*
X722000Y-141000D02*
G54D10*
D03*
X686000Y-140000D02*
G54D10*
D03*
X646000Y-107000D02*
G54D10*
D03*
X645000Y-74000D02*
G54D10*
D03*
X652000Y-48000D02*
G54D10*
D03*
G54D11*
X732500Y-296500D02*
X749500Y-296500D01*
G54D11*
X658500Y-296500D02*
X675500Y-296500D01*
X746000Y-168000D02*
G54D10*
D03*
X759000Y-204000D02*
G54D10*
D03*
X732000Y-196000D02*
G54D10*
D03*
X732000Y-169000D02*
G54D10*
D03*
X740000Y-133000D02*
G54D10*
D03*
X744000Y-199000D02*
G54D10*
D03*
X644500Y-204000D02*
G54D10*
D03*
X667000Y-135000D02*
G54D10*
D03*
X637000Y-137000D02*
G54D10*
D03*
X676000Y-261000D02*
G54D10*
D03*
X647000Y-122000D02*
G54D10*
D03*
X704000Y-153000D02*
G54D10*
D03*
X704000Y-161000D02*
G54D10*
D03*
G36*
X699958Y-123583D02*
X713964Y-136207D01*
X719059Y-136001D01*
X726599Y-133146D01*
X733418Y-129295D01*
X740292Y-123996D01*
X718350Y-121424D01*
X710205Y-123610D01*
X699958Y-123583D01*
G37*
G54D12*
X699958Y-123583D02*
X713964Y-136207D01*
X719059Y-136001D01*
X726599Y-133146D01*
X733418Y-129295D01*
X740292Y-123996D01*
X718350Y-121424D01*
X710205Y-123610D01*
X699958Y-123583D01*
G36*
X677453Y-113644D02*
X681364Y-132089D01*
X685607Y-134918D01*
X693385Y-137039D01*
X701165Y-137932D01*
X709841Y-137686D01*
X693602Y-122707D01*
X685728Y-119688D01*
X677453Y-113644D01*
G37*
G54D12*
X677453Y-113644D02*
X681364Y-132089D01*
X685607Y-134918D01*
X693385Y-137039D01*
X701165Y-137932D01*
X709841Y-137686D01*
X693602Y-122707D01*
X685728Y-119688D01*
X677453Y-113644D01*
G36*
X665125Y-92236D02*
X657448Y-109457D01*
X659217Y-114239D01*
X664263Y-120527D01*
X670033Y-125823D01*
X677196Y-130724D01*
X672863Y-109061D01*
X668266Y-101990D01*
X665125Y-92236D01*
G37*
G54D12*
X665125Y-92236D02*
X657448Y-109457D01*
X659217Y-114239D01*
X664263Y-120527D01*
X670033Y-125823D01*
X677196Y-130724D01*
X672863Y-109061D01*
X668266Y-101990D01*
X665125Y-92236D01*
G36*
X667406Y-68038D02*
X651072Y-77457D01*
X649693Y-82366D01*
X650079Y-90419D01*
X651634Y-98095D01*
X654549Y-106270D01*
X663776Y-86197D01*
X664214Y-77775D01*
X667406Y-68038D01*
G37*
G54D12*
X667406Y-68038D02*
X651072Y-77457D01*
X649693Y-82366D01*
X650079Y-90419D01*
X651634Y-98095D01*
X654549Y-106270D01*
X663776Y-86197D01*
X664214Y-77775D01*
X667406Y-68038D01*
G36*
X684130Y-49616D02*
X665379Y-47636D01*
X661378Y-50796D01*
X656956Y-57538D01*
X653703Y-64662D01*
X651256Y-72989D01*
X670520Y-62174D01*
X675824Y-55617D01*
X684130Y-49616D01*
G37*
G54D12*
X684130Y-49616D02*
X665379Y-47636D01*
X661378Y-50796D01*
X656956Y-57538D01*
X653703Y-64662D01*
X651256Y-72989D01*
X670520Y-62174D01*
X675824Y-55617D01*
X684130Y-49616D01*
G36*
X708057Y-44430D02*
X694051Y-31806D01*
X688956Y-32012D01*
X681416Y-34867D01*
X674597Y-38718D01*
X667723Y-44016D01*
X689664Y-46589D01*
X697810Y-44403D01*
X708057Y-44430D01*
G37*
G54D12*
X708057Y-44430D02*
X694051Y-31806D01*
X688956Y-32012D01*
X681416Y-34867D01*
X674597Y-38718D01*
X667723Y-44016D01*
X689664Y-46589D01*
X697810Y-44403D01*
X708057Y-44430D01*
G36*
X730573Y-54474D02*
X726662Y-36029D01*
X722419Y-33201D01*
X714641Y-31079D01*
X706860Y-30187D01*
X698185Y-30432D01*
X714424Y-45411D01*
X722298Y-48430D01*
X730573Y-54474D01*
G37*
G54D12*
X730573Y-54474D02*
X726662Y-36029D01*
X722419Y-33201D01*
X714641Y-31079D01*
X706860Y-30187D01*
X698185Y-30432D01*
X714424Y-45411D01*
X722298Y-48430D01*
X730573Y-54474D01*
G36*
X743093Y-75266D02*
X750830Y-58172D01*
X749094Y-53671D01*
X744049Y-47383D01*
X738279Y-42088D01*
X731116Y-37187D01*
X735449Y-58850D01*
X740045Y-65921D01*
X743093Y-75266D01*
G37*
G54D12*
X743093Y-75266D02*
X750830Y-58172D01*
X749094Y-53671D01*
X744049Y-47383D01*
X738279Y-42088D01*
X731116Y-37187D01*
X735449Y-58850D01*
X740045Y-65921D01*
X743093Y-75266D01*
G36*
X740373Y-100042D02*
X756706Y-90622D01*
X758085Y-85713D01*
X757699Y-77660D01*
X756144Y-69985D01*
X753229Y-61810D01*
X744002Y-81882D01*
X743565Y-90304D01*
X740373Y-100042D01*
G37*
G54D12*
X740373Y-100042D02*
X756706Y-90622D01*
X758085Y-85713D01*
X757699Y-77660D01*
X756144Y-69985D01*
X753229Y-61810D01*
X744002Y-81882D01*
X743565Y-90304D01*
X740373Y-100042D01*
G36*
X723885Y-118398D02*
X742636Y-120377D01*
X746637Y-117217D01*
X751058Y-110475D01*
X754312Y-103351D01*
X756759Y-95024D01*
X737495Y-105840D01*
X732191Y-112396D01*
X723885Y-118398D01*
G37*
G54D12*
X723885Y-118398D02*
X742636Y-120377D01*
X746637Y-117217D01*
X751058Y-110475D01*
X754312Y-103351D01*
X756759Y-95024D01*
X737495Y-105840D01*
X732191Y-112396D01*
X723885Y-118398D01*
X742000Y-111000D02*
G54D13*
D03*
X751000Y-82000D02*
G54D13*
D03*
X742000Y-56000D02*
G54D13*
D03*
X718000Y-39000D02*
G54D13*
D03*
X689000Y-39000D02*
G54D13*
D03*
X666000Y-57000D02*
G54D13*
D03*
X657000Y-84000D02*
G54D13*
D03*
X667000Y-111000D02*
G54D13*
D03*
X690000Y-128000D02*
G54D13*
D03*
X719000Y-128000D02*
G54D13*
D03*
G54D11*
G75*
G01X727000Y-84000D02*
G03X727000Y-84000I-23000J0D01*
G01*
X859000Y-116000D02*
G54D10*
D03*
X914000Y-50000D02*
G54D10*
D03*
X914000Y-62000D02*
G54D10*
D03*
X913000Y-107000D02*
G54D10*
D03*
X877000Y-141000D02*
G54D10*
D03*
X841000Y-140000D02*
G54D10*
D03*
X801000Y-107000D02*
G54D10*
D03*
X800000Y-74000D02*
G54D10*
D03*
X807000Y-48000D02*
G54D10*
D03*
G54D11*
X887500Y-296500D02*
X904500Y-296500D01*
G54D11*
X813500Y-296500D02*
X830500Y-296500D01*
X901000Y-168000D02*
G54D10*
D03*
X914000Y-204000D02*
G54D10*
D03*
X887000Y-196000D02*
G54D10*
D03*
X887000Y-169000D02*
G54D10*
D03*
X895000Y-133000D02*
G54D10*
D03*
X899000Y-199000D02*
G54D10*
D03*
X799500Y-204000D02*
G54D10*
D03*
X822000Y-135000D02*
G54D10*
D03*
X792000Y-137000D02*
G54D10*
D03*
X831000Y-261000D02*
G54D10*
D03*
X802000Y-122000D02*
G54D10*
D03*
X859000Y-153000D02*
G54D10*
D03*
X859000Y-161000D02*
G54D10*
D03*
G36*
X854958Y-123583D02*
X868964Y-136207D01*
X874059Y-136001D01*
X881599Y-133146D01*
X888418Y-129295D01*
X895292Y-123996D01*
X873350Y-121424D01*
X865205Y-123610D01*
X854958Y-123583D01*
G37*
G54D12*
X854958Y-123583D02*
X868964Y-136207D01*
X874059Y-136001D01*
X881599Y-133146D01*
X888418Y-129295D01*
X895292Y-123996D01*
X873350Y-121424D01*
X865205Y-123610D01*
X854958Y-123583D01*
G36*
X832453Y-113644D02*
X836364Y-132089D01*
X840607Y-134918D01*
X848385Y-137039D01*
X856165Y-137932D01*
X864841Y-137686D01*
X848602Y-122707D01*
X840728Y-119688D01*
X832453Y-113644D01*
G37*
G54D12*
X832453Y-113644D02*
X836364Y-132089D01*
X840607Y-134918D01*
X848385Y-137039D01*
X856165Y-137932D01*
X864841Y-137686D01*
X848602Y-122707D01*
X840728Y-119688D01*
X832453Y-113644D01*
G36*
X820125Y-92236D02*
X812448Y-109457D01*
X814217Y-114239D01*
X819263Y-120527D01*
X825033Y-125823D01*
X832196Y-130724D01*
X827863Y-109061D01*
X823266Y-101990D01*
X820125Y-92236D01*
G37*
G54D12*
X820125Y-92236D02*
X812448Y-109457D01*
X814217Y-114239D01*
X819263Y-120527D01*
X825033Y-125823D01*
X832196Y-130724D01*
X827863Y-109061D01*
X823266Y-101990D01*
X820125Y-92236D01*
G36*
X822406Y-68038D02*
X806072Y-77457D01*
X804693Y-82366D01*
X805079Y-90419D01*
X806634Y-98095D01*
X809549Y-106270D01*
X818776Y-86197D01*
X819214Y-77775D01*
X822406Y-68038D01*
G37*
G54D12*
X822406Y-68038D02*
X806072Y-77457D01*
X804693Y-82366D01*
X805079Y-90419D01*
X806634Y-98095D01*
X809549Y-106270D01*
X818776Y-86197D01*
X819214Y-77775D01*
X822406Y-68038D01*
G36*
X839130Y-49616D02*
X820379Y-47636D01*
X816378Y-50796D01*
X811956Y-57538D01*
X808703Y-64662D01*
X806256Y-72989D01*
X825520Y-62174D01*
X830824Y-55617D01*
X839130Y-49616D01*
G37*
G54D12*
X839130Y-49616D02*
X820379Y-47636D01*
X816378Y-50796D01*
X811956Y-57538D01*
X808703Y-64662D01*
X806256Y-72989D01*
X825520Y-62174D01*
X830824Y-55617D01*
X839130Y-49616D01*
G36*
X863057Y-44430D02*
X849051Y-31806D01*
X843956Y-32012D01*
X836416Y-34867D01*
X829597Y-38718D01*
X822723Y-44016D01*
X844664Y-46589D01*
X852810Y-44403D01*
X863057Y-44430D01*
G37*
G54D12*
X863057Y-44430D02*
X849051Y-31806D01*
X843956Y-32012D01*
X836416Y-34867D01*
X829597Y-38718D01*
X822723Y-44016D01*
X844664Y-46589D01*
X852810Y-44403D01*
X863057Y-44430D01*
G36*
X885573Y-54474D02*
X881662Y-36029D01*
X877419Y-33201D01*
X869641Y-31079D01*
X861860Y-30187D01*
X853185Y-30432D01*
X869424Y-45411D01*
X877298Y-48430D01*
X885573Y-54474D01*
G37*
G54D12*
X885573Y-54474D02*
X881662Y-36029D01*
X877419Y-33201D01*
X869641Y-31079D01*
X861860Y-30187D01*
X853185Y-30432D01*
X869424Y-45411D01*
X877298Y-48430D01*
X885573Y-54474D01*
G36*
X898093Y-75266D02*
X905830Y-58172D01*
X904094Y-53671D01*
X899049Y-47383D01*
X893279Y-42088D01*
X886116Y-37187D01*
X890449Y-58850D01*
X895045Y-65921D01*
X898093Y-75266D01*
G37*
G54D12*
X898093Y-75266D02*
X905830Y-58172D01*
X904094Y-53671D01*
X899049Y-47383D01*
X893279Y-42088D01*
X886116Y-37187D01*
X890449Y-58850D01*
X895045Y-65921D01*
X898093Y-75266D01*
G36*
X895373Y-100042D02*
X911706Y-90622D01*
X913085Y-85713D01*
X912699Y-77660D01*
X911144Y-69985D01*
X908229Y-61810D01*
X899002Y-81882D01*
X898565Y-90304D01*
X895373Y-100042D01*
G37*
G54D12*
X895373Y-100042D02*
X911706Y-90622D01*
X913085Y-85713D01*
X912699Y-77660D01*
X911144Y-69985D01*
X908229Y-61810D01*
X899002Y-81882D01*
X898565Y-90304D01*
X895373Y-100042D01*
G36*
X878885Y-118398D02*
X897636Y-120377D01*
X901637Y-117217D01*
X906058Y-110475D01*
X909312Y-103351D01*
X911759Y-95024D01*
X892495Y-105840D01*
X887191Y-112396D01*
X878885Y-118398D01*
G37*
G54D12*
X878885Y-118398D02*
X897636Y-120377D01*
X901637Y-117217D01*
X906058Y-110475D01*
X909312Y-103351D01*
X911759Y-95024D01*
X892495Y-105840D01*
X887191Y-112396D01*
X878885Y-118398D01*
X897000Y-111000D02*
G54D13*
D03*
X906000Y-82000D02*
G54D13*
D03*
X897000Y-56000D02*
G54D13*
D03*
X873000Y-39000D02*
G54D13*
D03*
X844000Y-39000D02*
G54D13*
D03*
X821000Y-57000D02*
G54D13*
D03*
X812000Y-84000D02*
G54D13*
D03*
X822000Y-111000D02*
G54D13*
D03*
X845000Y-128000D02*
G54D13*
D03*
X874000Y-128000D02*
G54D13*
D03*
G54D11*
G75*
G01X882000Y-84000D02*
G03X882000Y-84000I-23000J0D01*
G01*
X84000Y-421000D02*
G54D10*
D03*
X139000Y-355000D02*
G54D10*
D03*
X139000Y-367000D02*
G54D10*
D03*
X138000Y-412000D02*
G54D10*
D03*
X102000Y-446000D02*
G54D10*
D03*
X66000Y-445000D02*
G54D10*
D03*
X26000Y-412000D02*
G54D10*
D03*
X25000Y-379000D02*
G54D10*
D03*
X32000Y-353000D02*
G54D10*
D03*
G54D11*
X112500Y-601500D02*
X129500Y-601500D01*
G54D11*
X38500Y-601500D02*
X55500Y-601500D01*
X126000Y-473000D02*
G54D10*
D03*
X139000Y-509000D02*
G54D10*
D03*
X112000Y-501000D02*
G54D10*
D03*
X112000Y-474000D02*
G54D10*
D03*
X120000Y-438000D02*
G54D10*
D03*
X124000Y-504000D02*
G54D10*
D03*
X24500Y-509000D02*
G54D10*
D03*
X47000Y-440000D02*
G54D10*
D03*
X17000Y-442000D02*
G54D10*
D03*
X56000Y-566000D02*
G54D10*
D03*
X27000Y-427000D02*
G54D10*
D03*
X84000Y-458000D02*
G54D10*
D03*
X84000Y-466000D02*
G54D10*
D03*
G36*
X79958Y-428583D02*
X93964Y-441207D01*
X99059Y-441001D01*
X106599Y-438146D01*
X113418Y-434295D01*
X120292Y-428996D01*
X98350Y-426424D01*
X90205Y-428610D01*
X79958Y-428583D01*
G37*
G54D12*
X79958Y-428583D02*
X93964Y-441207D01*
X99059Y-441001D01*
X106599Y-438146D01*
X113418Y-434295D01*
X120292Y-428996D01*
X98350Y-426424D01*
X90205Y-428610D01*
X79958Y-428583D01*
G36*
X57453Y-418644D02*
X61364Y-437089D01*
X65607Y-439918D01*
X73385Y-442039D01*
X81165Y-442932D01*
X89841Y-442686D01*
X73602Y-427707D01*
X65728Y-424688D01*
X57453Y-418644D01*
G37*
G54D12*
X57453Y-418644D02*
X61364Y-437089D01*
X65607Y-439918D01*
X73385Y-442039D01*
X81165Y-442932D01*
X89841Y-442686D01*
X73602Y-427707D01*
X65728Y-424688D01*
X57453Y-418644D01*
G36*
X45125Y-397236D02*
X37448Y-414457D01*
X39217Y-419239D01*
X44263Y-425528D01*
X50033Y-430823D01*
X57196Y-435724D01*
X52863Y-414061D01*
X48266Y-406990D01*
X45125Y-397236D01*
G37*
G54D12*
X45125Y-397236D02*
X37448Y-414457D01*
X39217Y-419239D01*
X44263Y-425528D01*
X50033Y-430823D01*
X57196Y-435724D01*
X52863Y-414061D01*
X48266Y-406990D01*
X45125Y-397236D01*
G36*
X47406Y-373038D02*
X31072Y-382457D01*
X29693Y-387366D01*
X30079Y-395419D01*
X31634Y-403095D01*
X34549Y-411270D01*
X43776Y-391197D01*
X44214Y-382775D01*
X47406Y-373038D01*
G37*
G54D12*
X47406Y-373038D02*
X31072Y-382457D01*
X29693Y-387366D01*
X30079Y-395419D01*
X31634Y-403095D01*
X34549Y-411270D01*
X43776Y-391197D01*
X44214Y-382775D01*
X47406Y-373038D01*
G36*
X64130Y-354616D02*
X45379Y-352636D01*
X41378Y-355796D01*
X36956Y-362538D01*
X33703Y-369662D01*
X31256Y-377989D01*
X50520Y-367174D01*
X55824Y-360618D01*
X64130Y-354616D01*
G37*
G54D12*
X64130Y-354616D02*
X45379Y-352636D01*
X41378Y-355796D01*
X36956Y-362538D01*
X33703Y-369662D01*
X31256Y-377989D01*
X50520Y-367174D01*
X55824Y-360618D01*
X64130Y-354616D01*
G36*
X88057Y-349430D02*
X74051Y-336806D01*
X68956Y-337012D01*
X61416Y-339867D01*
X54597Y-343718D01*
X47723Y-349016D01*
X69664Y-351589D01*
X77810Y-349403D01*
X88057Y-349430D01*
G37*
G54D12*
X88057Y-349430D02*
X74051Y-336806D01*
X68956Y-337012D01*
X61416Y-339867D01*
X54597Y-343718D01*
X47723Y-349016D01*
X69664Y-351589D01*
X77810Y-349403D01*
X88057Y-349430D01*
G36*
X110572Y-359474D02*
X106662Y-341029D01*
X102419Y-338201D01*
X94641Y-336079D01*
X86860Y-335187D01*
X78185Y-335432D01*
X94424Y-350411D01*
X102298Y-353430D01*
X110572Y-359474D01*
G37*
G54D12*
X110572Y-359474D02*
X106662Y-341029D01*
X102419Y-338201D01*
X94641Y-336079D01*
X86860Y-335187D01*
X78185Y-335432D01*
X94424Y-350411D01*
X102298Y-353430D01*
X110572Y-359474D01*
G36*
X123093Y-380266D02*
X130830Y-363172D01*
X129094Y-358672D01*
X124048Y-352383D01*
X118279Y-347088D01*
X111116Y-342187D01*
X115449Y-363850D01*
X120045Y-370921D01*
X123093Y-380266D01*
G37*
G54D12*
X123093Y-380266D02*
X130830Y-363172D01*
X129094Y-358672D01*
X124048Y-352383D01*
X118279Y-347088D01*
X111116Y-342187D01*
X115449Y-363850D01*
X120045Y-370921D01*
X123093Y-380266D01*
G36*
X120373Y-405042D02*
X136706Y-395622D01*
X138085Y-390713D01*
X137699Y-382660D01*
X136144Y-374985D01*
X133229Y-366810D01*
X124002Y-386882D01*
X123564Y-395304D01*
X120373Y-405042D01*
G37*
G54D12*
X120373Y-405042D02*
X136706Y-395622D01*
X138085Y-390713D01*
X137699Y-382660D01*
X136144Y-374985D01*
X133229Y-366810D01*
X124002Y-386882D01*
X123564Y-395304D01*
X120373Y-405042D01*
G36*
X103885Y-423398D02*
X122636Y-425378D01*
X126637Y-422217D01*
X131058Y-415475D01*
X134312Y-408351D01*
X136759Y-400024D01*
X117495Y-410840D01*
X112191Y-417396D01*
X103885Y-423398D01*
G37*
G54D12*
X103885Y-423398D02*
X122636Y-425378D01*
X126637Y-422217D01*
X131058Y-415475D01*
X134312Y-408351D01*
X136759Y-400024D01*
X117495Y-410840D01*
X112191Y-417396D01*
X103885Y-423398D01*
X122000Y-416000D02*
G54D13*
D03*
X131000Y-387000D02*
G54D13*
D03*
X122000Y-361000D02*
G54D13*
D03*
X98000Y-344000D02*
G54D13*
D03*
X69000Y-344000D02*
G54D13*
D03*
X46000Y-362000D02*
G54D13*
D03*
X37000Y-389000D02*
G54D13*
D03*
X47000Y-416000D02*
G54D13*
D03*
X70000Y-433000D02*
G54D13*
D03*
X99000Y-433000D02*
G54D13*
D03*
G54D11*
G75*
G01X107000Y-389000D02*
G03X107000Y-389000I-23000J0D01*
G01*
X239000Y-421000D02*
G54D10*
D03*
X294000Y-355000D02*
G54D10*
D03*
X294000Y-367000D02*
G54D10*
D03*
X293000Y-412000D02*
G54D10*
D03*
X257000Y-446000D02*
G54D10*
D03*
X221000Y-445000D02*
G54D10*
D03*
X181000Y-412000D02*
G54D10*
D03*
X180000Y-379000D02*
G54D10*
D03*
X187000Y-353000D02*
G54D10*
D03*
G54D11*
X267500Y-601500D02*
X284500Y-601500D01*
G54D11*
X193500Y-601500D02*
X210500Y-601500D01*
X281000Y-473000D02*
G54D10*
D03*
X294000Y-509000D02*
G54D10*
D03*
X267000Y-501000D02*
G54D10*
D03*
X267000Y-474000D02*
G54D10*
D03*
X275000Y-438000D02*
G54D10*
D03*
X279000Y-504000D02*
G54D10*
D03*
X179500Y-509000D02*
G54D10*
D03*
X202000Y-440000D02*
G54D10*
D03*
X172000Y-442000D02*
G54D10*
D03*
X211000Y-566000D02*
G54D10*
D03*
X182000Y-427000D02*
G54D10*
D03*
X239000Y-458000D02*
G54D10*
D03*
X239000Y-466000D02*
G54D10*
D03*
G36*
X234958Y-428583D02*
X248964Y-441207D01*
X254059Y-441001D01*
X261599Y-438146D01*
X268418Y-434295D01*
X275292Y-428996D01*
X253350Y-426424D01*
X245205Y-428610D01*
X234958Y-428583D01*
G37*
G54D12*
X234958Y-428583D02*
X248964Y-441207D01*
X254059Y-441001D01*
X261599Y-438146D01*
X268418Y-434295D01*
X275292Y-428996D01*
X253350Y-426424D01*
X245205Y-428610D01*
X234958Y-428583D01*
G36*
X212453Y-418644D02*
X216364Y-437089D01*
X220607Y-439918D01*
X228385Y-442039D01*
X236165Y-442932D01*
X244841Y-442686D01*
X228602Y-427707D01*
X220728Y-424688D01*
X212453Y-418644D01*
G37*
G54D12*
X212453Y-418644D02*
X216364Y-437089D01*
X220607Y-439918D01*
X228385Y-442039D01*
X236165Y-442932D01*
X244841Y-442686D01*
X228602Y-427707D01*
X220728Y-424688D01*
X212453Y-418644D01*
G36*
X200125Y-397236D02*
X192448Y-414457D01*
X194217Y-419239D01*
X199263Y-425528D01*
X205033Y-430823D01*
X212196Y-435724D01*
X207863Y-414061D01*
X203266Y-406990D01*
X200125Y-397236D01*
G37*
G54D12*
X200125Y-397236D02*
X192448Y-414457D01*
X194217Y-419239D01*
X199263Y-425528D01*
X205033Y-430823D01*
X212196Y-435724D01*
X207863Y-414061D01*
X203266Y-406990D01*
X200125Y-397236D01*
G36*
X202406Y-373038D02*
X186072Y-382457D01*
X184693Y-387366D01*
X185079Y-395419D01*
X186634Y-403095D01*
X189549Y-411270D01*
X198776Y-391197D01*
X199214Y-382775D01*
X202406Y-373038D01*
G37*
G54D12*
X202406Y-373038D02*
X186072Y-382457D01*
X184693Y-387366D01*
X185079Y-395419D01*
X186634Y-403095D01*
X189549Y-411270D01*
X198776Y-391197D01*
X199214Y-382775D01*
X202406Y-373038D01*
G36*
X219130Y-354616D02*
X200379Y-352636D01*
X196378Y-355796D01*
X191956Y-362538D01*
X188703Y-369662D01*
X186256Y-377989D01*
X205520Y-367174D01*
X210824Y-360618D01*
X219130Y-354616D01*
G37*
G54D12*
X219130Y-354616D02*
X200379Y-352636D01*
X196378Y-355796D01*
X191956Y-362538D01*
X188703Y-369662D01*
X186256Y-377989D01*
X205520Y-367174D01*
X210824Y-360618D01*
X219130Y-354616D01*
G36*
X243057Y-349430D02*
X229051Y-336806D01*
X223956Y-337012D01*
X216416Y-339867D01*
X209597Y-343718D01*
X202723Y-349016D01*
X224664Y-351589D01*
X232810Y-349403D01*
X243057Y-349430D01*
G37*
G54D12*
X243057Y-349430D02*
X229051Y-336806D01*
X223956Y-337012D01*
X216416Y-339867D01*
X209597Y-343718D01*
X202723Y-349016D01*
X224664Y-351589D01*
X232810Y-349403D01*
X243057Y-349430D01*
G36*
X265572Y-359474D02*
X261662Y-341029D01*
X257419Y-338201D01*
X249641Y-336079D01*
X241860Y-335187D01*
X233185Y-335432D01*
X249424Y-350411D01*
X257298Y-353430D01*
X265572Y-359474D01*
G37*
G54D12*
X265572Y-359474D02*
X261662Y-341029D01*
X257419Y-338201D01*
X249641Y-336079D01*
X241860Y-335187D01*
X233185Y-335432D01*
X249424Y-350411D01*
X257298Y-353430D01*
X265572Y-359474D01*
G36*
X278093Y-380266D02*
X285830Y-363172D01*
X284094Y-358672D01*
X279048Y-352383D01*
X273279Y-347088D01*
X266116Y-342187D01*
X270449Y-363850D01*
X275045Y-370921D01*
X278093Y-380266D01*
G37*
G54D12*
X278093Y-380266D02*
X285830Y-363172D01*
X284094Y-358672D01*
X279048Y-352383D01*
X273279Y-347088D01*
X266116Y-342187D01*
X270449Y-363850D01*
X275045Y-370921D01*
X278093Y-380266D01*
G36*
X275373Y-405042D02*
X291706Y-395622D01*
X293085Y-390713D01*
X292699Y-382660D01*
X291144Y-374985D01*
X288229Y-366810D01*
X279002Y-386882D01*
X278564Y-395304D01*
X275373Y-405042D01*
G37*
G54D12*
X275373Y-405042D02*
X291706Y-395622D01*
X293085Y-390713D01*
X292699Y-382660D01*
X291144Y-374985D01*
X288229Y-366810D01*
X279002Y-386882D01*
X278564Y-395304D01*
X275373Y-405042D01*
G36*
X258885Y-423398D02*
X277636Y-425378D01*
X281637Y-422217D01*
X286058Y-415475D01*
X289312Y-408351D01*
X291759Y-400024D01*
X272495Y-410840D01*
X267191Y-417396D01*
X258885Y-423398D01*
G37*
G54D12*
X258885Y-423398D02*
X277636Y-425378D01*
X281637Y-422217D01*
X286058Y-415475D01*
X289312Y-408351D01*
X291759Y-400024D01*
X272495Y-410840D01*
X267191Y-417396D01*
X258885Y-423398D01*
X277000Y-416000D02*
G54D13*
D03*
X286000Y-387000D02*
G54D13*
D03*
X277000Y-361000D02*
G54D13*
D03*
X253000Y-344000D02*
G54D13*
D03*
X224000Y-344000D02*
G54D13*
D03*
X201000Y-362000D02*
G54D13*
D03*
X192000Y-389000D02*
G54D13*
D03*
X202000Y-416000D02*
G54D13*
D03*
X225000Y-433000D02*
G54D13*
D03*
X254000Y-433000D02*
G54D13*
D03*
G54D11*
G75*
G01X262000Y-389000D02*
G03X262000Y-389000I-23000J0D01*
G01*
X394000Y-421000D02*
G54D10*
D03*
X449000Y-355000D02*
G54D10*
D03*
X449000Y-367000D02*
G54D10*
D03*
X448000Y-412000D02*
G54D10*
D03*
X412000Y-446000D02*
G54D10*
D03*
X376000Y-445000D02*
G54D10*
D03*
X336000Y-412000D02*
G54D10*
D03*
X335000Y-379000D02*
G54D10*
D03*
X342000Y-353000D02*
G54D10*
D03*
G54D11*
X422500Y-601500D02*
X439500Y-601500D01*
G54D11*
X348500Y-601500D02*
X365500Y-601500D01*
X436000Y-473000D02*
G54D10*
D03*
X449000Y-509000D02*
G54D10*
D03*
X422000Y-501000D02*
G54D10*
D03*
X422000Y-474000D02*
G54D10*
D03*
X430000Y-438000D02*
G54D10*
D03*
X434000Y-504000D02*
G54D10*
D03*
X334500Y-509000D02*
G54D10*
D03*
X357000Y-440000D02*
G54D10*
D03*
X327000Y-442000D02*
G54D10*
D03*
X366000Y-566000D02*
G54D10*
D03*
X337000Y-427000D02*
G54D10*
D03*
X394000Y-458000D02*
G54D10*
D03*
X394000Y-466000D02*
G54D10*
D03*
G36*
X389958Y-428583D02*
X403964Y-441207D01*
X409059Y-441001D01*
X416599Y-438146D01*
X423418Y-434295D01*
X430292Y-428996D01*
X408350Y-426424D01*
X400205Y-428610D01*
X389958Y-428583D01*
G37*
G54D12*
X389958Y-428583D02*
X403964Y-441207D01*
X409059Y-441001D01*
X416599Y-438146D01*
X423418Y-434295D01*
X430292Y-428996D01*
X408350Y-426424D01*
X400205Y-428610D01*
X389958Y-428583D01*
G36*
X367453Y-418644D02*
X371364Y-437089D01*
X375607Y-439918D01*
X383385Y-442039D01*
X391165Y-442932D01*
X399841Y-442686D01*
X383602Y-427707D01*
X375728Y-424688D01*
X367453Y-418644D01*
G37*
G54D12*
X367453Y-418644D02*
X371364Y-437089D01*
X375607Y-439918D01*
X383385Y-442039D01*
X391165Y-442932D01*
X399841Y-442686D01*
X383602Y-427707D01*
X375728Y-424688D01*
X367453Y-418644D01*
G36*
X355125Y-397236D02*
X347448Y-414457D01*
X349217Y-419239D01*
X354263Y-425528D01*
X360033Y-430823D01*
X367196Y-435724D01*
X362863Y-414061D01*
X358266Y-406990D01*
X355125Y-397236D01*
G37*
G54D12*
X355125Y-397236D02*
X347448Y-414457D01*
X349217Y-419239D01*
X354263Y-425528D01*
X360033Y-430823D01*
X367196Y-435724D01*
X362863Y-414061D01*
X358266Y-406990D01*
X355125Y-397236D01*
G36*
X357406Y-373038D02*
X341072Y-382457D01*
X339693Y-387366D01*
X340079Y-395419D01*
X341634Y-403095D01*
X344549Y-411270D01*
X353776Y-391197D01*
X354214Y-382775D01*
X357406Y-373038D01*
G37*
G54D12*
X357406Y-373038D02*
X341072Y-382457D01*
X339693Y-387366D01*
X340079Y-395419D01*
X341634Y-403095D01*
X344549Y-411270D01*
X353776Y-391197D01*
X354214Y-382775D01*
X357406Y-373038D01*
G36*
X374130Y-354616D02*
X355379Y-352636D01*
X351378Y-355796D01*
X346956Y-362538D01*
X343703Y-369662D01*
X341256Y-377989D01*
X360520Y-367174D01*
X365824Y-360618D01*
X374130Y-354616D01*
G37*
G54D12*
X374130Y-354616D02*
X355379Y-352636D01*
X351378Y-355796D01*
X346956Y-362538D01*
X343703Y-369662D01*
X341256Y-377989D01*
X360520Y-367174D01*
X365824Y-360618D01*
X374130Y-354616D01*
G36*
X398057Y-349430D02*
X384051Y-336806D01*
X378956Y-337012D01*
X371416Y-339867D01*
X364597Y-343718D01*
X357723Y-349016D01*
X379664Y-351589D01*
X387810Y-349403D01*
X398057Y-349430D01*
G37*
G54D12*
X398057Y-349430D02*
X384051Y-336806D01*
X378956Y-337012D01*
X371416Y-339867D01*
X364597Y-343718D01*
X357723Y-349016D01*
X379664Y-351589D01*
X387810Y-349403D01*
X398057Y-349430D01*
G36*
X420572Y-359474D02*
X416662Y-341029D01*
X412419Y-338201D01*
X404641Y-336079D01*
X396860Y-335187D01*
X388185Y-335432D01*
X404424Y-350411D01*
X412298Y-353430D01*
X420572Y-359474D01*
G37*
G54D12*
X420572Y-359474D02*
X416662Y-341029D01*
X412419Y-338201D01*
X404641Y-336079D01*
X396860Y-335187D01*
X388185Y-335432D01*
X404424Y-350411D01*
X412298Y-353430D01*
X420572Y-359474D01*
G36*
X433094Y-380266D02*
X440830Y-363172D01*
X439094Y-358672D01*
X434048Y-352383D01*
X428279Y-347088D01*
X421116Y-342187D01*
X425449Y-363850D01*
X430045Y-370921D01*
X433094Y-380266D01*
G37*
G54D12*
X433094Y-380266D02*
X440830Y-363172D01*
X439094Y-358672D01*
X434048Y-352383D01*
X428279Y-347088D01*
X421116Y-342187D01*
X425449Y-363850D01*
X430045Y-370921D01*
X433094Y-380266D01*
G36*
X430373Y-405042D02*
X446706Y-395622D01*
X448086Y-390713D01*
X447700Y-382660D01*
X446144Y-374985D01*
X443230Y-366810D01*
X434002Y-386882D01*
X433564Y-395304D01*
X430373Y-405042D01*
G37*
G54D12*
X430373Y-405042D02*
X446706Y-395622D01*
X448086Y-390713D01*
X447700Y-382660D01*
X446144Y-374985D01*
X443230Y-366810D01*
X434002Y-386882D01*
X433564Y-395304D01*
X430373Y-405042D01*
G36*
X413885Y-423398D02*
X432636Y-425378D01*
X436637Y-422217D01*
X441058Y-415475D01*
X444312Y-408351D01*
X446759Y-400024D01*
X427495Y-410840D01*
X422191Y-417396D01*
X413885Y-423398D01*
G37*
G54D12*
X413885Y-423398D02*
X432636Y-425378D01*
X436637Y-422217D01*
X441058Y-415475D01*
X444312Y-408351D01*
X446759Y-400024D01*
X427495Y-410840D01*
X422191Y-417396D01*
X413885Y-423398D01*
X432000Y-416000D02*
G54D13*
D03*
X441000Y-387000D02*
G54D13*
D03*
X432000Y-361000D02*
G54D13*
D03*
X408000Y-344000D02*
G54D13*
D03*
X379000Y-344000D02*
G54D13*
D03*
X356000Y-362000D02*
G54D13*
D03*
X347000Y-389000D02*
G54D13*
D03*
X357000Y-416000D02*
G54D13*
D03*
X380000Y-433000D02*
G54D13*
D03*
X409000Y-433000D02*
G54D13*
D03*
G54D11*
G75*
G01X417000Y-389000D02*
G03X417000Y-389000I-23000J0D01*
G01*
X549000Y-421000D02*
G54D10*
D03*
X604000Y-355000D02*
G54D10*
D03*
X604000Y-367000D02*
G54D10*
D03*
X603000Y-412000D02*
G54D10*
D03*
X567000Y-446000D02*
G54D10*
D03*
X531000Y-445000D02*
G54D10*
D03*
X491000Y-412000D02*
G54D10*
D03*
X490000Y-379000D02*
G54D10*
D03*
X497000Y-353000D02*
G54D10*
D03*
G54D11*
X577500Y-601500D02*
X594500Y-601500D01*
G54D11*
X503500Y-601500D02*
X520500Y-601500D01*
X591000Y-473000D02*
G54D10*
D03*
X604000Y-509000D02*
G54D10*
D03*
X577000Y-501000D02*
G54D10*
D03*
X577000Y-474000D02*
G54D10*
D03*
X585000Y-438000D02*
G54D10*
D03*
X589000Y-504000D02*
G54D10*
D03*
X489500Y-509000D02*
G54D10*
D03*
X512000Y-440000D02*
G54D10*
D03*
X482000Y-442000D02*
G54D10*
D03*
X521000Y-566000D02*
G54D10*
D03*
X492000Y-427000D02*
G54D10*
D03*
X549000Y-458000D02*
G54D10*
D03*
X549000Y-466000D02*
G54D10*
D03*
G36*
X544958Y-428583D02*
X558964Y-441207D01*
X564059Y-441001D01*
X571599Y-438146D01*
X578418Y-434295D01*
X585292Y-428996D01*
X563350Y-426424D01*
X555205Y-428610D01*
X544958Y-428583D01*
G37*
G54D12*
X544958Y-428583D02*
X558964Y-441207D01*
X564059Y-441001D01*
X571599Y-438146D01*
X578418Y-434295D01*
X585292Y-428996D01*
X563350Y-426424D01*
X555205Y-428610D01*
X544958Y-428583D01*
G36*
X522453Y-418644D02*
X526364Y-437089D01*
X530607Y-439918D01*
X538385Y-442039D01*
X546165Y-442932D01*
X554841Y-442686D01*
X538602Y-427707D01*
X530728Y-424688D01*
X522453Y-418644D01*
G37*
G54D12*
X522453Y-418644D02*
X526364Y-437089D01*
X530607Y-439918D01*
X538385Y-442039D01*
X546165Y-442932D01*
X554841Y-442686D01*
X538602Y-427707D01*
X530728Y-424688D01*
X522453Y-418644D01*
G36*
X510125Y-397236D02*
X502448Y-414457D01*
X504217Y-419239D01*
X509263Y-425528D01*
X515033Y-430823D01*
X522196Y-435724D01*
X517863Y-414061D01*
X513266Y-406990D01*
X510125Y-397236D01*
G37*
G54D12*
X510125Y-397236D02*
X502448Y-414457D01*
X504217Y-419239D01*
X509263Y-425528D01*
X515033Y-430823D01*
X522196Y-435724D01*
X517863Y-414061D01*
X513266Y-406990D01*
X510125Y-397236D01*
G36*
X512406Y-373038D02*
X496072Y-382457D01*
X494693Y-387366D01*
X495079Y-395419D01*
X496634Y-403095D01*
X499549Y-411270D01*
X508776Y-391197D01*
X509214Y-382775D01*
X512406Y-373038D01*
G37*
G54D12*
X512406Y-373038D02*
X496072Y-382457D01*
X494693Y-387366D01*
X495079Y-395419D01*
X496634Y-403095D01*
X499549Y-411270D01*
X508776Y-391197D01*
X509214Y-382775D01*
X512406Y-373038D01*
G36*
X529130Y-354616D02*
X510379Y-352636D01*
X506378Y-355796D01*
X501956Y-362538D01*
X498703Y-369662D01*
X496256Y-377989D01*
X515520Y-367174D01*
X520824Y-360618D01*
X529130Y-354616D01*
G37*
G54D12*
X529130Y-354616D02*
X510379Y-352636D01*
X506378Y-355796D01*
X501956Y-362538D01*
X498703Y-369662D01*
X496256Y-377989D01*
X515520Y-367174D01*
X520824Y-360618D01*
X529130Y-354616D01*
G36*
X553057Y-349430D02*
X539051Y-336806D01*
X533956Y-337012D01*
X526416Y-339867D01*
X519597Y-343718D01*
X512723Y-349016D01*
X534664Y-351589D01*
X542810Y-349403D01*
X553057Y-349430D01*
G37*
G54D12*
X553057Y-349430D02*
X539051Y-336806D01*
X533956Y-337012D01*
X526416Y-339867D01*
X519597Y-343718D01*
X512723Y-349016D01*
X534664Y-351589D01*
X542810Y-349403D01*
X553057Y-349430D01*
G36*
X575573Y-359474D02*
X571662Y-341029D01*
X567419Y-338201D01*
X559641Y-336079D01*
X551860Y-335187D01*
X543185Y-335432D01*
X559424Y-350411D01*
X567298Y-353430D01*
X575573Y-359474D01*
G37*
G54D12*
X575573Y-359474D02*
X571662Y-341029D01*
X567419Y-338201D01*
X559641Y-336079D01*
X551860Y-335187D01*
X543185Y-335432D01*
X559424Y-350411D01*
X567298Y-353430D01*
X575573Y-359474D01*
G36*
X588093Y-380266D02*
X595830Y-363172D01*
X594094Y-358672D01*
X589049Y-352383D01*
X583279Y-347088D01*
X576116Y-342187D01*
X580449Y-363850D01*
X585045Y-370921D01*
X588093Y-380266D01*
G37*
G54D12*
X588093Y-380266D02*
X595830Y-363172D01*
X594094Y-358672D01*
X589049Y-352383D01*
X583279Y-347088D01*
X576116Y-342187D01*
X580449Y-363850D01*
X585045Y-370921D01*
X588093Y-380266D01*
G36*
X585373Y-405042D02*
X601706Y-395622D01*
X603085Y-390713D01*
X602699Y-382660D01*
X601144Y-374985D01*
X598229Y-366810D01*
X589002Y-386882D01*
X588565Y-395304D01*
X585373Y-405042D01*
G37*
G54D12*
X585373Y-405042D02*
X601706Y-395622D01*
X603085Y-390713D01*
X602699Y-382660D01*
X601144Y-374985D01*
X598229Y-366810D01*
X589002Y-386882D01*
X588565Y-395304D01*
X585373Y-405042D01*
G36*
X568885Y-423398D02*
X587636Y-425378D01*
X591637Y-422217D01*
X596058Y-415475D01*
X599312Y-408351D01*
X601759Y-400024D01*
X582495Y-410840D01*
X577191Y-417396D01*
X568885Y-423398D01*
G37*
G54D12*
X568885Y-423398D02*
X587636Y-425378D01*
X591637Y-422217D01*
X596058Y-415475D01*
X599312Y-408351D01*
X601759Y-400024D01*
X582495Y-410840D01*
X577191Y-417396D01*
X568885Y-423398D01*
X587000Y-416000D02*
G54D13*
D03*
X596000Y-387000D02*
G54D13*
D03*
X587000Y-361000D02*
G54D13*
D03*
X563000Y-344000D02*
G54D13*
D03*
X534000Y-344000D02*
G54D13*
D03*
X511000Y-362000D02*
G54D13*
D03*
X502000Y-389000D02*
G54D13*
D03*
X512000Y-416000D02*
G54D13*
D03*
X535000Y-433000D02*
G54D13*
D03*
X564000Y-433000D02*
G54D13*
D03*
G54D11*
G75*
G01X572000Y-389000D02*
G03X572000Y-389000I-23000J0D01*
G01*
X704000Y-421000D02*
G54D10*
D03*
X759000Y-355000D02*
G54D10*
D03*
X759000Y-367000D02*
G54D10*
D03*
X758000Y-412000D02*
G54D10*
D03*
X722000Y-446000D02*
G54D10*
D03*
X686000Y-445000D02*
G54D10*
D03*
X646000Y-412000D02*
G54D10*
D03*
X645000Y-379000D02*
G54D10*
D03*
X652000Y-353000D02*
G54D10*
D03*
G54D11*
X732500Y-601500D02*
X749500Y-601500D01*
G54D11*
X658500Y-601500D02*
X675500Y-601500D01*
X746000Y-473000D02*
G54D10*
D03*
X759000Y-509000D02*
G54D10*
D03*
X732000Y-501000D02*
G54D10*
D03*
X732000Y-474000D02*
G54D10*
D03*
X740000Y-438000D02*
G54D10*
D03*
X744000Y-504000D02*
G54D10*
D03*
X644500Y-509000D02*
G54D10*
D03*
X667000Y-440000D02*
G54D10*
D03*
X637000Y-442000D02*
G54D10*
D03*
X676000Y-566000D02*
G54D10*
D03*
X647000Y-427000D02*
G54D10*
D03*
X704000Y-458000D02*
G54D10*
D03*
X704000Y-466000D02*
G54D10*
D03*
G36*
X699958Y-428583D02*
X713964Y-441207D01*
X719059Y-441001D01*
X726599Y-438146D01*
X733418Y-434295D01*
X740292Y-428996D01*
X718350Y-426424D01*
X710205Y-428610D01*
X699958Y-428583D01*
G37*
G54D12*
X699958Y-428583D02*
X713964Y-441207D01*
X719059Y-441001D01*
X726599Y-438146D01*
X733418Y-434295D01*
X740292Y-428996D01*
X718350Y-426424D01*
X710205Y-428610D01*
X699958Y-428583D01*
G36*
X677453Y-418644D02*
X681364Y-437089D01*
X685607Y-439918D01*
X693385Y-442039D01*
X701165Y-442932D01*
X709841Y-442686D01*
X693602Y-427707D01*
X685728Y-424688D01*
X677453Y-418644D01*
G37*
G54D12*
X677453Y-418644D02*
X681364Y-437089D01*
X685607Y-439918D01*
X693385Y-442039D01*
X701165Y-442932D01*
X709841Y-442686D01*
X693602Y-427707D01*
X685728Y-424688D01*
X677453Y-418644D01*
G36*
X665125Y-397236D02*
X657448Y-414457D01*
X659217Y-419239D01*
X664263Y-425528D01*
X670033Y-430823D01*
X677196Y-435724D01*
X672863Y-414061D01*
X668266Y-406990D01*
X665125Y-397236D01*
G37*
G54D12*
X665125Y-397236D02*
X657448Y-414457D01*
X659217Y-419239D01*
X664263Y-425528D01*
X670033Y-430823D01*
X677196Y-435724D01*
X672863Y-414061D01*
X668266Y-406990D01*
X665125Y-397236D01*
G36*
X667406Y-373038D02*
X651072Y-382457D01*
X649693Y-387366D01*
X650079Y-395419D01*
X651634Y-403095D01*
X654549Y-411270D01*
X663776Y-391197D01*
X664214Y-382775D01*
X667406Y-373038D01*
G37*
G54D12*
X667406Y-373038D02*
X651072Y-382457D01*
X649693Y-387366D01*
X650079Y-395419D01*
X651634Y-403095D01*
X654549Y-411270D01*
X663776Y-391197D01*
X664214Y-382775D01*
X667406Y-373038D01*
G36*
X684130Y-354616D02*
X665379Y-352636D01*
X661378Y-355796D01*
X656956Y-362538D01*
X653703Y-369662D01*
X651256Y-377989D01*
X670520Y-367174D01*
X675824Y-360618D01*
X684130Y-354616D01*
G37*
G54D12*
X684130Y-354616D02*
X665379Y-352636D01*
X661378Y-355796D01*
X656956Y-362538D01*
X653703Y-369662D01*
X651256Y-377989D01*
X670520Y-367174D01*
X675824Y-360618D01*
X684130Y-354616D01*
G36*
X708057Y-349430D02*
X694051Y-336806D01*
X688956Y-337012D01*
X681416Y-339867D01*
X674597Y-343718D01*
X667723Y-349016D01*
X689664Y-351589D01*
X697810Y-349403D01*
X708057Y-349430D01*
G37*
G54D12*
X708057Y-349430D02*
X694051Y-336806D01*
X688956Y-337012D01*
X681416Y-339867D01*
X674597Y-343718D01*
X667723Y-349016D01*
X689664Y-351589D01*
X697810Y-349403D01*
X708057Y-349430D01*
G36*
X730573Y-359474D02*
X726662Y-341029D01*
X722419Y-338201D01*
X714641Y-336079D01*
X706860Y-335187D01*
X698185Y-335432D01*
X714424Y-350411D01*
X722298Y-353430D01*
X730573Y-359474D01*
G37*
G54D12*
X730573Y-359474D02*
X726662Y-341029D01*
X722419Y-338201D01*
X714641Y-336079D01*
X706860Y-335187D01*
X698185Y-335432D01*
X714424Y-350411D01*
X722298Y-353430D01*
X730573Y-359474D01*
G36*
X743093Y-380266D02*
X750830Y-363172D01*
X749094Y-358672D01*
X744049Y-352383D01*
X738279Y-347088D01*
X731116Y-342187D01*
X735449Y-363850D01*
X740045Y-370921D01*
X743093Y-380266D01*
G37*
G54D12*
X743093Y-380266D02*
X750830Y-363172D01*
X749094Y-358672D01*
X744049Y-352383D01*
X738279Y-347088D01*
X731116Y-342187D01*
X735449Y-363850D01*
X740045Y-370921D01*
X743093Y-380266D01*
G36*
X740373Y-405042D02*
X756706Y-395622D01*
X758085Y-390713D01*
X757699Y-382660D01*
X756144Y-374985D01*
X753229Y-366810D01*
X744002Y-386882D01*
X743565Y-395304D01*
X740373Y-405042D01*
G37*
G54D12*
X740373Y-405042D02*
X756706Y-395622D01*
X758085Y-390713D01*
X757699Y-382660D01*
X756144Y-374985D01*
X753229Y-366810D01*
X744002Y-386882D01*
X743565Y-395304D01*
X740373Y-405042D01*
G36*
X723885Y-423398D02*
X742636Y-425378D01*
X746637Y-422217D01*
X751058Y-415475D01*
X754312Y-408351D01*
X756759Y-400024D01*
X737495Y-410840D01*
X732191Y-417396D01*
X723885Y-423398D01*
G37*
G54D12*
X723885Y-423398D02*
X742636Y-425378D01*
X746637Y-422217D01*
X751058Y-415475D01*
X754312Y-408351D01*
X756759Y-400024D01*
X737495Y-410840D01*
X732191Y-417396D01*
X723885Y-423398D01*
X742000Y-416000D02*
G54D13*
D03*
X751000Y-387000D02*
G54D13*
D03*
X742000Y-361000D02*
G54D13*
D03*
X718000Y-344000D02*
G54D13*
D03*
X689000Y-344000D02*
G54D13*
D03*
X666000Y-362000D02*
G54D13*
D03*
X657000Y-389000D02*
G54D13*
D03*
X667000Y-416000D02*
G54D13*
D03*
X690000Y-433000D02*
G54D13*
D03*
X719000Y-433000D02*
G54D13*
D03*
G54D11*
G75*
G01X727000Y-389000D02*
G03X727000Y-389000I-23000J0D01*
G01*
X859000Y-421000D02*
G54D10*
D03*
X914000Y-355000D02*
G54D10*
D03*
X914000Y-367000D02*
G54D10*
D03*
X913000Y-412000D02*
G54D10*
D03*
X877000Y-446000D02*
G54D10*
D03*
X841000Y-445000D02*
G54D10*
D03*
X801000Y-412000D02*
G54D10*
D03*
X800000Y-379000D02*
G54D10*
D03*
X807000Y-353000D02*
G54D10*
D03*
G54D11*
X887500Y-601500D02*
X904500Y-601500D01*
G54D11*
X813500Y-601500D02*
X830500Y-601500D01*
X901000Y-473000D02*
G54D10*
D03*
X914000Y-509000D02*
G54D10*
D03*
X887000Y-501000D02*
G54D10*
D03*
X887000Y-474000D02*
G54D10*
D03*
X895000Y-438000D02*
G54D10*
D03*
X899000Y-504000D02*
G54D10*
D03*
X799500Y-509000D02*
G54D10*
D03*
X822000Y-440000D02*
G54D10*
D03*
X792000Y-442000D02*
G54D10*
D03*
X831000Y-566000D02*
G54D10*
D03*
X802000Y-427000D02*
G54D10*
D03*
X859000Y-458000D02*
G54D10*
D03*
X859000Y-466000D02*
G54D10*
D03*
G36*
X854958Y-428583D02*
X868964Y-441207D01*
X874059Y-441001D01*
X881599Y-438146D01*
X888418Y-434295D01*
X895292Y-428996D01*
X873350Y-426424D01*
X865205Y-428610D01*
X854958Y-428583D01*
G37*
G54D12*
X854958Y-428583D02*
X868964Y-441207D01*
X874059Y-441001D01*
X881599Y-438146D01*
X888418Y-434295D01*
X895292Y-428996D01*
X873350Y-426424D01*
X865205Y-428610D01*
X854958Y-428583D01*
G36*
X832453Y-418644D02*
X836364Y-437089D01*
X840607Y-439918D01*
X848385Y-442039D01*
X856165Y-442932D01*
X864841Y-442686D01*
X848602Y-427707D01*
X840728Y-424688D01*
X832453Y-418644D01*
G37*
G54D12*
X832453Y-418644D02*
X836364Y-437089D01*
X840607Y-439918D01*
X848385Y-442039D01*
X856165Y-442932D01*
X864841Y-442686D01*
X848602Y-427707D01*
X840728Y-424688D01*
X832453Y-418644D01*
G36*
X820125Y-397236D02*
X812448Y-414457D01*
X814217Y-419239D01*
X819263Y-425528D01*
X825033Y-430823D01*
X832196Y-435724D01*
X827863Y-414061D01*
X823266Y-406990D01*
X820125Y-397236D01*
G37*
G54D12*
X820125Y-397236D02*
X812448Y-414457D01*
X814217Y-419239D01*
X819263Y-425528D01*
X825033Y-430823D01*
X832196Y-435724D01*
X827863Y-414061D01*
X823266Y-406990D01*
X820125Y-397236D01*
G36*
X822406Y-373038D02*
X806072Y-382457D01*
X804693Y-387366D01*
X805079Y-395419D01*
X806634Y-403095D01*
X809549Y-411270D01*
X818776Y-391197D01*
X819214Y-382775D01*
X822406Y-373038D01*
G37*
G54D12*
X822406Y-373038D02*
X806072Y-382457D01*
X804693Y-387366D01*
X805079Y-395419D01*
X806634Y-403095D01*
X809549Y-411270D01*
X818776Y-391197D01*
X819214Y-382775D01*
X822406Y-373038D01*
G36*
X839130Y-354616D02*
X820379Y-352636D01*
X816378Y-355796D01*
X811956Y-362538D01*
X808703Y-369662D01*
X806256Y-377989D01*
X825520Y-367174D01*
X830824Y-360618D01*
X839130Y-354616D01*
G37*
G54D12*
X839130Y-354616D02*
X820379Y-352636D01*
X816378Y-355796D01*
X811956Y-362538D01*
X808703Y-369662D01*
X806256Y-377989D01*
X825520Y-367174D01*
X830824Y-360618D01*
X839130Y-354616D01*
G36*
X863057Y-349430D02*
X849051Y-336806D01*
X843956Y-337012D01*
X836416Y-339867D01*
X829597Y-343718D01*
X822723Y-349016D01*
X844664Y-351589D01*
X852810Y-349403D01*
X863057Y-349430D01*
G37*
G54D12*
X863057Y-349430D02*
X849051Y-336806D01*
X843956Y-337012D01*
X836416Y-339867D01*
X829597Y-343718D01*
X822723Y-349016D01*
X844664Y-351589D01*
X852810Y-349403D01*
X863057Y-349430D01*
G36*
X885573Y-359474D02*
X881662Y-341029D01*
X877419Y-338201D01*
X869641Y-336079D01*
X861860Y-335187D01*
X853185Y-335432D01*
X869424Y-350411D01*
X877298Y-353430D01*
X885573Y-359474D01*
G37*
G54D12*
X885573Y-359474D02*
X881662Y-341029D01*
X877419Y-338201D01*
X869641Y-336079D01*
X861860Y-335187D01*
X853185Y-335432D01*
X869424Y-350411D01*
X877298Y-353430D01*
X885573Y-359474D01*
G36*
X898093Y-380266D02*
X905830Y-363172D01*
X904094Y-358672D01*
X899049Y-352383D01*
X893279Y-347088D01*
X886116Y-342187D01*
X890449Y-363850D01*
X895045Y-370921D01*
X898093Y-380266D01*
G37*
G54D12*
X898093Y-380266D02*
X905830Y-363172D01*
X904094Y-358672D01*
X899049Y-352383D01*
X893279Y-347088D01*
X886116Y-342187D01*
X890449Y-363850D01*
X895045Y-370921D01*
X898093Y-380266D01*
G36*
X895373Y-405042D02*
X911706Y-395622D01*
X913085Y-390713D01*
X912699Y-382660D01*
X911144Y-374985D01*
X908229Y-366810D01*
X899002Y-386882D01*
X898565Y-395304D01*
X895373Y-405042D01*
G37*
G54D12*
X895373Y-405042D02*
X911706Y-395622D01*
X913085Y-390713D01*
X912699Y-382660D01*
X911144Y-374985D01*
X908229Y-366810D01*
X899002Y-386882D01*
X898565Y-395304D01*
X895373Y-405042D01*
G36*
X878885Y-423398D02*
X897636Y-425378D01*
X901637Y-422217D01*
X906058Y-415475D01*
X909312Y-408351D01*
X911759Y-400024D01*
X892495Y-410840D01*
X887191Y-417396D01*
X878885Y-423398D01*
G37*
G54D12*
X878885Y-423398D02*
X897636Y-425378D01*
X901637Y-422217D01*
X906058Y-415475D01*
X909312Y-408351D01*
X911759Y-400024D01*
X892495Y-410840D01*
X887191Y-417396D01*
X878885Y-423398D01*
X897000Y-416000D02*
G54D13*
D03*
X906000Y-387000D02*
G54D13*
D03*
X897000Y-361000D02*
G54D13*
D03*
X873000Y-344000D02*
G54D13*
D03*
X844000Y-344000D02*
G54D13*
D03*
X821000Y-362000D02*
G54D13*
D03*
X812000Y-389000D02*
G54D13*
D03*
X822000Y-416000D02*
G54D13*
D03*
X845000Y-433000D02*
G54D13*
D03*
X874000Y-433000D02*
G54D13*
D03*
G54D11*
G75*
G01X882000Y-389000D02*
G03X882000Y-389000I-23000J0D01*
G01*
M02*
