%FSLAX34Y34*%
%MOMM*%
%LNCOPPER_BOTTOM*%
G71*
G01*
%ADD10C, 0.700*%
%ADD11C, 0.600*%
%ADD12C, 1.700*%
%ADD13R, 1.800X1.300*%
%ADD14C, 0.500*%
%ADD15C, 0.400*%
%LPD*%
X84000Y-116000D02*
G54D10*
D03*
X139000Y-50000D02*
G54D10*
D03*
X139000Y-62000D02*
G54D10*
D03*
X138000Y-107000D02*
G54D10*
D03*
X102000Y-141000D02*
G54D10*
D03*
X66000Y-140000D02*
G54D10*
D03*
X26000Y-107000D02*
G54D10*
D03*
X25000Y-74000D02*
G54D10*
D03*
X32000Y-48000D02*
G54D10*
D03*
G54D11*
X84000Y-119000D02*
X84000Y-153000D01*
G54D12*
X112500Y-296500D02*
X129500Y-296500D01*
G54D12*
X38500Y-296500D02*
X55500Y-296500D01*
X28900Y-183600D02*
G54D13*
D03*
X29000Y-216100D02*
G54D13*
D03*
X56400Y-183600D02*
G54D13*
D03*
X56500Y-216100D02*
G54D13*
D03*
X83900Y-183600D02*
G54D13*
D03*
X84000Y-216100D02*
G54D13*
D03*
X111400Y-183600D02*
G54D13*
D03*
X111500Y-216100D02*
G54D13*
D03*
X138900Y-183600D02*
G54D13*
D03*
X139000Y-216100D02*
G54D13*
D03*
X28900Y-241100D02*
G54D13*
D03*
X29000Y-273600D02*
G54D13*
D03*
X56400Y-241100D02*
G54D13*
D03*
X56500Y-273600D02*
G54D13*
D03*
X111400Y-241100D02*
G54D13*
D03*
X111500Y-273600D02*
G54D13*
D03*
X138900Y-241100D02*
G54D13*
D03*
X139000Y-273600D02*
G54D13*
D03*
G54D11*
X139000Y-288000D02*
X139000Y-273600D01*
G54D11*
X138900Y-241100D02*
X138900Y-216200D01*
X139000Y-216100D01*
G54D11*
X138900Y-183600D02*
X111400Y-183600D01*
G54D11*
X111500Y-216100D02*
X111500Y-241000D01*
X111400Y-241100D01*
G54D11*
X111500Y-273600D02*
X111500Y-262500D01*
X107000Y-258000D01*
X94000Y-258000D01*
X84000Y-248000D01*
X84000Y-216100D01*
G54D11*
X83900Y-183600D02*
X56400Y-183600D01*
G54D11*
X56500Y-216100D02*
X56500Y-206500D01*
X50000Y-200000D01*
X33000Y-200000D01*
X28000Y-195000D01*
X28000Y-184500D01*
X28900Y-183600D01*
G54D11*
X29000Y-216100D02*
X29000Y-241000D01*
X28900Y-241100D01*
G54D11*
X29000Y-273600D02*
X56500Y-273600D01*
G54D11*
X139000Y-50000D02*
X143000Y-50000D01*
X148000Y-55000D01*
X148000Y-131000D01*
X133000Y-146000D01*
X133000Y-166000D01*
X131000Y-168000D01*
X126000Y-168000D01*
X126000Y-168000D02*
G54D10*
D03*
X139000Y-204000D02*
G54D10*
D03*
G54D11*
X139000Y-204000D02*
X139000Y-216100D01*
G54D11*
X102000Y-141000D02*
X98000Y-145000D01*
X98000Y-170000D01*
X112000Y-196000D02*
G54D10*
D03*
G54D11*
X112000Y-216000D02*
X112000Y-196000D01*
X112000Y-169000D02*
G54D10*
D03*
X120000Y-133000D02*
G54D10*
D03*
X124000Y-199000D02*
G54D10*
D03*
G54D11*
X124000Y-199000D02*
X132000Y-199000D01*
X138000Y-193000D01*
X138000Y-184500D01*
X138900Y-183600D01*
G54D14*
X56400Y-241100D02*
X56400Y-247600D01*
X49000Y-255000D01*
X20000Y-255000D01*
X15000Y-250000D01*
X15000Y-171000D01*
X18000Y-168000D01*
G54D14*
X18000Y-168000D02*
X24000Y-168000D01*
X34000Y-158000D01*
X34000Y-148000D01*
X25000Y-139000D01*
X20000Y-139000D01*
X17000Y-137000D01*
G54D14*
X28900Y-183600D02*
X28900Y-174100D01*
X34000Y-169000D01*
X53000Y-169000D01*
X59000Y-163000D01*
X59000Y-152000D01*
X52000Y-145000D01*
X45000Y-145000D01*
X39000Y-139000D01*
X39000Y-120000D01*
X26000Y-107000D01*
X24500Y-204000D02*
G54D10*
D03*
G54D11*
X24000Y-204000D02*
X29000Y-209000D01*
X29000Y-216100D01*
X47000Y-135000D02*
G54D10*
D03*
X17000Y-137000D02*
G54D10*
D03*
G54D11*
X47000Y-135000D02*
X47000Y-113000D01*
X25000Y-91000D01*
X25000Y-74000D01*
G54D14*
X32000Y-48000D02*
X32000Y-53000D01*
X17000Y-68000D01*
X17000Y-112000D01*
X27000Y-122000D01*
X56000Y-261000D02*
G54D10*
D03*
G54D11*
X56000Y-261000D02*
X56000Y-273100D01*
X56500Y-273600D01*
X27000Y-122000D02*
G54D10*
D03*
X84000Y-153000D02*
G54D10*
D03*
X84000Y-161000D02*
G54D10*
D03*
G54D11*
X84000Y-153000D02*
X84000Y-161000D01*
G54D11*
X83900Y-183600D02*
X83900Y-173900D01*
X72000Y-162000D01*
X72000Y-146000D01*
X66000Y-140000D01*
G54D11*
X138000Y-107000D02*
X138000Y-127000D01*
X123000Y-142000D01*
X113000Y-142000D01*
X107000Y-148000D01*
X107000Y-164000D01*
X112000Y-169000D01*
G54D11*
X84000Y-216100D02*
X84000Y-202000D01*
X87000Y-199000D01*
X92000Y-199000D01*
X98000Y-193000D01*
G54D15*
X98000Y-193000D02*
X98000Y-170000D01*
G54D15*
X24000Y-204000D02*
X24000Y-210000D01*
X26000Y-212000D01*
G54D14*
X50000Y-245000D02*
X50000Y-254000D01*
X49000Y-255000D01*
G54D14*
X53000Y-244000D02*
X53000Y-248000D01*
G54D11*
X121000Y-296500D02*
X130500Y-296500D01*
X139000Y-288000D01*
G54D11*
X139000Y-62000D02*
X139000Y-93000D01*
X120000Y-112000D01*
X120000Y-133000D01*
X239000Y-116000D02*
G54D10*
D03*
X294000Y-50000D02*
G54D10*
D03*
X294000Y-62000D02*
G54D10*
D03*
X293000Y-107000D02*
G54D10*
D03*
X257000Y-141000D02*
G54D10*
D03*
X221000Y-140000D02*
G54D10*
D03*
X181000Y-107000D02*
G54D10*
D03*
X180000Y-74000D02*
G54D10*
D03*
X187000Y-48000D02*
G54D10*
D03*
G54D11*
X239000Y-119000D02*
X239000Y-153000D01*
G54D12*
X267500Y-296500D02*
X284500Y-296500D01*
G54D12*
X193500Y-296500D02*
X210500Y-296500D01*
X183900Y-183600D02*
G54D13*
D03*
X184000Y-216100D02*
G54D13*
D03*
X211400Y-183600D02*
G54D13*
D03*
X211500Y-216100D02*
G54D13*
D03*
X238900Y-183600D02*
G54D13*
D03*
X239000Y-216100D02*
G54D13*
D03*
X266400Y-183600D02*
G54D13*
D03*
X266500Y-216100D02*
G54D13*
D03*
X293900Y-183600D02*
G54D13*
D03*
X294000Y-216100D02*
G54D13*
D03*
X183900Y-241100D02*
G54D13*
D03*
X184000Y-273600D02*
G54D13*
D03*
X211400Y-241100D02*
G54D13*
D03*
X211500Y-273600D02*
G54D13*
D03*
X266400Y-241100D02*
G54D13*
D03*
X266500Y-273600D02*
G54D13*
D03*
X293900Y-241100D02*
G54D13*
D03*
X294000Y-273600D02*
G54D13*
D03*
G54D11*
X294000Y-288000D02*
X294000Y-273600D01*
G54D11*
X293900Y-241100D02*
X293900Y-216200D01*
X294000Y-216100D01*
G54D11*
X293900Y-183600D02*
X266400Y-183600D01*
G54D11*
X266500Y-216100D02*
X266500Y-241000D01*
X266400Y-241100D01*
G54D11*
X266500Y-273600D02*
X266500Y-262500D01*
X262000Y-258000D01*
X249000Y-258000D01*
X239000Y-248000D01*
X239000Y-216100D01*
G54D11*
X238900Y-183600D02*
X211400Y-183600D01*
G54D11*
X211500Y-216100D02*
X211500Y-206500D01*
X205000Y-200000D01*
X188000Y-200000D01*
X183000Y-195000D01*
X183000Y-184500D01*
X183900Y-183600D01*
G54D11*
X184000Y-216100D02*
X184000Y-241000D01*
X183900Y-241100D01*
G54D11*
X184000Y-273600D02*
X211500Y-273600D01*
G54D11*
X294000Y-50000D02*
X298000Y-50000D01*
X303000Y-55000D01*
X303000Y-131000D01*
X288000Y-146000D01*
X288000Y-166000D01*
X286000Y-168000D01*
X281000Y-168000D01*
X281000Y-168000D02*
G54D10*
D03*
X294000Y-204000D02*
G54D10*
D03*
G54D11*
X294000Y-204000D02*
X294000Y-216100D01*
G54D11*
X257000Y-141000D02*
X253000Y-145000D01*
X253000Y-170000D01*
X267000Y-196000D02*
G54D10*
D03*
G54D11*
X267000Y-216000D02*
X267000Y-196000D01*
X267000Y-169000D02*
G54D10*
D03*
X275000Y-133000D02*
G54D10*
D03*
X279000Y-199000D02*
G54D10*
D03*
G54D11*
X279000Y-199000D02*
X287000Y-199000D01*
X293000Y-193000D01*
X293000Y-184500D01*
X293900Y-183600D01*
G54D14*
X211400Y-241100D02*
X211400Y-247600D01*
X204000Y-255000D01*
X175000Y-255000D01*
X170000Y-250000D01*
X170000Y-171000D01*
X173000Y-168000D01*
G54D14*
X173000Y-168000D02*
X179000Y-168000D01*
X189000Y-158000D01*
X189000Y-148000D01*
X180000Y-139000D01*
X175000Y-139000D01*
X172000Y-137000D01*
G54D14*
X183900Y-183600D02*
X183900Y-174100D01*
X189000Y-169000D01*
X208000Y-169000D01*
X214000Y-163000D01*
X214000Y-152000D01*
X207000Y-145000D01*
X200000Y-145000D01*
X194000Y-139000D01*
X194000Y-120000D01*
X181000Y-107000D01*
X179500Y-204000D02*
G54D10*
D03*
G54D11*
X179000Y-204000D02*
X184000Y-209000D01*
X184000Y-216100D01*
X202000Y-135000D02*
G54D10*
D03*
X172000Y-137000D02*
G54D10*
D03*
G54D11*
X202000Y-135000D02*
X202000Y-113000D01*
X180000Y-91000D01*
X180000Y-74000D01*
G54D14*
X187000Y-48000D02*
X187000Y-53000D01*
X172000Y-68000D01*
X172000Y-112000D01*
X182000Y-122000D01*
X211000Y-261000D02*
G54D10*
D03*
G54D11*
X211000Y-261000D02*
X211000Y-273100D01*
X211500Y-273600D01*
X182000Y-122000D02*
G54D10*
D03*
X239000Y-153000D02*
G54D10*
D03*
X239000Y-161000D02*
G54D10*
D03*
G54D11*
X239000Y-153000D02*
X239000Y-161000D01*
G54D11*
X238900Y-183600D02*
X238900Y-173900D01*
X227000Y-162000D01*
X227000Y-146000D01*
X221000Y-140000D01*
G54D11*
X293000Y-107000D02*
X293000Y-127000D01*
X278000Y-142000D01*
X268000Y-142000D01*
X262000Y-148000D01*
X262000Y-164000D01*
X267000Y-169000D01*
G54D11*
X239000Y-216100D02*
X239000Y-202000D01*
X242000Y-199000D01*
X247000Y-199000D01*
X253000Y-193000D01*
G54D15*
X253000Y-193000D02*
X253000Y-170000D01*
G54D15*
X179000Y-204000D02*
X179000Y-210000D01*
X181000Y-212000D01*
G54D14*
X205000Y-245000D02*
X205000Y-254000D01*
X204000Y-255000D01*
G54D14*
X208000Y-244000D02*
X208000Y-248000D01*
G54D11*
X276000Y-296500D02*
X285500Y-296500D01*
X294000Y-288000D01*
G54D11*
X294000Y-62000D02*
X294000Y-93000D01*
X275000Y-112000D01*
X275000Y-133000D01*
X394000Y-116000D02*
G54D10*
D03*
X449000Y-50000D02*
G54D10*
D03*
X449000Y-62000D02*
G54D10*
D03*
X448000Y-107000D02*
G54D10*
D03*
X412000Y-141000D02*
G54D10*
D03*
X376000Y-140000D02*
G54D10*
D03*
X336000Y-107000D02*
G54D10*
D03*
X335000Y-74000D02*
G54D10*
D03*
X342000Y-48000D02*
G54D10*
D03*
G54D11*
X394000Y-119000D02*
X394000Y-153000D01*
G54D12*
X422500Y-296500D02*
X439500Y-296500D01*
G54D12*
X348500Y-296500D02*
X365500Y-296500D01*
X338900Y-183600D02*
G54D13*
D03*
X339000Y-216100D02*
G54D13*
D03*
X366400Y-183600D02*
G54D13*
D03*
X366500Y-216100D02*
G54D13*
D03*
X393900Y-183600D02*
G54D13*
D03*
X394000Y-216100D02*
G54D13*
D03*
X421400Y-183600D02*
G54D13*
D03*
X421500Y-216100D02*
G54D13*
D03*
X448900Y-183600D02*
G54D13*
D03*
X449000Y-216100D02*
G54D13*
D03*
X338900Y-241100D02*
G54D13*
D03*
X339000Y-273600D02*
G54D13*
D03*
X366400Y-241100D02*
G54D13*
D03*
X366500Y-273600D02*
G54D13*
D03*
X421400Y-241100D02*
G54D13*
D03*
X421500Y-273600D02*
G54D13*
D03*
X448900Y-241100D02*
G54D13*
D03*
X449000Y-273600D02*
G54D13*
D03*
G54D11*
X449000Y-288000D02*
X449000Y-273600D01*
G54D11*
X448900Y-241100D02*
X448900Y-216200D01*
X449000Y-216100D01*
G54D11*
X448900Y-183600D02*
X421400Y-183600D01*
G54D11*
X421500Y-216100D02*
X421500Y-241000D01*
X421400Y-241100D01*
G54D11*
X421500Y-273600D02*
X421500Y-262500D01*
X417000Y-258000D01*
X404000Y-258000D01*
X394000Y-248000D01*
X394000Y-216100D01*
G54D11*
X393900Y-183600D02*
X366400Y-183600D01*
G54D11*
X366500Y-216100D02*
X366500Y-206500D01*
X360000Y-200000D01*
X343000Y-200000D01*
X338000Y-195000D01*
X338000Y-184500D01*
X338900Y-183600D01*
G54D11*
X339000Y-216100D02*
X339000Y-241000D01*
X338900Y-241100D01*
G54D11*
X339000Y-273600D02*
X366500Y-273600D01*
G54D11*
X449000Y-50000D02*
X453000Y-50000D01*
X458000Y-55000D01*
X458000Y-131000D01*
X443000Y-146000D01*
X443000Y-166000D01*
X441000Y-168000D01*
X436000Y-168000D01*
X436000Y-168000D02*
G54D10*
D03*
X449000Y-204000D02*
G54D10*
D03*
G54D11*
X449000Y-204000D02*
X449000Y-216100D01*
G54D11*
X412000Y-141000D02*
X408000Y-145000D01*
X408000Y-170000D01*
X422000Y-196000D02*
G54D10*
D03*
G54D11*
X422000Y-216000D02*
X422000Y-196000D01*
X422000Y-169000D02*
G54D10*
D03*
X430000Y-133000D02*
G54D10*
D03*
X434000Y-199000D02*
G54D10*
D03*
G54D11*
X434000Y-199000D02*
X442000Y-199000D01*
X448000Y-193000D01*
X448000Y-184500D01*
X448900Y-183600D01*
G54D14*
X366400Y-241100D02*
X366400Y-247600D01*
X359000Y-255000D01*
X330000Y-255000D01*
X325000Y-250000D01*
X325000Y-171000D01*
X328000Y-168000D01*
G54D14*
X328000Y-168000D02*
X334000Y-168000D01*
X344000Y-158000D01*
X344000Y-148000D01*
X335000Y-139000D01*
X330000Y-139000D01*
X327000Y-137000D01*
G54D14*
X338900Y-183600D02*
X338900Y-174100D01*
X344000Y-169000D01*
X363000Y-169000D01*
X369000Y-163000D01*
X369000Y-152000D01*
X362000Y-145000D01*
X355000Y-145000D01*
X349000Y-139000D01*
X349000Y-120000D01*
X336000Y-107000D01*
X334500Y-204000D02*
G54D10*
D03*
G54D11*
X334000Y-204000D02*
X339000Y-209000D01*
X339000Y-216100D01*
X357000Y-135000D02*
G54D10*
D03*
X327000Y-137000D02*
G54D10*
D03*
G54D11*
X357000Y-135000D02*
X357000Y-113000D01*
X335000Y-91000D01*
X335000Y-74000D01*
G54D14*
X342000Y-48000D02*
X342000Y-53000D01*
X327000Y-68000D01*
X327000Y-112000D01*
X337000Y-122000D01*
X366000Y-261000D02*
G54D10*
D03*
G54D11*
X366000Y-261000D02*
X366000Y-273100D01*
X366500Y-273600D01*
X337000Y-122000D02*
G54D10*
D03*
X394000Y-153000D02*
G54D10*
D03*
X394000Y-161000D02*
G54D10*
D03*
G54D11*
X394000Y-153000D02*
X394000Y-161000D01*
G54D11*
X393900Y-183600D02*
X393900Y-173900D01*
X382000Y-162000D01*
X382000Y-146000D01*
X376000Y-140000D01*
G54D11*
X448000Y-107000D02*
X448000Y-127000D01*
X433000Y-142000D01*
X423000Y-142000D01*
X417000Y-148000D01*
X417000Y-164000D01*
X422000Y-169000D01*
G54D11*
X394000Y-216100D02*
X394000Y-202000D01*
X397000Y-199000D01*
X402000Y-199000D01*
X408000Y-193000D01*
G54D15*
X408000Y-193000D02*
X408000Y-170000D01*
G54D15*
X334000Y-204000D02*
X334000Y-210000D01*
X336000Y-212000D01*
G54D14*
X360000Y-245000D02*
X360000Y-254000D01*
X359000Y-255000D01*
G54D14*
X363000Y-244000D02*
X363000Y-248000D01*
G54D11*
X431000Y-296500D02*
X440500Y-296500D01*
X449000Y-288000D01*
G54D11*
X449000Y-62000D02*
X449000Y-93000D01*
X430000Y-112000D01*
X430000Y-133000D01*
X549000Y-116000D02*
G54D10*
D03*
X604000Y-50000D02*
G54D10*
D03*
X604000Y-62000D02*
G54D10*
D03*
X603000Y-107000D02*
G54D10*
D03*
X567000Y-141000D02*
G54D10*
D03*
X531000Y-140000D02*
G54D10*
D03*
X491000Y-107000D02*
G54D10*
D03*
X490000Y-74000D02*
G54D10*
D03*
X497000Y-48000D02*
G54D10*
D03*
G54D11*
X549000Y-119000D02*
X549000Y-153000D01*
G54D12*
X577500Y-296500D02*
X594500Y-296500D01*
G54D12*
X503500Y-296500D02*
X520500Y-296500D01*
X493900Y-183600D02*
G54D13*
D03*
X494000Y-216100D02*
G54D13*
D03*
X521400Y-183600D02*
G54D13*
D03*
X521500Y-216100D02*
G54D13*
D03*
X548900Y-183600D02*
G54D13*
D03*
X549000Y-216100D02*
G54D13*
D03*
X576400Y-183600D02*
G54D13*
D03*
X576500Y-216100D02*
G54D13*
D03*
X603900Y-183600D02*
G54D13*
D03*
X604000Y-216100D02*
G54D13*
D03*
X493900Y-241100D02*
G54D13*
D03*
X494000Y-273600D02*
G54D13*
D03*
X521400Y-241100D02*
G54D13*
D03*
X521500Y-273600D02*
G54D13*
D03*
X576400Y-241100D02*
G54D13*
D03*
X576500Y-273600D02*
G54D13*
D03*
X603900Y-241100D02*
G54D13*
D03*
X604000Y-273600D02*
G54D13*
D03*
G54D11*
X604000Y-288000D02*
X604000Y-273600D01*
G54D11*
X603900Y-241100D02*
X603900Y-216200D01*
X604000Y-216100D01*
G54D11*
X603900Y-183600D02*
X576400Y-183600D01*
G54D11*
X576500Y-216100D02*
X576500Y-241000D01*
X576400Y-241100D01*
G54D11*
X576500Y-273600D02*
X576500Y-262500D01*
X572000Y-258000D01*
X559000Y-258000D01*
X549000Y-248000D01*
X549000Y-216100D01*
G54D11*
X548900Y-183600D02*
X521400Y-183600D01*
G54D11*
X521500Y-216100D02*
X521500Y-206500D01*
X515000Y-200000D01*
X498000Y-200000D01*
X493000Y-195000D01*
X493000Y-184500D01*
X493900Y-183600D01*
G54D11*
X494000Y-216100D02*
X494000Y-241000D01*
X493900Y-241100D01*
G54D11*
X494000Y-273600D02*
X521500Y-273600D01*
G54D11*
X604000Y-50000D02*
X608000Y-50000D01*
X613000Y-55000D01*
X613000Y-131000D01*
X598000Y-146000D01*
X598000Y-166000D01*
X596000Y-168000D01*
X591000Y-168000D01*
X591000Y-168000D02*
G54D10*
D03*
X604000Y-204000D02*
G54D10*
D03*
G54D11*
X604000Y-204000D02*
X604000Y-216100D01*
G54D11*
X567000Y-141000D02*
X563000Y-145000D01*
X563000Y-170000D01*
X577000Y-196000D02*
G54D10*
D03*
G54D11*
X577000Y-216000D02*
X577000Y-196000D01*
X577000Y-169000D02*
G54D10*
D03*
X585000Y-133000D02*
G54D10*
D03*
X589000Y-199000D02*
G54D10*
D03*
G54D11*
X589000Y-199000D02*
X597000Y-199000D01*
X603000Y-193000D01*
X603000Y-184500D01*
X603900Y-183600D01*
G54D14*
X521400Y-241100D02*
X521400Y-247600D01*
X514000Y-255000D01*
X485000Y-255000D01*
X480000Y-250000D01*
X480000Y-171000D01*
X483000Y-168000D01*
G54D14*
X483000Y-168000D02*
X489000Y-168000D01*
X499000Y-158000D01*
X499000Y-148000D01*
X490000Y-139000D01*
X485000Y-139000D01*
X482000Y-137000D01*
G54D14*
X493900Y-183600D02*
X493900Y-174100D01*
X499000Y-169000D01*
X518000Y-169000D01*
X524000Y-163000D01*
X524000Y-152000D01*
X517000Y-145000D01*
X510000Y-145000D01*
X504000Y-139000D01*
X504000Y-120000D01*
X491000Y-107000D01*
X489500Y-204000D02*
G54D10*
D03*
G54D11*
X489000Y-204000D02*
X494000Y-209000D01*
X494000Y-216100D01*
X512000Y-135000D02*
G54D10*
D03*
X482000Y-137000D02*
G54D10*
D03*
G54D11*
X512000Y-135000D02*
X512000Y-113000D01*
X490000Y-91000D01*
X490000Y-74000D01*
G54D14*
X497000Y-48000D02*
X497000Y-53000D01*
X482000Y-68000D01*
X482000Y-112000D01*
X492000Y-122000D01*
X521000Y-261000D02*
G54D10*
D03*
G54D11*
X521000Y-261000D02*
X521000Y-273100D01*
X521500Y-273600D01*
X492000Y-122000D02*
G54D10*
D03*
X549000Y-153000D02*
G54D10*
D03*
X549000Y-161000D02*
G54D10*
D03*
G54D11*
X549000Y-153000D02*
X549000Y-161000D01*
G54D11*
X548900Y-183600D02*
X548900Y-173900D01*
X537000Y-162000D01*
X537000Y-146000D01*
X531000Y-140000D01*
G54D11*
X603000Y-107000D02*
X603000Y-127000D01*
X588000Y-142000D01*
X578000Y-142000D01*
X572000Y-148000D01*
X572000Y-164000D01*
X577000Y-169000D01*
G54D11*
X549000Y-216100D02*
X549000Y-202000D01*
X552000Y-199000D01*
X557000Y-199000D01*
X563000Y-193000D01*
G54D15*
X563000Y-193000D02*
X563000Y-170000D01*
G54D15*
X489000Y-204000D02*
X489000Y-210000D01*
X491000Y-212000D01*
G54D14*
X515000Y-245000D02*
X515000Y-254000D01*
X514000Y-255000D01*
G54D14*
X518000Y-244000D02*
X518000Y-248000D01*
G54D11*
X586000Y-296500D02*
X595500Y-296500D01*
X604000Y-288000D01*
G54D11*
X604000Y-62000D02*
X604000Y-93000D01*
X585000Y-112000D01*
X585000Y-133000D01*
X704000Y-116000D02*
G54D10*
D03*
X759000Y-50000D02*
G54D10*
D03*
X759000Y-62000D02*
G54D10*
D03*
X758000Y-107000D02*
G54D10*
D03*
X722000Y-141000D02*
G54D10*
D03*
X686000Y-140000D02*
G54D10*
D03*
X646000Y-107000D02*
G54D10*
D03*
X645000Y-74000D02*
G54D10*
D03*
X652000Y-48000D02*
G54D10*
D03*
G54D11*
X704000Y-119000D02*
X704000Y-153000D01*
G54D12*
X732500Y-296500D02*
X749500Y-296500D01*
G54D12*
X658500Y-296500D02*
X675500Y-296500D01*
X648900Y-183600D02*
G54D13*
D03*
X649000Y-216100D02*
G54D13*
D03*
X676400Y-183600D02*
G54D13*
D03*
X676500Y-216100D02*
G54D13*
D03*
X703900Y-183600D02*
G54D13*
D03*
X704000Y-216100D02*
G54D13*
D03*
X731400Y-183600D02*
G54D13*
D03*
X731500Y-216100D02*
G54D13*
D03*
X758900Y-183600D02*
G54D13*
D03*
X759000Y-216100D02*
G54D13*
D03*
X648900Y-241100D02*
G54D13*
D03*
X649000Y-273600D02*
G54D13*
D03*
X676400Y-241100D02*
G54D13*
D03*
X676500Y-273600D02*
G54D13*
D03*
X731400Y-241100D02*
G54D13*
D03*
X731500Y-273600D02*
G54D13*
D03*
X758900Y-241100D02*
G54D13*
D03*
X759000Y-273600D02*
G54D13*
D03*
G54D11*
X759000Y-288000D02*
X759000Y-273600D01*
G54D11*
X758900Y-241100D02*
X758900Y-216200D01*
X759000Y-216100D01*
G54D11*
X758900Y-183600D02*
X731400Y-183600D01*
G54D11*
X731500Y-216100D02*
X731500Y-241000D01*
X731400Y-241100D01*
G54D11*
X731500Y-273600D02*
X731500Y-262500D01*
X727000Y-258000D01*
X714000Y-258000D01*
X704000Y-248000D01*
X704000Y-216100D01*
G54D11*
X703900Y-183600D02*
X676400Y-183600D01*
G54D11*
X676500Y-216100D02*
X676500Y-206500D01*
X670000Y-200000D01*
X653000Y-200000D01*
X648000Y-195000D01*
X648000Y-184500D01*
X648900Y-183600D01*
G54D11*
X649000Y-216100D02*
X649000Y-241000D01*
X648900Y-241100D01*
G54D11*
X649000Y-273600D02*
X676500Y-273600D01*
G54D11*
X759000Y-50000D02*
X763000Y-50000D01*
X768000Y-55000D01*
X768000Y-131000D01*
X753000Y-146000D01*
X753000Y-166000D01*
X751000Y-168000D01*
X746000Y-168000D01*
X746000Y-168000D02*
G54D10*
D03*
X759000Y-204000D02*
G54D10*
D03*
G54D11*
X759000Y-204000D02*
X759000Y-216100D01*
G54D11*
X722000Y-141000D02*
X718000Y-145000D01*
X718000Y-170000D01*
X732000Y-196000D02*
G54D10*
D03*
G54D11*
X732000Y-216000D02*
X732000Y-196000D01*
X732000Y-169000D02*
G54D10*
D03*
X740000Y-133000D02*
G54D10*
D03*
X744000Y-199000D02*
G54D10*
D03*
G54D11*
X744000Y-199000D02*
X752000Y-199000D01*
X758000Y-193000D01*
X758000Y-184500D01*
X758900Y-183600D01*
G54D14*
X676400Y-241100D02*
X676400Y-247600D01*
X669000Y-255000D01*
X640000Y-255000D01*
X635000Y-250000D01*
X635000Y-171000D01*
X638000Y-168000D01*
G54D14*
X638000Y-168000D02*
X644000Y-168000D01*
X654000Y-158000D01*
X654000Y-148000D01*
X645000Y-139000D01*
X640000Y-139000D01*
X637000Y-137000D01*
G54D14*
X648900Y-183600D02*
X648900Y-174100D01*
X654000Y-169000D01*
X673000Y-169000D01*
X679000Y-163000D01*
X679000Y-152000D01*
X672000Y-145000D01*
X665000Y-145000D01*
X659000Y-139000D01*
X659000Y-120000D01*
X646000Y-107000D01*
X644500Y-204000D02*
G54D10*
D03*
G54D11*
X644000Y-204000D02*
X649000Y-209000D01*
X649000Y-216100D01*
X667000Y-135000D02*
G54D10*
D03*
X637000Y-137000D02*
G54D10*
D03*
G54D11*
X667000Y-135000D02*
X667000Y-113000D01*
X645000Y-91000D01*
X645000Y-74000D01*
G54D14*
X652000Y-48000D02*
X652000Y-53000D01*
X637000Y-68000D01*
X637000Y-112000D01*
X647000Y-122000D01*
X676000Y-261000D02*
G54D10*
D03*
G54D11*
X676000Y-261000D02*
X676000Y-273100D01*
X676500Y-273600D01*
X647000Y-122000D02*
G54D10*
D03*
X704000Y-153000D02*
G54D10*
D03*
X704000Y-161000D02*
G54D10*
D03*
G54D11*
X704000Y-153000D02*
X704000Y-161000D01*
G54D11*
X703900Y-183600D02*
X703900Y-173900D01*
X692000Y-162000D01*
X692000Y-146000D01*
X686000Y-140000D01*
G54D11*
X758000Y-107000D02*
X758000Y-127000D01*
X743000Y-142000D01*
X733000Y-142000D01*
X727000Y-148000D01*
X727000Y-164000D01*
X732000Y-169000D01*
G54D11*
X704000Y-216100D02*
X704000Y-202000D01*
X707000Y-199000D01*
X712000Y-199000D01*
X718000Y-193000D01*
G54D15*
X718000Y-193000D02*
X718000Y-170000D01*
G54D15*
X644000Y-204000D02*
X644000Y-210000D01*
X646000Y-212000D01*
G54D14*
X670000Y-245000D02*
X670000Y-254000D01*
X669000Y-255000D01*
G54D14*
X673000Y-244000D02*
X673000Y-248000D01*
G54D11*
X741000Y-296500D02*
X750500Y-296500D01*
X759000Y-288000D01*
G54D11*
X759000Y-62000D02*
X759000Y-93000D01*
X740000Y-112000D01*
X740000Y-133000D01*
X859000Y-116000D02*
G54D10*
D03*
X914000Y-50000D02*
G54D10*
D03*
X914000Y-62000D02*
G54D10*
D03*
X913000Y-107000D02*
G54D10*
D03*
X877000Y-141000D02*
G54D10*
D03*
X841000Y-140000D02*
G54D10*
D03*
X801000Y-107000D02*
G54D10*
D03*
X800000Y-74000D02*
G54D10*
D03*
X807000Y-48000D02*
G54D10*
D03*
G54D11*
X859000Y-119000D02*
X859000Y-153000D01*
G54D12*
X887500Y-296500D02*
X904500Y-296500D01*
G54D12*
X813500Y-296500D02*
X830500Y-296500D01*
X803900Y-183600D02*
G54D13*
D03*
X804000Y-216100D02*
G54D13*
D03*
X831400Y-183600D02*
G54D13*
D03*
X831500Y-216100D02*
G54D13*
D03*
X858900Y-183600D02*
G54D13*
D03*
X859000Y-216100D02*
G54D13*
D03*
X886400Y-183600D02*
G54D13*
D03*
X886500Y-216100D02*
G54D13*
D03*
X913900Y-183600D02*
G54D13*
D03*
X914000Y-216100D02*
G54D13*
D03*
X803900Y-241100D02*
G54D13*
D03*
X804000Y-273600D02*
G54D13*
D03*
X831400Y-241100D02*
G54D13*
D03*
X831500Y-273600D02*
G54D13*
D03*
X886400Y-241100D02*
G54D13*
D03*
X886500Y-273600D02*
G54D13*
D03*
X913900Y-241100D02*
G54D13*
D03*
X914000Y-273600D02*
G54D13*
D03*
G54D11*
X914000Y-288000D02*
X914000Y-273600D01*
G54D11*
X913900Y-241100D02*
X913900Y-216200D01*
X914000Y-216100D01*
G54D11*
X913900Y-183600D02*
X886400Y-183600D01*
G54D11*
X886500Y-216100D02*
X886500Y-241000D01*
X886400Y-241100D01*
G54D11*
X886500Y-273600D02*
X886500Y-262500D01*
X882000Y-258000D01*
X869000Y-258000D01*
X859000Y-248000D01*
X859000Y-216100D01*
G54D11*
X858900Y-183600D02*
X831400Y-183600D01*
G54D11*
X831500Y-216100D02*
X831500Y-206500D01*
X825000Y-200000D01*
X808000Y-200000D01*
X803000Y-195000D01*
X803000Y-184500D01*
X803900Y-183600D01*
G54D11*
X804000Y-216100D02*
X804000Y-241000D01*
X803900Y-241100D01*
G54D11*
X804000Y-273600D02*
X831500Y-273600D01*
G54D11*
X914000Y-50000D02*
X918000Y-50000D01*
X923000Y-55000D01*
X923000Y-131000D01*
X908000Y-146000D01*
X908000Y-166000D01*
X906000Y-168000D01*
X901000Y-168000D01*
X901000Y-168000D02*
G54D10*
D03*
X914000Y-204000D02*
G54D10*
D03*
G54D11*
X914000Y-204000D02*
X914000Y-216100D01*
G54D11*
X877000Y-141000D02*
X873000Y-145000D01*
X873000Y-170000D01*
X887000Y-196000D02*
G54D10*
D03*
G54D11*
X887000Y-216000D02*
X887000Y-196000D01*
X887000Y-169000D02*
G54D10*
D03*
X895000Y-133000D02*
G54D10*
D03*
X899000Y-199000D02*
G54D10*
D03*
G54D11*
X899000Y-199000D02*
X907000Y-199000D01*
X913000Y-193000D01*
X913000Y-184500D01*
X913900Y-183600D01*
G54D14*
X831400Y-241100D02*
X831400Y-247600D01*
X824000Y-255000D01*
X795000Y-255000D01*
X790000Y-250000D01*
X790000Y-171000D01*
X793000Y-168000D01*
G54D14*
X793000Y-168000D02*
X799000Y-168000D01*
X809000Y-158000D01*
X809000Y-148000D01*
X800000Y-139000D01*
X795000Y-139000D01*
X792000Y-137000D01*
G54D14*
X803900Y-183600D02*
X803900Y-174100D01*
X809000Y-169000D01*
X828000Y-169000D01*
X834000Y-163000D01*
X834000Y-152000D01*
X827000Y-145000D01*
X820000Y-145000D01*
X814000Y-139000D01*
X814000Y-120000D01*
X801000Y-107000D01*
X799500Y-204000D02*
G54D10*
D03*
G54D11*
X799000Y-204000D02*
X804000Y-209000D01*
X804000Y-216100D01*
X822000Y-135000D02*
G54D10*
D03*
X792000Y-137000D02*
G54D10*
D03*
G54D11*
X822000Y-135000D02*
X822000Y-113000D01*
X800000Y-91000D01*
X800000Y-74000D01*
G54D14*
X807000Y-48000D02*
X807000Y-53000D01*
X792000Y-68000D01*
X792000Y-112000D01*
X802000Y-122000D01*
X831000Y-261000D02*
G54D10*
D03*
G54D11*
X831000Y-261000D02*
X831000Y-273100D01*
X831500Y-273600D01*
X802000Y-122000D02*
G54D10*
D03*
X859000Y-153000D02*
G54D10*
D03*
X859000Y-161000D02*
G54D10*
D03*
G54D11*
X859000Y-153000D02*
X859000Y-161000D01*
G54D11*
X858900Y-183600D02*
X858900Y-173900D01*
X847000Y-162000D01*
X847000Y-146000D01*
X841000Y-140000D01*
G54D11*
X913000Y-107000D02*
X913000Y-127000D01*
X898000Y-142000D01*
X888000Y-142000D01*
X882000Y-148000D01*
X882000Y-164000D01*
X887000Y-169000D01*
G54D11*
X859000Y-216100D02*
X859000Y-202000D01*
X862000Y-199000D01*
X867000Y-199000D01*
X873000Y-193000D01*
G54D15*
X873000Y-193000D02*
X873000Y-170000D01*
G54D15*
X799000Y-204000D02*
X799000Y-210000D01*
X801000Y-212000D01*
G54D14*
X825000Y-245000D02*
X825000Y-254000D01*
X824000Y-255000D01*
G54D14*
X828000Y-244000D02*
X828000Y-248000D01*
G54D11*
X896000Y-296500D02*
X905500Y-296500D01*
X914000Y-288000D01*
G54D11*
X914000Y-62000D02*
X914000Y-93000D01*
X895000Y-112000D01*
X895000Y-133000D01*
X84000Y-421000D02*
G54D10*
D03*
X139000Y-355000D02*
G54D10*
D03*
X139000Y-367000D02*
G54D10*
D03*
X138000Y-412000D02*
G54D10*
D03*
X102000Y-446000D02*
G54D10*
D03*
X66000Y-445000D02*
G54D10*
D03*
X26000Y-412000D02*
G54D10*
D03*
X25000Y-379000D02*
G54D10*
D03*
X32000Y-353000D02*
G54D10*
D03*
G54D11*
X84000Y-424000D02*
X84000Y-458000D01*
G54D12*
X112500Y-601500D02*
X129500Y-601500D01*
G54D12*
X38500Y-601500D02*
X55500Y-601500D01*
X28900Y-488600D02*
G54D13*
D03*
X29000Y-521100D02*
G54D13*
D03*
X56400Y-488600D02*
G54D13*
D03*
X56500Y-521100D02*
G54D13*
D03*
X83900Y-488600D02*
G54D13*
D03*
X84000Y-521100D02*
G54D13*
D03*
X111400Y-488600D02*
G54D13*
D03*
X111500Y-521100D02*
G54D13*
D03*
X138900Y-488600D02*
G54D13*
D03*
X139000Y-521100D02*
G54D13*
D03*
X28900Y-546100D02*
G54D13*
D03*
X29000Y-578600D02*
G54D13*
D03*
X56400Y-546100D02*
G54D13*
D03*
X56500Y-578600D02*
G54D13*
D03*
X111400Y-546100D02*
G54D13*
D03*
X111500Y-578600D02*
G54D13*
D03*
X138900Y-546100D02*
G54D13*
D03*
X139000Y-578600D02*
G54D13*
D03*
G54D11*
X139000Y-593000D02*
X139000Y-578600D01*
G54D11*
X138900Y-546100D02*
X138900Y-521200D01*
X139000Y-521100D01*
G54D11*
X138900Y-488600D02*
X111400Y-488600D01*
G54D11*
X111500Y-521100D02*
X111500Y-546000D01*
X111400Y-546100D01*
G54D11*
X111500Y-578600D02*
X111500Y-567500D01*
X107000Y-563000D01*
X94000Y-563000D01*
X84000Y-553000D01*
X84000Y-521100D01*
G54D11*
X83900Y-488600D02*
X56400Y-488600D01*
G54D11*
X56500Y-521100D02*
X56500Y-511500D01*
X50000Y-505000D01*
X33000Y-505000D01*
X28000Y-500000D01*
X28000Y-489500D01*
X28900Y-488600D01*
G54D11*
X29000Y-521100D02*
X29000Y-546000D01*
X28900Y-546100D01*
G54D11*
X29000Y-578600D02*
X56500Y-578600D01*
G54D11*
X139000Y-355000D02*
X143000Y-355000D01*
X148000Y-360000D01*
X148000Y-436000D01*
X133000Y-451000D01*
X133000Y-471000D01*
X131000Y-473000D01*
X126000Y-473000D01*
X126000Y-473000D02*
G54D10*
D03*
X139000Y-509000D02*
G54D10*
D03*
G54D11*
X139000Y-509000D02*
X139000Y-521100D01*
G54D11*
X102000Y-446000D02*
X98000Y-450000D01*
X98000Y-475000D01*
X112000Y-501000D02*
G54D10*
D03*
G54D11*
X112000Y-521000D02*
X112000Y-501000D01*
X112000Y-474000D02*
G54D10*
D03*
X120000Y-438000D02*
G54D10*
D03*
X124000Y-504000D02*
G54D10*
D03*
G54D11*
X124000Y-504000D02*
X132000Y-504000D01*
X138000Y-498000D01*
X138000Y-489500D01*
X138900Y-488600D01*
G54D14*
X56400Y-546100D02*
X56400Y-552600D01*
X49000Y-560000D01*
X20000Y-560000D01*
X15000Y-555000D01*
X15000Y-476000D01*
X18000Y-473000D01*
G54D14*
X18000Y-473000D02*
X24000Y-473000D01*
X34000Y-463000D01*
X34000Y-453000D01*
X25000Y-444000D01*
X20000Y-444000D01*
X17000Y-442000D01*
G54D14*
X28900Y-488600D02*
X28900Y-479100D01*
X34000Y-474000D01*
X53000Y-474000D01*
X59000Y-468000D01*
X59000Y-457000D01*
X52000Y-450000D01*
X45000Y-450000D01*
X39000Y-444000D01*
X39000Y-425000D01*
X26000Y-412000D01*
X24500Y-509000D02*
G54D10*
D03*
G54D11*
X24000Y-509000D02*
X29000Y-514000D01*
X29000Y-521100D01*
X47000Y-440000D02*
G54D10*
D03*
X17000Y-442000D02*
G54D10*
D03*
G54D11*
X47000Y-440000D02*
X47000Y-418000D01*
X25000Y-396000D01*
X25000Y-379000D01*
G54D14*
X32000Y-353000D02*
X32000Y-358000D01*
X17000Y-373000D01*
X17000Y-417000D01*
X27000Y-427000D01*
X56000Y-566000D02*
G54D10*
D03*
G54D11*
X56000Y-566000D02*
X56000Y-578100D01*
X56500Y-578600D01*
X27000Y-427000D02*
G54D10*
D03*
X84000Y-458000D02*
G54D10*
D03*
X84000Y-466000D02*
G54D10*
D03*
G54D11*
X84000Y-458000D02*
X84000Y-466000D01*
G54D11*
X83900Y-488600D02*
X83900Y-478900D01*
X72000Y-467000D01*
X72000Y-451000D01*
X66000Y-445000D01*
G54D11*
X138000Y-412000D02*
X138000Y-432000D01*
X123000Y-447000D01*
X113000Y-447000D01*
X107000Y-453000D01*
X107000Y-469000D01*
X112000Y-474000D01*
G54D11*
X84000Y-521100D02*
X84000Y-507000D01*
X87000Y-504000D01*
X92000Y-504000D01*
X98000Y-498000D01*
G54D15*
X98000Y-498000D02*
X98000Y-475000D01*
G54D15*
X24000Y-509000D02*
X24000Y-515000D01*
X26000Y-517000D01*
G54D14*
X50000Y-550000D02*
X50000Y-559000D01*
X49000Y-560000D01*
G54D14*
X53000Y-549000D02*
X53000Y-553000D01*
G54D11*
X121000Y-601500D02*
X130500Y-601500D01*
X139000Y-593000D01*
G54D11*
X139000Y-367000D02*
X139000Y-398000D01*
X120000Y-417000D01*
X120000Y-438000D01*
X239000Y-421000D02*
G54D10*
D03*
X294000Y-355000D02*
G54D10*
D03*
X294000Y-367000D02*
G54D10*
D03*
X293000Y-412000D02*
G54D10*
D03*
X257000Y-446000D02*
G54D10*
D03*
X221000Y-445000D02*
G54D10*
D03*
X181000Y-412000D02*
G54D10*
D03*
X180000Y-379000D02*
G54D10*
D03*
X187000Y-353000D02*
G54D10*
D03*
G54D11*
X239000Y-424000D02*
X239000Y-458000D01*
G54D12*
X267500Y-601500D02*
X284500Y-601500D01*
G54D12*
X193500Y-601500D02*
X210500Y-601500D01*
X183900Y-488600D02*
G54D13*
D03*
X184000Y-521100D02*
G54D13*
D03*
X211400Y-488600D02*
G54D13*
D03*
X211500Y-521100D02*
G54D13*
D03*
X238900Y-488600D02*
G54D13*
D03*
X239000Y-521100D02*
G54D13*
D03*
X266400Y-488600D02*
G54D13*
D03*
X266500Y-521100D02*
G54D13*
D03*
X293900Y-488600D02*
G54D13*
D03*
X294000Y-521100D02*
G54D13*
D03*
X183900Y-546100D02*
G54D13*
D03*
X184000Y-578600D02*
G54D13*
D03*
X211400Y-546100D02*
G54D13*
D03*
X211500Y-578600D02*
G54D13*
D03*
X266400Y-546100D02*
G54D13*
D03*
X266500Y-578600D02*
G54D13*
D03*
X293900Y-546100D02*
G54D13*
D03*
X294000Y-578600D02*
G54D13*
D03*
G54D11*
X294000Y-593000D02*
X294000Y-578600D01*
G54D11*
X293900Y-546100D02*
X293900Y-521200D01*
X294000Y-521100D01*
G54D11*
X293900Y-488600D02*
X266400Y-488600D01*
G54D11*
X266500Y-521100D02*
X266500Y-546000D01*
X266400Y-546100D01*
G54D11*
X266500Y-578600D02*
X266500Y-567500D01*
X262000Y-563000D01*
X249000Y-563000D01*
X239000Y-553000D01*
X239000Y-521100D01*
G54D11*
X238900Y-488600D02*
X211400Y-488600D01*
G54D11*
X211500Y-521100D02*
X211500Y-511500D01*
X205000Y-505000D01*
X188000Y-505000D01*
X183000Y-500000D01*
X183000Y-489500D01*
X183900Y-488600D01*
G54D11*
X184000Y-521100D02*
X184000Y-546000D01*
X183900Y-546100D01*
G54D11*
X184000Y-578600D02*
X211500Y-578600D01*
G54D11*
X294000Y-355000D02*
X298000Y-355000D01*
X303000Y-360000D01*
X303000Y-436000D01*
X288000Y-451000D01*
X288000Y-471000D01*
X286000Y-473000D01*
X281000Y-473000D01*
X281000Y-473000D02*
G54D10*
D03*
X294000Y-509000D02*
G54D10*
D03*
G54D11*
X294000Y-509000D02*
X294000Y-521100D01*
G54D11*
X257000Y-446000D02*
X253000Y-450000D01*
X253000Y-475000D01*
X267000Y-501000D02*
G54D10*
D03*
G54D11*
X267000Y-521000D02*
X267000Y-501000D01*
X267000Y-474000D02*
G54D10*
D03*
X275000Y-438000D02*
G54D10*
D03*
X279000Y-504000D02*
G54D10*
D03*
G54D11*
X279000Y-504000D02*
X287000Y-504000D01*
X293000Y-498000D01*
X293000Y-489500D01*
X293900Y-488600D01*
G54D14*
X211400Y-546100D02*
X211400Y-552600D01*
X204000Y-560000D01*
X175000Y-560000D01*
X170000Y-555000D01*
X170000Y-476000D01*
X173000Y-473000D01*
G54D14*
X173000Y-473000D02*
X179000Y-473000D01*
X189000Y-463000D01*
X189000Y-453000D01*
X180000Y-444000D01*
X175000Y-444000D01*
X172000Y-442000D01*
G54D14*
X183900Y-488600D02*
X183900Y-479100D01*
X189000Y-474000D01*
X208000Y-474000D01*
X214000Y-468000D01*
X214000Y-457000D01*
X207000Y-450000D01*
X200000Y-450000D01*
X194000Y-444000D01*
X194000Y-425000D01*
X181000Y-412000D01*
X179500Y-509000D02*
G54D10*
D03*
G54D11*
X179000Y-509000D02*
X184000Y-514000D01*
X184000Y-521100D01*
X202000Y-440000D02*
G54D10*
D03*
X172000Y-442000D02*
G54D10*
D03*
G54D11*
X202000Y-440000D02*
X202000Y-418000D01*
X180000Y-396000D01*
X180000Y-379000D01*
G54D14*
X187000Y-353000D02*
X187000Y-358000D01*
X172000Y-373000D01*
X172000Y-417000D01*
X182000Y-427000D01*
X211000Y-566000D02*
G54D10*
D03*
G54D11*
X211000Y-566000D02*
X211000Y-578100D01*
X211500Y-578600D01*
X182000Y-427000D02*
G54D10*
D03*
X239000Y-458000D02*
G54D10*
D03*
X239000Y-466000D02*
G54D10*
D03*
G54D11*
X239000Y-458000D02*
X239000Y-466000D01*
G54D11*
X238900Y-488600D02*
X238900Y-478900D01*
X227000Y-467000D01*
X227000Y-451000D01*
X221000Y-445000D01*
G54D11*
X293000Y-412000D02*
X293000Y-432000D01*
X278000Y-447000D01*
X268000Y-447000D01*
X262000Y-453000D01*
X262000Y-469000D01*
X267000Y-474000D01*
G54D11*
X239000Y-521100D02*
X239000Y-507000D01*
X242000Y-504000D01*
X247000Y-504000D01*
X253000Y-498000D01*
G54D15*
X253000Y-498000D02*
X253000Y-475000D01*
G54D15*
X179000Y-509000D02*
X179000Y-515000D01*
X181000Y-517000D01*
G54D14*
X205000Y-550000D02*
X205000Y-559000D01*
X204000Y-560000D01*
G54D14*
X208000Y-549000D02*
X208000Y-553000D01*
G54D11*
X276000Y-601500D02*
X285500Y-601500D01*
X294000Y-593000D01*
G54D11*
X294000Y-367000D02*
X294000Y-398000D01*
X275000Y-417000D01*
X275000Y-438000D01*
X394000Y-421000D02*
G54D10*
D03*
X449000Y-355000D02*
G54D10*
D03*
X449000Y-367000D02*
G54D10*
D03*
X448000Y-412000D02*
G54D10*
D03*
X412000Y-446000D02*
G54D10*
D03*
X376000Y-445000D02*
G54D10*
D03*
X336000Y-412000D02*
G54D10*
D03*
X335000Y-379000D02*
G54D10*
D03*
X342000Y-353000D02*
G54D10*
D03*
G54D11*
X394000Y-424000D02*
X394000Y-458000D01*
G54D12*
X422500Y-601500D02*
X439500Y-601500D01*
G54D12*
X348500Y-601500D02*
X365500Y-601500D01*
X338900Y-488600D02*
G54D13*
D03*
X339000Y-521100D02*
G54D13*
D03*
X366400Y-488600D02*
G54D13*
D03*
X366500Y-521100D02*
G54D13*
D03*
X393900Y-488600D02*
G54D13*
D03*
X394000Y-521100D02*
G54D13*
D03*
X421400Y-488600D02*
G54D13*
D03*
X421500Y-521100D02*
G54D13*
D03*
X448900Y-488600D02*
G54D13*
D03*
X449000Y-521100D02*
G54D13*
D03*
X338900Y-546100D02*
G54D13*
D03*
X339000Y-578600D02*
G54D13*
D03*
X366400Y-546100D02*
G54D13*
D03*
X366500Y-578600D02*
G54D13*
D03*
X421400Y-546100D02*
G54D13*
D03*
X421500Y-578600D02*
G54D13*
D03*
X448900Y-546100D02*
G54D13*
D03*
X449000Y-578600D02*
G54D13*
D03*
G54D11*
X449000Y-593000D02*
X449000Y-578600D01*
G54D11*
X448900Y-546100D02*
X448900Y-521200D01*
X449000Y-521100D01*
G54D11*
X448900Y-488600D02*
X421400Y-488600D01*
G54D11*
X421500Y-521100D02*
X421500Y-546000D01*
X421400Y-546100D01*
G54D11*
X421500Y-578600D02*
X421500Y-567500D01*
X417000Y-563000D01*
X404000Y-563000D01*
X394000Y-553000D01*
X394000Y-521100D01*
G54D11*
X393900Y-488600D02*
X366400Y-488600D01*
G54D11*
X366500Y-521100D02*
X366500Y-511500D01*
X360000Y-505000D01*
X343000Y-505000D01*
X338000Y-500000D01*
X338000Y-489500D01*
X338900Y-488600D01*
G54D11*
X339000Y-521100D02*
X339000Y-546000D01*
X338900Y-546100D01*
G54D11*
X339000Y-578600D02*
X366500Y-578600D01*
G54D11*
X449000Y-355000D02*
X453000Y-355000D01*
X458000Y-360000D01*
X458000Y-436000D01*
X443000Y-451000D01*
X443000Y-471000D01*
X441000Y-473000D01*
X436000Y-473000D01*
X436000Y-473000D02*
G54D10*
D03*
X449000Y-509000D02*
G54D10*
D03*
G54D11*
X449000Y-509000D02*
X449000Y-521100D01*
G54D11*
X412000Y-446000D02*
X408000Y-450000D01*
X408000Y-475000D01*
X422000Y-501000D02*
G54D10*
D03*
G54D11*
X422000Y-521000D02*
X422000Y-501000D01*
X422000Y-474000D02*
G54D10*
D03*
X430000Y-438000D02*
G54D10*
D03*
X434000Y-504000D02*
G54D10*
D03*
G54D11*
X434000Y-504000D02*
X442000Y-504000D01*
X448000Y-498000D01*
X448000Y-489500D01*
X448900Y-488600D01*
G54D14*
X366400Y-546100D02*
X366400Y-552600D01*
X359000Y-560000D01*
X330000Y-560000D01*
X325000Y-555000D01*
X325000Y-476000D01*
X328000Y-473000D01*
G54D14*
X328000Y-473000D02*
X334000Y-473000D01*
X344000Y-463000D01*
X344000Y-453000D01*
X335000Y-444000D01*
X330000Y-444000D01*
X327000Y-442000D01*
G54D14*
X338900Y-488600D02*
X338900Y-479100D01*
X344000Y-474000D01*
X363000Y-474000D01*
X369000Y-468000D01*
X369000Y-457000D01*
X362000Y-450000D01*
X355000Y-450000D01*
X349000Y-444000D01*
X349000Y-425000D01*
X336000Y-412000D01*
X334500Y-509000D02*
G54D10*
D03*
G54D11*
X334000Y-509000D02*
X339000Y-514000D01*
X339000Y-521100D01*
X357000Y-440000D02*
G54D10*
D03*
X327000Y-442000D02*
G54D10*
D03*
G54D11*
X357000Y-440000D02*
X357000Y-418000D01*
X335000Y-396000D01*
X335000Y-379000D01*
G54D14*
X342000Y-353000D02*
X342000Y-358000D01*
X327000Y-373000D01*
X327000Y-417000D01*
X337000Y-427000D01*
X366000Y-566000D02*
G54D10*
D03*
G54D11*
X366000Y-566000D02*
X366000Y-578100D01*
X366500Y-578600D01*
X337000Y-427000D02*
G54D10*
D03*
X394000Y-458000D02*
G54D10*
D03*
X394000Y-466000D02*
G54D10*
D03*
G54D11*
X394000Y-458000D02*
X394000Y-466000D01*
G54D11*
X393900Y-488600D02*
X393900Y-478900D01*
X382000Y-467000D01*
X382000Y-451000D01*
X376000Y-445000D01*
G54D11*
X448000Y-412000D02*
X448000Y-432000D01*
X433000Y-447000D01*
X423000Y-447000D01*
X417000Y-453000D01*
X417000Y-469000D01*
X422000Y-474000D01*
G54D11*
X394000Y-521100D02*
X394000Y-507000D01*
X397000Y-504000D01*
X402000Y-504000D01*
X408000Y-498000D01*
G54D15*
X408000Y-498000D02*
X408000Y-475000D01*
G54D15*
X334000Y-509000D02*
X334000Y-515000D01*
X336000Y-517000D01*
G54D14*
X360000Y-550000D02*
X360000Y-559000D01*
X359000Y-560000D01*
G54D14*
X363000Y-549000D02*
X363000Y-553000D01*
G54D11*
X431000Y-601500D02*
X440500Y-601500D01*
X449000Y-593000D01*
G54D11*
X449000Y-367000D02*
X449000Y-398000D01*
X430000Y-417000D01*
X430000Y-438000D01*
X549000Y-421000D02*
G54D10*
D03*
X604000Y-355000D02*
G54D10*
D03*
X604000Y-367000D02*
G54D10*
D03*
X603000Y-412000D02*
G54D10*
D03*
X567000Y-446000D02*
G54D10*
D03*
X531000Y-445000D02*
G54D10*
D03*
X491000Y-412000D02*
G54D10*
D03*
X490000Y-379000D02*
G54D10*
D03*
X497000Y-353000D02*
G54D10*
D03*
G54D11*
X549000Y-424000D02*
X549000Y-458000D01*
G54D12*
X577500Y-601500D02*
X594500Y-601500D01*
G54D12*
X503500Y-601500D02*
X520500Y-601500D01*
X493900Y-488600D02*
G54D13*
D03*
X494000Y-521100D02*
G54D13*
D03*
X521400Y-488600D02*
G54D13*
D03*
X521500Y-521100D02*
G54D13*
D03*
X548900Y-488600D02*
G54D13*
D03*
X549000Y-521100D02*
G54D13*
D03*
X576400Y-488600D02*
G54D13*
D03*
X576500Y-521100D02*
G54D13*
D03*
X603900Y-488600D02*
G54D13*
D03*
X604000Y-521100D02*
G54D13*
D03*
X493900Y-546100D02*
G54D13*
D03*
X494000Y-578600D02*
G54D13*
D03*
X521400Y-546100D02*
G54D13*
D03*
X521500Y-578600D02*
G54D13*
D03*
X576400Y-546100D02*
G54D13*
D03*
X576500Y-578600D02*
G54D13*
D03*
X603900Y-546100D02*
G54D13*
D03*
X604000Y-578600D02*
G54D13*
D03*
G54D11*
X604000Y-593000D02*
X604000Y-578600D01*
G54D11*
X603900Y-546100D02*
X603900Y-521200D01*
X604000Y-521100D01*
G54D11*
X603900Y-488600D02*
X576400Y-488600D01*
G54D11*
X576500Y-521100D02*
X576500Y-546000D01*
X576400Y-546100D01*
G54D11*
X576500Y-578600D02*
X576500Y-567500D01*
X572000Y-563000D01*
X559000Y-563000D01*
X549000Y-553000D01*
X549000Y-521100D01*
G54D11*
X548900Y-488600D02*
X521400Y-488600D01*
G54D11*
X521500Y-521100D02*
X521500Y-511500D01*
X515000Y-505000D01*
X498000Y-505000D01*
X493000Y-500000D01*
X493000Y-489500D01*
X493900Y-488600D01*
G54D11*
X494000Y-521100D02*
X494000Y-546000D01*
X493900Y-546100D01*
G54D11*
X494000Y-578600D02*
X521500Y-578600D01*
G54D11*
X604000Y-355000D02*
X608000Y-355000D01*
X613000Y-360000D01*
X613000Y-436000D01*
X598000Y-451000D01*
X598000Y-471000D01*
X596000Y-473000D01*
X591000Y-473000D01*
X591000Y-473000D02*
G54D10*
D03*
X604000Y-509000D02*
G54D10*
D03*
G54D11*
X604000Y-509000D02*
X604000Y-521100D01*
G54D11*
X567000Y-446000D02*
X563000Y-450000D01*
X563000Y-475000D01*
X577000Y-501000D02*
G54D10*
D03*
G54D11*
X577000Y-521000D02*
X577000Y-501000D01*
X577000Y-474000D02*
G54D10*
D03*
X585000Y-438000D02*
G54D10*
D03*
X589000Y-504000D02*
G54D10*
D03*
G54D11*
X589000Y-504000D02*
X597000Y-504000D01*
X603000Y-498000D01*
X603000Y-489500D01*
X603900Y-488600D01*
G54D14*
X521400Y-546100D02*
X521400Y-552600D01*
X514000Y-560000D01*
X485000Y-560000D01*
X480000Y-555000D01*
X480000Y-476000D01*
X483000Y-473000D01*
G54D14*
X483000Y-473000D02*
X489000Y-473000D01*
X499000Y-463000D01*
X499000Y-453000D01*
X490000Y-444000D01*
X485000Y-444000D01*
X482000Y-442000D01*
G54D14*
X493900Y-488600D02*
X493900Y-479100D01*
X499000Y-474000D01*
X518000Y-474000D01*
X524000Y-468000D01*
X524000Y-457000D01*
X517000Y-450000D01*
X510000Y-450000D01*
X504000Y-444000D01*
X504000Y-425000D01*
X491000Y-412000D01*
X489500Y-509000D02*
G54D10*
D03*
G54D11*
X489000Y-509000D02*
X494000Y-514000D01*
X494000Y-521100D01*
X512000Y-440000D02*
G54D10*
D03*
X482000Y-442000D02*
G54D10*
D03*
G54D11*
X512000Y-440000D02*
X512000Y-418000D01*
X490000Y-396000D01*
X490000Y-379000D01*
G54D14*
X497000Y-353000D02*
X497000Y-358000D01*
X482000Y-373000D01*
X482000Y-417000D01*
X492000Y-427000D01*
X521000Y-566000D02*
G54D10*
D03*
G54D11*
X521000Y-566000D02*
X521000Y-578100D01*
X521500Y-578600D01*
X492000Y-427000D02*
G54D10*
D03*
X549000Y-458000D02*
G54D10*
D03*
X549000Y-466000D02*
G54D10*
D03*
G54D11*
X549000Y-458000D02*
X549000Y-466000D01*
G54D11*
X548900Y-488600D02*
X548900Y-478900D01*
X537000Y-467000D01*
X537000Y-451000D01*
X531000Y-445000D01*
G54D11*
X603000Y-412000D02*
X603000Y-432000D01*
X588000Y-447000D01*
X578000Y-447000D01*
X572000Y-453000D01*
X572000Y-469000D01*
X577000Y-474000D01*
G54D11*
X549000Y-521100D02*
X549000Y-507000D01*
X552000Y-504000D01*
X557000Y-504000D01*
X563000Y-498000D01*
G54D15*
X563000Y-498000D02*
X563000Y-475000D01*
G54D15*
X489000Y-509000D02*
X489000Y-515000D01*
X491000Y-517000D01*
G54D14*
X515000Y-550000D02*
X515000Y-559000D01*
X514000Y-560000D01*
G54D14*
X518000Y-549000D02*
X518000Y-553000D01*
G54D11*
X586000Y-601500D02*
X595500Y-601500D01*
X604000Y-593000D01*
G54D11*
X604000Y-367000D02*
X604000Y-398000D01*
X585000Y-417000D01*
X585000Y-438000D01*
X704000Y-421000D02*
G54D10*
D03*
X759000Y-355000D02*
G54D10*
D03*
X759000Y-367000D02*
G54D10*
D03*
X758000Y-412000D02*
G54D10*
D03*
X722000Y-446000D02*
G54D10*
D03*
X686000Y-445000D02*
G54D10*
D03*
X646000Y-412000D02*
G54D10*
D03*
X645000Y-379000D02*
G54D10*
D03*
X652000Y-353000D02*
G54D10*
D03*
G54D11*
X704000Y-424000D02*
X704000Y-458000D01*
G54D12*
X732500Y-601500D02*
X749500Y-601500D01*
G54D12*
X658500Y-601500D02*
X675500Y-601500D01*
X648900Y-488600D02*
G54D13*
D03*
X649000Y-521100D02*
G54D13*
D03*
X676400Y-488600D02*
G54D13*
D03*
X676500Y-521100D02*
G54D13*
D03*
X703900Y-488600D02*
G54D13*
D03*
X704000Y-521100D02*
G54D13*
D03*
X731400Y-488600D02*
G54D13*
D03*
X731500Y-521100D02*
G54D13*
D03*
X758900Y-488600D02*
G54D13*
D03*
X759000Y-521100D02*
G54D13*
D03*
X648900Y-546100D02*
G54D13*
D03*
X649000Y-578600D02*
G54D13*
D03*
X676400Y-546100D02*
G54D13*
D03*
X676500Y-578600D02*
G54D13*
D03*
X731400Y-546100D02*
G54D13*
D03*
X731500Y-578600D02*
G54D13*
D03*
X758900Y-546100D02*
G54D13*
D03*
X759000Y-578600D02*
G54D13*
D03*
G54D11*
X759000Y-593000D02*
X759000Y-578600D01*
G54D11*
X758900Y-546100D02*
X758900Y-521200D01*
X759000Y-521100D01*
G54D11*
X758900Y-488600D02*
X731400Y-488600D01*
G54D11*
X731500Y-521100D02*
X731500Y-546000D01*
X731400Y-546100D01*
G54D11*
X731500Y-578600D02*
X731500Y-567500D01*
X727000Y-563000D01*
X714000Y-563000D01*
X704000Y-553000D01*
X704000Y-521100D01*
G54D11*
X703900Y-488600D02*
X676400Y-488600D01*
G54D11*
X676500Y-521100D02*
X676500Y-511500D01*
X670000Y-505000D01*
X653000Y-505000D01*
X648000Y-500000D01*
X648000Y-489500D01*
X648900Y-488600D01*
G54D11*
X649000Y-521100D02*
X649000Y-546000D01*
X648900Y-546100D01*
G54D11*
X649000Y-578600D02*
X676500Y-578600D01*
G54D11*
X759000Y-355000D02*
X763000Y-355000D01*
X768000Y-360000D01*
X768000Y-436000D01*
X753000Y-451000D01*
X753000Y-471000D01*
X751000Y-473000D01*
X746000Y-473000D01*
X746000Y-473000D02*
G54D10*
D03*
X759000Y-509000D02*
G54D10*
D03*
G54D11*
X759000Y-509000D02*
X759000Y-521100D01*
G54D11*
X722000Y-446000D02*
X718000Y-450000D01*
X718000Y-475000D01*
X732000Y-501000D02*
G54D10*
D03*
G54D11*
X732000Y-521000D02*
X732000Y-501000D01*
X732000Y-474000D02*
G54D10*
D03*
X740000Y-438000D02*
G54D10*
D03*
X744000Y-504000D02*
G54D10*
D03*
G54D11*
X744000Y-504000D02*
X752000Y-504000D01*
X758000Y-498000D01*
X758000Y-489500D01*
X758900Y-488600D01*
G54D14*
X676400Y-546100D02*
X676400Y-552600D01*
X669000Y-560000D01*
X640000Y-560000D01*
X635000Y-555000D01*
X635000Y-476000D01*
X638000Y-473000D01*
G54D14*
X638000Y-473000D02*
X644000Y-473000D01*
X654000Y-463000D01*
X654000Y-453000D01*
X645000Y-444000D01*
X640000Y-444000D01*
X637000Y-442000D01*
G54D14*
X648900Y-488600D02*
X648900Y-479100D01*
X654000Y-474000D01*
X673000Y-474000D01*
X679000Y-468000D01*
X679000Y-457000D01*
X672000Y-450000D01*
X665000Y-450000D01*
X659000Y-444000D01*
X659000Y-425000D01*
X646000Y-412000D01*
X644500Y-509000D02*
G54D10*
D03*
G54D11*
X644000Y-509000D02*
X649000Y-514000D01*
X649000Y-521100D01*
X667000Y-440000D02*
G54D10*
D03*
X637000Y-442000D02*
G54D10*
D03*
G54D11*
X667000Y-440000D02*
X667000Y-418000D01*
X645000Y-396000D01*
X645000Y-379000D01*
G54D14*
X652000Y-353000D02*
X652000Y-358000D01*
X637000Y-373000D01*
X637000Y-417000D01*
X647000Y-427000D01*
X676000Y-566000D02*
G54D10*
D03*
G54D11*
X676000Y-566000D02*
X676000Y-578100D01*
X676500Y-578600D01*
X647000Y-427000D02*
G54D10*
D03*
X704000Y-458000D02*
G54D10*
D03*
X704000Y-466000D02*
G54D10*
D03*
G54D11*
X704000Y-458000D02*
X704000Y-466000D01*
G54D11*
X703900Y-488600D02*
X703900Y-478900D01*
X692000Y-467000D01*
X692000Y-451000D01*
X686000Y-445000D01*
G54D11*
X758000Y-412000D02*
X758000Y-432000D01*
X743000Y-447000D01*
X733000Y-447000D01*
X727000Y-453000D01*
X727000Y-469000D01*
X732000Y-474000D01*
G54D11*
X704000Y-521100D02*
X704000Y-507000D01*
X707000Y-504000D01*
X712000Y-504000D01*
X718000Y-498000D01*
G54D15*
X718000Y-498000D02*
X718000Y-475000D01*
G54D15*
X644000Y-509000D02*
X644000Y-515000D01*
X646000Y-517000D01*
G54D14*
X670000Y-550000D02*
X670000Y-559000D01*
X669000Y-560000D01*
G54D14*
X673000Y-549000D02*
X673000Y-553000D01*
G54D11*
X741000Y-601500D02*
X750500Y-601500D01*
X759000Y-593000D01*
G54D11*
X759000Y-367000D02*
X759000Y-398000D01*
X740000Y-417000D01*
X740000Y-438000D01*
X859000Y-421000D02*
G54D10*
D03*
X914000Y-355000D02*
G54D10*
D03*
X914000Y-367000D02*
G54D10*
D03*
X913000Y-412000D02*
G54D10*
D03*
X877000Y-446000D02*
G54D10*
D03*
X841000Y-445000D02*
G54D10*
D03*
X801000Y-412000D02*
G54D10*
D03*
X800000Y-379000D02*
G54D10*
D03*
X807000Y-353000D02*
G54D10*
D03*
G54D11*
X859000Y-424000D02*
X859000Y-458000D01*
G54D12*
X887500Y-601500D02*
X904500Y-601500D01*
G54D12*
X813500Y-601500D02*
X830500Y-601500D01*
X803900Y-488600D02*
G54D13*
D03*
X804000Y-521100D02*
G54D13*
D03*
X831400Y-488600D02*
G54D13*
D03*
X831500Y-521100D02*
G54D13*
D03*
X858900Y-488600D02*
G54D13*
D03*
X859000Y-521100D02*
G54D13*
D03*
X886400Y-488600D02*
G54D13*
D03*
X886500Y-521100D02*
G54D13*
D03*
X913900Y-488600D02*
G54D13*
D03*
X914000Y-521100D02*
G54D13*
D03*
X803900Y-546100D02*
G54D13*
D03*
X804000Y-578600D02*
G54D13*
D03*
X831400Y-546100D02*
G54D13*
D03*
X831500Y-578600D02*
G54D13*
D03*
X886400Y-546100D02*
G54D13*
D03*
X886500Y-578600D02*
G54D13*
D03*
X913900Y-546100D02*
G54D13*
D03*
X914000Y-578600D02*
G54D13*
D03*
G54D11*
X914000Y-593000D02*
X914000Y-578600D01*
G54D11*
X913900Y-546100D02*
X913900Y-521200D01*
X914000Y-521100D01*
G54D11*
X913900Y-488600D02*
X886400Y-488600D01*
G54D11*
X886500Y-521100D02*
X886500Y-546000D01*
X886400Y-546100D01*
G54D11*
X886500Y-578600D02*
X886500Y-567500D01*
X882000Y-563000D01*
X869000Y-563000D01*
X859000Y-553000D01*
X859000Y-521100D01*
G54D11*
X858900Y-488600D02*
X831400Y-488600D01*
G54D11*
X831500Y-521100D02*
X831500Y-511500D01*
X825000Y-505000D01*
X808000Y-505000D01*
X803000Y-500000D01*
X803000Y-489500D01*
X803900Y-488600D01*
G54D11*
X804000Y-521100D02*
X804000Y-546000D01*
X803900Y-546100D01*
G54D11*
X804000Y-578600D02*
X831500Y-578600D01*
G54D11*
X914000Y-355000D02*
X918000Y-355000D01*
X923000Y-360000D01*
X923000Y-436000D01*
X908000Y-451000D01*
X908000Y-471000D01*
X906000Y-473000D01*
X901000Y-473000D01*
X901000Y-473000D02*
G54D10*
D03*
X914000Y-509000D02*
G54D10*
D03*
G54D11*
X914000Y-509000D02*
X914000Y-521100D01*
G54D11*
X877000Y-446000D02*
X873000Y-450000D01*
X873000Y-475000D01*
X887000Y-501000D02*
G54D10*
D03*
G54D11*
X887000Y-521000D02*
X887000Y-501000D01*
X887000Y-474000D02*
G54D10*
D03*
X895000Y-438000D02*
G54D10*
D03*
X899000Y-504000D02*
G54D10*
D03*
G54D11*
X899000Y-504000D02*
X907000Y-504000D01*
X913000Y-498000D01*
X913000Y-489500D01*
X913900Y-488600D01*
G54D14*
X831400Y-546100D02*
X831400Y-552600D01*
X824000Y-560000D01*
X795000Y-560000D01*
X790000Y-555000D01*
X790000Y-476000D01*
X793000Y-473000D01*
G54D14*
X793000Y-473000D02*
X799000Y-473000D01*
X809000Y-463000D01*
X809000Y-453000D01*
X800000Y-444000D01*
X795000Y-444000D01*
X792000Y-442000D01*
G54D14*
X803900Y-488600D02*
X803900Y-479100D01*
X809000Y-474000D01*
X828000Y-474000D01*
X834000Y-468000D01*
X834000Y-457000D01*
X827000Y-450000D01*
X820000Y-450000D01*
X814000Y-444000D01*
X814000Y-425000D01*
X801000Y-412000D01*
X799500Y-509000D02*
G54D10*
D03*
G54D11*
X799000Y-509000D02*
X804000Y-514000D01*
X804000Y-521100D01*
X822000Y-440000D02*
G54D10*
D03*
X792000Y-442000D02*
G54D10*
D03*
G54D11*
X822000Y-440000D02*
X822000Y-418000D01*
X800000Y-396000D01*
X800000Y-379000D01*
G54D14*
X807000Y-353000D02*
X807000Y-358000D01*
X792000Y-373000D01*
X792000Y-417000D01*
X802000Y-427000D01*
X831000Y-566000D02*
G54D10*
D03*
G54D11*
X831000Y-566000D02*
X831000Y-578100D01*
X831500Y-578600D01*
X802000Y-427000D02*
G54D10*
D03*
X859000Y-458000D02*
G54D10*
D03*
X859000Y-466000D02*
G54D10*
D03*
G54D11*
X859000Y-458000D02*
X859000Y-466000D01*
G54D11*
X858900Y-488600D02*
X858900Y-478900D01*
X847000Y-467000D01*
X847000Y-451000D01*
X841000Y-445000D01*
G54D11*
X913000Y-412000D02*
X913000Y-432000D01*
X898000Y-447000D01*
X888000Y-447000D01*
X882000Y-453000D01*
X882000Y-469000D01*
X887000Y-474000D01*
G54D11*
X859000Y-521100D02*
X859000Y-507000D01*
X862000Y-504000D01*
X867000Y-504000D01*
X873000Y-498000D01*
G54D15*
X873000Y-498000D02*
X873000Y-475000D01*
G54D15*
X799000Y-509000D02*
X799000Y-515000D01*
X801000Y-517000D01*
G54D14*
X825000Y-550000D02*
X825000Y-559000D01*
X824000Y-560000D01*
G54D14*
X828000Y-549000D02*
X828000Y-553000D01*
G54D11*
X896000Y-601500D02*
X905500Y-601500D01*
X914000Y-593000D01*
G54D11*
X914000Y-367000D02*
X914000Y-398000D01*
X895000Y-417000D01*
X895000Y-438000D01*
M02*
