%FSLAX34Y34*%
%MOMM*%
%LNSILK_TOP*%
G71*
G01*
%ADD10C, 0.150*%
%ADD11C, 0.175*%
%ADD12C, 0.300*%
%ADD13C, 0.151*%
%LPD*%
G54D10*
X159000Y-169000D02*
X9000Y-169000D01*
G54D11*
X66319Y-261278D02*
X68764Y-271056D01*
X71208Y-261278D01*
G54D11*
X74630Y-271056D02*
X77074Y-261278D01*
X79519Y-271056D01*
G54D11*
X75608Y-267389D02*
X78541Y-267389D01*
G54D11*
X82941Y-261278D02*
X82941Y-271056D01*
X86363Y-271056D01*
G54D11*
X89785Y-261278D02*
X89785Y-269222D01*
X90274Y-270444D01*
X91252Y-271056D01*
X92230Y-271056D01*
X93207Y-270444D01*
X93696Y-269222D01*
X93696Y-261278D01*
G54D11*
X100540Y-271056D02*
X97118Y-271056D01*
X97118Y-261278D01*
X100540Y-261278D01*
G54D11*
X97118Y-266167D02*
X100540Y-266167D01*
G36*
X13669Y-212919D02*
X153669Y-212919D01*
X153669Y-254919D01*
X13669Y-254919D01*
X13669Y-212919D01*
G37*
G54D12*
X13669Y-212919D02*
X153669Y-212919D01*
X153669Y-254919D01*
X13669Y-254919D01*
X13669Y-212919D01*
G54D10*
X9000Y-19000D02*
X19000Y-9000D01*
X149000Y-9000D01*
X159000Y-19000D01*
X159000Y-307500D01*
X9000Y-307500D01*
X9000Y-19000D01*
G36*
X63000Y-261000D02*
X52000Y-272000D01*
X39000Y-272000D01*
X50000Y-261000D01*
X63000Y-261000D01*
G37*
G54D10*
X63000Y-261000D02*
X52000Y-272000D01*
X39000Y-272000D01*
X50000Y-261000D01*
X63000Y-261000D01*
G36*
X43000Y-261000D02*
X32000Y-272000D01*
X19000Y-272000D01*
X30000Y-261000D01*
X43000Y-261000D01*
G37*
G54D10*
X43000Y-261000D02*
X32000Y-272000D01*
X19000Y-272000D01*
X30000Y-261000D01*
X43000Y-261000D01*
G36*
X129000Y-261000D02*
X118000Y-272000D01*
X105000Y-272000D01*
X116000Y-261000D01*
X129000Y-261000D01*
G37*
G54D10*
X129000Y-261000D02*
X118000Y-272000D01*
X105000Y-272000D01*
X116000Y-261000D01*
X129000Y-261000D01*
G36*
X149000Y-261000D02*
X138000Y-272000D01*
X125000Y-272000D01*
X136000Y-261000D01*
X149000Y-261000D01*
G37*
G54D10*
X149000Y-261000D02*
X138000Y-272000D01*
X125000Y-272000D01*
X136000Y-261000D01*
X149000Y-261000D01*
G54D13*
X16319Y-284056D02*
X16319Y-279306D01*
G54D13*
X16319Y-280150D02*
X18008Y-279306D01*
X19697Y-279622D01*
X20541Y-280361D01*
X20541Y-284056D01*
G54D13*
X20541Y-280150D02*
X22230Y-279306D01*
X23919Y-279622D01*
X24764Y-280361D01*
X24764Y-284056D01*
G54D13*
X27719Y-279833D02*
X29408Y-279306D01*
X31434Y-279306D01*
X32786Y-280361D01*
X32786Y-284056D01*
G54D13*
X32786Y-282472D02*
X31941Y-281417D01*
X30252Y-281206D01*
X28564Y-281417D01*
X27719Y-282472D01*
X28057Y-283528D01*
X29408Y-284056D01*
X30252Y-284056D01*
X30590Y-284056D01*
X31941Y-283528D01*
X32786Y-282472D01*
G54D13*
X35742Y-284056D02*
X35742Y-275611D01*
G54D13*
X38275Y-280889D02*
X40809Y-284056D01*
G54D13*
X35742Y-281944D02*
X40809Y-279306D01*
G54D13*
X48832Y-283528D02*
X47480Y-284056D01*
X45792Y-284056D01*
X44103Y-283528D01*
X43765Y-282472D01*
X43765Y-280678D01*
X44610Y-279622D01*
X46298Y-279306D01*
X47987Y-279622D01*
X48832Y-280361D01*
X48832Y-281417D01*
X43765Y-281417D01*
G54D13*
X51788Y-280361D02*
X58544Y-280361D01*
G54D13*
X61500Y-284056D02*
X61500Y-275611D01*
G54D13*
X61500Y-280678D02*
X62344Y-279622D01*
X64033Y-279306D01*
X65722Y-279622D01*
X66567Y-280678D01*
X66567Y-282789D01*
X65722Y-283844D01*
X64033Y-284056D01*
X62344Y-283844D01*
X61500Y-282789D01*
G54D13*
X74590Y-283528D02*
X73238Y-284056D01*
X71550Y-284056D01*
X69861Y-283528D01*
X69523Y-282472D01*
X69523Y-280678D01*
X70368Y-279622D01*
X72056Y-279306D01*
X73745Y-279622D01*
X74590Y-280361D01*
X74590Y-281417D01*
X69523Y-281417D01*
G54D13*
X79235Y-284056D02*
X79235Y-276139D01*
X80079Y-275611D01*
X80924Y-275928D01*
G54D13*
X77546Y-279306D02*
X80924Y-279306D01*
G54D13*
X88947Y-282789D02*
X88947Y-280678D01*
X88102Y-279622D01*
X86413Y-279306D01*
X84724Y-279622D01*
X83880Y-280678D01*
X83880Y-282789D01*
X84724Y-283844D01*
X86413Y-284056D01*
X88102Y-283844D01*
X88947Y-282789D01*
G54D13*
X91903Y-284056D02*
X91903Y-279306D01*
G54D13*
X91903Y-280361D02*
X93592Y-279306D01*
X95281Y-279306D01*
G54D13*
X103304Y-283528D02*
X101952Y-284056D01*
X100264Y-284056D01*
X98575Y-283528D01*
X98237Y-282472D01*
X98237Y-280678D01*
X99082Y-279622D01*
X100770Y-279306D01*
X102459Y-279622D01*
X103304Y-280361D01*
X103304Y-281417D01*
X98237Y-281417D01*
G54D13*
X106260Y-280361D02*
X113016Y-280361D01*
G54D13*
X115972Y-284056D02*
X115972Y-275611D01*
G54D13*
X115972Y-280678D02*
X116816Y-279622D01*
X118505Y-279306D01*
X120194Y-279622D01*
X121039Y-280678D01*
X121039Y-282789D01*
X120194Y-283844D01*
X118505Y-284056D01*
X116816Y-283844D01*
X115972Y-282789D01*
G54D13*
X123995Y-284056D02*
X123995Y-279306D01*
G54D13*
X123995Y-280361D02*
X125684Y-279306D01*
X127373Y-279306D01*
G54D13*
X135396Y-283528D02*
X134044Y-284056D01*
X132356Y-284056D01*
X130667Y-283528D01*
X130329Y-282472D01*
X130329Y-280678D01*
X131173Y-279622D01*
X132862Y-279306D01*
X134551Y-279622D01*
X135396Y-280361D01*
X135396Y-281417D01*
X130329Y-281417D01*
G54D13*
X138352Y-279833D02*
X140041Y-279306D01*
X142068Y-279306D01*
X143419Y-280361D01*
X143419Y-284056D01*
G54D13*
X143419Y-282472D02*
X142574Y-281417D01*
X140885Y-281206D01*
X139196Y-281417D01*
X138352Y-282472D01*
X138690Y-283528D01*
X140041Y-284056D01*
X140885Y-284056D01*
X141223Y-284056D01*
X142574Y-283528D01*
X143419Y-282472D01*
G54D13*
X146375Y-284056D02*
X146375Y-275611D01*
G54D13*
X148908Y-280889D02*
X151442Y-284056D01*
G54D13*
X146375Y-281944D02*
X151442Y-279306D01*
G54D10*
X314000Y-169000D02*
X164000Y-169000D01*
G54D11*
X221319Y-261278D02*
X223764Y-271056D01*
X226208Y-261278D01*
G54D11*
X229630Y-271056D02*
X232074Y-261278D01*
X234519Y-271056D01*
G54D11*
X230608Y-267389D02*
X233541Y-267389D01*
G54D11*
X237941Y-261278D02*
X237941Y-271056D01*
X241363Y-271056D01*
G54D11*
X244785Y-261278D02*
X244785Y-269222D01*
X245274Y-270444D01*
X246252Y-271056D01*
X247230Y-271056D01*
X248207Y-270444D01*
X248696Y-269222D01*
X248696Y-261278D01*
G54D11*
X255540Y-271056D02*
X252118Y-271056D01*
X252118Y-261278D01*
X255540Y-261278D01*
G54D11*
X252118Y-266167D02*
X255540Y-266167D01*
G36*
X168669Y-212919D02*
X308669Y-212919D01*
X308669Y-254919D01*
X168669Y-254919D01*
X168669Y-212919D01*
G37*
G54D12*
X168669Y-212919D02*
X308669Y-212919D01*
X308669Y-254919D01*
X168669Y-254919D01*
X168669Y-212919D01*
G54D10*
X164000Y-19000D02*
X174000Y-9000D01*
X304000Y-9000D01*
X314000Y-19000D01*
X314000Y-307500D01*
X164000Y-307500D01*
X164000Y-19000D01*
G36*
X218000Y-261000D02*
X207000Y-272000D01*
X194000Y-272000D01*
X205000Y-261000D01*
X218000Y-261000D01*
G37*
G54D10*
X218000Y-261000D02*
X207000Y-272000D01*
X194000Y-272000D01*
X205000Y-261000D01*
X218000Y-261000D01*
G36*
X198000Y-261000D02*
X187000Y-272000D01*
X174000Y-272000D01*
X185000Y-261000D01*
X198000Y-261000D01*
G37*
G54D10*
X198000Y-261000D02*
X187000Y-272000D01*
X174000Y-272000D01*
X185000Y-261000D01*
X198000Y-261000D01*
G36*
X284000Y-261000D02*
X273000Y-272000D01*
X260000Y-272000D01*
X271000Y-261000D01*
X284000Y-261000D01*
G37*
G54D10*
X284000Y-261000D02*
X273000Y-272000D01*
X260000Y-272000D01*
X271000Y-261000D01*
X284000Y-261000D01*
G36*
X304000Y-261000D02*
X293000Y-272000D01*
X280000Y-272000D01*
X291000Y-261000D01*
X304000Y-261000D01*
G37*
G54D10*
X304000Y-261000D02*
X293000Y-272000D01*
X280000Y-272000D01*
X291000Y-261000D01*
X304000Y-261000D01*
G54D13*
X171319Y-284056D02*
X171319Y-279306D01*
G54D13*
X171319Y-280150D02*
X173008Y-279306D01*
X174697Y-279622D01*
X175541Y-280361D01*
X175541Y-284056D01*
G54D13*
X175541Y-280150D02*
X177230Y-279306D01*
X178919Y-279622D01*
X179764Y-280361D01*
X179764Y-284056D01*
G54D13*
X182719Y-279833D02*
X184408Y-279306D01*
X186434Y-279306D01*
X187786Y-280361D01*
X187786Y-284056D01*
G54D13*
X187786Y-282472D02*
X186941Y-281417D01*
X185252Y-281206D01*
X183564Y-281417D01*
X182719Y-282472D01*
X183057Y-283528D01*
X184408Y-284056D01*
X185252Y-284056D01*
X185590Y-284056D01*
X186941Y-283528D01*
X187786Y-282472D01*
G54D13*
X190742Y-284056D02*
X190742Y-275611D01*
G54D13*
X193275Y-280889D02*
X195809Y-284056D01*
G54D13*
X190742Y-281944D02*
X195809Y-279306D01*
G54D13*
X203832Y-283528D02*
X202480Y-284056D01*
X200792Y-284056D01*
X199103Y-283528D01*
X198765Y-282472D01*
X198765Y-280678D01*
X199610Y-279622D01*
X201298Y-279306D01*
X202987Y-279622D01*
X203832Y-280361D01*
X203832Y-281417D01*
X198765Y-281417D01*
G54D13*
X206788Y-280361D02*
X213544Y-280361D01*
G54D13*
X216500Y-284056D02*
X216500Y-275611D01*
G54D13*
X216500Y-280678D02*
X217344Y-279622D01*
X219033Y-279306D01*
X220722Y-279622D01*
X221567Y-280678D01*
X221567Y-282789D01*
X220722Y-283844D01*
X219033Y-284056D01*
X217344Y-283844D01*
X216500Y-282789D01*
G54D13*
X229590Y-283528D02*
X228238Y-284056D01*
X226550Y-284056D01*
X224861Y-283528D01*
X224523Y-282472D01*
X224523Y-280678D01*
X225368Y-279622D01*
X227056Y-279306D01*
X228745Y-279622D01*
X229590Y-280361D01*
X229590Y-281417D01*
X224523Y-281417D01*
G54D13*
X234235Y-284056D02*
X234235Y-276139D01*
X235079Y-275611D01*
X235924Y-275928D01*
G54D13*
X232546Y-279306D02*
X235924Y-279306D01*
G54D13*
X243947Y-282789D02*
X243947Y-280678D01*
X243102Y-279622D01*
X241413Y-279306D01*
X239724Y-279622D01*
X238880Y-280678D01*
X238880Y-282789D01*
X239724Y-283844D01*
X241413Y-284056D01*
X243102Y-283844D01*
X243947Y-282789D01*
G54D13*
X246903Y-284056D02*
X246903Y-279306D01*
G54D13*
X246903Y-280361D02*
X248592Y-279306D01*
X250281Y-279306D01*
G54D13*
X258304Y-283528D02*
X256952Y-284056D01*
X255264Y-284056D01*
X253575Y-283528D01*
X253237Y-282472D01*
X253237Y-280678D01*
X254082Y-279622D01*
X255770Y-279306D01*
X257459Y-279622D01*
X258304Y-280361D01*
X258304Y-281417D01*
X253237Y-281417D01*
G54D13*
X261260Y-280361D02*
X268016Y-280361D01*
G54D13*
X270972Y-284056D02*
X270972Y-275611D01*
G54D13*
X270972Y-280678D02*
X271816Y-279622D01*
X273505Y-279306D01*
X275194Y-279622D01*
X276039Y-280678D01*
X276039Y-282789D01*
X275194Y-283844D01*
X273505Y-284056D01*
X271816Y-283844D01*
X270972Y-282789D01*
G54D13*
X278995Y-284056D02*
X278995Y-279306D01*
G54D13*
X278995Y-280361D02*
X280684Y-279306D01*
X282373Y-279306D01*
G54D13*
X290396Y-283528D02*
X289044Y-284056D01*
X287356Y-284056D01*
X285667Y-283528D01*
X285329Y-282472D01*
X285329Y-280678D01*
X286173Y-279622D01*
X287862Y-279306D01*
X289551Y-279622D01*
X290396Y-280361D01*
X290396Y-281417D01*
X285329Y-281417D01*
G54D13*
X293352Y-279833D02*
X295041Y-279306D01*
X297068Y-279306D01*
X298419Y-280361D01*
X298419Y-284056D01*
G54D13*
X298419Y-282472D02*
X297574Y-281417D01*
X295885Y-281206D01*
X294196Y-281417D01*
X293352Y-282472D01*
X293690Y-283528D01*
X295041Y-284056D01*
X295885Y-284056D01*
X296223Y-284056D01*
X297574Y-283528D01*
X298419Y-282472D01*
G54D13*
X301375Y-284056D02*
X301375Y-275611D01*
G54D13*
X303908Y-280889D02*
X306442Y-284056D01*
G54D13*
X301375Y-281944D02*
X306442Y-279306D01*
G54D10*
X469000Y-169000D02*
X319000Y-169000D01*
G54D11*
X376319Y-261278D02*
X378764Y-271056D01*
X381208Y-261278D01*
G54D11*
X384630Y-271056D02*
X387074Y-261278D01*
X389519Y-271056D01*
G54D11*
X385608Y-267389D02*
X388541Y-267389D01*
G54D11*
X392941Y-261278D02*
X392941Y-271056D01*
X396363Y-271056D01*
G54D11*
X399785Y-261278D02*
X399785Y-269222D01*
X400274Y-270444D01*
X401252Y-271056D01*
X402230Y-271056D01*
X403207Y-270444D01*
X403696Y-269222D01*
X403696Y-261278D01*
G54D11*
X410540Y-271056D02*
X407118Y-271056D01*
X407118Y-261278D01*
X410540Y-261278D01*
G54D11*
X407118Y-266167D02*
X410540Y-266167D01*
G36*
X323669Y-212919D02*
X463669Y-212919D01*
X463669Y-254919D01*
X323669Y-254919D01*
X323669Y-212919D01*
G37*
G54D12*
X323669Y-212919D02*
X463669Y-212919D01*
X463669Y-254919D01*
X323669Y-254919D01*
X323669Y-212919D01*
G54D10*
X319000Y-19000D02*
X329000Y-9000D01*
X459000Y-9000D01*
X469000Y-19000D01*
X469000Y-307500D01*
X319000Y-307500D01*
X319000Y-19000D01*
G36*
X373000Y-261000D02*
X362000Y-272000D01*
X349000Y-272000D01*
X360000Y-261000D01*
X373000Y-261000D01*
G37*
G54D10*
X373000Y-261000D02*
X362000Y-272000D01*
X349000Y-272000D01*
X360000Y-261000D01*
X373000Y-261000D01*
G36*
X353000Y-261000D02*
X342000Y-272000D01*
X329000Y-272000D01*
X340000Y-261000D01*
X353000Y-261000D01*
G37*
G54D10*
X353000Y-261000D02*
X342000Y-272000D01*
X329000Y-272000D01*
X340000Y-261000D01*
X353000Y-261000D01*
G36*
X439000Y-261000D02*
X428000Y-272000D01*
X415000Y-272000D01*
X426000Y-261000D01*
X439000Y-261000D01*
G37*
G54D10*
X439000Y-261000D02*
X428000Y-272000D01*
X415000Y-272000D01*
X426000Y-261000D01*
X439000Y-261000D01*
G36*
X459000Y-261000D02*
X448000Y-272000D01*
X435000Y-272000D01*
X446000Y-261000D01*
X459000Y-261000D01*
G37*
G54D10*
X459000Y-261000D02*
X448000Y-272000D01*
X435000Y-272000D01*
X446000Y-261000D01*
X459000Y-261000D01*
G54D13*
X326319Y-284056D02*
X326319Y-279306D01*
G54D13*
X326319Y-280150D02*
X328008Y-279306D01*
X329697Y-279622D01*
X330541Y-280361D01*
X330541Y-284056D01*
G54D13*
X330541Y-280150D02*
X332230Y-279306D01*
X333919Y-279622D01*
X334764Y-280361D01*
X334764Y-284056D01*
G54D13*
X337719Y-279833D02*
X339408Y-279306D01*
X341434Y-279306D01*
X342786Y-280361D01*
X342786Y-284056D01*
G54D13*
X342786Y-282472D02*
X341941Y-281417D01*
X340252Y-281206D01*
X338564Y-281417D01*
X337719Y-282472D01*
X338057Y-283528D01*
X339408Y-284056D01*
X340252Y-284056D01*
X340590Y-284056D01*
X341941Y-283528D01*
X342786Y-282472D01*
G54D13*
X345742Y-284056D02*
X345742Y-275611D01*
G54D13*
X348275Y-280889D02*
X350809Y-284056D01*
G54D13*
X345742Y-281944D02*
X350809Y-279306D01*
G54D13*
X358832Y-283528D02*
X357480Y-284056D01*
X355792Y-284056D01*
X354103Y-283528D01*
X353765Y-282472D01*
X353765Y-280678D01*
X354610Y-279622D01*
X356298Y-279306D01*
X357987Y-279622D01*
X358832Y-280361D01*
X358832Y-281417D01*
X353765Y-281417D01*
G54D13*
X361788Y-280361D02*
X368544Y-280361D01*
G54D13*
X371500Y-284056D02*
X371500Y-275611D01*
G54D13*
X371500Y-280678D02*
X372344Y-279622D01*
X374033Y-279306D01*
X375722Y-279622D01*
X376567Y-280678D01*
X376567Y-282789D01*
X375722Y-283844D01*
X374033Y-284056D01*
X372344Y-283844D01*
X371500Y-282789D01*
G54D13*
X384590Y-283528D02*
X383238Y-284056D01*
X381550Y-284056D01*
X379861Y-283528D01*
X379523Y-282472D01*
X379523Y-280678D01*
X380368Y-279622D01*
X382056Y-279306D01*
X383745Y-279622D01*
X384590Y-280361D01*
X384590Y-281417D01*
X379523Y-281417D01*
G54D13*
X389235Y-284056D02*
X389235Y-276139D01*
X390079Y-275611D01*
X390924Y-275928D01*
G54D13*
X387546Y-279306D02*
X390924Y-279306D01*
G54D13*
X398947Y-282789D02*
X398947Y-280678D01*
X398102Y-279622D01*
X396413Y-279306D01*
X394724Y-279622D01*
X393880Y-280678D01*
X393880Y-282789D01*
X394724Y-283844D01*
X396413Y-284056D01*
X398102Y-283844D01*
X398947Y-282789D01*
G54D13*
X401903Y-284056D02*
X401903Y-279306D01*
G54D13*
X401903Y-280361D02*
X403592Y-279306D01*
X405281Y-279306D01*
G54D13*
X413304Y-283528D02*
X411952Y-284056D01*
X410264Y-284056D01*
X408575Y-283528D01*
X408237Y-282472D01*
X408237Y-280678D01*
X409082Y-279622D01*
X410770Y-279306D01*
X412459Y-279622D01*
X413304Y-280361D01*
X413304Y-281417D01*
X408237Y-281417D01*
G54D13*
X416260Y-280361D02*
X423016Y-280361D01*
G54D13*
X425972Y-284056D02*
X425972Y-275611D01*
G54D13*
X425972Y-280678D02*
X426816Y-279622D01*
X428505Y-279306D01*
X430194Y-279622D01*
X431039Y-280678D01*
X431039Y-282789D01*
X430194Y-283844D01*
X428505Y-284056D01*
X426816Y-283844D01*
X425972Y-282789D01*
G54D13*
X433995Y-284056D02*
X433995Y-279306D01*
G54D13*
X433995Y-280361D02*
X435684Y-279306D01*
X437373Y-279306D01*
G54D13*
X445396Y-283528D02*
X444044Y-284056D01*
X442356Y-284056D01*
X440667Y-283528D01*
X440329Y-282472D01*
X440329Y-280678D01*
X441173Y-279622D01*
X442862Y-279306D01*
X444551Y-279622D01*
X445396Y-280361D01*
X445396Y-281417D01*
X440329Y-281417D01*
G54D13*
X448352Y-279833D02*
X450041Y-279306D01*
X452068Y-279306D01*
X453419Y-280361D01*
X453419Y-284056D01*
G54D13*
X453419Y-282472D02*
X452574Y-281417D01*
X450885Y-281206D01*
X449196Y-281417D01*
X448352Y-282472D01*
X448690Y-283528D01*
X450041Y-284056D01*
X450885Y-284056D01*
X451223Y-284056D01*
X452574Y-283528D01*
X453419Y-282472D01*
G54D13*
X456375Y-284056D02*
X456375Y-275611D01*
G54D13*
X458908Y-280889D02*
X461442Y-284056D01*
G54D13*
X456375Y-281944D02*
X461442Y-279306D01*
G54D10*
X624000Y-169000D02*
X474000Y-169000D01*
G54D11*
X531319Y-261278D02*
X533764Y-271056D01*
X536208Y-261278D01*
G54D11*
X539630Y-271056D02*
X542074Y-261278D01*
X544519Y-271056D01*
G54D11*
X540608Y-267389D02*
X543541Y-267389D01*
G54D11*
X547941Y-261278D02*
X547941Y-271056D01*
X551363Y-271056D01*
G54D11*
X554785Y-261278D02*
X554785Y-269222D01*
X555274Y-270444D01*
X556252Y-271056D01*
X557230Y-271056D01*
X558207Y-270444D01*
X558696Y-269222D01*
X558696Y-261278D01*
G54D11*
X565540Y-271056D02*
X562118Y-271056D01*
X562118Y-261278D01*
X565540Y-261278D01*
G54D11*
X562118Y-266167D02*
X565540Y-266167D01*
G36*
X478669Y-212919D02*
X618669Y-212919D01*
X618669Y-254919D01*
X478669Y-254919D01*
X478669Y-212919D01*
G37*
G54D12*
X478669Y-212919D02*
X618669Y-212919D01*
X618669Y-254919D01*
X478669Y-254919D01*
X478669Y-212919D01*
G54D10*
X474000Y-19000D02*
X484000Y-9000D01*
X614000Y-9000D01*
X624000Y-19000D01*
X624000Y-307500D01*
X474000Y-307500D01*
X474000Y-19000D01*
G36*
X528000Y-261000D02*
X517000Y-272000D01*
X504000Y-272000D01*
X515000Y-261000D01*
X528000Y-261000D01*
G37*
G54D10*
X528000Y-261000D02*
X517000Y-272000D01*
X504000Y-272000D01*
X515000Y-261000D01*
X528000Y-261000D01*
G36*
X508000Y-261000D02*
X497000Y-272000D01*
X484000Y-272000D01*
X495000Y-261000D01*
X508000Y-261000D01*
G37*
G54D10*
X508000Y-261000D02*
X497000Y-272000D01*
X484000Y-272000D01*
X495000Y-261000D01*
X508000Y-261000D01*
G36*
X594000Y-261000D02*
X583000Y-272000D01*
X570000Y-272000D01*
X581000Y-261000D01*
X594000Y-261000D01*
G37*
G54D10*
X594000Y-261000D02*
X583000Y-272000D01*
X570000Y-272000D01*
X581000Y-261000D01*
X594000Y-261000D01*
G36*
X614000Y-261000D02*
X603000Y-272000D01*
X590000Y-272000D01*
X601000Y-261000D01*
X614000Y-261000D01*
G37*
G54D10*
X614000Y-261000D02*
X603000Y-272000D01*
X590000Y-272000D01*
X601000Y-261000D01*
X614000Y-261000D01*
G54D13*
X481319Y-284056D02*
X481319Y-279306D01*
G54D13*
X481319Y-280150D02*
X483008Y-279306D01*
X484697Y-279622D01*
X485541Y-280361D01*
X485541Y-284056D01*
G54D13*
X485541Y-280150D02*
X487230Y-279306D01*
X488919Y-279622D01*
X489764Y-280361D01*
X489764Y-284056D01*
G54D13*
X492719Y-279833D02*
X494408Y-279306D01*
X496434Y-279306D01*
X497786Y-280361D01*
X497786Y-284056D01*
G54D13*
X497786Y-282472D02*
X496941Y-281417D01*
X495252Y-281206D01*
X493564Y-281417D01*
X492719Y-282472D01*
X493057Y-283528D01*
X494408Y-284056D01*
X495252Y-284056D01*
X495590Y-284056D01*
X496941Y-283528D01*
X497786Y-282472D01*
G54D13*
X500742Y-284056D02*
X500742Y-275611D01*
G54D13*
X503275Y-280889D02*
X505809Y-284056D01*
G54D13*
X500742Y-281944D02*
X505809Y-279306D01*
G54D13*
X513832Y-283528D02*
X512480Y-284056D01*
X510792Y-284056D01*
X509103Y-283528D01*
X508765Y-282472D01*
X508765Y-280678D01*
X509610Y-279622D01*
X511298Y-279306D01*
X512987Y-279622D01*
X513832Y-280361D01*
X513832Y-281417D01*
X508765Y-281417D01*
G54D13*
X516788Y-280361D02*
X523544Y-280361D01*
G54D13*
X526500Y-284056D02*
X526500Y-275611D01*
G54D13*
X526500Y-280678D02*
X527344Y-279622D01*
X529033Y-279306D01*
X530722Y-279622D01*
X531567Y-280678D01*
X531567Y-282789D01*
X530722Y-283844D01*
X529033Y-284056D01*
X527344Y-283844D01*
X526500Y-282789D01*
G54D13*
X539590Y-283528D02*
X538238Y-284056D01*
X536550Y-284056D01*
X534861Y-283528D01*
X534523Y-282472D01*
X534523Y-280678D01*
X535368Y-279622D01*
X537056Y-279306D01*
X538745Y-279622D01*
X539590Y-280361D01*
X539590Y-281417D01*
X534523Y-281417D01*
G54D13*
X544235Y-284056D02*
X544235Y-276139D01*
X545079Y-275611D01*
X545924Y-275928D01*
G54D13*
X542546Y-279306D02*
X545924Y-279306D01*
G54D13*
X553947Y-282789D02*
X553947Y-280678D01*
X553102Y-279622D01*
X551413Y-279306D01*
X549724Y-279622D01*
X548880Y-280678D01*
X548880Y-282789D01*
X549724Y-283844D01*
X551413Y-284056D01*
X553102Y-283844D01*
X553947Y-282789D01*
G54D13*
X556903Y-284056D02*
X556903Y-279306D01*
G54D13*
X556903Y-280361D02*
X558592Y-279306D01*
X560281Y-279306D01*
G54D13*
X568304Y-283528D02*
X566953Y-284056D01*
X565264Y-284056D01*
X563575Y-283528D01*
X563237Y-282472D01*
X563237Y-280678D01*
X564081Y-279622D01*
X565770Y-279306D01*
X567459Y-279622D01*
X568304Y-280361D01*
X568304Y-281417D01*
X563237Y-281417D01*
G54D13*
X571260Y-280361D02*
X578016Y-280361D01*
G54D13*
X580972Y-284056D02*
X580972Y-275611D01*
G54D13*
X580972Y-280678D02*
X581816Y-279622D01*
X583505Y-279306D01*
X585194Y-279622D01*
X586039Y-280678D01*
X586039Y-282789D01*
X585194Y-283844D01*
X583505Y-284056D01*
X581816Y-283844D01*
X580972Y-282789D01*
G54D13*
X588995Y-284056D02*
X588995Y-279306D01*
G54D13*
X588995Y-280361D02*
X590684Y-279306D01*
X592373Y-279306D01*
G54D13*
X600396Y-283528D02*
X599044Y-284056D01*
X597356Y-284056D01*
X595667Y-283528D01*
X595329Y-282472D01*
X595329Y-280678D01*
X596173Y-279622D01*
X597862Y-279306D01*
X599551Y-279622D01*
X600396Y-280361D01*
X600396Y-281417D01*
X595329Y-281417D01*
G54D13*
X603352Y-279833D02*
X605041Y-279306D01*
X607068Y-279306D01*
X608419Y-280361D01*
X608419Y-284056D01*
G54D13*
X608419Y-282472D02*
X607574Y-281417D01*
X605885Y-281206D01*
X604196Y-281417D01*
X603352Y-282472D01*
X603690Y-283528D01*
X605041Y-284056D01*
X605885Y-284056D01*
X606223Y-284056D01*
X607574Y-283528D01*
X608419Y-282472D01*
G54D13*
X611375Y-284056D02*
X611375Y-275611D01*
G54D13*
X613908Y-280889D02*
X616442Y-284056D01*
G54D13*
X611375Y-281944D02*
X616442Y-279306D01*
G54D10*
X779000Y-169000D02*
X629000Y-169000D01*
G54D11*
X686319Y-261278D02*
X688764Y-271056D01*
X691208Y-261278D01*
G54D11*
X694630Y-271056D02*
X697074Y-261278D01*
X699519Y-271056D01*
G54D11*
X695608Y-267389D02*
X698541Y-267389D01*
G54D11*
X702941Y-261278D02*
X702941Y-271056D01*
X706363Y-271056D01*
G54D11*
X709785Y-261278D02*
X709785Y-269222D01*
X710274Y-270444D01*
X711252Y-271056D01*
X712230Y-271056D01*
X713207Y-270444D01*
X713696Y-269222D01*
X713696Y-261278D01*
G54D11*
X720540Y-271056D02*
X717118Y-271056D01*
X717118Y-261278D01*
X720540Y-261278D01*
G54D11*
X717118Y-266167D02*
X720540Y-266167D01*
G36*
X633669Y-212919D02*
X773669Y-212919D01*
X773669Y-254919D01*
X633669Y-254919D01*
X633669Y-212919D01*
G37*
G54D12*
X633669Y-212919D02*
X773669Y-212919D01*
X773669Y-254919D01*
X633669Y-254919D01*
X633669Y-212919D01*
G54D10*
X629000Y-19000D02*
X639000Y-9000D01*
X769000Y-9000D01*
X779000Y-19000D01*
X779000Y-307500D01*
X629000Y-307500D01*
X629000Y-19000D01*
G36*
X683000Y-261000D02*
X672000Y-272000D01*
X659000Y-272000D01*
X670000Y-261000D01*
X683000Y-261000D01*
G37*
G54D10*
X683000Y-261000D02*
X672000Y-272000D01*
X659000Y-272000D01*
X670000Y-261000D01*
X683000Y-261000D01*
G36*
X663000Y-261000D02*
X652000Y-272000D01*
X639000Y-272000D01*
X650000Y-261000D01*
X663000Y-261000D01*
G37*
G54D10*
X663000Y-261000D02*
X652000Y-272000D01*
X639000Y-272000D01*
X650000Y-261000D01*
X663000Y-261000D01*
G36*
X749000Y-261000D02*
X738000Y-272000D01*
X725000Y-272000D01*
X736000Y-261000D01*
X749000Y-261000D01*
G37*
G54D10*
X749000Y-261000D02*
X738000Y-272000D01*
X725000Y-272000D01*
X736000Y-261000D01*
X749000Y-261000D01*
G36*
X769000Y-261000D02*
X758000Y-272000D01*
X745000Y-272000D01*
X756000Y-261000D01*
X769000Y-261000D01*
G37*
G54D10*
X769000Y-261000D02*
X758000Y-272000D01*
X745000Y-272000D01*
X756000Y-261000D01*
X769000Y-261000D01*
G54D13*
X636319Y-284056D02*
X636319Y-279306D01*
G54D13*
X636319Y-280150D02*
X638008Y-279306D01*
X639697Y-279622D01*
X640541Y-280361D01*
X640541Y-284056D01*
G54D13*
X640541Y-280150D02*
X642230Y-279306D01*
X643919Y-279622D01*
X644763Y-280361D01*
X644763Y-284056D01*
G54D13*
X647719Y-279833D02*
X649408Y-279306D01*
X651435Y-279306D01*
X652786Y-280361D01*
X652786Y-284056D01*
G54D13*
X652786Y-282472D02*
X651941Y-281417D01*
X650252Y-281206D01*
X648563Y-281417D01*
X647719Y-282472D01*
X648057Y-283528D01*
X649408Y-284056D01*
X650252Y-284056D01*
X650590Y-284056D01*
X651941Y-283528D01*
X652786Y-282472D01*
G54D13*
X655742Y-284056D02*
X655742Y-275611D01*
G54D13*
X658275Y-280889D02*
X660809Y-284056D01*
G54D13*
X655742Y-281944D02*
X660809Y-279306D01*
G54D13*
X668832Y-283528D02*
X667481Y-284056D01*
X665792Y-284056D01*
X664103Y-283528D01*
X663765Y-282472D01*
X663765Y-280678D01*
X664609Y-279622D01*
X666298Y-279306D01*
X667987Y-279622D01*
X668832Y-280361D01*
X668832Y-281417D01*
X663765Y-281417D01*
G54D13*
X671788Y-280361D02*
X678544Y-280361D01*
G54D13*
X681500Y-284056D02*
X681500Y-275611D01*
G54D13*
X681500Y-280678D02*
X682344Y-279622D01*
X684033Y-279306D01*
X685722Y-279622D01*
X686567Y-280678D01*
X686567Y-282789D01*
X685722Y-283844D01*
X684033Y-284056D01*
X682344Y-283844D01*
X681500Y-282789D01*
G54D13*
X694590Y-283528D02*
X693239Y-284056D01*
X691550Y-284056D01*
X689861Y-283528D01*
X689523Y-282472D01*
X689523Y-280678D01*
X690367Y-279622D01*
X692056Y-279306D01*
X693745Y-279622D01*
X694590Y-280361D01*
X694590Y-281417D01*
X689523Y-281417D01*
G54D13*
X699235Y-284056D02*
X699235Y-276139D01*
X700079Y-275611D01*
X700924Y-275928D01*
G54D13*
X697546Y-279306D02*
X700924Y-279306D01*
G54D13*
X708947Y-282789D02*
X708947Y-280678D01*
X708102Y-279622D01*
X706413Y-279306D01*
X704724Y-279622D01*
X703880Y-280678D01*
X703880Y-282789D01*
X704724Y-283844D01*
X706413Y-284056D01*
X708102Y-283844D01*
X708947Y-282789D01*
G54D13*
X711903Y-284056D02*
X711903Y-279306D01*
G54D13*
X711903Y-280361D02*
X713592Y-279306D01*
X715281Y-279306D01*
G54D13*
X723304Y-283528D02*
X721953Y-284056D01*
X720264Y-284056D01*
X718575Y-283528D01*
X718237Y-282472D01*
X718237Y-280678D01*
X719081Y-279622D01*
X720770Y-279306D01*
X722459Y-279622D01*
X723304Y-280361D01*
X723304Y-281417D01*
X718237Y-281417D01*
G54D13*
X726260Y-280361D02*
X733016Y-280361D01*
G54D13*
X735972Y-284056D02*
X735972Y-275611D01*
G54D13*
X735972Y-280678D02*
X736816Y-279622D01*
X738505Y-279306D01*
X740194Y-279622D01*
X741039Y-280678D01*
X741039Y-282789D01*
X740194Y-283844D01*
X738505Y-284056D01*
X736816Y-283844D01*
X735972Y-282789D01*
G54D13*
X743995Y-284056D02*
X743995Y-279306D01*
G54D13*
X743995Y-280361D02*
X745684Y-279306D01*
X747373Y-279306D01*
G54D13*
X755396Y-283528D02*
X754044Y-284056D01*
X752356Y-284056D01*
X750667Y-283528D01*
X750329Y-282472D01*
X750329Y-280678D01*
X751173Y-279622D01*
X752862Y-279306D01*
X754551Y-279622D01*
X755396Y-280361D01*
X755396Y-281417D01*
X750329Y-281417D01*
G54D13*
X758352Y-279833D02*
X760041Y-279306D01*
X762068Y-279306D01*
X763419Y-280361D01*
X763419Y-284056D01*
G54D13*
X763419Y-282472D02*
X762574Y-281417D01*
X760885Y-281206D01*
X759196Y-281417D01*
X758352Y-282472D01*
X758690Y-283528D01*
X760041Y-284056D01*
X760885Y-284056D01*
X761223Y-284056D01*
X762574Y-283528D01*
X763419Y-282472D01*
G54D13*
X766375Y-284056D02*
X766375Y-275611D01*
G54D13*
X768908Y-280889D02*
X771442Y-284056D01*
G54D13*
X766375Y-281944D02*
X771442Y-279306D01*
G54D10*
X934000Y-169000D02*
X784000Y-169000D01*
G54D11*
X841319Y-261278D02*
X843764Y-271056D01*
X846208Y-261278D01*
G54D11*
X849630Y-271056D02*
X852074Y-261278D01*
X854519Y-271056D01*
G54D11*
X850608Y-267389D02*
X853541Y-267389D01*
G54D11*
X857941Y-261278D02*
X857941Y-271056D01*
X861363Y-271056D01*
G54D11*
X864785Y-261278D02*
X864785Y-269222D01*
X865274Y-270444D01*
X866252Y-271056D01*
X867230Y-271056D01*
X868207Y-270444D01*
X868696Y-269222D01*
X868696Y-261278D01*
G54D11*
X875540Y-271056D02*
X872118Y-271056D01*
X872118Y-261278D01*
X875540Y-261278D01*
G54D11*
X872118Y-266167D02*
X875540Y-266167D01*
G36*
X788669Y-212919D02*
X928669Y-212919D01*
X928669Y-254919D01*
X788669Y-254919D01*
X788669Y-212919D01*
G37*
G54D12*
X788669Y-212919D02*
X928669Y-212919D01*
X928669Y-254919D01*
X788669Y-254919D01*
X788669Y-212919D01*
G54D10*
X784000Y-19000D02*
X794000Y-9000D01*
X924000Y-9000D01*
X934000Y-19000D01*
X934000Y-307500D01*
X784000Y-307500D01*
X784000Y-19000D01*
G36*
X838000Y-261000D02*
X827000Y-272000D01*
X814000Y-272000D01*
X825000Y-261000D01*
X838000Y-261000D01*
G37*
G54D10*
X838000Y-261000D02*
X827000Y-272000D01*
X814000Y-272000D01*
X825000Y-261000D01*
X838000Y-261000D01*
G36*
X818000Y-261000D02*
X807000Y-272000D01*
X794000Y-272000D01*
X805000Y-261000D01*
X818000Y-261000D01*
G37*
G54D10*
X818000Y-261000D02*
X807000Y-272000D01*
X794000Y-272000D01*
X805000Y-261000D01*
X818000Y-261000D01*
G36*
X904000Y-261000D02*
X893000Y-272000D01*
X880000Y-272000D01*
X891000Y-261000D01*
X904000Y-261000D01*
G37*
G54D10*
X904000Y-261000D02*
X893000Y-272000D01*
X880000Y-272000D01*
X891000Y-261000D01*
X904000Y-261000D01*
G36*
X924000Y-261000D02*
X913000Y-272000D01*
X900000Y-272000D01*
X911000Y-261000D01*
X924000Y-261000D01*
G37*
G54D10*
X924000Y-261000D02*
X913000Y-272000D01*
X900000Y-272000D01*
X911000Y-261000D01*
X924000Y-261000D01*
G54D13*
X791319Y-284056D02*
X791319Y-279306D01*
G54D13*
X791319Y-280150D02*
X793008Y-279306D01*
X794697Y-279622D01*
X795541Y-280361D01*
X795541Y-284056D01*
G54D13*
X795541Y-280150D02*
X797230Y-279306D01*
X798919Y-279622D01*
X799763Y-280361D01*
X799763Y-284056D01*
G54D13*
X802719Y-279833D02*
X804408Y-279306D01*
X806435Y-279306D01*
X807786Y-280361D01*
X807786Y-284056D01*
G54D13*
X807786Y-282472D02*
X806941Y-281417D01*
X805252Y-281206D01*
X803563Y-281417D01*
X802719Y-282472D01*
X803057Y-283528D01*
X804408Y-284056D01*
X805252Y-284056D01*
X805590Y-284056D01*
X806941Y-283528D01*
X807786Y-282472D01*
G54D13*
X810742Y-284056D02*
X810742Y-275611D01*
G54D13*
X813275Y-280889D02*
X815809Y-284056D01*
G54D13*
X810742Y-281944D02*
X815809Y-279306D01*
G54D13*
X823832Y-283528D02*
X822481Y-284056D01*
X820792Y-284056D01*
X819103Y-283528D01*
X818765Y-282472D01*
X818765Y-280678D01*
X819609Y-279622D01*
X821298Y-279306D01*
X822987Y-279622D01*
X823832Y-280361D01*
X823832Y-281417D01*
X818765Y-281417D01*
G54D13*
X826788Y-280361D02*
X833544Y-280361D01*
G54D13*
X836500Y-284056D02*
X836500Y-275611D01*
G54D13*
X836500Y-280678D02*
X837344Y-279622D01*
X839033Y-279306D01*
X840722Y-279622D01*
X841567Y-280678D01*
X841567Y-282789D01*
X840722Y-283844D01*
X839033Y-284056D01*
X837344Y-283844D01*
X836500Y-282789D01*
G54D13*
X849590Y-283528D02*
X848239Y-284056D01*
X846550Y-284056D01*
X844861Y-283528D01*
X844523Y-282472D01*
X844523Y-280678D01*
X845367Y-279622D01*
X847056Y-279306D01*
X848745Y-279622D01*
X849590Y-280361D01*
X849590Y-281417D01*
X844523Y-281417D01*
G54D13*
X854235Y-284056D02*
X854235Y-276139D01*
X855079Y-275611D01*
X855924Y-275928D01*
G54D13*
X852546Y-279306D02*
X855924Y-279306D01*
G54D13*
X863947Y-282789D02*
X863947Y-280678D01*
X863102Y-279622D01*
X861413Y-279306D01*
X859724Y-279622D01*
X858880Y-280678D01*
X858880Y-282789D01*
X859724Y-283844D01*
X861413Y-284056D01*
X863102Y-283844D01*
X863947Y-282789D01*
G54D13*
X866903Y-284056D02*
X866903Y-279306D01*
G54D13*
X866903Y-280361D02*
X868592Y-279306D01*
X870281Y-279306D01*
G54D13*
X878304Y-283528D02*
X876953Y-284056D01*
X875264Y-284056D01*
X873575Y-283528D01*
X873237Y-282472D01*
X873237Y-280678D01*
X874081Y-279622D01*
X875770Y-279306D01*
X877459Y-279622D01*
X878304Y-280361D01*
X878304Y-281417D01*
X873237Y-281417D01*
G54D13*
X881260Y-280361D02*
X888016Y-280361D01*
G54D13*
X890972Y-284056D02*
X890972Y-275611D01*
G54D13*
X890972Y-280678D02*
X891816Y-279622D01*
X893505Y-279306D01*
X895194Y-279622D01*
X896039Y-280678D01*
X896039Y-282789D01*
X895194Y-283844D01*
X893505Y-284056D01*
X891816Y-283844D01*
X890972Y-282789D01*
G54D13*
X898995Y-284056D02*
X898995Y-279306D01*
G54D13*
X898995Y-280361D02*
X900684Y-279306D01*
X902373Y-279306D01*
G54D13*
X910396Y-283528D02*
X909044Y-284056D01*
X907356Y-284056D01*
X905667Y-283528D01*
X905329Y-282472D01*
X905329Y-280678D01*
X906173Y-279622D01*
X907862Y-279306D01*
X909551Y-279622D01*
X910396Y-280361D01*
X910396Y-281417D01*
X905329Y-281417D01*
G54D13*
X913352Y-279833D02*
X915041Y-279306D01*
X917068Y-279306D01*
X918419Y-280361D01*
X918419Y-284056D01*
G54D13*
X918419Y-282472D02*
X917574Y-281417D01*
X915885Y-281206D01*
X914196Y-281417D01*
X913352Y-282472D01*
X913690Y-283528D01*
X915041Y-284056D01*
X915885Y-284056D01*
X916223Y-284056D01*
X917574Y-283528D01*
X918419Y-282472D01*
G54D13*
X921375Y-284056D02*
X921375Y-275611D01*
G54D13*
X923908Y-280889D02*
X926442Y-284056D01*
G54D13*
X921375Y-281944D02*
X926442Y-279306D01*
G54D10*
X159000Y-474000D02*
X9000Y-474000D01*
G54D11*
X66319Y-566278D02*
X68764Y-576056D01*
X71208Y-566278D01*
G54D11*
X74630Y-576056D02*
X77074Y-566278D01*
X79519Y-576056D01*
G54D11*
X75608Y-572389D02*
X78541Y-572389D01*
G54D11*
X82941Y-566278D02*
X82941Y-576056D01*
X86363Y-576056D01*
G54D11*
X89785Y-566278D02*
X89785Y-574222D01*
X90274Y-575444D01*
X91252Y-576056D01*
X92230Y-576056D01*
X93207Y-575444D01*
X93696Y-574222D01*
X93696Y-566278D01*
G54D11*
X100540Y-576056D02*
X97118Y-576056D01*
X97118Y-566278D01*
X100540Y-566278D01*
G54D11*
X97118Y-571167D02*
X100540Y-571167D01*
G36*
X13669Y-517919D02*
X153669Y-517919D01*
X153669Y-559919D01*
X13669Y-559919D01*
X13669Y-517919D01*
G37*
G54D12*
X13669Y-517919D02*
X153669Y-517919D01*
X153669Y-559919D01*
X13669Y-559919D01*
X13669Y-517919D01*
G54D10*
X9000Y-324000D02*
X19000Y-314000D01*
X149000Y-314000D01*
X159000Y-324000D01*
X159000Y-612500D01*
X9000Y-612500D01*
X9000Y-324000D01*
G36*
X63000Y-566000D02*
X52000Y-577000D01*
X39000Y-577000D01*
X50000Y-566000D01*
X63000Y-566000D01*
G37*
G54D10*
X63000Y-566000D02*
X52000Y-577000D01*
X39000Y-577000D01*
X50000Y-566000D01*
X63000Y-566000D01*
G36*
X43000Y-566000D02*
X32000Y-577000D01*
X19000Y-577000D01*
X30000Y-566000D01*
X43000Y-566000D01*
G37*
G54D10*
X43000Y-566000D02*
X32000Y-577000D01*
X19000Y-577000D01*
X30000Y-566000D01*
X43000Y-566000D01*
G36*
X129000Y-566000D02*
X118000Y-577000D01*
X105000Y-577000D01*
X116000Y-566000D01*
X129000Y-566000D01*
G37*
G54D10*
X129000Y-566000D02*
X118000Y-577000D01*
X105000Y-577000D01*
X116000Y-566000D01*
X129000Y-566000D01*
G36*
X149000Y-566000D02*
X138000Y-577000D01*
X125000Y-577000D01*
X136000Y-566000D01*
X149000Y-566000D01*
G37*
G54D10*
X149000Y-566000D02*
X138000Y-577000D01*
X125000Y-577000D01*
X136000Y-566000D01*
X149000Y-566000D01*
G54D13*
X16319Y-589056D02*
X16319Y-584306D01*
G54D13*
X16319Y-585150D02*
X18008Y-584306D01*
X19697Y-584622D01*
X20541Y-585361D01*
X20541Y-589056D01*
G54D13*
X20541Y-585150D02*
X22230Y-584306D01*
X23919Y-584622D01*
X24764Y-585361D01*
X24764Y-589056D01*
G54D13*
X27719Y-584833D02*
X29408Y-584306D01*
X31434Y-584306D01*
X32786Y-585361D01*
X32786Y-589056D01*
G54D13*
X32786Y-587472D02*
X31941Y-586417D01*
X30252Y-586206D01*
X28564Y-586417D01*
X27719Y-587472D01*
X28057Y-588528D01*
X29408Y-589056D01*
X30252Y-589056D01*
X30590Y-589056D01*
X31941Y-588528D01*
X32786Y-587472D01*
G54D13*
X35742Y-589056D02*
X35742Y-580611D01*
G54D13*
X38275Y-585889D02*
X40809Y-589056D01*
G54D13*
X35742Y-586944D02*
X40809Y-584306D01*
G54D13*
X48832Y-588528D02*
X47480Y-589056D01*
X45792Y-589056D01*
X44103Y-588528D01*
X43765Y-587472D01*
X43765Y-585678D01*
X44610Y-584622D01*
X46298Y-584306D01*
X47987Y-584622D01*
X48832Y-585361D01*
X48832Y-586417D01*
X43765Y-586417D01*
G54D13*
X51788Y-585361D02*
X58544Y-585361D01*
G54D13*
X61500Y-589056D02*
X61500Y-580611D01*
G54D13*
X61500Y-585678D02*
X62344Y-584622D01*
X64033Y-584306D01*
X65722Y-584622D01*
X66567Y-585678D01*
X66567Y-587789D01*
X65722Y-588844D01*
X64033Y-589056D01*
X62344Y-588844D01*
X61500Y-587789D01*
G54D13*
X74590Y-588528D02*
X73238Y-589056D01*
X71550Y-589056D01*
X69861Y-588528D01*
X69523Y-587472D01*
X69523Y-585678D01*
X70368Y-584622D01*
X72056Y-584306D01*
X73745Y-584622D01*
X74590Y-585361D01*
X74590Y-586417D01*
X69523Y-586417D01*
G54D13*
X79235Y-589056D02*
X79235Y-581139D01*
X80079Y-580611D01*
X80924Y-580928D01*
G54D13*
X77546Y-584306D02*
X80924Y-584306D01*
G54D13*
X88947Y-587789D02*
X88947Y-585678D01*
X88102Y-584622D01*
X86413Y-584306D01*
X84724Y-584622D01*
X83880Y-585678D01*
X83880Y-587789D01*
X84724Y-588844D01*
X86413Y-589056D01*
X88102Y-588844D01*
X88947Y-587789D01*
G54D13*
X91903Y-589056D02*
X91903Y-584306D01*
G54D13*
X91903Y-585361D02*
X93592Y-584306D01*
X95281Y-584306D01*
G54D13*
X103304Y-588528D02*
X101952Y-589056D01*
X100264Y-589056D01*
X98575Y-588528D01*
X98237Y-587472D01*
X98237Y-585678D01*
X99082Y-584622D01*
X100770Y-584306D01*
X102459Y-584622D01*
X103304Y-585361D01*
X103304Y-586417D01*
X98237Y-586417D01*
G54D13*
X106260Y-585361D02*
X113016Y-585361D01*
G54D13*
X115972Y-589056D02*
X115972Y-580611D01*
G54D13*
X115972Y-585678D02*
X116816Y-584622D01*
X118505Y-584306D01*
X120194Y-584622D01*
X121039Y-585678D01*
X121039Y-587789D01*
X120194Y-588844D01*
X118505Y-589056D01*
X116816Y-588844D01*
X115972Y-587789D01*
G54D13*
X123995Y-589056D02*
X123995Y-584306D01*
G54D13*
X123995Y-585361D02*
X125684Y-584306D01*
X127373Y-584306D01*
G54D13*
X135396Y-588528D02*
X134044Y-589056D01*
X132356Y-589056D01*
X130667Y-588528D01*
X130329Y-587472D01*
X130329Y-585678D01*
X131173Y-584622D01*
X132862Y-584306D01*
X134551Y-584622D01*
X135396Y-585361D01*
X135396Y-586417D01*
X130329Y-586417D01*
G54D13*
X138352Y-584833D02*
X140041Y-584306D01*
X142068Y-584306D01*
X143419Y-585361D01*
X143419Y-589056D01*
G54D13*
X143419Y-587472D02*
X142574Y-586417D01*
X140885Y-586206D01*
X139196Y-586417D01*
X138352Y-587472D01*
X138690Y-588528D01*
X140041Y-589056D01*
X140885Y-589056D01*
X141223Y-589056D01*
X142574Y-588528D01*
X143419Y-587472D01*
G54D13*
X146375Y-589056D02*
X146375Y-580611D01*
G54D13*
X148908Y-585889D02*
X151442Y-589056D01*
G54D13*
X146375Y-586944D02*
X151442Y-584306D01*
G54D10*
X314000Y-474000D02*
X164000Y-474000D01*
G54D11*
X221319Y-566278D02*
X223764Y-576056D01*
X226208Y-566278D01*
G54D11*
X229630Y-576056D02*
X232074Y-566278D01*
X234519Y-576056D01*
G54D11*
X230608Y-572389D02*
X233541Y-572389D01*
G54D11*
X237941Y-566278D02*
X237941Y-576056D01*
X241363Y-576056D01*
G54D11*
X244785Y-566278D02*
X244785Y-574222D01*
X245274Y-575444D01*
X246252Y-576056D01*
X247230Y-576056D01*
X248207Y-575444D01*
X248696Y-574222D01*
X248696Y-566278D01*
G54D11*
X255540Y-576056D02*
X252118Y-576056D01*
X252118Y-566278D01*
X255540Y-566278D01*
G54D11*
X252118Y-571167D02*
X255540Y-571167D01*
G36*
X168669Y-517919D02*
X308669Y-517919D01*
X308669Y-559919D01*
X168669Y-559919D01*
X168669Y-517919D01*
G37*
G54D12*
X168669Y-517919D02*
X308669Y-517919D01*
X308669Y-559919D01*
X168669Y-559919D01*
X168669Y-517919D01*
G54D10*
X164000Y-324000D02*
X174000Y-314000D01*
X304000Y-314000D01*
X314000Y-324000D01*
X314000Y-612500D01*
X164000Y-612500D01*
X164000Y-324000D01*
G36*
X218000Y-566000D02*
X207000Y-577000D01*
X194000Y-577000D01*
X205000Y-566000D01*
X218000Y-566000D01*
G37*
G54D10*
X218000Y-566000D02*
X207000Y-577000D01*
X194000Y-577000D01*
X205000Y-566000D01*
X218000Y-566000D01*
G36*
X198000Y-566000D02*
X187000Y-577000D01*
X174000Y-577000D01*
X185000Y-566000D01*
X198000Y-566000D01*
G37*
G54D10*
X198000Y-566000D02*
X187000Y-577000D01*
X174000Y-577000D01*
X185000Y-566000D01*
X198000Y-566000D01*
G36*
X284000Y-566000D02*
X273000Y-577000D01*
X260000Y-577000D01*
X271000Y-566000D01*
X284000Y-566000D01*
G37*
G54D10*
X284000Y-566000D02*
X273000Y-577000D01*
X260000Y-577000D01*
X271000Y-566000D01*
X284000Y-566000D01*
G36*
X304000Y-566000D02*
X293000Y-577000D01*
X280000Y-577000D01*
X291000Y-566000D01*
X304000Y-566000D01*
G37*
G54D10*
X304000Y-566000D02*
X293000Y-577000D01*
X280000Y-577000D01*
X291000Y-566000D01*
X304000Y-566000D01*
G54D13*
X171319Y-589056D02*
X171319Y-584306D01*
G54D13*
X171319Y-585150D02*
X173008Y-584306D01*
X174697Y-584622D01*
X175541Y-585361D01*
X175541Y-589056D01*
G54D13*
X175541Y-585150D02*
X177230Y-584306D01*
X178919Y-584622D01*
X179764Y-585361D01*
X179764Y-589056D01*
G54D13*
X182719Y-584833D02*
X184408Y-584306D01*
X186434Y-584306D01*
X187786Y-585361D01*
X187786Y-589056D01*
G54D13*
X187786Y-587472D02*
X186941Y-586417D01*
X185252Y-586206D01*
X183564Y-586417D01*
X182719Y-587472D01*
X183057Y-588528D01*
X184408Y-589056D01*
X185252Y-589056D01*
X185590Y-589056D01*
X186941Y-588528D01*
X187786Y-587472D01*
G54D13*
X190742Y-589056D02*
X190742Y-580611D01*
G54D13*
X193275Y-585889D02*
X195809Y-589056D01*
G54D13*
X190742Y-586944D02*
X195809Y-584306D01*
G54D13*
X203832Y-588528D02*
X202480Y-589056D01*
X200792Y-589056D01*
X199103Y-588528D01*
X198765Y-587472D01*
X198765Y-585678D01*
X199610Y-584622D01*
X201298Y-584306D01*
X202987Y-584622D01*
X203832Y-585361D01*
X203832Y-586417D01*
X198765Y-586417D01*
G54D13*
X206788Y-585361D02*
X213544Y-585361D01*
G54D13*
X216500Y-589056D02*
X216500Y-580611D01*
G54D13*
X216500Y-585678D02*
X217344Y-584622D01*
X219033Y-584306D01*
X220722Y-584622D01*
X221567Y-585678D01*
X221567Y-587789D01*
X220722Y-588844D01*
X219033Y-589056D01*
X217344Y-588844D01*
X216500Y-587789D01*
G54D13*
X229590Y-588528D02*
X228238Y-589056D01*
X226550Y-589056D01*
X224861Y-588528D01*
X224523Y-587472D01*
X224523Y-585678D01*
X225368Y-584622D01*
X227056Y-584306D01*
X228745Y-584622D01*
X229590Y-585361D01*
X229590Y-586417D01*
X224523Y-586417D01*
G54D13*
X234235Y-589056D02*
X234235Y-581139D01*
X235079Y-580611D01*
X235924Y-580928D01*
G54D13*
X232546Y-584306D02*
X235924Y-584306D01*
G54D13*
X243947Y-587789D02*
X243947Y-585678D01*
X243102Y-584622D01*
X241413Y-584306D01*
X239724Y-584622D01*
X238880Y-585678D01*
X238880Y-587789D01*
X239724Y-588844D01*
X241413Y-589056D01*
X243102Y-588844D01*
X243947Y-587789D01*
G54D13*
X246903Y-589056D02*
X246903Y-584306D01*
G54D13*
X246903Y-585361D02*
X248592Y-584306D01*
X250281Y-584306D01*
G54D13*
X258304Y-588528D02*
X256952Y-589056D01*
X255264Y-589056D01*
X253575Y-588528D01*
X253237Y-587472D01*
X253237Y-585678D01*
X254082Y-584622D01*
X255770Y-584306D01*
X257459Y-584622D01*
X258304Y-585361D01*
X258304Y-586417D01*
X253237Y-586417D01*
G54D13*
X261260Y-585361D02*
X268016Y-585361D01*
G54D13*
X270972Y-589056D02*
X270972Y-580611D01*
G54D13*
X270972Y-585678D02*
X271816Y-584622D01*
X273505Y-584306D01*
X275194Y-584622D01*
X276039Y-585678D01*
X276039Y-587789D01*
X275194Y-588844D01*
X273505Y-589056D01*
X271816Y-588844D01*
X270972Y-587789D01*
G54D13*
X278995Y-589056D02*
X278995Y-584306D01*
G54D13*
X278995Y-585361D02*
X280684Y-584306D01*
X282373Y-584306D01*
G54D13*
X290396Y-588528D02*
X289044Y-589056D01*
X287356Y-589056D01*
X285667Y-588528D01*
X285329Y-587472D01*
X285329Y-585678D01*
X286173Y-584622D01*
X287862Y-584306D01*
X289551Y-584622D01*
X290396Y-585361D01*
X290396Y-586417D01*
X285329Y-586417D01*
G54D13*
X293352Y-584833D02*
X295041Y-584306D01*
X297068Y-584306D01*
X298419Y-585361D01*
X298419Y-589056D01*
G54D13*
X298419Y-587472D02*
X297574Y-586417D01*
X295885Y-586206D01*
X294196Y-586417D01*
X293352Y-587472D01*
X293690Y-588528D01*
X295041Y-589056D01*
X295885Y-589056D01*
X296223Y-589056D01*
X297574Y-588528D01*
X298419Y-587472D01*
G54D13*
X301375Y-589056D02*
X301375Y-580611D01*
G54D13*
X303908Y-585889D02*
X306442Y-589056D01*
G54D13*
X301375Y-586944D02*
X306442Y-584306D01*
G54D10*
X469000Y-474000D02*
X319000Y-474000D01*
G54D11*
X376319Y-566278D02*
X378764Y-576056D01*
X381208Y-566278D01*
G54D11*
X384630Y-576056D02*
X387074Y-566278D01*
X389519Y-576056D01*
G54D11*
X385608Y-572389D02*
X388541Y-572389D01*
G54D11*
X392941Y-566278D02*
X392941Y-576056D01*
X396363Y-576056D01*
G54D11*
X399785Y-566278D02*
X399785Y-574222D01*
X400274Y-575444D01*
X401252Y-576056D01*
X402230Y-576056D01*
X403207Y-575444D01*
X403696Y-574222D01*
X403696Y-566278D01*
G54D11*
X410540Y-576056D02*
X407118Y-576056D01*
X407118Y-566278D01*
X410540Y-566278D01*
G54D11*
X407118Y-571167D02*
X410540Y-571167D01*
G36*
X323669Y-517919D02*
X463669Y-517919D01*
X463669Y-559919D01*
X323669Y-559919D01*
X323669Y-517919D01*
G37*
G54D12*
X323669Y-517919D02*
X463669Y-517919D01*
X463669Y-559919D01*
X323669Y-559919D01*
X323669Y-517919D01*
G54D10*
X319000Y-324000D02*
X329000Y-314000D01*
X459000Y-314000D01*
X469000Y-324000D01*
X469000Y-612500D01*
X319000Y-612500D01*
X319000Y-324000D01*
G36*
X373000Y-566000D02*
X362000Y-577000D01*
X349000Y-577000D01*
X360000Y-566000D01*
X373000Y-566000D01*
G37*
G54D10*
X373000Y-566000D02*
X362000Y-577000D01*
X349000Y-577000D01*
X360000Y-566000D01*
X373000Y-566000D01*
G36*
X353000Y-566000D02*
X342000Y-577000D01*
X329000Y-577000D01*
X340000Y-566000D01*
X353000Y-566000D01*
G37*
G54D10*
X353000Y-566000D02*
X342000Y-577000D01*
X329000Y-577000D01*
X340000Y-566000D01*
X353000Y-566000D01*
G36*
X439000Y-566000D02*
X428000Y-577000D01*
X415000Y-577000D01*
X426000Y-566000D01*
X439000Y-566000D01*
G37*
G54D10*
X439000Y-566000D02*
X428000Y-577000D01*
X415000Y-577000D01*
X426000Y-566000D01*
X439000Y-566000D01*
G36*
X459000Y-566000D02*
X448000Y-577000D01*
X435000Y-577000D01*
X446000Y-566000D01*
X459000Y-566000D01*
G37*
G54D10*
X459000Y-566000D02*
X448000Y-577000D01*
X435000Y-577000D01*
X446000Y-566000D01*
X459000Y-566000D01*
G54D13*
X326319Y-589056D02*
X326319Y-584306D01*
G54D13*
X326319Y-585150D02*
X328008Y-584306D01*
X329697Y-584622D01*
X330541Y-585361D01*
X330541Y-589056D01*
G54D13*
X330541Y-585150D02*
X332230Y-584306D01*
X333919Y-584622D01*
X334764Y-585361D01*
X334764Y-589056D01*
G54D13*
X337719Y-584833D02*
X339408Y-584306D01*
X341434Y-584306D01*
X342786Y-585361D01*
X342786Y-589056D01*
G54D13*
X342786Y-587472D02*
X341941Y-586417D01*
X340252Y-586206D01*
X338564Y-586417D01*
X337719Y-587472D01*
X338057Y-588528D01*
X339408Y-589056D01*
X340252Y-589056D01*
X340590Y-589056D01*
X341941Y-588528D01*
X342786Y-587472D01*
G54D13*
X345742Y-589056D02*
X345742Y-580611D01*
G54D13*
X348275Y-585889D02*
X350809Y-589056D01*
G54D13*
X345742Y-586944D02*
X350809Y-584306D01*
G54D13*
X358832Y-588528D02*
X357480Y-589056D01*
X355792Y-589056D01*
X354103Y-588528D01*
X353765Y-587472D01*
X353765Y-585678D01*
X354610Y-584622D01*
X356298Y-584306D01*
X357987Y-584622D01*
X358832Y-585361D01*
X358832Y-586417D01*
X353765Y-586417D01*
G54D13*
X361788Y-585361D02*
X368544Y-585361D01*
G54D13*
X371500Y-589056D02*
X371500Y-580611D01*
G54D13*
X371500Y-585678D02*
X372344Y-584622D01*
X374033Y-584306D01*
X375722Y-584622D01*
X376567Y-585678D01*
X376567Y-587789D01*
X375722Y-588844D01*
X374033Y-589056D01*
X372344Y-588844D01*
X371500Y-587789D01*
G54D13*
X384590Y-588528D02*
X383238Y-589056D01*
X381550Y-589056D01*
X379861Y-588528D01*
X379523Y-587472D01*
X379523Y-585678D01*
X380368Y-584622D01*
X382056Y-584306D01*
X383745Y-584622D01*
X384590Y-585361D01*
X384590Y-586417D01*
X379523Y-586417D01*
G54D13*
X389235Y-589056D02*
X389235Y-581139D01*
X390079Y-580611D01*
X390924Y-580928D01*
G54D13*
X387546Y-584306D02*
X390924Y-584306D01*
G54D13*
X398947Y-587789D02*
X398947Y-585678D01*
X398102Y-584622D01*
X396413Y-584306D01*
X394724Y-584622D01*
X393880Y-585678D01*
X393880Y-587789D01*
X394724Y-588844D01*
X396413Y-589056D01*
X398102Y-588844D01*
X398947Y-587789D01*
G54D13*
X401903Y-589056D02*
X401903Y-584306D01*
G54D13*
X401903Y-585361D02*
X403592Y-584306D01*
X405281Y-584306D01*
G54D13*
X413304Y-588528D02*
X411952Y-589056D01*
X410264Y-589056D01*
X408575Y-588528D01*
X408237Y-587472D01*
X408237Y-585678D01*
X409082Y-584622D01*
X410770Y-584306D01*
X412459Y-584622D01*
X413304Y-585361D01*
X413304Y-586417D01*
X408237Y-586417D01*
G54D13*
X416260Y-585361D02*
X423016Y-585361D01*
G54D13*
X425972Y-589056D02*
X425972Y-580611D01*
G54D13*
X425972Y-585678D02*
X426816Y-584622D01*
X428505Y-584306D01*
X430194Y-584622D01*
X431039Y-585678D01*
X431039Y-587789D01*
X430194Y-588844D01*
X428505Y-589056D01*
X426816Y-588844D01*
X425972Y-587789D01*
G54D13*
X433995Y-589056D02*
X433995Y-584306D01*
G54D13*
X433995Y-585361D02*
X435684Y-584306D01*
X437373Y-584306D01*
G54D13*
X445396Y-588528D02*
X444044Y-589056D01*
X442356Y-589056D01*
X440667Y-588528D01*
X440329Y-587472D01*
X440329Y-585678D01*
X441173Y-584622D01*
X442862Y-584306D01*
X444551Y-584622D01*
X445396Y-585361D01*
X445396Y-586417D01*
X440329Y-586417D01*
G54D13*
X448352Y-584833D02*
X450041Y-584306D01*
X452068Y-584306D01*
X453419Y-585361D01*
X453419Y-589056D01*
G54D13*
X453419Y-587472D02*
X452574Y-586417D01*
X450885Y-586206D01*
X449196Y-586417D01*
X448352Y-587472D01*
X448690Y-588528D01*
X450041Y-589056D01*
X450885Y-589056D01*
X451223Y-589056D01*
X452574Y-588528D01*
X453419Y-587472D01*
G54D13*
X456375Y-589056D02*
X456375Y-580611D01*
G54D13*
X458908Y-585889D02*
X461442Y-589056D01*
G54D13*
X456375Y-586944D02*
X461442Y-584306D01*
G54D10*
X624000Y-474000D02*
X474000Y-474000D01*
G54D11*
X531319Y-566278D02*
X533764Y-576056D01*
X536208Y-566278D01*
G54D11*
X539630Y-576056D02*
X542074Y-566278D01*
X544519Y-576056D01*
G54D11*
X540608Y-572389D02*
X543541Y-572389D01*
G54D11*
X547941Y-566278D02*
X547941Y-576056D01*
X551363Y-576056D01*
G54D11*
X554785Y-566278D02*
X554785Y-574222D01*
X555274Y-575444D01*
X556252Y-576056D01*
X557230Y-576056D01*
X558207Y-575444D01*
X558696Y-574222D01*
X558696Y-566278D01*
G54D11*
X565540Y-576056D02*
X562118Y-576056D01*
X562118Y-566278D01*
X565540Y-566278D01*
G54D11*
X562118Y-571167D02*
X565540Y-571167D01*
G36*
X478669Y-517919D02*
X618669Y-517919D01*
X618669Y-559919D01*
X478669Y-559919D01*
X478669Y-517919D01*
G37*
G54D12*
X478669Y-517919D02*
X618669Y-517919D01*
X618669Y-559919D01*
X478669Y-559919D01*
X478669Y-517919D01*
G54D10*
X474000Y-324000D02*
X484000Y-314000D01*
X614000Y-314000D01*
X624000Y-324000D01*
X624000Y-612500D01*
X474000Y-612500D01*
X474000Y-324000D01*
G36*
X528000Y-566000D02*
X517000Y-577000D01*
X504000Y-577000D01*
X515000Y-566000D01*
X528000Y-566000D01*
G37*
G54D10*
X528000Y-566000D02*
X517000Y-577000D01*
X504000Y-577000D01*
X515000Y-566000D01*
X528000Y-566000D01*
G36*
X508000Y-566000D02*
X497000Y-577000D01*
X484000Y-577000D01*
X495000Y-566000D01*
X508000Y-566000D01*
G37*
G54D10*
X508000Y-566000D02*
X497000Y-577000D01*
X484000Y-577000D01*
X495000Y-566000D01*
X508000Y-566000D01*
G36*
X594000Y-566000D02*
X583000Y-577000D01*
X570000Y-577000D01*
X581000Y-566000D01*
X594000Y-566000D01*
G37*
G54D10*
X594000Y-566000D02*
X583000Y-577000D01*
X570000Y-577000D01*
X581000Y-566000D01*
X594000Y-566000D01*
G36*
X614000Y-566000D02*
X603000Y-577000D01*
X590000Y-577000D01*
X601000Y-566000D01*
X614000Y-566000D01*
G37*
G54D10*
X614000Y-566000D02*
X603000Y-577000D01*
X590000Y-577000D01*
X601000Y-566000D01*
X614000Y-566000D01*
G54D13*
X481319Y-589056D02*
X481319Y-584306D01*
G54D13*
X481319Y-585150D02*
X483008Y-584306D01*
X484697Y-584622D01*
X485541Y-585361D01*
X485541Y-589056D01*
G54D13*
X485541Y-585150D02*
X487230Y-584306D01*
X488919Y-584622D01*
X489764Y-585361D01*
X489764Y-589056D01*
G54D13*
X492719Y-584833D02*
X494408Y-584306D01*
X496434Y-584306D01*
X497786Y-585361D01*
X497786Y-589056D01*
G54D13*
X497786Y-587472D02*
X496941Y-586417D01*
X495252Y-586206D01*
X493564Y-586417D01*
X492719Y-587472D01*
X493057Y-588528D01*
X494408Y-589056D01*
X495252Y-589056D01*
X495590Y-589056D01*
X496941Y-588528D01*
X497786Y-587472D01*
G54D13*
X500742Y-589056D02*
X500742Y-580611D01*
G54D13*
X503275Y-585889D02*
X505809Y-589056D01*
G54D13*
X500742Y-586944D02*
X505809Y-584306D01*
G54D13*
X513832Y-588528D02*
X512480Y-589056D01*
X510792Y-589056D01*
X509103Y-588528D01*
X508765Y-587472D01*
X508765Y-585678D01*
X509610Y-584622D01*
X511298Y-584306D01*
X512987Y-584622D01*
X513832Y-585361D01*
X513832Y-586417D01*
X508765Y-586417D01*
G54D13*
X516788Y-585361D02*
X523544Y-585361D01*
G54D13*
X526500Y-589056D02*
X526500Y-580611D01*
G54D13*
X526500Y-585678D02*
X527344Y-584622D01*
X529033Y-584306D01*
X530722Y-584622D01*
X531567Y-585678D01*
X531567Y-587789D01*
X530722Y-588844D01*
X529033Y-589056D01*
X527344Y-588844D01*
X526500Y-587789D01*
G54D13*
X539590Y-588528D02*
X538238Y-589056D01*
X536550Y-589056D01*
X534861Y-588528D01*
X534523Y-587472D01*
X534523Y-585678D01*
X535368Y-584622D01*
X537056Y-584306D01*
X538745Y-584622D01*
X539590Y-585361D01*
X539590Y-586417D01*
X534523Y-586417D01*
G54D13*
X544235Y-589056D02*
X544235Y-581139D01*
X545079Y-580611D01*
X545924Y-580928D01*
G54D13*
X542546Y-584306D02*
X545924Y-584306D01*
G54D13*
X553947Y-587789D02*
X553947Y-585678D01*
X553102Y-584622D01*
X551413Y-584306D01*
X549724Y-584622D01*
X548880Y-585678D01*
X548880Y-587789D01*
X549724Y-588844D01*
X551413Y-589056D01*
X553102Y-588844D01*
X553947Y-587789D01*
G54D13*
X556903Y-589056D02*
X556903Y-584306D01*
G54D13*
X556903Y-585361D02*
X558592Y-584306D01*
X560281Y-584306D01*
G54D13*
X568304Y-588528D02*
X566953Y-589056D01*
X565264Y-589056D01*
X563575Y-588528D01*
X563237Y-587472D01*
X563237Y-585678D01*
X564081Y-584622D01*
X565770Y-584306D01*
X567459Y-584622D01*
X568304Y-585361D01*
X568304Y-586417D01*
X563237Y-586417D01*
G54D13*
X571260Y-585361D02*
X578016Y-585361D01*
G54D13*
X580972Y-589056D02*
X580972Y-580611D01*
G54D13*
X580972Y-585678D02*
X581816Y-584622D01*
X583505Y-584306D01*
X585194Y-584622D01*
X586039Y-585678D01*
X586039Y-587789D01*
X585194Y-588844D01*
X583505Y-589056D01*
X581816Y-588844D01*
X580972Y-587789D01*
G54D13*
X588995Y-589056D02*
X588995Y-584306D01*
G54D13*
X588995Y-585361D02*
X590684Y-584306D01*
X592373Y-584306D01*
G54D13*
X600396Y-588528D02*
X599044Y-589056D01*
X597356Y-589056D01*
X595667Y-588528D01*
X595329Y-587472D01*
X595329Y-585678D01*
X596173Y-584622D01*
X597862Y-584306D01*
X599551Y-584622D01*
X600396Y-585361D01*
X600396Y-586417D01*
X595329Y-586417D01*
G54D13*
X603352Y-584833D02*
X605041Y-584306D01*
X607068Y-584306D01*
X608419Y-585361D01*
X608419Y-589056D01*
G54D13*
X608419Y-587472D02*
X607574Y-586417D01*
X605885Y-586206D01*
X604196Y-586417D01*
X603352Y-587472D01*
X603690Y-588528D01*
X605041Y-589056D01*
X605885Y-589056D01*
X606223Y-589056D01*
X607574Y-588528D01*
X608419Y-587472D01*
G54D13*
X611375Y-589056D02*
X611375Y-580611D01*
G54D13*
X613908Y-585889D02*
X616442Y-589056D01*
G54D13*
X611375Y-586944D02*
X616442Y-584306D01*
G54D10*
X779000Y-474000D02*
X629000Y-474000D01*
G54D11*
X686319Y-566278D02*
X688764Y-576056D01*
X691208Y-566278D01*
G54D11*
X694630Y-576056D02*
X697074Y-566278D01*
X699519Y-576056D01*
G54D11*
X695608Y-572389D02*
X698541Y-572389D01*
G54D11*
X702941Y-566278D02*
X702941Y-576056D01*
X706363Y-576056D01*
G54D11*
X709785Y-566278D02*
X709785Y-574222D01*
X710274Y-575444D01*
X711252Y-576056D01*
X712230Y-576056D01*
X713207Y-575444D01*
X713696Y-574222D01*
X713696Y-566278D01*
G54D11*
X720540Y-576056D02*
X717118Y-576056D01*
X717118Y-566278D01*
X720540Y-566278D01*
G54D11*
X717118Y-571167D02*
X720540Y-571167D01*
G36*
X633669Y-517919D02*
X773669Y-517919D01*
X773669Y-559919D01*
X633669Y-559919D01*
X633669Y-517919D01*
G37*
G54D12*
X633669Y-517919D02*
X773669Y-517919D01*
X773669Y-559919D01*
X633669Y-559919D01*
X633669Y-517919D01*
G54D10*
X629000Y-324000D02*
X639000Y-314000D01*
X769000Y-314000D01*
X779000Y-324000D01*
X779000Y-612500D01*
X629000Y-612500D01*
X629000Y-324000D01*
G36*
X683000Y-566000D02*
X672000Y-577000D01*
X659000Y-577000D01*
X670000Y-566000D01*
X683000Y-566000D01*
G37*
G54D10*
X683000Y-566000D02*
X672000Y-577000D01*
X659000Y-577000D01*
X670000Y-566000D01*
X683000Y-566000D01*
G36*
X663000Y-566000D02*
X652000Y-577000D01*
X639000Y-577000D01*
X650000Y-566000D01*
X663000Y-566000D01*
G37*
G54D10*
X663000Y-566000D02*
X652000Y-577000D01*
X639000Y-577000D01*
X650000Y-566000D01*
X663000Y-566000D01*
G36*
X749000Y-566000D02*
X738000Y-577000D01*
X725000Y-577000D01*
X736000Y-566000D01*
X749000Y-566000D01*
G37*
G54D10*
X749000Y-566000D02*
X738000Y-577000D01*
X725000Y-577000D01*
X736000Y-566000D01*
X749000Y-566000D01*
G36*
X769000Y-566000D02*
X758000Y-577000D01*
X745000Y-577000D01*
X756000Y-566000D01*
X769000Y-566000D01*
G37*
G54D10*
X769000Y-566000D02*
X758000Y-577000D01*
X745000Y-577000D01*
X756000Y-566000D01*
X769000Y-566000D01*
G54D13*
X636319Y-589056D02*
X636319Y-584306D01*
G54D13*
X636319Y-585150D02*
X638008Y-584306D01*
X639697Y-584622D01*
X640541Y-585361D01*
X640541Y-589056D01*
G54D13*
X640541Y-585150D02*
X642230Y-584306D01*
X643919Y-584622D01*
X644763Y-585361D01*
X644763Y-589056D01*
G54D13*
X647719Y-584833D02*
X649408Y-584306D01*
X651435Y-584306D01*
X652786Y-585361D01*
X652786Y-589056D01*
G54D13*
X652786Y-587472D02*
X651941Y-586417D01*
X650252Y-586206D01*
X648563Y-586417D01*
X647719Y-587472D01*
X648057Y-588528D01*
X649408Y-589056D01*
X650252Y-589056D01*
X650590Y-589056D01*
X651941Y-588528D01*
X652786Y-587472D01*
G54D13*
X655742Y-589056D02*
X655742Y-580611D01*
G54D13*
X658275Y-585889D02*
X660809Y-589056D01*
G54D13*
X655742Y-586944D02*
X660809Y-584306D01*
G54D13*
X668832Y-588528D02*
X667481Y-589056D01*
X665792Y-589056D01*
X664103Y-588528D01*
X663765Y-587472D01*
X663765Y-585678D01*
X664609Y-584622D01*
X666298Y-584306D01*
X667987Y-584622D01*
X668832Y-585361D01*
X668832Y-586417D01*
X663765Y-586417D01*
G54D13*
X671788Y-585361D02*
X678544Y-585361D01*
G54D13*
X681500Y-589056D02*
X681500Y-580611D01*
G54D13*
X681500Y-585678D02*
X682344Y-584622D01*
X684033Y-584306D01*
X685722Y-584622D01*
X686567Y-585678D01*
X686567Y-587789D01*
X685722Y-588844D01*
X684033Y-589056D01*
X682344Y-588844D01*
X681500Y-587789D01*
G54D13*
X694590Y-588528D02*
X693239Y-589056D01*
X691550Y-589056D01*
X689861Y-588528D01*
X689523Y-587472D01*
X689523Y-585678D01*
X690367Y-584622D01*
X692056Y-584306D01*
X693745Y-584622D01*
X694590Y-585361D01*
X694590Y-586417D01*
X689523Y-586417D01*
G54D13*
X699235Y-589056D02*
X699235Y-581139D01*
X700079Y-580611D01*
X700924Y-580928D01*
G54D13*
X697546Y-584306D02*
X700924Y-584306D01*
G54D13*
X708947Y-587789D02*
X708947Y-585678D01*
X708102Y-584622D01*
X706413Y-584306D01*
X704724Y-584622D01*
X703880Y-585678D01*
X703880Y-587789D01*
X704724Y-588844D01*
X706413Y-589056D01*
X708102Y-588844D01*
X708947Y-587789D01*
G54D13*
X711903Y-589056D02*
X711903Y-584306D01*
G54D13*
X711903Y-585361D02*
X713592Y-584306D01*
X715281Y-584306D01*
G54D13*
X723304Y-588528D02*
X721953Y-589056D01*
X720264Y-589056D01*
X718575Y-588528D01*
X718237Y-587472D01*
X718237Y-585678D01*
X719081Y-584622D01*
X720770Y-584306D01*
X722459Y-584622D01*
X723304Y-585361D01*
X723304Y-586417D01*
X718237Y-586417D01*
G54D13*
X726260Y-585361D02*
X733016Y-585361D01*
G54D13*
X735972Y-589056D02*
X735972Y-580611D01*
G54D13*
X735972Y-585678D02*
X736816Y-584622D01*
X738505Y-584306D01*
X740194Y-584622D01*
X741039Y-585678D01*
X741039Y-587789D01*
X740194Y-588844D01*
X738505Y-589056D01*
X736816Y-588844D01*
X735972Y-587789D01*
G54D13*
X743995Y-589056D02*
X743995Y-584306D01*
G54D13*
X743995Y-585361D02*
X745684Y-584306D01*
X747373Y-584306D01*
G54D13*
X755396Y-588528D02*
X754044Y-589056D01*
X752356Y-589056D01*
X750667Y-588528D01*
X750329Y-587472D01*
X750329Y-585678D01*
X751173Y-584622D01*
X752862Y-584306D01*
X754551Y-584622D01*
X755396Y-585361D01*
X755396Y-586417D01*
X750329Y-586417D01*
G54D13*
X758352Y-584833D02*
X760041Y-584306D01*
X762068Y-584306D01*
X763419Y-585361D01*
X763419Y-589056D01*
G54D13*
X763419Y-587472D02*
X762574Y-586417D01*
X760885Y-586206D01*
X759196Y-586417D01*
X758352Y-587472D01*
X758690Y-588528D01*
X760041Y-589056D01*
X760885Y-589056D01*
X761223Y-589056D01*
X762574Y-588528D01*
X763419Y-587472D01*
G54D13*
X766375Y-589056D02*
X766375Y-580611D01*
G54D13*
X768908Y-585889D02*
X771442Y-589056D01*
G54D13*
X766375Y-586944D02*
X771442Y-584306D01*
G54D10*
X934000Y-474000D02*
X784000Y-474000D01*
G54D11*
X841319Y-566278D02*
X843764Y-576056D01*
X846208Y-566278D01*
G54D11*
X849630Y-576056D02*
X852074Y-566278D01*
X854519Y-576056D01*
G54D11*
X850608Y-572389D02*
X853541Y-572389D01*
G54D11*
X857941Y-566278D02*
X857941Y-576056D01*
X861363Y-576056D01*
G54D11*
X864785Y-566278D02*
X864785Y-574222D01*
X865274Y-575444D01*
X866252Y-576056D01*
X867230Y-576056D01*
X868207Y-575444D01*
X868696Y-574222D01*
X868696Y-566278D01*
G54D11*
X875540Y-576056D02*
X872118Y-576056D01*
X872118Y-566278D01*
X875540Y-566278D01*
G54D11*
X872118Y-571167D02*
X875540Y-571167D01*
G36*
X788669Y-517919D02*
X928669Y-517919D01*
X928669Y-559919D01*
X788669Y-559919D01*
X788669Y-517919D01*
G37*
G54D12*
X788669Y-517919D02*
X928669Y-517919D01*
X928669Y-559919D01*
X788669Y-559919D01*
X788669Y-517919D01*
G54D10*
X784000Y-324000D02*
X794000Y-314000D01*
X924000Y-314000D01*
X934000Y-324000D01*
X934000Y-612500D01*
X784000Y-612500D01*
X784000Y-324000D01*
G36*
X838000Y-566000D02*
X827000Y-577000D01*
X814000Y-577000D01*
X825000Y-566000D01*
X838000Y-566000D01*
G37*
G54D10*
X838000Y-566000D02*
X827000Y-577000D01*
X814000Y-577000D01*
X825000Y-566000D01*
X838000Y-566000D01*
G36*
X818000Y-566000D02*
X807000Y-577000D01*
X794000Y-577000D01*
X805000Y-566000D01*
X818000Y-566000D01*
G37*
G54D10*
X818000Y-566000D02*
X807000Y-577000D01*
X794000Y-577000D01*
X805000Y-566000D01*
X818000Y-566000D01*
G36*
X904000Y-566000D02*
X893000Y-577000D01*
X880000Y-577000D01*
X891000Y-566000D01*
X904000Y-566000D01*
G37*
G54D10*
X904000Y-566000D02*
X893000Y-577000D01*
X880000Y-577000D01*
X891000Y-566000D01*
X904000Y-566000D01*
G36*
X924000Y-566000D02*
X913000Y-577000D01*
X900000Y-577000D01*
X911000Y-566000D01*
X924000Y-566000D01*
G37*
G54D10*
X924000Y-566000D02*
X913000Y-577000D01*
X900000Y-577000D01*
X911000Y-566000D01*
X924000Y-566000D01*
G54D13*
X791319Y-589056D02*
X791319Y-584306D01*
G54D13*
X791319Y-585150D02*
X793008Y-584306D01*
X794697Y-584622D01*
X795541Y-585361D01*
X795541Y-589056D01*
G54D13*
X795541Y-585150D02*
X797230Y-584306D01*
X798919Y-584622D01*
X799763Y-585361D01*
X799763Y-589056D01*
G54D13*
X802719Y-584833D02*
X804408Y-584306D01*
X806435Y-584306D01*
X807786Y-585361D01*
X807786Y-589056D01*
G54D13*
X807786Y-587472D02*
X806941Y-586417D01*
X805252Y-586206D01*
X803563Y-586417D01*
X802719Y-587472D01*
X803057Y-588528D01*
X804408Y-589056D01*
X805252Y-589056D01*
X805590Y-589056D01*
X806941Y-588528D01*
X807786Y-587472D01*
G54D13*
X810742Y-589056D02*
X810742Y-580611D01*
G54D13*
X813275Y-585889D02*
X815809Y-589056D01*
G54D13*
X810742Y-586944D02*
X815809Y-584306D01*
G54D13*
X823832Y-588528D02*
X822481Y-589056D01*
X820792Y-589056D01*
X819103Y-588528D01*
X818765Y-587472D01*
X818765Y-585678D01*
X819609Y-584622D01*
X821298Y-584306D01*
X822987Y-584622D01*
X823832Y-585361D01*
X823832Y-586417D01*
X818765Y-586417D01*
G54D13*
X826788Y-585361D02*
X833544Y-585361D01*
G54D13*
X836500Y-589056D02*
X836500Y-580611D01*
G54D13*
X836500Y-585678D02*
X837344Y-584622D01*
X839033Y-584306D01*
X840722Y-584622D01*
X841567Y-585678D01*
X841567Y-587789D01*
X840722Y-588844D01*
X839033Y-589056D01*
X837344Y-588844D01*
X836500Y-587789D01*
G54D13*
X849590Y-588528D02*
X848239Y-589056D01*
X846550Y-589056D01*
X844861Y-588528D01*
X844523Y-587472D01*
X844523Y-585678D01*
X845367Y-584622D01*
X847056Y-584306D01*
X848745Y-584622D01*
X849590Y-585361D01*
X849590Y-586417D01*
X844523Y-586417D01*
G54D13*
X854235Y-589056D02*
X854235Y-581139D01*
X855079Y-580611D01*
X855924Y-580928D01*
G54D13*
X852546Y-584306D02*
X855924Y-584306D01*
G54D13*
X863947Y-587789D02*
X863947Y-585678D01*
X863102Y-584622D01*
X861413Y-584306D01*
X859724Y-584622D01*
X858880Y-585678D01*
X858880Y-587789D01*
X859724Y-588844D01*
X861413Y-589056D01*
X863102Y-588844D01*
X863947Y-587789D01*
G54D13*
X866903Y-589056D02*
X866903Y-584306D01*
G54D13*
X866903Y-585361D02*
X868592Y-584306D01*
X870281Y-584306D01*
G54D13*
X878304Y-588528D02*
X876953Y-589056D01*
X875264Y-589056D01*
X873575Y-588528D01*
X873237Y-587472D01*
X873237Y-585678D01*
X874081Y-584622D01*
X875770Y-584306D01*
X877459Y-584622D01*
X878304Y-585361D01*
X878304Y-586417D01*
X873237Y-586417D01*
G54D13*
X881260Y-585361D02*
X888016Y-585361D01*
G54D13*
X890972Y-589056D02*
X890972Y-580611D01*
G54D13*
X890972Y-585678D02*
X891816Y-584622D01*
X893505Y-584306D01*
X895194Y-584622D01*
X896039Y-585678D01*
X896039Y-587789D01*
X895194Y-588844D01*
X893505Y-589056D01*
X891816Y-588844D01*
X890972Y-587789D01*
G54D13*
X898995Y-589056D02*
X898995Y-584306D01*
G54D13*
X898995Y-585361D02*
X900684Y-584306D01*
X902373Y-584306D01*
G54D13*
X910396Y-588528D02*
X909044Y-589056D01*
X907356Y-589056D01*
X905667Y-588528D01*
X905329Y-587472D01*
X905329Y-585678D01*
X906173Y-584622D01*
X907862Y-584306D01*
X909551Y-584622D01*
X910396Y-585361D01*
X910396Y-586417D01*
X905329Y-586417D01*
G54D13*
X913352Y-584833D02*
X915041Y-584306D01*
X917068Y-584306D01*
X918419Y-585361D01*
X918419Y-589056D01*
G54D13*
X918419Y-587472D02*
X917574Y-586417D01*
X915885Y-586206D01*
X914196Y-586417D01*
X913352Y-587472D01*
X913690Y-588528D01*
X915041Y-589056D01*
X915885Y-589056D01*
X916223Y-589056D01*
X917574Y-588528D01*
X918419Y-587472D01*
G54D13*
X921375Y-589056D02*
X921375Y-580611D01*
G54D13*
X923908Y-585889D02*
X926442Y-589056D01*
G54D13*
X921375Y-586944D02*
X926442Y-584306D01*
M02*
