%FSLAX34Y34*%
%MOMM*%
%LNSILK_BOTTOM*%
G71*
G01*
%ADD10C, 0.200*%
%ADD11C, 0.175*%
%LPD*%
G54D10*
X40669Y-174081D02*
X40669Y-225919D01*
X17131Y-225919D01*
X17131Y-174081D01*
X40669Y-174081D01*
G54D10*
X68169Y-174081D02*
X68169Y-225919D01*
X44631Y-225919D01*
X44631Y-174081D01*
X68169Y-174081D01*
G54D10*
X95669Y-174081D02*
X95669Y-225919D01*
X72131Y-225919D01*
X72131Y-174081D01*
X95669Y-174081D01*
G54D10*
X123169Y-174081D02*
X123169Y-225919D01*
X99631Y-225919D01*
X99631Y-174081D01*
X123169Y-174081D01*
G54D10*
X150669Y-174081D02*
X150669Y-225919D01*
X127131Y-225919D01*
X127131Y-174081D01*
X150669Y-174081D01*
G54D10*
X40669Y-231581D02*
X40669Y-283419D01*
X17131Y-283419D01*
X17131Y-231581D01*
X40669Y-231581D01*
G54D10*
X68169Y-231581D02*
X68169Y-283419D01*
X44631Y-283419D01*
X44631Y-231581D01*
X68169Y-231581D01*
G54D10*
X123169Y-231581D02*
X123169Y-283419D01*
X99631Y-283419D01*
X99631Y-231581D01*
X123169Y-231581D01*
G54D10*
X150669Y-231581D02*
X150669Y-283419D01*
X127131Y-283419D01*
X127131Y-231581D01*
X150669Y-231581D01*
G54D11*
X80208Y-265945D02*
X89986Y-265945D01*
X83875Y-263500D01*
X89986Y-261056D01*
X80208Y-261056D01*
G54D11*
X80208Y-257634D02*
X89986Y-257634D01*
X89986Y-255189D01*
X89375Y-254211D01*
X88152Y-253722D01*
X86930Y-253722D01*
X85708Y-254211D01*
X85097Y-255189D01*
X84486Y-254211D01*
X83264Y-253722D01*
X82041Y-253722D01*
X80819Y-254211D01*
X80208Y-255189D01*
X80208Y-257634D01*
G54D11*
X85097Y-257634D02*
X85097Y-255189D01*
G54D11*
X80208Y-250300D02*
X89986Y-250300D01*
X89986Y-247856D01*
X89375Y-246878D01*
X88152Y-246389D01*
X86930Y-246389D01*
X85708Y-246878D01*
X85097Y-247856D01*
X84486Y-246878D01*
X83264Y-246389D01*
X82041Y-246389D01*
X80819Y-246878D01*
X80208Y-247856D01*
X80208Y-250300D01*
G54D11*
X85097Y-250300D02*
X85097Y-247856D01*
G54D10*
X195669Y-174081D02*
X195669Y-225919D01*
X172131Y-225919D01*
X172131Y-174081D01*
X195669Y-174081D01*
G54D10*
X223169Y-174081D02*
X223169Y-225919D01*
X199631Y-225919D01*
X199631Y-174081D01*
X223169Y-174081D01*
G54D10*
X250669Y-174081D02*
X250669Y-225919D01*
X227131Y-225919D01*
X227131Y-174081D01*
X250669Y-174081D01*
G54D10*
X278169Y-174081D02*
X278169Y-225919D01*
X254631Y-225919D01*
X254631Y-174081D01*
X278169Y-174081D01*
G54D10*
X305669Y-174081D02*
X305669Y-225919D01*
X282131Y-225919D01*
X282131Y-174081D01*
X305669Y-174081D01*
G54D10*
X195669Y-231581D02*
X195669Y-283419D01*
X172131Y-283419D01*
X172131Y-231581D01*
X195669Y-231581D01*
G54D10*
X223169Y-231581D02*
X223169Y-283419D01*
X199631Y-283419D01*
X199631Y-231581D01*
X223169Y-231581D01*
G54D10*
X278169Y-231581D02*
X278169Y-283419D01*
X254631Y-283419D01*
X254631Y-231581D01*
X278169Y-231581D01*
G54D10*
X305669Y-231581D02*
X305669Y-283419D01*
X282131Y-283419D01*
X282131Y-231581D01*
X305669Y-231581D01*
G54D11*
X235208Y-265945D02*
X244986Y-265945D01*
X238875Y-263500D01*
X244986Y-261056D01*
X235208Y-261056D01*
G54D11*
X235208Y-257634D02*
X244986Y-257634D01*
X244986Y-255189D01*
X244375Y-254211D01*
X243152Y-253722D01*
X241930Y-253722D01*
X240708Y-254211D01*
X240097Y-255189D01*
X239486Y-254211D01*
X238264Y-253722D01*
X237041Y-253722D01*
X235819Y-254211D01*
X235208Y-255189D01*
X235208Y-257634D01*
G54D11*
X240097Y-257634D02*
X240097Y-255189D01*
G54D11*
X235208Y-250300D02*
X244986Y-250300D01*
X244986Y-247856D01*
X244375Y-246878D01*
X243152Y-246389D01*
X241930Y-246389D01*
X240708Y-246878D01*
X240097Y-247856D01*
X239486Y-246878D01*
X238264Y-246389D01*
X237041Y-246389D01*
X235819Y-246878D01*
X235208Y-247856D01*
X235208Y-250300D01*
G54D11*
X240097Y-250300D02*
X240097Y-247856D01*
G54D10*
X350669Y-174081D02*
X350669Y-225919D01*
X327131Y-225919D01*
X327131Y-174081D01*
X350669Y-174081D01*
G54D10*
X378169Y-174081D02*
X378169Y-225919D01*
X354631Y-225919D01*
X354631Y-174081D01*
X378169Y-174081D01*
G54D10*
X405669Y-174081D02*
X405669Y-225919D01*
X382131Y-225919D01*
X382131Y-174081D01*
X405669Y-174081D01*
G54D10*
X433169Y-174081D02*
X433169Y-225919D01*
X409631Y-225919D01*
X409631Y-174081D01*
X433169Y-174081D01*
G54D10*
X460669Y-174081D02*
X460669Y-225919D01*
X437131Y-225919D01*
X437131Y-174081D01*
X460669Y-174081D01*
G54D10*
X350669Y-231581D02*
X350669Y-283419D01*
X327131Y-283419D01*
X327131Y-231581D01*
X350669Y-231581D01*
G54D10*
X378169Y-231581D02*
X378169Y-283419D01*
X354631Y-283419D01*
X354631Y-231581D01*
X378169Y-231581D01*
G54D10*
X433169Y-231581D02*
X433169Y-283419D01*
X409631Y-283419D01*
X409631Y-231581D01*
X433169Y-231581D01*
G54D10*
X460669Y-231581D02*
X460669Y-283419D01*
X437131Y-283419D01*
X437131Y-231581D01*
X460669Y-231581D01*
G54D11*
X390208Y-265945D02*
X399986Y-265945D01*
X393875Y-263500D01*
X399986Y-261056D01*
X390208Y-261056D01*
G54D11*
X390208Y-257634D02*
X399986Y-257634D01*
X399986Y-255189D01*
X399375Y-254211D01*
X398152Y-253722D01*
X396930Y-253722D01*
X395708Y-254211D01*
X395097Y-255189D01*
X394486Y-254211D01*
X393264Y-253722D01*
X392041Y-253722D01*
X390819Y-254211D01*
X390208Y-255189D01*
X390208Y-257634D01*
G54D11*
X395097Y-257634D02*
X395097Y-255189D01*
G54D11*
X390208Y-250300D02*
X399986Y-250300D01*
X399986Y-247856D01*
X399375Y-246878D01*
X398152Y-246389D01*
X396930Y-246389D01*
X395708Y-246878D01*
X395097Y-247856D01*
X394486Y-246878D01*
X393264Y-246389D01*
X392041Y-246389D01*
X390819Y-246878D01*
X390208Y-247856D01*
X390208Y-250300D01*
G54D11*
X395097Y-250300D02*
X395097Y-247856D01*
G54D10*
X505669Y-174081D02*
X505669Y-225919D01*
X482131Y-225919D01*
X482131Y-174081D01*
X505669Y-174081D01*
G54D10*
X533169Y-174081D02*
X533169Y-225919D01*
X509631Y-225919D01*
X509631Y-174081D01*
X533169Y-174081D01*
G54D10*
X560669Y-174081D02*
X560669Y-225919D01*
X537131Y-225919D01*
X537131Y-174081D01*
X560669Y-174081D01*
G54D10*
X588169Y-174081D02*
X588169Y-225919D01*
X564631Y-225919D01*
X564631Y-174081D01*
X588169Y-174081D01*
G54D10*
X615669Y-174081D02*
X615669Y-225919D01*
X592131Y-225919D01*
X592131Y-174081D01*
X615669Y-174081D01*
G54D10*
X505669Y-231581D02*
X505669Y-283419D01*
X482131Y-283419D01*
X482131Y-231581D01*
X505669Y-231581D01*
G54D10*
X533169Y-231581D02*
X533169Y-283419D01*
X509631Y-283419D01*
X509631Y-231581D01*
X533169Y-231581D01*
G54D10*
X588169Y-231581D02*
X588169Y-283419D01*
X564631Y-283419D01*
X564631Y-231581D01*
X588169Y-231581D01*
G54D10*
X615669Y-231581D02*
X615669Y-283419D01*
X592131Y-283419D01*
X592131Y-231581D01*
X615669Y-231581D01*
G54D11*
X545208Y-265945D02*
X554986Y-265945D01*
X548875Y-263500D01*
X554986Y-261056D01*
X545208Y-261056D01*
G54D11*
X545208Y-257634D02*
X554986Y-257634D01*
X554986Y-255189D01*
X554375Y-254211D01*
X553152Y-253722D01*
X551930Y-253722D01*
X550708Y-254211D01*
X550097Y-255189D01*
X549486Y-254211D01*
X548264Y-253722D01*
X547041Y-253722D01*
X545819Y-254211D01*
X545208Y-255189D01*
X545208Y-257634D01*
G54D11*
X550097Y-257634D02*
X550097Y-255189D01*
G54D11*
X545208Y-250300D02*
X554986Y-250300D01*
X554986Y-247856D01*
X554375Y-246878D01*
X553152Y-246389D01*
X551930Y-246389D01*
X550708Y-246878D01*
X550097Y-247856D01*
X549486Y-246878D01*
X548264Y-246389D01*
X547041Y-246389D01*
X545819Y-246878D01*
X545208Y-247856D01*
X545208Y-250300D01*
G54D11*
X550097Y-250300D02*
X550097Y-247856D01*
G54D10*
X660669Y-174081D02*
X660669Y-225919D01*
X637131Y-225919D01*
X637131Y-174081D01*
X660669Y-174081D01*
G54D10*
X688169Y-174081D02*
X688169Y-225919D01*
X664631Y-225919D01*
X664631Y-174081D01*
X688169Y-174081D01*
G54D10*
X715669Y-174081D02*
X715669Y-225919D01*
X692131Y-225919D01*
X692131Y-174081D01*
X715669Y-174081D01*
G54D10*
X743169Y-174081D02*
X743169Y-225919D01*
X719631Y-225919D01*
X719631Y-174081D01*
X743169Y-174081D01*
G54D10*
X770669Y-174081D02*
X770669Y-225919D01*
X747131Y-225919D01*
X747131Y-174081D01*
X770669Y-174081D01*
G54D10*
X660669Y-231581D02*
X660669Y-283419D01*
X637131Y-283419D01*
X637131Y-231581D01*
X660669Y-231581D01*
G54D10*
X688169Y-231581D02*
X688169Y-283419D01*
X664631Y-283419D01*
X664631Y-231581D01*
X688169Y-231581D01*
G54D10*
X743169Y-231581D02*
X743169Y-283419D01*
X719631Y-283419D01*
X719631Y-231581D01*
X743169Y-231581D01*
G54D10*
X770669Y-231581D02*
X770669Y-283419D01*
X747131Y-283419D01*
X747131Y-231581D01*
X770669Y-231581D01*
G54D11*
X700208Y-265945D02*
X709986Y-265945D01*
X703875Y-263500D01*
X709986Y-261056D01*
X700208Y-261056D01*
G54D11*
X700208Y-257634D02*
X709986Y-257634D01*
X709986Y-255189D01*
X709375Y-254211D01*
X708152Y-253722D01*
X706930Y-253722D01*
X705708Y-254211D01*
X705097Y-255189D01*
X704486Y-254211D01*
X703264Y-253722D01*
X702041Y-253722D01*
X700819Y-254211D01*
X700208Y-255189D01*
X700208Y-257634D01*
G54D11*
X705097Y-257634D02*
X705097Y-255189D01*
G54D11*
X700208Y-250300D02*
X709986Y-250300D01*
X709986Y-247856D01*
X709375Y-246878D01*
X708152Y-246389D01*
X706930Y-246389D01*
X705708Y-246878D01*
X705097Y-247856D01*
X704486Y-246878D01*
X703264Y-246389D01*
X702041Y-246389D01*
X700819Y-246878D01*
X700208Y-247856D01*
X700208Y-250300D01*
G54D11*
X705097Y-250300D02*
X705097Y-247856D01*
G54D10*
X815669Y-174081D02*
X815669Y-225919D01*
X792131Y-225919D01*
X792131Y-174081D01*
X815669Y-174081D01*
G54D10*
X843169Y-174081D02*
X843169Y-225919D01*
X819631Y-225919D01*
X819631Y-174081D01*
X843169Y-174081D01*
G54D10*
X870669Y-174081D02*
X870669Y-225919D01*
X847131Y-225919D01*
X847131Y-174081D01*
X870669Y-174081D01*
G54D10*
X898169Y-174081D02*
X898169Y-225919D01*
X874631Y-225919D01*
X874631Y-174081D01*
X898169Y-174081D01*
G54D10*
X925669Y-174081D02*
X925669Y-225919D01*
X902131Y-225919D01*
X902131Y-174081D01*
X925669Y-174081D01*
G54D10*
X815669Y-231581D02*
X815669Y-283419D01*
X792131Y-283419D01*
X792131Y-231581D01*
X815669Y-231581D01*
G54D10*
X843169Y-231581D02*
X843169Y-283419D01*
X819631Y-283419D01*
X819631Y-231581D01*
X843169Y-231581D01*
G54D10*
X898169Y-231581D02*
X898169Y-283419D01*
X874631Y-283419D01*
X874631Y-231581D01*
X898169Y-231581D01*
G54D10*
X925669Y-231581D02*
X925669Y-283419D01*
X902131Y-283419D01*
X902131Y-231581D01*
X925669Y-231581D01*
G54D11*
X855208Y-265945D02*
X864986Y-265945D01*
X858875Y-263500D01*
X864986Y-261056D01*
X855208Y-261056D01*
G54D11*
X855208Y-257634D02*
X864986Y-257634D01*
X864986Y-255189D01*
X864375Y-254211D01*
X863152Y-253722D01*
X861930Y-253722D01*
X860708Y-254211D01*
X860097Y-255189D01*
X859486Y-254211D01*
X858264Y-253722D01*
X857041Y-253722D01*
X855819Y-254211D01*
X855208Y-255189D01*
X855208Y-257634D01*
G54D11*
X860097Y-257634D02*
X860097Y-255189D01*
G54D11*
X855208Y-250300D02*
X864986Y-250300D01*
X864986Y-247856D01*
X864375Y-246878D01*
X863152Y-246389D01*
X861930Y-246389D01*
X860708Y-246878D01*
X860097Y-247856D01*
X859486Y-246878D01*
X858264Y-246389D01*
X857041Y-246389D01*
X855819Y-246878D01*
X855208Y-247856D01*
X855208Y-250300D01*
G54D11*
X860097Y-250300D02*
X860097Y-247856D01*
G54D10*
X40669Y-479081D02*
X40669Y-530919D01*
X17131Y-530919D01*
X17131Y-479081D01*
X40669Y-479081D01*
G54D10*
X68169Y-479081D02*
X68169Y-530919D01*
X44631Y-530919D01*
X44631Y-479081D01*
X68169Y-479081D01*
G54D10*
X95669Y-479081D02*
X95669Y-530919D01*
X72131Y-530919D01*
X72131Y-479081D01*
X95669Y-479081D01*
G54D10*
X123169Y-479081D02*
X123169Y-530919D01*
X99631Y-530919D01*
X99631Y-479081D01*
X123169Y-479081D01*
G54D10*
X150669Y-479081D02*
X150669Y-530919D01*
X127131Y-530919D01*
X127131Y-479081D01*
X150669Y-479081D01*
G54D10*
X40669Y-536581D02*
X40669Y-588419D01*
X17131Y-588419D01*
X17131Y-536581D01*
X40669Y-536581D01*
G54D10*
X68169Y-536581D02*
X68169Y-588419D01*
X44631Y-588419D01*
X44631Y-536581D01*
X68169Y-536581D01*
G54D10*
X123169Y-536581D02*
X123169Y-588419D01*
X99631Y-588419D01*
X99631Y-536581D01*
X123169Y-536581D01*
G54D10*
X150669Y-536581D02*
X150669Y-588419D01*
X127131Y-588419D01*
X127131Y-536581D01*
X150669Y-536581D01*
G54D11*
X80208Y-570944D02*
X89986Y-570944D01*
X83875Y-568500D01*
X89986Y-566056D01*
X80208Y-566056D01*
G54D11*
X80208Y-562634D02*
X89986Y-562634D01*
X89986Y-560189D01*
X89375Y-559211D01*
X88152Y-558722D01*
X86930Y-558722D01*
X85708Y-559211D01*
X85097Y-560189D01*
X84486Y-559211D01*
X83264Y-558722D01*
X82041Y-558722D01*
X80819Y-559211D01*
X80208Y-560189D01*
X80208Y-562634D01*
G54D11*
X85097Y-562634D02*
X85097Y-560189D01*
G54D11*
X80208Y-555300D02*
X89986Y-555300D01*
X89986Y-552856D01*
X89375Y-551878D01*
X88152Y-551389D01*
X86930Y-551389D01*
X85708Y-551878D01*
X85097Y-552856D01*
X84486Y-551878D01*
X83264Y-551389D01*
X82041Y-551389D01*
X80819Y-551878D01*
X80208Y-552856D01*
X80208Y-555300D01*
G54D11*
X85097Y-555300D02*
X85097Y-552856D01*
G54D10*
X195669Y-479081D02*
X195669Y-530919D01*
X172131Y-530919D01*
X172131Y-479081D01*
X195669Y-479081D01*
G54D10*
X223169Y-479081D02*
X223169Y-530919D01*
X199631Y-530919D01*
X199631Y-479081D01*
X223169Y-479081D01*
G54D10*
X250669Y-479081D02*
X250669Y-530919D01*
X227131Y-530919D01*
X227131Y-479081D01*
X250669Y-479081D01*
G54D10*
X278169Y-479081D02*
X278169Y-530919D01*
X254631Y-530919D01*
X254631Y-479081D01*
X278169Y-479081D01*
G54D10*
X305669Y-479081D02*
X305669Y-530919D01*
X282131Y-530919D01*
X282131Y-479081D01*
X305669Y-479081D01*
G54D10*
X195669Y-536581D02*
X195669Y-588419D01*
X172131Y-588419D01*
X172131Y-536581D01*
X195669Y-536581D01*
G54D10*
X223169Y-536581D02*
X223169Y-588419D01*
X199631Y-588419D01*
X199631Y-536581D01*
X223169Y-536581D01*
G54D10*
X278169Y-536581D02*
X278169Y-588419D01*
X254631Y-588419D01*
X254631Y-536581D01*
X278169Y-536581D01*
G54D10*
X305669Y-536581D02*
X305669Y-588419D01*
X282131Y-588419D01*
X282131Y-536581D01*
X305669Y-536581D01*
G54D11*
X235208Y-570944D02*
X244986Y-570944D01*
X238875Y-568500D01*
X244986Y-566056D01*
X235208Y-566056D01*
G54D11*
X235208Y-562634D02*
X244986Y-562634D01*
X244986Y-560189D01*
X244375Y-559211D01*
X243152Y-558722D01*
X241930Y-558722D01*
X240708Y-559211D01*
X240097Y-560189D01*
X239486Y-559211D01*
X238264Y-558722D01*
X237041Y-558722D01*
X235819Y-559211D01*
X235208Y-560189D01*
X235208Y-562634D01*
G54D11*
X240097Y-562634D02*
X240097Y-560189D01*
G54D11*
X235208Y-555300D02*
X244986Y-555300D01*
X244986Y-552856D01*
X244375Y-551878D01*
X243152Y-551389D01*
X241930Y-551389D01*
X240708Y-551878D01*
X240097Y-552856D01*
X239486Y-551878D01*
X238264Y-551389D01*
X237041Y-551389D01*
X235819Y-551878D01*
X235208Y-552856D01*
X235208Y-555300D01*
G54D11*
X240097Y-555300D02*
X240097Y-552856D01*
G54D10*
X350669Y-479081D02*
X350669Y-530919D01*
X327131Y-530919D01*
X327131Y-479081D01*
X350669Y-479081D01*
G54D10*
X378169Y-479081D02*
X378169Y-530919D01*
X354631Y-530919D01*
X354631Y-479081D01*
X378169Y-479081D01*
G54D10*
X405669Y-479081D02*
X405669Y-530919D01*
X382131Y-530919D01*
X382131Y-479081D01*
X405669Y-479081D01*
G54D10*
X433169Y-479081D02*
X433169Y-530919D01*
X409631Y-530919D01*
X409631Y-479081D01*
X433169Y-479081D01*
G54D10*
X460669Y-479081D02*
X460669Y-530919D01*
X437131Y-530919D01*
X437131Y-479081D01*
X460669Y-479081D01*
G54D10*
X350669Y-536581D02*
X350669Y-588419D01*
X327131Y-588419D01*
X327131Y-536581D01*
X350669Y-536581D01*
G54D10*
X378169Y-536581D02*
X378169Y-588419D01*
X354631Y-588419D01*
X354631Y-536581D01*
X378169Y-536581D01*
G54D10*
X433169Y-536581D02*
X433169Y-588419D01*
X409631Y-588419D01*
X409631Y-536581D01*
X433169Y-536581D01*
G54D10*
X460669Y-536581D02*
X460669Y-588419D01*
X437131Y-588419D01*
X437131Y-536581D01*
X460669Y-536581D01*
G54D11*
X390208Y-570944D02*
X399986Y-570944D01*
X393875Y-568500D01*
X399986Y-566056D01*
X390208Y-566056D01*
G54D11*
X390208Y-562634D02*
X399986Y-562634D01*
X399986Y-560189D01*
X399375Y-559211D01*
X398152Y-558722D01*
X396930Y-558722D01*
X395708Y-559211D01*
X395097Y-560189D01*
X394486Y-559211D01*
X393264Y-558722D01*
X392041Y-558722D01*
X390819Y-559211D01*
X390208Y-560189D01*
X390208Y-562634D01*
G54D11*
X395097Y-562634D02*
X395097Y-560189D01*
G54D11*
X390208Y-555300D02*
X399986Y-555300D01*
X399986Y-552856D01*
X399375Y-551878D01*
X398152Y-551389D01*
X396930Y-551389D01*
X395708Y-551878D01*
X395097Y-552856D01*
X394486Y-551878D01*
X393264Y-551389D01*
X392041Y-551389D01*
X390819Y-551878D01*
X390208Y-552856D01*
X390208Y-555300D01*
G54D11*
X395097Y-555300D02*
X395097Y-552856D01*
G54D10*
X505669Y-479081D02*
X505669Y-530919D01*
X482131Y-530919D01*
X482131Y-479081D01*
X505669Y-479081D01*
G54D10*
X533169Y-479081D02*
X533169Y-530919D01*
X509631Y-530919D01*
X509631Y-479081D01*
X533169Y-479081D01*
G54D10*
X560669Y-479081D02*
X560669Y-530919D01*
X537131Y-530919D01*
X537131Y-479081D01*
X560669Y-479081D01*
G54D10*
X588169Y-479081D02*
X588169Y-530919D01*
X564631Y-530919D01*
X564631Y-479081D01*
X588169Y-479081D01*
G54D10*
X615669Y-479081D02*
X615669Y-530919D01*
X592131Y-530919D01*
X592131Y-479081D01*
X615669Y-479081D01*
G54D10*
X505669Y-536581D02*
X505669Y-588419D01*
X482131Y-588419D01*
X482131Y-536581D01*
X505669Y-536581D01*
G54D10*
X533169Y-536581D02*
X533169Y-588419D01*
X509631Y-588419D01*
X509631Y-536581D01*
X533169Y-536581D01*
G54D10*
X588169Y-536581D02*
X588169Y-588419D01*
X564631Y-588419D01*
X564631Y-536581D01*
X588169Y-536581D01*
G54D10*
X615669Y-536581D02*
X615669Y-588419D01*
X592131Y-588419D01*
X592131Y-536581D01*
X615669Y-536581D01*
G54D11*
X545208Y-570944D02*
X554986Y-570944D01*
X548875Y-568500D01*
X554986Y-566056D01*
X545208Y-566056D01*
G54D11*
X545208Y-562634D02*
X554986Y-562634D01*
X554986Y-560189D01*
X554375Y-559211D01*
X553152Y-558722D01*
X551930Y-558722D01*
X550708Y-559211D01*
X550097Y-560189D01*
X549486Y-559211D01*
X548264Y-558722D01*
X547041Y-558722D01*
X545819Y-559211D01*
X545208Y-560189D01*
X545208Y-562634D01*
G54D11*
X550097Y-562634D02*
X550097Y-560189D01*
G54D11*
X545208Y-555300D02*
X554986Y-555300D01*
X554986Y-552856D01*
X554375Y-551878D01*
X553152Y-551389D01*
X551930Y-551389D01*
X550708Y-551878D01*
X550097Y-552856D01*
X549486Y-551878D01*
X548264Y-551389D01*
X547041Y-551389D01*
X545819Y-551878D01*
X545208Y-552856D01*
X545208Y-555300D01*
G54D11*
X550097Y-555300D02*
X550097Y-552856D01*
G54D10*
X660669Y-479081D02*
X660669Y-530919D01*
X637131Y-530919D01*
X637131Y-479081D01*
X660669Y-479081D01*
G54D10*
X688169Y-479081D02*
X688169Y-530919D01*
X664631Y-530919D01*
X664631Y-479081D01*
X688169Y-479081D01*
G54D10*
X715669Y-479081D02*
X715669Y-530919D01*
X692131Y-530919D01*
X692131Y-479081D01*
X715669Y-479081D01*
G54D10*
X743169Y-479081D02*
X743169Y-530919D01*
X719631Y-530919D01*
X719631Y-479081D01*
X743169Y-479081D01*
G54D10*
X770669Y-479081D02*
X770669Y-530919D01*
X747131Y-530919D01*
X747131Y-479081D01*
X770669Y-479081D01*
G54D10*
X660669Y-536581D02*
X660669Y-588419D01*
X637131Y-588419D01*
X637131Y-536581D01*
X660669Y-536581D01*
G54D10*
X688169Y-536581D02*
X688169Y-588419D01*
X664631Y-588419D01*
X664631Y-536581D01*
X688169Y-536581D01*
G54D10*
X743169Y-536581D02*
X743169Y-588419D01*
X719631Y-588419D01*
X719631Y-536581D01*
X743169Y-536581D01*
G54D10*
X770669Y-536581D02*
X770669Y-588419D01*
X747131Y-588419D01*
X747131Y-536581D01*
X770669Y-536581D01*
G54D11*
X700208Y-570944D02*
X709986Y-570944D01*
X703875Y-568500D01*
X709986Y-566056D01*
X700208Y-566056D01*
G54D11*
X700208Y-562634D02*
X709986Y-562634D01*
X709986Y-560189D01*
X709375Y-559211D01*
X708152Y-558722D01*
X706930Y-558722D01*
X705708Y-559211D01*
X705097Y-560189D01*
X704486Y-559211D01*
X703264Y-558722D01*
X702041Y-558722D01*
X700819Y-559211D01*
X700208Y-560189D01*
X700208Y-562634D01*
G54D11*
X705097Y-562634D02*
X705097Y-560189D01*
G54D11*
X700208Y-555300D02*
X709986Y-555300D01*
X709986Y-552856D01*
X709375Y-551878D01*
X708152Y-551389D01*
X706930Y-551389D01*
X705708Y-551878D01*
X705097Y-552856D01*
X704486Y-551878D01*
X703264Y-551389D01*
X702041Y-551389D01*
X700819Y-551878D01*
X700208Y-552856D01*
X700208Y-555300D01*
G54D11*
X705097Y-555300D02*
X705097Y-552856D01*
G54D10*
X815669Y-479081D02*
X815669Y-530919D01*
X792131Y-530919D01*
X792131Y-479081D01*
X815669Y-479081D01*
G54D10*
X843169Y-479081D02*
X843169Y-530919D01*
X819631Y-530919D01*
X819631Y-479081D01*
X843169Y-479081D01*
G54D10*
X870669Y-479081D02*
X870669Y-530919D01*
X847131Y-530919D01*
X847131Y-479081D01*
X870669Y-479081D01*
G54D10*
X898169Y-479081D02*
X898169Y-530919D01*
X874631Y-530919D01*
X874631Y-479081D01*
X898169Y-479081D01*
G54D10*
X925669Y-479081D02*
X925669Y-530919D01*
X902131Y-530919D01*
X902131Y-479081D01*
X925669Y-479081D01*
G54D10*
X815669Y-536581D02*
X815669Y-588419D01*
X792131Y-588419D01*
X792131Y-536581D01*
X815669Y-536581D01*
G54D10*
X843169Y-536581D02*
X843169Y-588419D01*
X819631Y-588419D01*
X819631Y-536581D01*
X843169Y-536581D01*
G54D10*
X898169Y-536581D02*
X898169Y-588419D01*
X874631Y-588419D01*
X874631Y-536581D01*
X898169Y-536581D01*
G54D10*
X925669Y-536581D02*
X925669Y-588419D01*
X902131Y-588419D01*
X902131Y-536581D01*
X925669Y-536581D01*
G54D11*
X855208Y-570944D02*
X864986Y-570944D01*
X858875Y-568500D01*
X864986Y-566056D01*
X855208Y-566056D01*
G54D11*
X855208Y-562634D02*
X864986Y-562634D01*
X864986Y-560189D01*
X864375Y-559211D01*
X863152Y-558722D01*
X861930Y-558722D01*
X860708Y-559211D01*
X860097Y-560189D01*
X859486Y-559211D01*
X858264Y-558722D01*
X857041Y-558722D01*
X855819Y-559211D01*
X855208Y-560189D01*
X855208Y-562634D01*
G54D11*
X860097Y-562634D02*
X860097Y-560189D01*
G54D11*
X855208Y-555300D02*
X864986Y-555300D01*
X864986Y-552856D01*
X864375Y-551878D01*
X863152Y-551389D01*
X861930Y-551389D01*
X860708Y-551878D01*
X860097Y-552856D01*
X859486Y-551878D01*
X858264Y-551389D01*
X857041Y-551389D01*
X855819Y-551878D01*
X855208Y-552856D01*
X855208Y-555300D01*
G54D11*
X860097Y-555300D02*
X860097Y-552856D01*
M02*
