; Drill file
; Format: 3.3 (000.000)
M48
METRIC
T01C0.3
T02C1.0
%
G05
G90
T01
X005.600Y-056.600
X002.450Y-050.900
X001.700Y-044.200
X002.700Y-042.700
X002.600Y-041.200
X002.500Y-037.900
X003.200Y-035.300
X008.400Y-042.100
X006.600Y-044.500
X004.700Y-044.000
X008.400Y-045.800
X008.400Y-046.600
X010.200Y-044.600
X012.000Y-043.800
X013.800Y-041.200
X018.100Y-041.200
X018.200Y-042.700
X017.200Y-044.200
X020.200Y-044.000
X022.100Y-044.500
X023.900Y-045.800
X023.900Y-046.600
X025.700Y-044.600
X027.500Y-043.800
X029.300Y-041.200
X033.600Y-041.200
X033.700Y-042.700
X032.700Y-044.200
X035.700Y-044.000
X037.600Y-044.500
X039.400Y-045.800
X039.400Y-046.600
X041.200Y-044.600
X043.000Y-043.800
X044.800Y-041.200
X049.100Y-041.200
X049.200Y-042.700
X048.200Y-044.200
X051.200Y-044.000
X053.100Y-044.500
X054.900Y-045.800
X054.900Y-046.600
X056.700Y-044.600
X058.500Y-043.800
X060.300Y-041.200
X064.600Y-041.200
X064.700Y-042.700
X063.700Y-044.200
X066.700Y-044.000
X068.600Y-044.500
X070.400Y-045.800
X070.400Y-046.600
X072.200Y-044.600
X074.000Y-043.800
X075.800Y-041.200
X080.100Y-041.200
X080.200Y-042.700
X079.200Y-044.200
X082.200Y-044.000
X084.100Y-044.500
X085.900Y-045.800
X085.900Y-046.600
X087.700Y-044.600
X089.500Y-043.800
X091.300Y-041.200
X091.400Y-036.700
X091.400Y-035.500
X085.900Y-042.100
X088.700Y-047.400
X090.100Y-047.300
X089.900Y-050.400
X088.700Y-050.100
X091.400Y-050.900
X083.100Y-056.600
X079.950Y-050.900
X075.900Y-050.900
X074.400Y-050.400
X073.200Y-050.100
X073.200Y-047.400
X074.600Y-047.300
X070.400Y-042.100
X064.500Y-037.900
X065.200Y-035.300
X060.400Y-035.500
X060.400Y-036.700
X054.900Y-042.100
X057.700Y-047.400
X059.100Y-047.300
X058.900Y-050.400
X057.700Y-050.100
X060.400Y-050.900
X064.450Y-050.900
X067.600Y-056.600
X052.100Y-056.600
X048.950Y-050.900
X044.900Y-050.900
X043.400Y-050.400
X042.200Y-050.100
X042.200Y-047.400
X043.600Y-047.300
X039.400Y-042.100
X033.500Y-037.900
X034.200Y-035.300
X029.400Y-035.500
X029.400Y-036.700
X023.900Y-042.100
X026.700Y-047.400
X028.100Y-047.300
X027.900Y-050.400
X026.700Y-050.100
X029.400Y-050.900
X033.450Y-050.900
X036.600Y-056.600
X021.100Y-056.600
X017.950Y-050.900
X013.900Y-050.900
X012.400Y-050.400
X011.200Y-050.100
X011.200Y-047.400
X012.600Y-047.300
X013.900Y-036.700
X013.900Y-035.500
X018.000Y-037.900
X018.700Y-035.300
X021.100Y-026.100
X017.950Y-020.400
X013.900Y-020.400
X012.400Y-019.900
X011.200Y-019.600
X011.200Y-016.900
X012.600Y-016.800
X012.000Y-013.300
X010.200Y-014.100
X008.400Y-015.300
X008.400Y-016.100
X006.600Y-014.000
X004.700Y-013.500
X002.700Y-012.200
X002.600Y-010.700
X001.700Y-013.700
X002.500Y-007.400
X003.200Y-004.800
X008.400Y-011.600
X013.800Y-010.700
X018.100Y-010.700
X018.200Y-012.200
X017.200Y-013.700
X020.200Y-013.500
X022.100Y-014.000
X023.900Y-015.300
X023.900Y-016.100
X025.700Y-014.100
X027.500Y-013.300
X029.300Y-010.700
X033.600Y-010.700
X033.700Y-012.200
X032.700Y-013.700
X035.700Y-013.500
X037.600Y-014.000
X039.400Y-015.300
X039.400Y-016.100
X041.200Y-014.100
X043.000Y-013.300
X044.800Y-010.700
X049.100Y-010.700
X049.200Y-012.200
X048.200Y-013.700
X051.200Y-013.500
X053.100Y-014.000
X054.900Y-015.300
X054.900Y-016.100
X056.700Y-014.100
X058.500Y-013.300
X060.300Y-010.700
X064.600Y-010.700
X064.700Y-012.200
X063.700Y-013.700
X066.700Y-013.500
X068.600Y-014.000
X070.400Y-015.300
X070.400Y-016.100
X072.200Y-014.100
X074.000Y-013.300
X075.800Y-010.700
X080.100Y-010.700
X080.200Y-012.200
X079.200Y-013.700
X082.200Y-013.500
X084.100Y-014.000
X085.900Y-015.300
X085.900Y-016.100
X087.700Y-014.100
X089.500Y-013.300
X091.300Y-010.700
X091.400Y-006.200
X091.400Y-005.000
X085.900Y-011.600
X088.700Y-016.900
X090.100Y-016.800
X089.900Y-019.900
X088.700Y-019.600
X091.400Y-020.400
X083.100Y-026.100
X079.950Y-020.400
X075.900Y-020.400
X074.400Y-019.900
X073.200Y-019.600
X073.200Y-016.900
X074.600Y-016.800
X070.400Y-011.600
X064.500Y-007.400
X065.200Y-004.800
X060.400Y-005.000
X060.400Y-006.200
X054.900Y-011.600
X057.700Y-016.900
X059.100Y-016.800
X058.900Y-019.900
X057.700Y-019.600
X060.400Y-020.400
X064.450Y-020.400
X067.600Y-026.100
X075.900Y-035.500
X075.900Y-036.700
X080.000Y-037.900
X080.700Y-035.300
X080.000Y-007.400
X080.700Y-004.800
X075.900Y-005.000
X075.900Y-006.200
X049.700Y-004.800
X049.000Y-007.400
X044.900Y-006.200
X044.900Y-005.000
X039.400Y-011.600
X042.200Y-016.900
X043.600Y-016.800
X043.400Y-019.900
X042.200Y-019.600
X044.900Y-020.400
X048.950Y-020.400
X052.100Y-026.100
X049.700Y-035.300
X049.000Y-037.900
X044.900Y-036.700
X044.900Y-035.500
X036.600Y-026.100
X033.450Y-020.400
X029.400Y-020.400
X027.900Y-019.900
X026.700Y-019.600
X026.700Y-016.900
X028.100Y-016.800
X023.900Y-011.600
X018.000Y-007.400
X018.700Y-004.800
X013.900Y-005.000
X013.900Y-006.200
X029.400Y-006.200
X029.400Y-005.000
X033.500Y-007.400
X034.200Y-004.800
X002.450Y-020.400
X005.600Y-026.100
T02
X004.700Y-060.150
X012.100Y-060.150
X020.200Y-060.150
X027.600Y-060.150
X035.700Y-060.150
X043.100Y-060.150
X051.200Y-060.150
X058.600Y-060.150
X066.700Y-060.150
X074.100Y-060.150
X082.200Y-060.150
X089.600Y-060.150
X089.600Y-029.650
X082.200Y-029.650
X074.100Y-029.650
X066.700Y-029.650
X058.600Y-029.650
X051.200Y-029.650
X043.100Y-029.650
X035.700Y-029.650
X027.600Y-029.650
X020.200Y-029.650
X012.100Y-029.650
X004.700Y-029.650
M30
