; Drill file
; Format: 3.3 (000.000)
M48
METRIC
T01C1.2
T02C1.5
%
G05
G90
T01
X004.700Y-046.200
X012.100Y-046.200
X020.200Y-046.200
X027.600Y-046.200
X035.700Y-046.200
X043.100Y-046.200
X051.200Y-046.200
X058.600Y-046.200
X066.700Y-046.200
X074.100Y-046.200
X082.200Y-046.200
X089.600Y-046.200
X089.100Y-032.000
X082.700Y-032.000
X073.600Y-032.000
X067.200Y-032.000
X058.100Y-032.000
X051.700Y-032.000
X042.600Y-032.000
X036.200Y-032.000
X027.100Y-032.000
X020.700Y-032.000
X011.600Y-032.000
X005.200Y-032.000
X004.700Y-015.700
X012.100Y-015.700
X020.200Y-015.700
X027.600Y-015.700
X035.700Y-015.700
X043.100Y-015.700
X051.200Y-015.700
X058.600Y-015.700
X066.700Y-015.700
X074.100Y-015.700
X082.200Y-015.700
X089.600Y-015.700
X089.100Y-001.500
X082.700Y-001.500
X073.600Y-001.500
X067.200Y-001.500
X058.100Y-001.500
X051.700Y-001.500
X042.600Y-001.500
X036.200Y-001.500
X027.100Y-001.500
X020.700Y-001.500
X011.600Y-001.500
X005.200Y-001.500
T02
X002.100Y-045.800
X008.400Y-038.900
X014.700Y-045.800
X017.600Y-045.800
X023.900Y-038.900
X030.200Y-045.800
X033.100Y-045.800
X039.400Y-038.900
X045.700Y-045.800
X048.600Y-045.800
X054.900Y-038.900
X061.200Y-045.800
X064.100Y-045.800
X070.400Y-038.900
X076.700Y-045.800
X079.600Y-045.800
X085.900Y-038.900
X092.200Y-045.800
X092.200Y-015.300
X085.900Y-008.400
X079.600Y-015.300
X076.700Y-015.300
X070.400Y-008.400
X064.100Y-015.300
X061.200Y-015.300
X054.900Y-008.400
X048.600Y-015.300
X045.700Y-015.300
X039.400Y-008.400
X033.100Y-015.300
X030.200Y-015.300
X023.900Y-008.400
X017.600Y-015.300
X014.700Y-015.300
X008.400Y-008.400
X002.100Y-015.300
M30
