%FSLAX34Y34*%
%MOMM*%
%LNCOPPER_TOP*%
G71*
G01*
%ADD10C, 2.000*%
%ADD11R, 0.300X1.450*%
%ADD12C, 0.300*%
%ADD13C, 0.700*%
%ADD14C, 0.600*%
%ADD15C, 1.700*%
%ADD16C, 0.500*%
%ADD17C, 1.500*%
%ADD18C, 0.150*%
%ADD19R, 0.900X0.900*%
%LPD*%
G36*
X345597Y-461325D02*
X365597Y-461325D01*
X365597Y-481325D01*
X345597Y-481325D01*
X345597Y-461325D01*
G37*
X380997Y-471325D02*
G54D10*
D03*
X406397Y-471325D02*
G54D10*
D03*
X431797Y-471325D02*
G54D10*
D03*
X457197Y-471325D02*
G54D10*
D03*
X457197Y-369725D02*
G54D10*
D03*
X431797Y-369725D02*
G54D10*
D03*
X406397Y-369725D02*
G54D10*
D03*
X380997Y-369725D02*
G54D10*
D03*
G36*
X345597Y-359725D02*
X365597Y-359725D01*
X365597Y-379725D01*
X345597Y-379725D01*
X345597Y-359725D01*
G37*
X406600Y-441000D02*
G54D11*
D03*
X406600Y-397000D02*
G54D11*
D03*
X411600Y-441000D02*
G54D11*
D03*
X411600Y-397000D02*
G54D11*
D03*
X416600Y-441000D02*
G54D11*
D03*
X416600Y-397000D02*
G54D11*
D03*
X421600Y-441000D02*
G54D11*
D03*
X421600Y-397000D02*
G54D11*
D03*
X426600Y-441000D02*
G54D11*
D03*
X426600Y-397000D02*
G54D11*
D03*
X431600Y-441000D02*
G54D11*
D03*
X431600Y-397000D02*
G54D11*
D03*
X482597Y-471325D02*
G54D10*
D03*
X482597Y-369725D02*
G54D10*
D03*
G54D12*
X406600Y-441000D02*
X385922Y-441000D01*
X355597Y-471325D01*
G54D12*
X411600Y-441000D02*
X411600Y-449400D01*
X409000Y-452000D01*
X388000Y-452000D01*
X381000Y-459000D01*
X380997Y-471325D01*
G54D12*
X416600Y-441000D02*
X416600Y-461122D01*
X406397Y-471325D01*
G54D12*
X421600Y-441000D02*
X421600Y-461128D01*
X431797Y-471325D01*
G54D12*
X426600Y-441000D02*
X426600Y-452600D01*
X430000Y-456000D01*
X441872Y-456000D01*
X457197Y-471325D01*
G54D12*
X431600Y-441000D02*
X452272Y-441000D01*
X482597Y-471325D01*
G54D12*
X431600Y-397000D02*
X455322Y-397000D01*
X482597Y-369725D01*
G54D12*
X426600Y-397000D02*
X426600Y-388400D01*
X430000Y-385000D01*
X441922Y-385000D01*
X457197Y-369725D01*
G54D12*
X421600Y-397000D02*
X421600Y-379922D01*
X431797Y-369725D01*
G54D12*
X416600Y-397000D02*
X416600Y-379928D01*
X406397Y-369725D01*
G54D12*
X411600Y-397000D02*
X411600Y-387600D01*
X409000Y-385000D01*
X396272Y-385000D01*
X380997Y-369725D01*
G54D12*
X406600Y-397000D02*
X382872Y-397000D01*
X355597Y-369725D01*
X108000Y-146000D02*
G54D13*
D03*
X166000Y-80000D02*
G54D13*
D03*
G54D14*
X146000Y-87000D02*
X153000Y-80000D01*
X166000Y-80000D01*
X167000Y-109000D02*
G54D13*
D03*
X167000Y-137000D02*
G54D13*
D03*
G54D14*
X146000Y-141000D02*
X150000Y-137000D01*
X167000Y-137000D01*
G54D14*
X108000Y-146000D02*
X108000Y-137000D01*
X126000Y-171000D02*
G54D13*
D03*
X90000Y-170000D02*
G54D13*
D03*
G54D14*
X122000Y-158000D02*
X126000Y-162000D01*
X126000Y-171000D01*
G54D14*
X94000Y-158000D02*
X90000Y-162000D01*
X90000Y-170000D01*
X50000Y-137000D02*
G54D13*
D03*
X49000Y-104000D02*
G54D13*
D03*
X56000Y-78000D02*
G54D13*
D03*
G54D14*
X71000Y-87000D02*
X66000Y-82000D01*
X56000Y-78000D01*
G54D15*
X136500Y-326500D02*
X153500Y-326500D01*
G54D15*
X62500Y-326500D02*
X79500Y-326500D01*
G54D14*
X122000Y-70000D02*
X133000Y-59000D01*
X162000Y-59000D01*
X176000Y-73000D01*
X176000Y-145000D01*
X157000Y-164000D01*
G54D14*
X157000Y-164000D02*
X157000Y-190000D01*
X174000Y-207000D01*
X174000Y-321000D01*
X150000Y-198000D02*
G54D13*
D03*
G54D14*
X150000Y-198000D02*
X150000Y-200700D01*
X162900Y-213600D01*
X162900Y-233900D01*
X163000Y-234000D01*
X162900Y-233900D01*
X163000Y-234000D02*
G54D13*
D03*
X136000Y-226000D02*
G54D13*
D03*
X136000Y-199000D02*
G54D13*
D03*
X144000Y-163000D02*
G54D13*
D03*
G54D14*
X136000Y-199000D02*
X136000Y-226000D01*
G54D14*
X144000Y-165000D02*
X144000Y-168000D01*
X127000Y-185000D01*
X127000Y-229000D01*
X133000Y-235000D01*
X142000Y-235000D01*
X148000Y-229000D01*
X148000Y-229000D02*
G54D13*
D03*
X48500Y-234000D02*
G54D13*
D03*
X71000Y-165000D02*
G54D13*
D03*
G54D14*
X48000Y-234000D02*
X71000Y-234000D01*
X84000Y-221000D01*
X84000Y-178000D01*
X71000Y-165000D01*
G54D16*
X41000Y-80000D02*
X41000Y-167000D01*
X41000Y-167000D02*
G54D13*
D03*
X80000Y-291000D02*
G54D13*
D03*
G54D14*
X80000Y-291000D02*
X80000Y-283000D01*
X40000Y-243000D01*
X40000Y-213000D01*
X59000Y-194000D01*
X59000Y-160000D01*
X51000Y-152000D01*
X51000Y-152000D02*
G54D13*
D03*
X108000Y-183000D02*
G54D13*
D03*
X108000Y-191000D02*
G54D13*
D03*
G54D14*
X108000Y-183000D02*
X108000Y-191000D01*
X108000Y-310500D01*
G54D14*
X94000Y-70000D02*
X85000Y-61000D01*
X58000Y-61000D01*
X41000Y-78000D01*
G36*
X108000Y-183000D02*
X100000Y-183000D01*
X94000Y-189000D01*
X94000Y-290000D01*
X80000Y-304000D01*
X39000Y-304000D01*
X39000Y-331000D01*
X48000Y-331000D01*
X48000Y-321000D01*
X58000Y-311000D01*
X148000Y-311000D01*
X153000Y-306000D01*
X153000Y-267000D01*
X118000Y-232000D01*
X118000Y-187000D01*
X114000Y-183000D01*
X108000Y-183000D01*
G37*
G54D16*
X108000Y-183000D02*
X100000Y-183000D01*
X94000Y-189000D01*
X94000Y-290000D01*
X80000Y-304000D01*
X39000Y-304000D01*
X39000Y-331000D01*
X48000Y-331000D01*
X48000Y-321000D01*
X58000Y-311000D01*
X148000Y-311000D01*
X153000Y-306000D01*
X153000Y-267000D01*
X118000Y-232000D01*
X118000Y-187000D01*
X114000Y-183000D01*
X108000Y-183000D01*
G36*
X84000Y-196000D02*
X83000Y-196000D01*
X75000Y-204000D01*
X66000Y-204000D01*
X49000Y-221000D01*
X49000Y-233500D01*
X48500Y-234000D01*
X71000Y-234000D01*
X84000Y-221000D01*
X84000Y-196000D01*
G37*
G54D14*
X84000Y-196000D02*
X83000Y-196000D01*
X75000Y-204000D01*
X66000Y-204000D01*
X49000Y-221000D01*
X49000Y-233500D01*
X48500Y-234000D01*
X71000Y-234000D01*
X84000Y-221000D01*
X84000Y-196000D01*
G36*
X40000Y-243000D02*
X68000Y-243000D01*
X80000Y-255000D01*
X80000Y-291000D01*
X52000Y-291000D01*
X40000Y-279000D01*
X40000Y-243000D01*
G37*
G54D14*
X40000Y-243000D02*
X68000Y-243000D01*
X80000Y-255000D01*
X80000Y-291000D01*
X52000Y-291000D01*
X40000Y-279000D01*
X40000Y-243000D01*
G54D14*
X40000Y-239000D02*
X45000Y-244000D01*
G54D14*
X50000Y-137000D02*
X50000Y-138000D01*
X60000Y-148000D01*
X64000Y-148000D01*
X71000Y-141000D01*
G54D14*
X61000Y-114000D02*
X52000Y-114000D01*
X49000Y-111000D01*
X49000Y-104000D01*
G54D14*
X155000Y-112000D02*
X164000Y-112000D01*
X167000Y-109000D01*
G54D14*
X71000Y-326500D02*
X41500Y-326500D01*
X41000Y-327000D01*
G54D14*
X71000Y-326500D02*
X71000Y-308000D01*
G36*
X145000Y-326500D02*
X148500Y-326500D01*
X162000Y-313000D01*
X162000Y-249000D01*
X174000Y-237000D01*
X174000Y-322000D01*
X169000Y-327000D01*
X145500Y-327000D01*
X145000Y-326500D01*
G37*
G54D14*
X145000Y-326500D02*
X148500Y-326500D01*
X162000Y-313000D01*
X162000Y-249000D01*
X174000Y-237000D01*
X174000Y-322000D01*
X169000Y-327000D01*
X145500Y-327000D01*
X145000Y-326500D01*
G54D17*
G75*
G01X131000Y-114000D02*
G03X131000Y-114000I-23000J0D01*
G01*
G36*
X112250Y-74250D02*
X113644Y-60296D01*
X124687Y-62643D01*
X135000Y-67235D01*
X128000Y-79500D01*
X120500Y-76000D01*
X112250Y-74250D01*
G37*
G54D18*
X112250Y-74250D02*
X113644Y-60296D01*
X124687Y-62643D01*
X135000Y-67235D01*
X128000Y-79500D01*
X120500Y-76000D01*
X112250Y-74250D01*
G36*
X135119Y-84234D02*
X144449Y-73765D01*
X152003Y-82154D01*
X157648Y-91931D01*
X144775Y-97739D01*
X140765Y-90499D01*
X135119Y-84234D01*
G37*
G54D18*
X135119Y-84234D02*
X144449Y-73765D01*
X152003Y-82154D01*
X157648Y-91931D01*
X144775Y-97739D01*
X140765Y-90499D01*
X135119Y-84234D01*
G36*
X147170Y-105645D02*
X160872Y-102659D01*
X162052Y-113886D01*
X160872Y-125114D01*
X147044Y-122246D01*
X148055Y-114032D01*
X147170Y-105645D01*
G37*
G54D18*
X147170Y-105645D02*
X160872Y-102659D01*
X162052Y-113886D01*
X160872Y-125114D01*
X147044Y-122246D01*
X148055Y-114032D01*
X147170Y-105645D01*
G36*
X144491Y-130325D02*
X157332Y-135964D01*
X151687Y-145740D01*
X144133Y-154130D01*
X134631Y-143682D01*
X140277Y-137631D01*
X144491Y-130325D01*
G37*
G54D18*
X144491Y-130325D02*
X157332Y-135964D01*
X151687Y-145740D01*
X144133Y-154130D01*
X134631Y-143682D01*
X140277Y-137631D01*
X144491Y-130325D01*
G36*
X128020Y-148712D02*
X135094Y-160821D01*
X124780Y-165413D01*
X113738Y-167760D01*
X112192Y-153723D01*
X120317Y-152146D01*
X128020Y-148712D01*
G37*
G54D18*
X128020Y-148712D02*
X135094Y-160821D01*
X124780Y-165413D01*
X113738Y-167760D01*
X112192Y-153723D01*
X120317Y-152146D01*
X128020Y-148712D01*
G36*
X103777Y-153852D02*
X102383Y-167806D01*
X91340Y-165459D01*
X81027Y-160867D01*
X88027Y-148602D01*
X95527Y-152102D01*
X103777Y-153852D01*
G37*
G54D18*
X103777Y-153852D02*
X102383Y-167806D01*
X91340Y-165459D01*
X81027Y-160867D01*
X88027Y-148602D01*
X95527Y-152102D01*
X103777Y-153852D01*
G36*
X81158Y-143618D02*
X71828Y-154087D01*
X64274Y-145698D01*
X58629Y-135921D01*
X71502Y-130113D01*
X75512Y-137353D01*
X81158Y-143618D01*
G37*
G54D18*
X81158Y-143618D02*
X71828Y-154087D01*
X64274Y-145698D01*
X58629Y-135921D01*
X71502Y-130113D01*
X75512Y-137353D01*
X81158Y-143618D01*
G36*
X68607Y-122457D02*
X54904Y-125443D01*
X53724Y-114216D01*
X54904Y-102988D01*
X68733Y-105856D01*
X67722Y-114070D01*
X68607Y-122457D01*
G37*
G54D18*
X68607Y-122457D02*
X54904Y-125443D01*
X53724Y-114216D01*
X54904Y-102988D01*
X68733Y-105856D01*
X67722Y-114070D01*
X68607Y-122457D01*
G36*
X71509Y-97675D02*
X58668Y-92036D01*
X64313Y-82260D01*
X71867Y-73870D01*
X81369Y-84318D01*
X75723Y-90369D01*
X71509Y-97675D01*
G37*
G54D18*
X71509Y-97675D02*
X58668Y-92036D01*
X64313Y-82260D01*
X71867Y-73870D01*
X81369Y-84318D01*
X75723Y-90369D01*
X71509Y-97675D01*
G36*
X87980Y-79287D02*
X80906Y-67178D01*
X91219Y-62586D01*
X102262Y-60239D01*
X103808Y-74277D01*
X95683Y-75854D01*
X87980Y-79287D01*
G37*
G54D18*
X87980Y-79287D02*
X80906Y-67178D01*
X91219Y-62586D01*
X102262Y-60239D01*
X103808Y-74277D01*
X95683Y-75854D01*
X87980Y-79287D01*
X155000Y-114000D02*
G54D19*
D03*
X62000Y-114000D02*
G54D19*
D03*
G36*
X119111Y-64330D02*
X127670Y-67111D01*
X124889Y-75670D01*
X116330Y-72889D01*
X119111Y-64330D01*
G37*
G36*
X146996Y-80714D02*
X152285Y-87996D01*
X145004Y-93286D01*
X139714Y-86004D01*
X146996Y-80714D01*
G37*
G36*
X152286Y-140004D02*
X146995Y-147286D01*
X139714Y-141996D01*
X145005Y-134714D01*
X152286Y-140004D01*
G37*
G36*
X127670Y-160889D02*
X119111Y-163670D01*
X116330Y-155111D01*
X124889Y-152330D01*
X127670Y-160889D01*
G37*
G36*
X96889Y-163670D02*
X88330Y-160889D01*
X91111Y-152330D01*
X99670Y-155111D01*
X96889Y-163670D01*
G37*
G36*
X70005Y-147286D02*
X64715Y-140004D01*
X71996Y-134714D01*
X77286Y-141996D01*
X70005Y-147286D01*
G37*
G36*
X70004Y-80714D02*
X77286Y-86005D01*
X71996Y-93286D01*
X64714Y-87996D01*
X70004Y-80714D01*
G37*
G36*
X96889Y-64330D02*
X99670Y-72889D01*
X91111Y-75670D01*
X88330Y-67111D01*
X96889Y-64330D01*
G37*
X263000Y-146000D02*
G54D13*
D03*
X321000Y-80000D02*
G54D13*
D03*
G54D14*
X301000Y-87000D02*
X308000Y-80000D01*
X321000Y-80000D01*
X322000Y-109000D02*
G54D13*
D03*
X322000Y-137000D02*
G54D13*
D03*
G54D14*
X301000Y-141000D02*
X305000Y-137000D01*
X322000Y-137000D01*
G54D14*
X263000Y-146000D02*
X263000Y-137000D01*
X281000Y-171000D02*
G54D13*
D03*
X245000Y-170000D02*
G54D13*
D03*
G54D14*
X277000Y-158000D02*
X281000Y-162000D01*
X281000Y-171000D01*
G54D14*
X249000Y-158000D02*
X245000Y-162000D01*
X245000Y-170000D01*
X205000Y-137000D02*
G54D13*
D03*
X204000Y-104000D02*
G54D13*
D03*
X211000Y-78000D02*
G54D13*
D03*
G54D14*
X226000Y-87000D02*
X221000Y-82000D01*
X211000Y-78000D01*
G54D15*
X291500Y-326500D02*
X308500Y-326500D01*
G54D15*
X217500Y-326500D02*
X234500Y-326500D01*
G54D14*
X277000Y-70000D02*
X288000Y-59000D01*
X317000Y-59000D01*
X331000Y-73000D01*
X331000Y-145000D01*
X312000Y-164000D01*
G54D14*
X312000Y-164000D02*
X312000Y-190000D01*
X329000Y-207000D01*
X329000Y-321000D01*
X305000Y-198000D02*
G54D13*
D03*
G54D14*
X305000Y-198000D02*
X305000Y-200700D01*
X317900Y-213600D01*
X317900Y-233900D01*
X318000Y-234000D01*
X317900Y-233900D01*
X318000Y-234000D02*
G54D13*
D03*
X291000Y-226000D02*
G54D13*
D03*
X291000Y-199000D02*
G54D13*
D03*
X299000Y-163000D02*
G54D13*
D03*
G54D14*
X291000Y-199000D02*
X291000Y-226000D01*
G54D14*
X299000Y-165000D02*
X299000Y-168000D01*
X282000Y-185000D01*
X282000Y-229000D01*
X288000Y-235000D01*
X297000Y-235000D01*
X303000Y-229000D01*
X303000Y-229000D02*
G54D13*
D03*
X203500Y-234000D02*
G54D13*
D03*
X226000Y-165000D02*
G54D13*
D03*
G54D14*
X203000Y-234000D02*
X226000Y-234000D01*
X239000Y-221000D01*
X239000Y-178000D01*
X226000Y-165000D01*
G54D16*
X196000Y-80000D02*
X196000Y-167000D01*
X196000Y-167000D02*
G54D13*
D03*
X235000Y-291000D02*
G54D13*
D03*
G54D14*
X235000Y-291000D02*
X235000Y-283000D01*
X195000Y-243000D01*
X195000Y-213000D01*
X214000Y-194000D01*
X214000Y-160000D01*
X206000Y-152000D01*
X206000Y-152000D02*
G54D13*
D03*
X263000Y-183000D02*
G54D13*
D03*
X263000Y-191000D02*
G54D13*
D03*
G54D14*
X263000Y-183000D02*
X263000Y-191000D01*
X263000Y-310500D01*
G54D14*
X249000Y-70000D02*
X240000Y-61000D01*
X213000Y-61000D01*
X196000Y-78000D01*
G36*
X263000Y-183000D02*
X255000Y-183000D01*
X249000Y-189000D01*
X249000Y-290000D01*
X235000Y-304000D01*
X194000Y-304000D01*
X194000Y-331000D01*
X203000Y-331000D01*
X203000Y-321000D01*
X213000Y-311000D01*
X303000Y-311000D01*
X308000Y-306000D01*
X308000Y-267000D01*
X273000Y-232000D01*
X273000Y-187000D01*
X269000Y-183000D01*
X263000Y-183000D01*
G37*
G54D16*
X263000Y-183000D02*
X255000Y-183000D01*
X249000Y-189000D01*
X249000Y-290000D01*
X235000Y-304000D01*
X194000Y-304000D01*
X194000Y-331000D01*
X203000Y-331000D01*
X203000Y-321000D01*
X213000Y-311000D01*
X303000Y-311000D01*
X308000Y-306000D01*
X308000Y-267000D01*
X273000Y-232000D01*
X273000Y-187000D01*
X269000Y-183000D01*
X263000Y-183000D01*
G36*
X239000Y-196000D02*
X238000Y-196000D01*
X230000Y-204000D01*
X221000Y-204000D01*
X204000Y-221000D01*
X204000Y-233500D01*
X203500Y-234000D01*
X226000Y-234000D01*
X239000Y-221000D01*
X239000Y-196000D01*
G37*
G54D14*
X239000Y-196000D02*
X238000Y-196000D01*
X230000Y-204000D01*
X221000Y-204000D01*
X204000Y-221000D01*
X204000Y-233500D01*
X203500Y-234000D01*
X226000Y-234000D01*
X239000Y-221000D01*
X239000Y-196000D01*
G36*
X195000Y-243000D02*
X223000Y-243000D01*
X235000Y-255000D01*
X235000Y-291000D01*
X207000Y-291000D01*
X195000Y-279000D01*
X195000Y-243000D01*
G37*
G54D14*
X195000Y-243000D02*
X223000Y-243000D01*
X235000Y-255000D01*
X235000Y-291000D01*
X207000Y-291000D01*
X195000Y-279000D01*
X195000Y-243000D01*
G54D14*
X195000Y-239000D02*
X200000Y-244000D01*
G54D14*
X205000Y-137000D02*
X205000Y-138000D01*
X215000Y-148000D01*
X219000Y-148000D01*
X226000Y-141000D01*
G54D14*
X216000Y-114000D02*
X207000Y-114000D01*
X204000Y-111000D01*
X204000Y-104000D01*
G54D14*
X310000Y-112000D02*
X319000Y-112000D01*
X322000Y-109000D01*
G54D14*
X226000Y-326500D02*
X196500Y-326500D01*
X196000Y-327000D01*
G54D14*
X226000Y-326500D02*
X226000Y-308000D01*
G36*
X300000Y-326500D02*
X303500Y-326500D01*
X317000Y-313000D01*
X317000Y-249000D01*
X329000Y-237000D01*
X329000Y-322000D01*
X324000Y-327000D01*
X300500Y-327000D01*
X300000Y-326500D01*
G37*
G54D14*
X300000Y-326500D02*
X303500Y-326500D01*
X317000Y-313000D01*
X317000Y-249000D01*
X329000Y-237000D01*
X329000Y-322000D01*
X324000Y-327000D01*
X300500Y-327000D01*
X300000Y-326500D01*
G54D17*
G75*
G01X286000Y-114000D02*
G03X286000Y-114000I-23000J0D01*
G01*
G36*
X267250Y-74250D02*
X268644Y-60296D01*
X279687Y-62643D01*
X290000Y-67235D01*
X283000Y-79500D01*
X275500Y-76000D01*
X267250Y-74250D01*
G37*
G54D18*
X267250Y-74250D02*
X268644Y-60296D01*
X279687Y-62643D01*
X290000Y-67235D01*
X283000Y-79500D01*
X275500Y-76000D01*
X267250Y-74250D01*
G36*
X290119Y-84234D02*
X299449Y-73765D01*
X307003Y-82154D01*
X312648Y-91931D01*
X299775Y-97739D01*
X295765Y-90499D01*
X290119Y-84234D01*
G37*
G54D18*
X290119Y-84234D02*
X299449Y-73765D01*
X307003Y-82154D01*
X312648Y-91931D01*
X299775Y-97739D01*
X295765Y-90499D01*
X290119Y-84234D01*
G36*
X302170Y-105645D02*
X315872Y-102659D01*
X317052Y-113886D01*
X315872Y-125114D01*
X302044Y-122246D01*
X303055Y-114032D01*
X302170Y-105645D01*
G37*
G54D18*
X302170Y-105645D02*
X315872Y-102659D01*
X317052Y-113886D01*
X315872Y-125114D01*
X302044Y-122246D01*
X303055Y-114032D01*
X302170Y-105645D01*
G36*
X299491Y-130325D02*
X312332Y-135964D01*
X306687Y-145740D01*
X299133Y-154130D01*
X289631Y-143682D01*
X295277Y-137631D01*
X299491Y-130325D01*
G37*
G54D18*
X299491Y-130325D02*
X312332Y-135964D01*
X306687Y-145740D01*
X299133Y-154130D01*
X289631Y-143682D01*
X295277Y-137631D01*
X299491Y-130325D01*
G36*
X283020Y-148712D02*
X290094Y-160821D01*
X279780Y-165413D01*
X268738Y-167760D01*
X267192Y-153723D01*
X275317Y-152146D01*
X283020Y-148712D01*
G37*
G54D18*
X283020Y-148712D02*
X290094Y-160821D01*
X279780Y-165413D01*
X268738Y-167760D01*
X267192Y-153723D01*
X275317Y-152146D01*
X283020Y-148712D01*
G36*
X258777Y-153852D02*
X257383Y-167806D01*
X246340Y-165459D01*
X236027Y-160867D01*
X243027Y-148602D01*
X250527Y-152102D01*
X258777Y-153852D01*
G37*
G54D18*
X258777Y-153852D02*
X257383Y-167806D01*
X246340Y-165459D01*
X236027Y-160867D01*
X243027Y-148602D01*
X250527Y-152102D01*
X258777Y-153852D01*
G36*
X236158Y-143618D02*
X226828Y-154087D01*
X219274Y-145698D01*
X213629Y-135921D01*
X226502Y-130113D01*
X230512Y-137353D01*
X236158Y-143618D01*
G37*
G54D18*
X236158Y-143618D02*
X226828Y-154087D01*
X219274Y-145698D01*
X213629Y-135921D01*
X226502Y-130113D01*
X230512Y-137353D01*
X236158Y-143618D01*
G36*
X223607Y-122457D02*
X209904Y-125443D01*
X208724Y-114216D01*
X209904Y-102988D01*
X223733Y-105856D01*
X222722Y-114070D01*
X223607Y-122457D01*
G37*
G54D18*
X223607Y-122457D02*
X209904Y-125443D01*
X208724Y-114216D01*
X209904Y-102988D01*
X223733Y-105856D01*
X222722Y-114070D01*
X223607Y-122457D01*
G36*
X226509Y-97675D02*
X213668Y-92036D01*
X219313Y-82260D01*
X226867Y-73870D01*
X236369Y-84318D01*
X230723Y-90369D01*
X226509Y-97675D01*
G37*
G54D18*
X226509Y-97675D02*
X213668Y-92036D01*
X219313Y-82260D01*
X226867Y-73870D01*
X236369Y-84318D01*
X230723Y-90369D01*
X226509Y-97675D01*
G36*
X242980Y-79287D02*
X235906Y-67178D01*
X246219Y-62586D01*
X257262Y-60239D01*
X258808Y-74277D01*
X250683Y-75854D01*
X242980Y-79287D01*
G37*
G54D18*
X242980Y-79287D02*
X235906Y-67178D01*
X246219Y-62586D01*
X257262Y-60239D01*
X258808Y-74277D01*
X250683Y-75854D01*
X242980Y-79287D01*
X310000Y-114000D02*
G54D19*
D03*
X217000Y-114000D02*
G54D19*
D03*
G36*
X274111Y-64330D02*
X282670Y-67111D01*
X279889Y-75670D01*
X271330Y-72889D01*
X274111Y-64330D01*
G37*
G36*
X301996Y-80714D02*
X307285Y-87996D01*
X300004Y-93286D01*
X294714Y-86004D01*
X301996Y-80714D01*
G37*
G36*
X307286Y-140004D02*
X301995Y-147286D01*
X294714Y-141996D01*
X300005Y-134714D01*
X307286Y-140004D01*
G37*
G36*
X282670Y-160889D02*
X274111Y-163670D01*
X271330Y-155111D01*
X279889Y-152330D01*
X282670Y-160889D01*
G37*
G36*
X251889Y-163670D02*
X243330Y-160889D01*
X246111Y-152330D01*
X254670Y-155111D01*
X251889Y-163670D01*
G37*
G36*
X225005Y-147286D02*
X219715Y-140004D01*
X226996Y-134714D01*
X232286Y-141996D01*
X225005Y-147286D01*
G37*
G36*
X225004Y-80714D02*
X232286Y-86005D01*
X226996Y-93286D01*
X219714Y-87996D01*
X225004Y-80714D01*
G37*
G36*
X251889Y-64330D02*
X254670Y-72889D01*
X246111Y-75670D01*
X243330Y-67111D01*
X251889Y-64330D01*
G37*
X418000Y-146000D02*
G54D13*
D03*
X476000Y-80000D02*
G54D13*
D03*
G54D14*
X456000Y-87000D02*
X463000Y-80000D01*
X476000Y-80000D01*
X477000Y-109000D02*
G54D13*
D03*
X477000Y-137000D02*
G54D13*
D03*
G54D14*
X456000Y-141000D02*
X460000Y-137000D01*
X477000Y-137000D01*
G54D14*
X418000Y-146000D02*
X418000Y-137000D01*
X436000Y-171000D02*
G54D13*
D03*
X400000Y-170000D02*
G54D13*
D03*
G54D14*
X432000Y-158000D02*
X436000Y-162000D01*
X436000Y-171000D01*
G54D14*
X404000Y-158000D02*
X400000Y-162000D01*
X400000Y-170000D01*
X360000Y-137000D02*
G54D13*
D03*
X359000Y-104000D02*
G54D13*
D03*
X366000Y-78000D02*
G54D13*
D03*
G54D14*
X381000Y-87000D02*
X376000Y-82000D01*
X366000Y-78000D01*
G54D15*
X446500Y-326500D02*
X463500Y-326500D01*
G54D15*
X372500Y-326500D02*
X389500Y-326500D01*
G54D14*
X432000Y-70000D02*
X443000Y-59000D01*
X472000Y-59000D01*
X486000Y-73000D01*
X486000Y-145000D01*
X467000Y-164000D01*
G54D14*
X467000Y-164000D02*
X467000Y-190000D01*
X484000Y-207000D01*
X484000Y-321000D01*
X460000Y-198000D02*
G54D13*
D03*
G54D14*
X460000Y-198000D02*
X460000Y-200700D01*
X472900Y-213600D01*
X472900Y-233900D01*
X473000Y-234000D01*
X472900Y-233900D01*
X473000Y-234000D02*
G54D13*
D03*
X446000Y-226000D02*
G54D13*
D03*
X446000Y-199000D02*
G54D13*
D03*
X454000Y-163000D02*
G54D13*
D03*
G54D14*
X446000Y-199000D02*
X446000Y-226000D01*
G54D14*
X454000Y-165000D02*
X454000Y-168000D01*
X437000Y-185000D01*
X437000Y-229000D01*
X443000Y-235000D01*
X452000Y-235000D01*
X458000Y-229000D01*
X458000Y-229000D02*
G54D13*
D03*
X358500Y-234000D02*
G54D13*
D03*
X381000Y-165000D02*
G54D13*
D03*
G54D14*
X358000Y-234000D02*
X381000Y-234000D01*
X394000Y-221000D01*
X394000Y-178000D01*
X381000Y-165000D01*
G54D16*
X351000Y-80000D02*
X351000Y-167000D01*
X351000Y-167000D02*
G54D13*
D03*
X390000Y-291000D02*
G54D13*
D03*
G54D14*
X390000Y-291000D02*
X390000Y-283000D01*
X350000Y-243000D01*
X350000Y-213000D01*
X369000Y-194000D01*
X369000Y-160000D01*
X361000Y-152000D01*
X361000Y-152000D02*
G54D13*
D03*
X418000Y-183000D02*
G54D13*
D03*
X418000Y-191000D02*
G54D13*
D03*
G54D14*
X418000Y-183000D02*
X418000Y-191000D01*
X418000Y-310500D01*
G54D14*
X404000Y-70000D02*
X395000Y-61000D01*
X368000Y-61000D01*
X351000Y-78000D01*
G36*
X418000Y-183000D02*
X410000Y-183000D01*
X404000Y-189000D01*
X404000Y-290000D01*
X390000Y-304000D01*
X349000Y-304000D01*
X349000Y-331000D01*
X358000Y-331000D01*
X358000Y-321000D01*
X368000Y-311000D01*
X458000Y-311000D01*
X463000Y-306000D01*
X463000Y-267000D01*
X428000Y-232000D01*
X428000Y-187000D01*
X424000Y-183000D01*
X418000Y-183000D01*
G37*
G54D16*
X418000Y-183000D02*
X410000Y-183000D01*
X404000Y-189000D01*
X404000Y-290000D01*
X390000Y-304000D01*
X349000Y-304000D01*
X349000Y-331000D01*
X358000Y-331000D01*
X358000Y-321000D01*
X368000Y-311000D01*
X458000Y-311000D01*
X463000Y-306000D01*
X463000Y-267000D01*
X428000Y-232000D01*
X428000Y-187000D01*
X424000Y-183000D01*
X418000Y-183000D01*
G36*
X394000Y-196000D02*
X393000Y-196000D01*
X385000Y-204000D01*
X376000Y-204000D01*
X359000Y-221000D01*
X359000Y-233500D01*
X358500Y-234000D01*
X381000Y-234000D01*
X394000Y-221000D01*
X394000Y-196000D01*
G37*
G54D14*
X394000Y-196000D02*
X393000Y-196000D01*
X385000Y-204000D01*
X376000Y-204000D01*
X359000Y-221000D01*
X359000Y-233500D01*
X358500Y-234000D01*
X381000Y-234000D01*
X394000Y-221000D01*
X394000Y-196000D01*
G36*
X350000Y-243000D02*
X378000Y-243000D01*
X390000Y-255000D01*
X390000Y-291000D01*
X362000Y-291000D01*
X350000Y-279000D01*
X350000Y-243000D01*
G37*
G54D14*
X350000Y-243000D02*
X378000Y-243000D01*
X390000Y-255000D01*
X390000Y-291000D01*
X362000Y-291000D01*
X350000Y-279000D01*
X350000Y-243000D01*
G54D14*
X350000Y-239000D02*
X355000Y-244000D01*
G54D14*
X360000Y-137000D02*
X360000Y-138000D01*
X370000Y-148000D01*
X374000Y-148000D01*
X381000Y-141000D01*
G54D14*
X371000Y-114000D02*
X362000Y-114000D01*
X359000Y-111000D01*
X359000Y-104000D01*
G54D14*
X465000Y-112000D02*
X474000Y-112000D01*
X477000Y-109000D01*
G54D14*
X381000Y-326500D02*
X351500Y-326500D01*
X351000Y-327000D01*
G54D14*
X381000Y-326500D02*
X381000Y-308000D01*
G36*
X455000Y-326500D02*
X458500Y-326500D01*
X472000Y-313000D01*
X472000Y-249000D01*
X484000Y-237000D01*
X484000Y-322000D01*
X479000Y-327000D01*
X455500Y-327000D01*
X455000Y-326500D01*
G37*
G54D14*
X455000Y-326500D02*
X458500Y-326500D01*
X472000Y-313000D01*
X472000Y-249000D01*
X484000Y-237000D01*
X484000Y-322000D01*
X479000Y-327000D01*
X455500Y-327000D01*
X455000Y-326500D01*
G54D17*
G75*
G01X441000Y-114000D02*
G03X441000Y-114000I-23000J0D01*
G01*
G36*
X422250Y-74250D02*
X423644Y-60296D01*
X434687Y-62643D01*
X445000Y-67235D01*
X438000Y-79500D01*
X430500Y-76000D01*
X422250Y-74250D01*
G37*
G54D18*
X422250Y-74250D02*
X423644Y-60296D01*
X434687Y-62643D01*
X445000Y-67235D01*
X438000Y-79500D01*
X430500Y-76000D01*
X422250Y-74250D01*
G36*
X445119Y-84234D02*
X454449Y-73765D01*
X462003Y-82154D01*
X467648Y-91931D01*
X454775Y-97739D01*
X450765Y-90499D01*
X445119Y-84234D01*
G37*
G54D18*
X445119Y-84234D02*
X454449Y-73765D01*
X462003Y-82154D01*
X467648Y-91931D01*
X454775Y-97739D01*
X450765Y-90499D01*
X445119Y-84234D01*
G36*
X457170Y-105645D02*
X470872Y-102659D01*
X472052Y-113886D01*
X470872Y-125114D01*
X457044Y-122246D01*
X458055Y-114032D01*
X457170Y-105645D01*
G37*
G54D18*
X457170Y-105645D02*
X470872Y-102659D01*
X472052Y-113886D01*
X470872Y-125114D01*
X457044Y-122246D01*
X458055Y-114032D01*
X457170Y-105645D01*
G36*
X454491Y-130325D02*
X467332Y-135964D01*
X461687Y-145740D01*
X454133Y-154130D01*
X444631Y-143682D01*
X450277Y-137631D01*
X454491Y-130325D01*
G37*
G54D18*
X454491Y-130325D02*
X467332Y-135964D01*
X461687Y-145740D01*
X454133Y-154130D01*
X444631Y-143682D01*
X450277Y-137631D01*
X454491Y-130325D01*
G36*
X438020Y-148712D02*
X445094Y-160821D01*
X434780Y-165413D01*
X423738Y-167760D01*
X422192Y-153723D01*
X430317Y-152146D01*
X438020Y-148712D01*
G37*
G54D18*
X438020Y-148712D02*
X445094Y-160821D01*
X434780Y-165413D01*
X423738Y-167760D01*
X422192Y-153723D01*
X430317Y-152146D01*
X438020Y-148712D01*
G36*
X413777Y-153852D02*
X412383Y-167806D01*
X401340Y-165459D01*
X391027Y-160867D01*
X398027Y-148602D01*
X405527Y-152102D01*
X413777Y-153852D01*
G37*
G54D18*
X413777Y-153852D02*
X412383Y-167806D01*
X401340Y-165459D01*
X391027Y-160867D01*
X398027Y-148602D01*
X405527Y-152102D01*
X413777Y-153852D01*
G36*
X391158Y-143618D02*
X381828Y-154087D01*
X374274Y-145698D01*
X368629Y-135921D01*
X381502Y-130113D01*
X385512Y-137353D01*
X391158Y-143618D01*
G37*
G54D18*
X391158Y-143618D02*
X381828Y-154087D01*
X374274Y-145698D01*
X368629Y-135921D01*
X381502Y-130113D01*
X385512Y-137353D01*
X391158Y-143618D01*
G36*
X378607Y-122457D02*
X364904Y-125443D01*
X363724Y-114216D01*
X364904Y-102988D01*
X378733Y-105856D01*
X377722Y-114070D01*
X378607Y-122457D01*
G37*
G54D18*
X378607Y-122457D02*
X364904Y-125443D01*
X363724Y-114216D01*
X364904Y-102988D01*
X378733Y-105856D01*
X377722Y-114070D01*
X378607Y-122457D01*
G36*
X381509Y-97675D02*
X368668Y-92036D01*
X374313Y-82260D01*
X381867Y-73870D01*
X391369Y-84318D01*
X385723Y-90369D01*
X381509Y-97675D01*
G37*
G54D18*
X381509Y-97675D02*
X368668Y-92036D01*
X374313Y-82260D01*
X381867Y-73870D01*
X391369Y-84318D01*
X385723Y-90369D01*
X381509Y-97675D01*
G36*
X397980Y-79287D02*
X390906Y-67178D01*
X401219Y-62586D01*
X412262Y-60239D01*
X413808Y-74277D01*
X405683Y-75854D01*
X397980Y-79287D01*
G37*
G54D18*
X397980Y-79287D02*
X390906Y-67178D01*
X401219Y-62586D01*
X412262Y-60239D01*
X413808Y-74277D01*
X405683Y-75854D01*
X397980Y-79287D01*
X465000Y-114000D02*
G54D19*
D03*
X372000Y-114000D02*
G54D19*
D03*
G36*
X429111Y-64330D02*
X437670Y-67111D01*
X434889Y-75670D01*
X426330Y-72889D01*
X429111Y-64330D01*
G37*
G36*
X456996Y-80714D02*
X462285Y-87996D01*
X455004Y-93286D01*
X449714Y-86004D01*
X456996Y-80714D01*
G37*
G36*
X462286Y-140004D02*
X456995Y-147286D01*
X449714Y-141996D01*
X455005Y-134714D01*
X462286Y-140004D01*
G37*
G36*
X437670Y-160889D02*
X429111Y-163670D01*
X426330Y-155111D01*
X434889Y-152330D01*
X437670Y-160889D01*
G37*
G36*
X406889Y-163670D02*
X398330Y-160889D01*
X401111Y-152330D01*
X409670Y-155111D01*
X406889Y-163670D01*
G37*
G36*
X380005Y-147286D02*
X374715Y-140004D01*
X381996Y-134714D01*
X387286Y-141996D01*
X380005Y-147286D01*
G37*
G36*
X380004Y-80714D02*
X387286Y-86005D01*
X381996Y-93286D01*
X374714Y-87996D01*
X380004Y-80714D01*
G37*
G36*
X406889Y-64330D02*
X409670Y-72889D01*
X401111Y-75670D01*
X398330Y-67111D01*
X406889Y-64330D01*
G37*
X140750Y-418250D02*
G54D13*
D03*
X74750Y-360250D02*
G54D13*
D03*
G54D14*
X81750Y-380250D02*
X74750Y-373250D01*
X74750Y-360250D01*
X103750Y-359250D02*
G54D13*
D03*
X131750Y-359250D02*
G54D13*
D03*
G54D14*
X135750Y-380250D02*
X131750Y-376250D01*
X131750Y-359250D01*
G54D14*
X140750Y-418250D02*
X131750Y-418250D01*
X165750Y-400250D02*
G54D13*
D03*
X164750Y-436250D02*
G54D13*
D03*
G54D14*
X152750Y-404250D02*
X156750Y-400250D01*
X165750Y-400250D01*
G54D14*
X152750Y-432250D02*
X156750Y-436250D01*
X164750Y-436250D01*
X131750Y-476250D02*
G54D13*
D03*
X98750Y-477250D02*
G54D13*
D03*
X72750Y-470250D02*
G54D13*
D03*
G54D14*
X81750Y-455250D02*
X76750Y-460250D01*
X72750Y-470250D01*
G54D15*
X321250Y-389750D02*
X321250Y-372750D01*
G54D15*
X321250Y-463750D02*
X321250Y-446750D01*
G54D14*
X64750Y-404250D02*
X53750Y-393250D01*
X53750Y-364250D01*
X67750Y-350250D01*
X139750Y-350250D01*
X158750Y-369250D01*
G54D14*
X158750Y-369250D02*
X184750Y-369250D01*
X201750Y-352250D01*
X315750Y-352250D01*
X192750Y-376250D02*
G54D13*
D03*
G54D14*
X192750Y-376250D02*
X195450Y-376250D01*
X208350Y-363350D01*
X228650Y-363350D01*
X228750Y-363250D01*
X228650Y-363350D01*
X228750Y-363250D02*
G54D13*
D03*
X220750Y-390250D02*
G54D13*
D03*
X193750Y-390250D02*
G54D13*
D03*
X157750Y-382250D02*
G54D13*
D03*
G54D14*
X193750Y-390250D02*
X220750Y-390250D01*
G54D14*
X159750Y-382250D02*
X162750Y-382250D01*
X179750Y-399250D01*
X223750Y-399250D01*
X229750Y-393250D01*
X229750Y-384250D01*
X223750Y-378250D01*
X223750Y-378250D02*
G54D13*
D03*
X228750Y-477750D02*
G54D13*
D03*
X159750Y-455250D02*
G54D13*
D03*
G54D14*
X228750Y-478250D02*
X228750Y-455250D01*
X215750Y-442250D01*
X172750Y-442250D01*
X159750Y-455250D01*
G54D16*
X74750Y-485250D02*
X161750Y-485250D01*
X161750Y-485250D02*
G54D13*
D03*
X285750Y-446250D02*
G54D13*
D03*
G54D14*
X285750Y-446250D02*
X277750Y-446250D01*
X237750Y-486250D01*
X207750Y-486250D01*
X188750Y-467250D01*
X154750Y-467250D01*
X146750Y-475250D01*
X146750Y-475250D02*
G54D13*
D03*
X177750Y-418250D02*
G54D13*
D03*
X185750Y-418250D02*
G54D13*
D03*
G54D14*
X177750Y-418250D02*
X185750Y-418250D01*
X305250Y-418250D01*
G54D14*
X64750Y-432250D02*
X55750Y-441250D01*
X55750Y-468250D01*
X72750Y-485250D01*
G36*
X177750Y-418250D02*
X177750Y-426250D01*
X183750Y-432250D01*
X284750Y-432250D01*
X298750Y-446250D01*
X298750Y-487250D01*
X325750Y-487250D01*
X325750Y-478250D01*
X315750Y-478250D01*
X305750Y-468250D01*
X305750Y-378250D01*
X300750Y-373250D01*
X261750Y-373250D01*
X226750Y-408250D01*
X181750Y-408250D01*
X177750Y-412250D01*
X177750Y-418250D01*
G37*
G54D16*
X177750Y-418250D02*
X177750Y-426250D01*
X183750Y-432250D01*
X284750Y-432250D01*
X298750Y-446250D01*
X298750Y-487250D01*
X325750Y-487250D01*
X325750Y-478250D01*
X315750Y-478250D01*
X305750Y-468250D01*
X305750Y-378250D01*
X300750Y-373250D01*
X261750Y-373250D01*
X226750Y-408250D01*
X181750Y-408250D01*
X177750Y-412250D01*
X177750Y-418250D01*
G36*
X190750Y-442250D02*
X190750Y-443250D01*
X198750Y-451250D01*
X198750Y-460250D01*
X215750Y-477250D01*
X228250Y-477250D01*
X228750Y-477750D01*
X228750Y-455250D01*
X215750Y-442250D01*
X190750Y-442250D01*
G37*
G54D14*
X190750Y-442250D02*
X190750Y-443250D01*
X198750Y-451250D01*
X198750Y-460250D01*
X215750Y-477250D01*
X228250Y-477250D01*
X228750Y-477750D01*
X228750Y-455250D01*
X215750Y-442250D01*
X190750Y-442250D01*
G36*
X237750Y-486250D02*
X237750Y-458250D01*
X249750Y-446250D01*
X285750Y-446250D01*
X285750Y-474250D01*
X273750Y-486250D01*
X237750Y-486250D01*
G37*
G54D14*
X237750Y-486250D02*
X237750Y-458250D01*
X249750Y-446250D01*
X285750Y-446250D01*
X285750Y-474250D01*
X273750Y-486250D01*
X237750Y-486250D01*
G54D14*
X233750Y-486250D02*
X238750Y-481250D01*
G54D14*
X131750Y-476250D02*
X132750Y-476250D01*
X142750Y-466250D01*
X142750Y-462250D01*
X135750Y-455250D01*
G54D14*
X108750Y-465250D02*
X108750Y-474250D01*
X105750Y-477250D01*
X98750Y-477250D01*
G54D14*
X106750Y-371250D02*
X106750Y-362250D01*
X103750Y-359250D01*
G54D14*
X321250Y-455250D02*
X321250Y-484750D01*
X321750Y-485250D01*
G54D14*
X321250Y-455250D02*
X302750Y-455250D01*
G36*
X321250Y-381250D02*
X321250Y-377750D01*
X307750Y-364250D01*
X243750Y-364250D01*
X231750Y-352250D01*
X316750Y-352250D01*
X321750Y-357250D01*
X321750Y-380750D01*
X321250Y-381250D01*
G37*
G54D14*
X321250Y-381250D02*
X321250Y-377750D01*
X307750Y-364250D01*
X243750Y-364250D01*
X231750Y-352250D01*
X316750Y-352250D01*
X321750Y-357250D01*
X321750Y-380750D01*
X321250Y-381250D01*
G54D17*
G75*
G01X131750Y-418250D02*
G03X131750Y-418250I-23000J0D01*
G01*
G36*
X69000Y-414000D02*
X55046Y-412606D01*
X57393Y-401563D01*
X61985Y-391250D01*
X74250Y-398250D01*
X70750Y-405750D01*
X69000Y-414000D01*
G37*
G54D18*
X69000Y-414000D02*
X55046Y-412606D01*
X57393Y-401563D01*
X61985Y-391250D01*
X74250Y-398250D01*
X70750Y-405750D01*
X69000Y-414000D01*
G36*
X78984Y-391131D02*
X68515Y-381801D01*
X76904Y-374247D01*
X86681Y-368602D01*
X92489Y-381475D01*
X85249Y-385485D01*
X78984Y-391131D01*
G37*
G54D18*
X78984Y-391131D02*
X68515Y-381801D01*
X76904Y-374247D01*
X86681Y-368602D01*
X92489Y-381475D01*
X85249Y-385485D01*
X78984Y-391131D01*
G36*
X100395Y-379080D02*
X97409Y-365378D01*
X108636Y-364198D01*
X119864Y-365378D01*
X116997Y-379206D01*
X108782Y-378195D01*
X100395Y-379080D01*
G37*
G54D18*
X100395Y-379080D02*
X97409Y-365378D01*
X108636Y-364198D01*
X119864Y-365378D01*
X116997Y-379206D01*
X108782Y-378195D01*
X100395Y-379080D01*
G36*
X125075Y-381759D02*
X130714Y-368918D01*
X140490Y-374563D01*
X148880Y-382117D01*
X138432Y-391619D01*
X132381Y-385973D01*
X125075Y-381759D01*
G37*
G54D18*
X125075Y-381759D02*
X130714Y-368918D01*
X140490Y-374563D01*
X148880Y-382117D01*
X138432Y-391619D01*
X132381Y-385973D01*
X125075Y-381759D01*
G36*
X143462Y-398230D02*
X155571Y-391156D01*
X160163Y-401470D01*
X162510Y-412512D01*
X148473Y-414058D01*
X146896Y-405933D01*
X143462Y-398230D01*
G37*
G54D18*
X143462Y-398230D02*
X155571Y-391156D01*
X160163Y-401470D01*
X162510Y-412512D01*
X148473Y-414058D01*
X146896Y-405933D01*
X143462Y-398230D01*
G36*
X148602Y-422473D02*
X162556Y-423867D01*
X160209Y-434910D01*
X155617Y-445223D01*
X143352Y-438223D01*
X146852Y-430723D01*
X148602Y-422473D01*
G37*
G54D18*
X148602Y-422473D02*
X162556Y-423867D01*
X160209Y-434910D01*
X155617Y-445223D01*
X143352Y-438223D01*
X146852Y-430723D01*
X148602Y-422473D01*
G36*
X138368Y-445092D02*
X148837Y-454422D01*
X140448Y-461976D01*
X130671Y-467621D01*
X124863Y-454748D01*
X132103Y-450738D01*
X138368Y-445092D01*
G37*
G54D18*
X138368Y-445092D02*
X148837Y-454422D01*
X140448Y-461976D01*
X130671Y-467621D01*
X124863Y-454748D01*
X132103Y-450738D01*
X138368Y-445092D01*
G36*
X117207Y-457643D02*
X120193Y-471346D01*
X108966Y-472526D01*
X97738Y-471346D01*
X100606Y-457517D01*
X108820Y-458528D01*
X117207Y-457643D01*
G37*
G54D18*
X117207Y-457643D02*
X120193Y-471346D01*
X108966Y-472526D01*
X97738Y-471346D01*
X100606Y-457517D01*
X108820Y-458528D01*
X117207Y-457643D01*
G36*
X92425Y-454741D02*
X86786Y-467582D01*
X77010Y-461937D01*
X68620Y-454383D01*
X79068Y-444881D01*
X85119Y-450527D01*
X92425Y-454741D01*
G37*
G54D18*
X92425Y-454741D02*
X86786Y-467582D01*
X77010Y-461937D01*
X68620Y-454383D01*
X79068Y-444881D01*
X85119Y-450527D01*
X92425Y-454741D01*
G36*
X74037Y-438270D02*
X61928Y-445344D01*
X57337Y-435031D01*
X54989Y-423988D01*
X69027Y-422442D01*
X70604Y-430567D01*
X74037Y-438270D01*
G37*
G54D18*
X74037Y-438270D02*
X61928Y-445344D01*
X57337Y-435031D01*
X54989Y-423988D01*
X69027Y-422442D01*
X70604Y-430567D01*
X74037Y-438270D01*
X108750Y-371250D02*
G54D19*
D03*
X108750Y-464250D02*
G54D19*
D03*
G36*
X59080Y-407139D02*
X61861Y-398580D01*
X70420Y-401361D01*
X67639Y-409920D01*
X59080Y-407139D01*
G37*
G36*
X75464Y-379254D02*
X82746Y-373965D01*
X88036Y-381246D01*
X80754Y-386536D01*
X75464Y-379254D01*
G37*
G36*
X134755Y-373964D02*
X142036Y-379255D01*
X136745Y-386536D01*
X129464Y-381245D01*
X134755Y-373964D01*
G37*
G36*
X155639Y-398580D02*
X158420Y-407139D01*
X149861Y-409920D01*
X147080Y-401361D01*
X155639Y-398580D01*
G37*
G36*
X158420Y-429361D02*
X155639Y-437920D01*
X147080Y-435139D01*
X149861Y-426580D01*
X158420Y-429361D01*
G37*
G36*
X142036Y-456246D02*
X134754Y-461536D01*
X129464Y-454254D01*
X136746Y-448964D01*
X142036Y-456246D01*
G37*
G36*
X75464Y-456246D02*
X80755Y-448964D01*
X88036Y-454254D01*
X82746Y-461536D01*
X75464Y-456246D01*
G37*
G36*
X59080Y-429361D02*
X67639Y-426580D01*
X70420Y-435139D01*
X61861Y-437920D01*
X59080Y-429361D01*
G37*
M02*
