; Drill file
; Format: 3.3 (000.000)
M48
METRIC
T01C1.2
T02C1.5
%
G05
G90
T01
X003.980Y-045.020
X003.980Y-038.620
X018.180Y-038.120
X018.180Y-045.520
X014.500Y-018.700
X007.100Y-018.700
X007.600Y-004.500
X014.000Y-004.500
X023.100Y-004.500
X029.500Y-004.500
X038.600Y-004.500
X045.000Y-004.500
X045.500Y-018.700
X038.100Y-018.700
X030.000Y-018.700
X022.600Y-018.700
T02
X010.880Y-041.820
X017.780Y-035.520
X017.780Y-048.120
X017.100Y-018.300
X020.000Y-018.300
X026.300Y-011.400
X032.600Y-018.300
X035.500Y-018.300
X041.800Y-011.400
X048.100Y-018.300
X010.800Y-011.400
X004.500Y-018.300
M30
