%FSLAX34Y34*%
%MOMM*%
%LNSOLDERMASK_TOP*%
G71*
G01*
%ADD10C, 2.400*%
%ADD11R, 0.700X1.850*%
%ADD12C, 1.100*%
%ADD13C, 2.100*%
%ADD14C, 0.750*%
%ADD15R, 1.300X1.300*%
%LPD*%
G36*
X343597Y-459325D02*
X367597Y-459325D01*
X367597Y-483325D01*
X343597Y-483325D01*
X343597Y-459325D01*
G37*
X380997Y-471325D02*
G54D10*
D03*
X406397Y-471325D02*
G54D10*
D03*
X431797Y-471325D02*
G54D10*
D03*
X457197Y-471325D02*
G54D10*
D03*
X457197Y-369725D02*
G54D10*
D03*
X431797Y-369725D02*
G54D10*
D03*
X406397Y-369725D02*
G54D10*
D03*
X380997Y-369725D02*
G54D10*
D03*
G36*
X343597Y-357725D02*
X367597Y-357725D01*
X367597Y-381725D01*
X343597Y-381725D01*
X343597Y-357725D01*
G37*
X406600Y-441000D02*
G54D11*
D03*
X406600Y-397000D02*
G54D11*
D03*
X411600Y-441000D02*
G54D11*
D03*
X411600Y-397000D02*
G54D11*
D03*
X416600Y-441000D02*
G54D11*
D03*
X416600Y-397000D02*
G54D11*
D03*
X421600Y-441000D02*
G54D11*
D03*
X421600Y-397000D02*
G54D11*
D03*
X426600Y-441000D02*
G54D11*
D03*
X426600Y-397000D02*
G54D11*
D03*
X431600Y-441000D02*
G54D11*
D03*
X431600Y-397000D02*
G54D11*
D03*
X482597Y-471325D02*
G54D10*
D03*
X482597Y-369725D02*
G54D10*
D03*
X108000Y-146000D02*
G54D12*
D03*
X166000Y-80000D02*
G54D12*
D03*
X167000Y-109000D02*
G54D12*
D03*
X167000Y-137000D02*
G54D12*
D03*
X126000Y-171000D02*
G54D12*
D03*
X90000Y-170000D02*
G54D12*
D03*
X50000Y-137000D02*
G54D12*
D03*
X49000Y-104000D02*
G54D12*
D03*
X56000Y-78000D02*
G54D12*
D03*
G54D13*
X136500Y-326500D02*
X153500Y-326500D01*
G54D13*
X62500Y-326500D02*
X79500Y-326500D01*
X150000Y-198000D02*
G54D12*
D03*
X163000Y-234000D02*
G54D12*
D03*
X136000Y-226000D02*
G54D12*
D03*
X136000Y-199000D02*
G54D12*
D03*
X144000Y-163000D02*
G54D12*
D03*
X148000Y-229000D02*
G54D12*
D03*
X48500Y-234000D02*
G54D12*
D03*
X71000Y-165000D02*
G54D12*
D03*
X41000Y-167000D02*
G54D12*
D03*
X80000Y-291000D02*
G54D12*
D03*
X51000Y-152000D02*
G54D12*
D03*
X108000Y-183000D02*
G54D12*
D03*
X108000Y-191000D02*
G54D12*
D03*
G54D13*
G75*
G01X131000Y-114000D02*
G03X131000Y-114000I-23000J0D01*
G01*
G36*
X112250Y-74250D02*
X113644Y-60296D01*
X124687Y-62643D01*
X135000Y-67235D01*
X128000Y-79500D01*
X120500Y-76000D01*
X112250Y-74250D01*
G37*
G54D14*
X112250Y-74250D02*
X113644Y-60296D01*
X124687Y-62643D01*
X135000Y-67235D01*
X128000Y-79500D01*
X120500Y-76000D01*
X112250Y-74250D01*
G36*
X135119Y-84234D02*
X144449Y-73765D01*
X152003Y-82154D01*
X157648Y-91931D01*
X144775Y-97739D01*
X140765Y-90499D01*
X135119Y-84234D01*
G37*
G54D14*
X135119Y-84234D02*
X144449Y-73765D01*
X152003Y-82154D01*
X157648Y-91931D01*
X144775Y-97739D01*
X140765Y-90499D01*
X135119Y-84234D01*
G36*
X147170Y-105645D02*
X160872Y-102659D01*
X162052Y-113886D01*
X160872Y-125114D01*
X147044Y-122246D01*
X148055Y-114032D01*
X147170Y-105645D01*
G37*
G54D14*
X147170Y-105645D02*
X160872Y-102659D01*
X162052Y-113886D01*
X160872Y-125114D01*
X147044Y-122246D01*
X148055Y-114032D01*
X147170Y-105645D01*
G36*
X144491Y-130325D02*
X157332Y-135964D01*
X151687Y-145740D01*
X144133Y-154130D01*
X134631Y-143682D01*
X140277Y-137631D01*
X144491Y-130325D01*
G37*
G54D14*
X144491Y-130325D02*
X157332Y-135964D01*
X151687Y-145740D01*
X144133Y-154130D01*
X134631Y-143682D01*
X140277Y-137631D01*
X144491Y-130325D01*
G36*
X128020Y-148712D02*
X135094Y-160821D01*
X124780Y-165413D01*
X113738Y-167760D01*
X112192Y-153723D01*
X120317Y-152146D01*
X128020Y-148712D01*
G37*
G54D14*
X128020Y-148712D02*
X135094Y-160821D01*
X124780Y-165413D01*
X113738Y-167760D01*
X112192Y-153723D01*
X120317Y-152146D01*
X128020Y-148712D01*
G36*
X103777Y-153852D02*
X102383Y-167806D01*
X91340Y-165459D01*
X81027Y-160867D01*
X88027Y-148602D01*
X95527Y-152102D01*
X103777Y-153852D01*
G37*
G54D14*
X103777Y-153852D02*
X102383Y-167806D01*
X91340Y-165459D01*
X81027Y-160867D01*
X88027Y-148602D01*
X95527Y-152102D01*
X103777Y-153852D01*
G36*
X81158Y-143618D02*
X71828Y-154087D01*
X64274Y-145698D01*
X58629Y-135921D01*
X71502Y-130113D01*
X75512Y-137353D01*
X81158Y-143618D01*
G37*
G54D14*
X81158Y-143618D02*
X71828Y-154087D01*
X64274Y-145698D01*
X58629Y-135921D01*
X71502Y-130113D01*
X75512Y-137353D01*
X81158Y-143618D01*
G36*
X68607Y-122457D02*
X54904Y-125443D01*
X53724Y-114216D01*
X54904Y-102988D01*
X68733Y-105856D01*
X67722Y-114070D01*
X68607Y-122457D01*
G37*
G54D14*
X68607Y-122457D02*
X54904Y-125443D01*
X53724Y-114216D01*
X54904Y-102988D01*
X68733Y-105856D01*
X67722Y-114070D01*
X68607Y-122457D01*
G36*
X71509Y-97675D02*
X58668Y-92036D01*
X64313Y-82260D01*
X71867Y-73870D01*
X81369Y-84318D01*
X75723Y-90369D01*
X71509Y-97675D01*
G37*
G54D14*
X71509Y-97675D02*
X58668Y-92036D01*
X64313Y-82260D01*
X71867Y-73870D01*
X81369Y-84318D01*
X75723Y-90369D01*
X71509Y-97675D01*
G36*
X87980Y-79287D02*
X80906Y-67178D01*
X91219Y-62586D01*
X102262Y-60239D01*
X103808Y-74277D01*
X95683Y-75854D01*
X87980Y-79287D01*
G37*
G54D14*
X87980Y-79287D02*
X80906Y-67178D01*
X91219Y-62586D01*
X102262Y-60239D01*
X103808Y-74277D01*
X95683Y-75854D01*
X87980Y-79287D01*
X155000Y-114000D02*
G54D15*
D03*
X62000Y-114000D02*
G54D15*
D03*
G36*
X117827Y-61810D02*
X130190Y-65827D01*
X126173Y-78190D01*
X113810Y-74173D01*
X117827Y-61810D01*
G37*
G36*
X147438Y-77921D02*
X155079Y-88438D01*
X144562Y-96079D01*
X136921Y-85562D01*
X147438Y-77921D01*
G37*
G36*
X155079Y-139562D02*
X147438Y-150079D01*
X136921Y-142438D01*
X144562Y-131921D01*
X155079Y-139562D01*
G37*
G36*
X130190Y-162174D02*
X117827Y-166190D01*
X113810Y-153827D01*
X126173Y-149810D01*
X130190Y-162174D01*
G37*
G36*
X98173Y-166191D02*
X85809Y-162173D01*
X89827Y-149809D01*
X102191Y-153827D01*
X98173Y-166191D01*
G37*
G36*
X69562Y-150079D02*
X61921Y-139562D01*
X72438Y-131921D01*
X80079Y-142438D01*
X69562Y-150079D01*
G37*
G36*
X69562Y-77921D02*
X80079Y-85562D01*
X72438Y-96079D01*
X61921Y-88438D01*
X69562Y-77921D01*
G37*
G36*
X98173Y-61810D02*
X102190Y-74173D01*
X89827Y-78190D01*
X85810Y-65827D01*
X98173Y-61810D01*
G37*
X263000Y-146000D02*
G54D12*
D03*
X321000Y-80000D02*
G54D12*
D03*
X322000Y-109000D02*
G54D12*
D03*
X322000Y-137000D02*
G54D12*
D03*
X281000Y-171000D02*
G54D12*
D03*
X245000Y-170000D02*
G54D12*
D03*
X205000Y-137000D02*
G54D12*
D03*
X204000Y-104000D02*
G54D12*
D03*
X211000Y-78000D02*
G54D12*
D03*
G54D13*
X291500Y-326500D02*
X308500Y-326500D01*
G54D13*
X217500Y-326500D02*
X234500Y-326500D01*
X305000Y-198000D02*
G54D12*
D03*
X318000Y-234000D02*
G54D12*
D03*
X291000Y-226000D02*
G54D12*
D03*
X291000Y-199000D02*
G54D12*
D03*
X299000Y-163000D02*
G54D12*
D03*
X303000Y-229000D02*
G54D12*
D03*
X203500Y-234000D02*
G54D12*
D03*
X226000Y-165000D02*
G54D12*
D03*
X196000Y-167000D02*
G54D12*
D03*
X235000Y-291000D02*
G54D12*
D03*
X206000Y-152000D02*
G54D12*
D03*
X263000Y-183000D02*
G54D12*
D03*
X263000Y-191000D02*
G54D12*
D03*
G54D13*
G75*
G01X286000Y-114000D02*
G03X286000Y-114000I-23000J0D01*
G01*
G36*
X267250Y-74250D02*
X268644Y-60296D01*
X279687Y-62643D01*
X290000Y-67235D01*
X283000Y-79500D01*
X275500Y-76000D01*
X267250Y-74250D01*
G37*
G54D14*
X267250Y-74250D02*
X268644Y-60296D01*
X279687Y-62643D01*
X290000Y-67235D01*
X283000Y-79500D01*
X275500Y-76000D01*
X267250Y-74250D01*
G36*
X290119Y-84234D02*
X299449Y-73765D01*
X307003Y-82154D01*
X312648Y-91931D01*
X299775Y-97739D01*
X295765Y-90499D01*
X290119Y-84234D01*
G37*
G54D14*
X290119Y-84234D02*
X299449Y-73765D01*
X307003Y-82154D01*
X312648Y-91931D01*
X299775Y-97739D01*
X295765Y-90499D01*
X290119Y-84234D01*
G36*
X302170Y-105645D02*
X315872Y-102659D01*
X317052Y-113886D01*
X315872Y-125114D01*
X302044Y-122246D01*
X303055Y-114032D01*
X302170Y-105645D01*
G37*
G54D14*
X302170Y-105645D02*
X315872Y-102659D01*
X317052Y-113886D01*
X315872Y-125114D01*
X302044Y-122246D01*
X303055Y-114032D01*
X302170Y-105645D01*
G36*
X299491Y-130325D02*
X312332Y-135964D01*
X306687Y-145740D01*
X299133Y-154130D01*
X289631Y-143682D01*
X295277Y-137631D01*
X299491Y-130325D01*
G37*
G54D14*
X299491Y-130325D02*
X312332Y-135964D01*
X306687Y-145740D01*
X299133Y-154130D01*
X289631Y-143682D01*
X295277Y-137631D01*
X299491Y-130325D01*
G36*
X283020Y-148712D02*
X290094Y-160821D01*
X279780Y-165413D01*
X268738Y-167760D01*
X267192Y-153723D01*
X275317Y-152146D01*
X283020Y-148712D01*
G37*
G54D14*
X283020Y-148712D02*
X290094Y-160821D01*
X279780Y-165413D01*
X268738Y-167760D01*
X267192Y-153723D01*
X275317Y-152146D01*
X283020Y-148712D01*
G36*
X258777Y-153852D02*
X257383Y-167806D01*
X246340Y-165459D01*
X236027Y-160867D01*
X243027Y-148602D01*
X250527Y-152102D01*
X258777Y-153852D01*
G37*
G54D14*
X258777Y-153852D02*
X257383Y-167806D01*
X246340Y-165459D01*
X236027Y-160867D01*
X243027Y-148602D01*
X250527Y-152102D01*
X258777Y-153852D01*
G36*
X236158Y-143618D02*
X226828Y-154087D01*
X219274Y-145698D01*
X213629Y-135921D01*
X226502Y-130113D01*
X230512Y-137353D01*
X236158Y-143618D01*
G37*
G54D14*
X236158Y-143618D02*
X226828Y-154087D01*
X219274Y-145698D01*
X213629Y-135921D01*
X226502Y-130113D01*
X230512Y-137353D01*
X236158Y-143618D01*
G36*
X223607Y-122457D02*
X209904Y-125443D01*
X208724Y-114216D01*
X209904Y-102988D01*
X223733Y-105856D01*
X222722Y-114070D01*
X223607Y-122457D01*
G37*
G54D14*
X223607Y-122457D02*
X209904Y-125443D01*
X208724Y-114216D01*
X209904Y-102988D01*
X223733Y-105856D01*
X222722Y-114070D01*
X223607Y-122457D01*
G36*
X226509Y-97675D02*
X213668Y-92036D01*
X219313Y-82260D01*
X226867Y-73870D01*
X236369Y-84318D01*
X230723Y-90369D01*
X226509Y-97675D01*
G37*
G54D14*
X226509Y-97675D02*
X213668Y-92036D01*
X219313Y-82260D01*
X226867Y-73870D01*
X236369Y-84318D01*
X230723Y-90369D01*
X226509Y-97675D01*
G36*
X242980Y-79287D02*
X235906Y-67178D01*
X246219Y-62586D01*
X257262Y-60239D01*
X258808Y-74277D01*
X250683Y-75854D01*
X242980Y-79287D01*
G37*
G54D14*
X242980Y-79287D02*
X235906Y-67178D01*
X246219Y-62586D01*
X257262Y-60239D01*
X258808Y-74277D01*
X250683Y-75854D01*
X242980Y-79287D01*
X310000Y-114000D02*
G54D15*
D03*
X217000Y-114000D02*
G54D15*
D03*
G36*
X272827Y-61810D02*
X285190Y-65827D01*
X281173Y-78190D01*
X268810Y-74173D01*
X272827Y-61810D01*
G37*
G36*
X302438Y-77921D02*
X310079Y-88438D01*
X299562Y-96079D01*
X291921Y-85562D01*
X302438Y-77921D01*
G37*
G36*
X310079Y-139562D02*
X302438Y-150079D01*
X291921Y-142438D01*
X299562Y-131921D01*
X310079Y-139562D01*
G37*
G36*
X285190Y-162174D02*
X272827Y-166190D01*
X268810Y-153827D01*
X281173Y-149810D01*
X285190Y-162174D01*
G37*
G36*
X253173Y-166191D02*
X240809Y-162173D01*
X244827Y-149809D01*
X257191Y-153827D01*
X253173Y-166191D01*
G37*
G36*
X224562Y-150079D02*
X216921Y-139562D01*
X227438Y-131921D01*
X235079Y-142438D01*
X224562Y-150079D01*
G37*
G36*
X224562Y-77921D02*
X235079Y-85562D01*
X227438Y-96079D01*
X216921Y-88438D01*
X224562Y-77921D01*
G37*
G36*
X253173Y-61810D02*
X257190Y-74173D01*
X244827Y-78190D01*
X240810Y-65827D01*
X253173Y-61810D01*
G37*
X418000Y-146000D02*
G54D12*
D03*
X476000Y-80000D02*
G54D12*
D03*
X477000Y-109000D02*
G54D12*
D03*
X477000Y-137000D02*
G54D12*
D03*
X436000Y-171000D02*
G54D12*
D03*
X400000Y-170000D02*
G54D12*
D03*
X360000Y-137000D02*
G54D12*
D03*
X359000Y-104000D02*
G54D12*
D03*
X366000Y-78000D02*
G54D12*
D03*
G54D13*
X446500Y-326500D02*
X463500Y-326500D01*
G54D13*
X372500Y-326500D02*
X389500Y-326500D01*
X460000Y-198000D02*
G54D12*
D03*
X473000Y-234000D02*
G54D12*
D03*
X446000Y-226000D02*
G54D12*
D03*
X446000Y-199000D02*
G54D12*
D03*
X454000Y-163000D02*
G54D12*
D03*
X458000Y-229000D02*
G54D12*
D03*
X358500Y-234000D02*
G54D12*
D03*
X381000Y-165000D02*
G54D12*
D03*
X351000Y-167000D02*
G54D12*
D03*
X390000Y-291000D02*
G54D12*
D03*
X361000Y-152000D02*
G54D12*
D03*
X418000Y-183000D02*
G54D12*
D03*
X418000Y-191000D02*
G54D12*
D03*
G54D13*
G75*
G01X441000Y-114000D02*
G03X441000Y-114000I-23000J0D01*
G01*
G36*
X422250Y-74250D02*
X423644Y-60296D01*
X434687Y-62643D01*
X445000Y-67235D01*
X438000Y-79500D01*
X430500Y-76000D01*
X422250Y-74250D01*
G37*
G54D14*
X422250Y-74250D02*
X423644Y-60296D01*
X434687Y-62643D01*
X445000Y-67235D01*
X438000Y-79500D01*
X430500Y-76000D01*
X422250Y-74250D01*
G36*
X445119Y-84234D02*
X454449Y-73765D01*
X462003Y-82154D01*
X467648Y-91931D01*
X454775Y-97739D01*
X450765Y-90499D01*
X445119Y-84234D01*
G37*
G54D14*
X445119Y-84234D02*
X454449Y-73765D01*
X462003Y-82154D01*
X467648Y-91931D01*
X454775Y-97739D01*
X450765Y-90499D01*
X445119Y-84234D01*
G36*
X457170Y-105645D02*
X470872Y-102659D01*
X472052Y-113886D01*
X470872Y-125114D01*
X457044Y-122246D01*
X458055Y-114032D01*
X457170Y-105645D01*
G37*
G54D14*
X457170Y-105645D02*
X470872Y-102659D01*
X472052Y-113886D01*
X470872Y-125114D01*
X457044Y-122246D01*
X458055Y-114032D01*
X457170Y-105645D01*
G36*
X454491Y-130325D02*
X467332Y-135964D01*
X461687Y-145740D01*
X454133Y-154130D01*
X444631Y-143682D01*
X450277Y-137631D01*
X454491Y-130325D01*
G37*
G54D14*
X454491Y-130325D02*
X467332Y-135964D01*
X461687Y-145740D01*
X454133Y-154130D01*
X444631Y-143682D01*
X450277Y-137631D01*
X454491Y-130325D01*
G36*
X438020Y-148712D02*
X445094Y-160821D01*
X434780Y-165413D01*
X423738Y-167760D01*
X422192Y-153723D01*
X430317Y-152146D01*
X438020Y-148712D01*
G37*
G54D14*
X438020Y-148712D02*
X445094Y-160821D01*
X434780Y-165413D01*
X423738Y-167760D01*
X422192Y-153723D01*
X430317Y-152146D01*
X438020Y-148712D01*
G36*
X413777Y-153852D02*
X412383Y-167806D01*
X401340Y-165459D01*
X391027Y-160867D01*
X398027Y-148602D01*
X405527Y-152102D01*
X413777Y-153852D01*
G37*
G54D14*
X413777Y-153852D02*
X412383Y-167806D01*
X401340Y-165459D01*
X391027Y-160867D01*
X398027Y-148602D01*
X405527Y-152102D01*
X413777Y-153852D01*
G36*
X391158Y-143618D02*
X381828Y-154087D01*
X374274Y-145698D01*
X368629Y-135921D01*
X381502Y-130113D01*
X385512Y-137353D01*
X391158Y-143618D01*
G37*
G54D14*
X391158Y-143618D02*
X381828Y-154087D01*
X374274Y-145698D01*
X368629Y-135921D01*
X381502Y-130113D01*
X385512Y-137353D01*
X391158Y-143618D01*
G36*
X378607Y-122457D02*
X364904Y-125443D01*
X363724Y-114216D01*
X364904Y-102988D01*
X378733Y-105856D01*
X377722Y-114070D01*
X378607Y-122457D01*
G37*
G54D14*
X378607Y-122457D02*
X364904Y-125443D01*
X363724Y-114216D01*
X364904Y-102988D01*
X378733Y-105856D01*
X377722Y-114070D01*
X378607Y-122457D01*
G36*
X381509Y-97675D02*
X368668Y-92036D01*
X374313Y-82260D01*
X381867Y-73870D01*
X391369Y-84318D01*
X385723Y-90369D01*
X381509Y-97675D01*
G37*
G54D14*
X381509Y-97675D02*
X368668Y-92036D01*
X374313Y-82260D01*
X381867Y-73870D01*
X391369Y-84318D01*
X385723Y-90369D01*
X381509Y-97675D01*
G36*
X397980Y-79287D02*
X390906Y-67178D01*
X401219Y-62586D01*
X412262Y-60239D01*
X413808Y-74277D01*
X405683Y-75854D01*
X397980Y-79287D01*
G37*
G54D14*
X397980Y-79287D02*
X390906Y-67178D01*
X401219Y-62586D01*
X412262Y-60239D01*
X413808Y-74277D01*
X405683Y-75854D01*
X397980Y-79287D01*
X465000Y-114000D02*
G54D15*
D03*
X372000Y-114000D02*
G54D15*
D03*
G36*
X427827Y-61810D02*
X440190Y-65827D01*
X436173Y-78190D01*
X423809Y-74173D01*
X427827Y-61810D01*
G37*
G36*
X457438Y-77921D02*
X465079Y-88438D01*
X454562Y-96079D01*
X446921Y-85562D01*
X457438Y-77921D01*
G37*
G36*
X465079Y-139562D02*
X457438Y-150079D01*
X446921Y-142438D01*
X454562Y-131921D01*
X465079Y-139562D01*
G37*
G36*
X440190Y-162174D02*
X427827Y-166190D01*
X423810Y-153827D01*
X436173Y-149810D01*
X440190Y-162174D01*
G37*
G36*
X408173Y-166191D02*
X395809Y-162173D01*
X399827Y-149809D01*
X412191Y-153827D01*
X408173Y-166191D01*
G37*
G36*
X379562Y-150079D02*
X371921Y-139562D01*
X382438Y-131921D01*
X390079Y-142438D01*
X379562Y-150079D01*
G37*
G36*
X379562Y-77921D02*
X390079Y-85562D01*
X382438Y-96079D01*
X371921Y-88438D01*
X379562Y-77921D01*
G37*
G36*
X408173Y-61810D02*
X412190Y-74173D01*
X399827Y-78190D01*
X395810Y-65827D01*
X408173Y-61810D01*
G37*
X140750Y-418250D02*
G54D12*
D03*
X74750Y-360250D02*
G54D12*
D03*
X103750Y-359250D02*
G54D12*
D03*
X131750Y-359250D02*
G54D12*
D03*
X165750Y-400250D02*
G54D12*
D03*
X164750Y-436250D02*
G54D12*
D03*
X131750Y-476250D02*
G54D12*
D03*
X98750Y-477250D02*
G54D12*
D03*
X72750Y-470250D02*
G54D12*
D03*
G54D13*
X321250Y-389750D02*
X321250Y-372750D01*
G54D13*
X321250Y-463750D02*
X321250Y-446750D01*
X192750Y-376250D02*
G54D12*
D03*
X228750Y-363250D02*
G54D12*
D03*
X220750Y-390250D02*
G54D12*
D03*
X193750Y-390250D02*
G54D12*
D03*
X157750Y-382250D02*
G54D12*
D03*
X223750Y-378250D02*
G54D12*
D03*
X228750Y-477750D02*
G54D12*
D03*
X159750Y-455250D02*
G54D12*
D03*
X161750Y-485250D02*
G54D12*
D03*
X285750Y-446250D02*
G54D12*
D03*
X146750Y-475250D02*
G54D12*
D03*
X177750Y-418250D02*
G54D12*
D03*
X185750Y-418250D02*
G54D12*
D03*
G54D13*
G75*
G01X131750Y-418250D02*
G03X131750Y-418250I-23000J0D01*
G01*
G36*
X69000Y-414000D02*
X55046Y-412606D01*
X57393Y-401563D01*
X61985Y-391250D01*
X74250Y-398250D01*
X70750Y-405750D01*
X69000Y-414000D01*
G37*
G54D14*
X69000Y-414000D02*
X55046Y-412606D01*
X57393Y-401563D01*
X61985Y-391250D01*
X74250Y-398250D01*
X70750Y-405750D01*
X69000Y-414000D01*
G36*
X78984Y-391131D02*
X68515Y-381801D01*
X76904Y-374247D01*
X86681Y-368602D01*
X92489Y-381475D01*
X85249Y-385485D01*
X78984Y-391131D01*
G37*
G54D14*
X78984Y-391131D02*
X68515Y-381801D01*
X76904Y-374247D01*
X86681Y-368602D01*
X92489Y-381475D01*
X85249Y-385485D01*
X78984Y-391131D01*
G36*
X100395Y-379080D02*
X97409Y-365378D01*
X108636Y-364198D01*
X119864Y-365378D01*
X116997Y-379206D01*
X108782Y-378195D01*
X100395Y-379080D01*
G37*
G54D14*
X100395Y-379080D02*
X97409Y-365378D01*
X108636Y-364198D01*
X119864Y-365378D01*
X116997Y-379206D01*
X108782Y-378195D01*
X100395Y-379080D01*
G36*
X125075Y-381759D02*
X130714Y-368918D01*
X140490Y-374563D01*
X148880Y-382117D01*
X138432Y-391619D01*
X132381Y-385973D01*
X125075Y-381759D01*
G37*
G54D14*
X125075Y-381759D02*
X130714Y-368918D01*
X140490Y-374563D01*
X148880Y-382117D01*
X138432Y-391619D01*
X132381Y-385973D01*
X125075Y-381759D01*
G36*
X143462Y-398230D02*
X155571Y-391156D01*
X160163Y-401470D01*
X162510Y-412512D01*
X148473Y-414058D01*
X146896Y-405933D01*
X143462Y-398230D01*
G37*
G54D14*
X143462Y-398230D02*
X155571Y-391156D01*
X160163Y-401470D01*
X162510Y-412512D01*
X148473Y-414058D01*
X146896Y-405933D01*
X143462Y-398230D01*
G36*
X148602Y-422473D02*
X162556Y-423867D01*
X160209Y-434910D01*
X155617Y-445223D01*
X143352Y-438223D01*
X146852Y-430723D01*
X148602Y-422473D01*
G37*
G54D14*
X148602Y-422473D02*
X162556Y-423867D01*
X160209Y-434910D01*
X155617Y-445223D01*
X143352Y-438223D01*
X146852Y-430723D01*
X148602Y-422473D01*
G36*
X138368Y-445092D02*
X148837Y-454422D01*
X140448Y-461976D01*
X130671Y-467621D01*
X124863Y-454748D01*
X132103Y-450738D01*
X138368Y-445092D01*
G37*
G54D14*
X138368Y-445092D02*
X148837Y-454422D01*
X140448Y-461976D01*
X130671Y-467621D01*
X124863Y-454748D01*
X132103Y-450738D01*
X138368Y-445092D01*
G36*
X117207Y-457643D02*
X120193Y-471346D01*
X108966Y-472526D01*
X97738Y-471346D01*
X100606Y-457517D01*
X108820Y-458528D01*
X117207Y-457643D01*
G37*
G54D14*
X117207Y-457643D02*
X120193Y-471346D01*
X108966Y-472526D01*
X97738Y-471346D01*
X100606Y-457517D01*
X108820Y-458528D01*
X117207Y-457643D01*
G36*
X92425Y-454741D02*
X86786Y-467582D01*
X77010Y-461937D01*
X68620Y-454383D01*
X79068Y-444881D01*
X85119Y-450527D01*
X92425Y-454741D01*
G37*
G54D14*
X92425Y-454741D02*
X86786Y-467582D01*
X77010Y-461937D01*
X68620Y-454383D01*
X79068Y-444881D01*
X85119Y-450527D01*
X92425Y-454741D01*
G36*
X74037Y-438270D02*
X61928Y-445344D01*
X57337Y-435031D01*
X54989Y-423988D01*
X69027Y-422442D01*
X70604Y-430567D01*
X74037Y-438270D01*
G37*
G54D14*
X74037Y-438270D02*
X61928Y-445344D01*
X57337Y-435031D01*
X54989Y-423988D01*
X69027Y-422442D01*
X70604Y-430567D01*
X74037Y-438270D01*
X108750Y-371250D02*
G54D15*
D03*
X108750Y-464250D02*
G54D15*
D03*
G36*
X56560Y-408423D02*
X60577Y-396060D01*
X72940Y-400077D01*
X68923Y-412440D01*
X56560Y-408423D01*
G37*
G36*
X72671Y-378812D02*
X83188Y-371171D01*
X90829Y-381688D01*
X80312Y-389329D01*
X72671Y-378812D01*
G37*
G36*
X134312Y-371171D02*
X144829Y-378812D01*
X137188Y-389329D01*
X126671Y-381688D01*
X134312Y-371171D01*
G37*
G36*
X156923Y-396060D02*
X160940Y-408423D01*
X148577Y-412440D01*
X144560Y-400077D01*
X156923Y-396060D01*
G37*
G36*
X160941Y-428077D02*
X156923Y-440441D01*
X144559Y-436423D01*
X148577Y-424059D01*
X160941Y-428077D01*
G37*
G36*
X144829Y-456688D02*
X134312Y-464329D01*
X126671Y-453812D01*
X137188Y-446171D01*
X144829Y-456688D01*
G37*
G36*
X72671Y-456688D02*
X80312Y-446171D01*
X90829Y-453812D01*
X83188Y-464329D01*
X72671Y-456688D01*
G37*
G36*
X56559Y-428077D02*
X68923Y-424060D01*
X72940Y-436423D01*
X60577Y-440440D01*
X56559Y-428077D01*
G37*
M02*
