%FSLAX34Y34*%
%MOMM*%
%LNCOPPER_BOTTOM*%
G71*
G01*
%ADD10C, 2.000*%
%ADD11R, 0.800X2.400*%
%ADD12C, 0.400*%
%ADD13C, 0.700*%
%ADD14C, 0.600*%
%ADD15C, 1.700*%
%ADD16R, 1.800X1.300*%
%ADD17C, 0.500*%
%ADD18R, 1.300X1.800*%
%LPD*%
G36*
X345597Y-461325D02*
X365597Y-461325D01*
X365597Y-481325D01*
X345597Y-481325D01*
X345597Y-461325D01*
G37*
X380997Y-471325D02*
G54D10*
D03*
X406397Y-471325D02*
G54D10*
D03*
X431797Y-471325D02*
G54D10*
D03*
X457197Y-471325D02*
G54D10*
D03*
X457197Y-369725D02*
G54D10*
D03*
X431797Y-369725D02*
G54D10*
D03*
X406397Y-369725D02*
G54D10*
D03*
X380997Y-369725D02*
G54D10*
D03*
G36*
X345597Y-359725D02*
X365597Y-359725D01*
X365597Y-379725D01*
X345597Y-379725D01*
X345597Y-359725D01*
G37*
X482597Y-471325D02*
G54D10*
D03*
X482597Y-369725D02*
G54D10*
D03*
X387000Y-397000D02*
G54D11*
D03*
X399700Y-397000D02*
G54D11*
D03*
X412400Y-397000D02*
G54D11*
D03*
X425100Y-397000D02*
G54D11*
D03*
X437800Y-397000D02*
G54D11*
D03*
X450500Y-397000D02*
G54D11*
D03*
X450500Y-447000D02*
G54D11*
D03*
X437800Y-447000D02*
G54D11*
D03*
X425100Y-447000D02*
G54D11*
D03*
X412400Y-447000D02*
G54D11*
D03*
X399700Y-447000D02*
G54D11*
D03*
X387000Y-447000D02*
G54D11*
D03*
G54D12*
X355597Y-369725D02*
X355597Y-386597D01*
X366000Y-397000D01*
X387000Y-397000D01*
G54D12*
X380997Y-369725D02*
X382725Y-369725D01*
X400000Y-387000D01*
X400000Y-396700D01*
X399700Y-397000D01*
G54D12*
X412400Y-397000D02*
X412400Y-375728D01*
X406397Y-369725D01*
G54D12*
X425100Y-397000D02*
X425100Y-376422D01*
X431797Y-369725D01*
G54D12*
X437800Y-397000D02*
X437800Y-385200D01*
X444000Y-379000D01*
X447922Y-379000D01*
X457197Y-369725D01*
G54D12*
X482597Y-369725D02*
X482597Y-387403D01*
X473000Y-397000D01*
X450500Y-397000D01*
G54D12*
X482597Y-471325D02*
X482597Y-456597D01*
X473000Y-447000D01*
X450500Y-447000D01*
G54D12*
X437800Y-447000D02*
X437800Y-456800D01*
X444000Y-463000D01*
X448872Y-463000D01*
X457197Y-471325D01*
G54D12*
X425100Y-447000D02*
X425100Y-464628D01*
X431797Y-471325D01*
G54D12*
X412400Y-447000D02*
X412400Y-465322D01*
X406397Y-471325D01*
G54D12*
X399700Y-447000D02*
X399700Y-457300D01*
X392000Y-465000D01*
X387322Y-465000D01*
X380997Y-471325D01*
G54D12*
X387000Y-447000D02*
X363000Y-447000D01*
X355000Y-455000D01*
X355000Y-470728D01*
X355597Y-471325D01*
X108000Y-146000D02*
G54D13*
D03*
X166000Y-80000D02*
G54D13*
D03*
X167000Y-109000D02*
G54D13*
D03*
X167000Y-137000D02*
G54D13*
D03*
X126000Y-171000D02*
G54D13*
D03*
X90000Y-170000D02*
G54D13*
D03*
X50000Y-137000D02*
G54D13*
D03*
X49000Y-104000D02*
G54D13*
D03*
X56000Y-78000D02*
G54D13*
D03*
G54D14*
X108000Y-149000D02*
X108000Y-183000D01*
G54D15*
X136500Y-326500D02*
X153500Y-326500D01*
G54D15*
X62500Y-326500D02*
X79500Y-326500D01*
X52900Y-213600D02*
G54D16*
D03*
X53000Y-246100D02*
G54D16*
D03*
X80400Y-213600D02*
G54D16*
D03*
X80500Y-246100D02*
G54D16*
D03*
X107900Y-213600D02*
G54D16*
D03*
X108000Y-246100D02*
G54D16*
D03*
X135400Y-213600D02*
G54D16*
D03*
X135500Y-246100D02*
G54D16*
D03*
X162900Y-213600D02*
G54D16*
D03*
X163000Y-246100D02*
G54D16*
D03*
X52900Y-271100D02*
G54D16*
D03*
X53000Y-303600D02*
G54D16*
D03*
X80400Y-271100D02*
G54D16*
D03*
X80500Y-303600D02*
G54D16*
D03*
X135400Y-271100D02*
G54D16*
D03*
X135500Y-303600D02*
G54D16*
D03*
X162900Y-271100D02*
G54D16*
D03*
X163000Y-303600D02*
G54D16*
D03*
G54D14*
X163000Y-318000D02*
X163000Y-303600D01*
G54D14*
X162900Y-271100D02*
X162900Y-246200D01*
X163000Y-246100D01*
G54D14*
X162900Y-213600D02*
X135400Y-213600D01*
G54D14*
X135500Y-246100D02*
X135500Y-271000D01*
X135400Y-271100D01*
G54D14*
X135500Y-303600D02*
X135500Y-292500D01*
X131000Y-288000D01*
X118000Y-288000D01*
X108000Y-278000D01*
X108000Y-246100D01*
G54D14*
X107900Y-213600D02*
X80400Y-213600D01*
G54D14*
X80500Y-246100D02*
X80500Y-236500D01*
X74000Y-230000D01*
X57000Y-230000D01*
X52000Y-225000D01*
X52000Y-214500D01*
X52900Y-213600D01*
G54D14*
X53000Y-246100D02*
X53000Y-271000D01*
X52900Y-271100D01*
G54D14*
X53000Y-303600D02*
X80500Y-303600D01*
G54D14*
X166000Y-80000D02*
X167000Y-80000D01*
X176000Y-89000D01*
X176000Y-157000D01*
X157000Y-176000D01*
X157000Y-191000D01*
X150000Y-198000D01*
X150000Y-198000D02*
G54D13*
D03*
X163000Y-234000D02*
G54D13*
D03*
G54D14*
X163000Y-234000D02*
X163000Y-246100D01*
G54D14*
X167000Y-109000D02*
X167000Y-123000D01*
X158000Y-132000D01*
X158000Y-148000D01*
X144000Y-162000D01*
G54D14*
X126000Y-171000D02*
X122000Y-175000D01*
X122000Y-200000D01*
X136000Y-226000D02*
G54D13*
D03*
G54D14*
X136000Y-246000D02*
X136000Y-226000D01*
X136000Y-199000D02*
G54D13*
D03*
X144000Y-163000D02*
G54D13*
D03*
X148000Y-229000D02*
G54D13*
D03*
G54D14*
X148000Y-229000D02*
X156000Y-229000D01*
X162000Y-223000D01*
X162000Y-214500D01*
X162900Y-213600D01*
G54D17*
X80400Y-271100D02*
X80400Y-277600D01*
X73000Y-285000D01*
X44000Y-285000D01*
X39000Y-280000D01*
X39000Y-201000D01*
X42000Y-198000D01*
G54D17*
X42000Y-198000D02*
X48000Y-198000D01*
X58000Y-188000D01*
X58000Y-178000D01*
X49000Y-169000D01*
X44000Y-169000D01*
X41000Y-167000D01*
G54D17*
X52900Y-213600D02*
X52900Y-204100D01*
X58000Y-199000D01*
X77000Y-199000D01*
X83000Y-193000D01*
X83000Y-182000D01*
X76000Y-175000D01*
X69000Y-175000D01*
X63000Y-169000D01*
X63000Y-150000D01*
X50000Y-137000D01*
X48500Y-234000D02*
G54D13*
D03*
G54D14*
X48000Y-234000D02*
X53000Y-239000D01*
X53000Y-246100D01*
X71000Y-165000D02*
G54D13*
D03*
X41000Y-167000D02*
G54D13*
D03*
G54D14*
X71000Y-165000D02*
X71000Y-137000D01*
X49000Y-115000D01*
X49000Y-104000D01*
G54D17*
X56000Y-78000D02*
X56000Y-83000D01*
X41000Y-98000D01*
X41000Y-142000D01*
X51000Y-152000D01*
X80000Y-291000D02*
G54D13*
D03*
G54D14*
X80000Y-291000D02*
X80000Y-303100D01*
X80500Y-303600D01*
X51000Y-152000D02*
G54D13*
D03*
X108000Y-183000D02*
G54D13*
D03*
X108000Y-191000D02*
G54D13*
D03*
G54D14*
X108000Y-183000D02*
X108000Y-191000D01*
G54D14*
X107900Y-213600D02*
X107900Y-203900D01*
X96000Y-192000D01*
X96000Y-176000D01*
X90000Y-170000D01*
G54D14*
X167000Y-137000D02*
X167000Y-152000D01*
X147000Y-172000D01*
X137000Y-172000D01*
X131000Y-178000D01*
X131000Y-194000D01*
X136000Y-199000D01*
G54D14*
X108000Y-246100D02*
X108000Y-232000D01*
X111000Y-229000D01*
X116000Y-229000D01*
X122000Y-223000D01*
G54D12*
X122000Y-223000D02*
X122000Y-200000D01*
G54D12*
X48000Y-234000D02*
X48000Y-240000D01*
X50000Y-242000D01*
G54D17*
X74000Y-275000D02*
X74000Y-284000D01*
X73000Y-285000D01*
G54D17*
X77000Y-274000D02*
X77000Y-278000D01*
G54D14*
X145000Y-326500D02*
X154500Y-326500D01*
X163000Y-318000D01*
X263000Y-146000D02*
G54D13*
D03*
X321000Y-80000D02*
G54D13*
D03*
X322000Y-109000D02*
G54D13*
D03*
X322000Y-137000D02*
G54D13*
D03*
X281000Y-171000D02*
G54D13*
D03*
X245000Y-170000D02*
G54D13*
D03*
X205000Y-137000D02*
G54D13*
D03*
X204000Y-104000D02*
G54D13*
D03*
X211000Y-78000D02*
G54D13*
D03*
G54D14*
X263000Y-149000D02*
X263000Y-183000D01*
G54D15*
X291500Y-326500D02*
X308500Y-326500D01*
G54D15*
X217500Y-326500D02*
X234500Y-326500D01*
X207900Y-213600D02*
G54D16*
D03*
X208000Y-246100D02*
G54D16*
D03*
X235400Y-213600D02*
G54D16*
D03*
X235500Y-246100D02*
G54D16*
D03*
X262900Y-213600D02*
G54D16*
D03*
X263000Y-246100D02*
G54D16*
D03*
X290400Y-213600D02*
G54D16*
D03*
X290500Y-246100D02*
G54D16*
D03*
X317900Y-213600D02*
G54D16*
D03*
X318000Y-246100D02*
G54D16*
D03*
X207900Y-271100D02*
G54D16*
D03*
X208000Y-303600D02*
G54D16*
D03*
X235400Y-271100D02*
G54D16*
D03*
X235500Y-303600D02*
G54D16*
D03*
X290400Y-271100D02*
G54D16*
D03*
X290500Y-303600D02*
G54D16*
D03*
X317900Y-271100D02*
G54D16*
D03*
X318000Y-303600D02*
G54D16*
D03*
G54D14*
X318000Y-318000D02*
X318000Y-303600D01*
G54D14*
X317900Y-271100D02*
X317900Y-246200D01*
X318000Y-246100D01*
G54D14*
X317900Y-213600D02*
X290400Y-213600D01*
G54D14*
X290500Y-246100D02*
X290500Y-271000D01*
X290400Y-271100D01*
G54D14*
X290500Y-303600D02*
X290500Y-292500D01*
X286000Y-288000D01*
X273000Y-288000D01*
X263000Y-278000D01*
X263000Y-246100D01*
G54D14*
X262900Y-213600D02*
X235400Y-213600D01*
G54D14*
X235500Y-246100D02*
X235500Y-236500D01*
X229000Y-230000D01*
X212000Y-230000D01*
X207000Y-225000D01*
X207000Y-214500D01*
X207900Y-213600D01*
G54D14*
X208000Y-246100D02*
X208000Y-271000D01*
X207900Y-271100D01*
G54D14*
X208000Y-303600D02*
X235500Y-303600D01*
G54D14*
X321000Y-80000D02*
X322000Y-80000D01*
X331000Y-89000D01*
X331000Y-157000D01*
X312000Y-176000D01*
X312000Y-191000D01*
X305000Y-198000D01*
X305000Y-198000D02*
G54D13*
D03*
X318000Y-234000D02*
G54D13*
D03*
G54D14*
X318000Y-234000D02*
X318000Y-246100D01*
G54D14*
X322000Y-109000D02*
X322000Y-123000D01*
X313000Y-132000D01*
X313000Y-148000D01*
X299000Y-162000D01*
G54D14*
X281000Y-171000D02*
X277000Y-175000D01*
X277000Y-200000D01*
X291000Y-226000D02*
G54D13*
D03*
G54D14*
X291000Y-246000D02*
X291000Y-226000D01*
X291000Y-199000D02*
G54D13*
D03*
X299000Y-163000D02*
G54D13*
D03*
X303000Y-229000D02*
G54D13*
D03*
G54D14*
X303000Y-229000D02*
X311000Y-229000D01*
X317000Y-223000D01*
X317000Y-214500D01*
X317900Y-213600D01*
G54D17*
X235400Y-271100D02*
X235400Y-277600D01*
X228000Y-285000D01*
X199000Y-285000D01*
X194000Y-280000D01*
X194000Y-201000D01*
X197000Y-198000D01*
G54D17*
X197000Y-198000D02*
X203000Y-198000D01*
X213000Y-188000D01*
X213000Y-178000D01*
X204000Y-169000D01*
X199000Y-169000D01*
X196000Y-167000D01*
G54D17*
X207900Y-213600D02*
X207900Y-204100D01*
X213000Y-199000D01*
X232000Y-199000D01*
X238000Y-193000D01*
X238000Y-182000D01*
X231000Y-175000D01*
X224000Y-175000D01*
X218000Y-169000D01*
X218000Y-150000D01*
X205000Y-137000D01*
X203500Y-234000D02*
G54D13*
D03*
G54D14*
X203000Y-234000D02*
X208000Y-239000D01*
X208000Y-246100D01*
X226000Y-165000D02*
G54D13*
D03*
X196000Y-167000D02*
G54D13*
D03*
G54D14*
X226000Y-165000D02*
X226000Y-137000D01*
X204000Y-115000D01*
X204000Y-104000D01*
G54D17*
X211000Y-78000D02*
X211000Y-83000D01*
X196000Y-98000D01*
X196000Y-142000D01*
X206000Y-152000D01*
X235000Y-291000D02*
G54D13*
D03*
G54D14*
X235000Y-291000D02*
X235000Y-303100D01*
X235500Y-303600D01*
X206000Y-152000D02*
G54D13*
D03*
X263000Y-183000D02*
G54D13*
D03*
X263000Y-191000D02*
G54D13*
D03*
G54D14*
X263000Y-183000D02*
X263000Y-191000D01*
G54D14*
X262900Y-213600D02*
X262900Y-203900D01*
X251000Y-192000D01*
X251000Y-176000D01*
X245000Y-170000D01*
G54D14*
X322000Y-137000D02*
X322000Y-152000D01*
X302000Y-172000D01*
X292000Y-172000D01*
X286000Y-178000D01*
X286000Y-194000D01*
X291000Y-199000D01*
G54D14*
X263000Y-246100D02*
X263000Y-232000D01*
X266000Y-229000D01*
X271000Y-229000D01*
X277000Y-223000D01*
G54D12*
X277000Y-223000D02*
X277000Y-200000D01*
G54D12*
X203000Y-234000D02*
X203000Y-240000D01*
X205000Y-242000D01*
G54D17*
X229000Y-275000D02*
X229000Y-284000D01*
X228000Y-285000D01*
G54D17*
X232000Y-274000D02*
X232000Y-278000D01*
G54D14*
X300000Y-326500D02*
X309500Y-326500D01*
X318000Y-318000D01*
X418000Y-146000D02*
G54D13*
D03*
X476000Y-80000D02*
G54D13*
D03*
X477000Y-109000D02*
G54D13*
D03*
X477000Y-137000D02*
G54D13*
D03*
X436000Y-171000D02*
G54D13*
D03*
X400000Y-170000D02*
G54D13*
D03*
X360000Y-137000D02*
G54D13*
D03*
X359000Y-104000D02*
G54D13*
D03*
X366000Y-78000D02*
G54D13*
D03*
G54D14*
X418000Y-149000D02*
X418000Y-183000D01*
G54D15*
X446500Y-326500D02*
X463500Y-326500D01*
G54D15*
X372500Y-326500D02*
X389500Y-326500D01*
X362900Y-213600D02*
G54D16*
D03*
X363000Y-246100D02*
G54D16*
D03*
X390400Y-213600D02*
G54D16*
D03*
X390500Y-246100D02*
G54D16*
D03*
X417900Y-213600D02*
G54D16*
D03*
X418000Y-246100D02*
G54D16*
D03*
X445400Y-213600D02*
G54D16*
D03*
X445500Y-246100D02*
G54D16*
D03*
X472900Y-213600D02*
G54D16*
D03*
X473000Y-246100D02*
G54D16*
D03*
X362900Y-271100D02*
G54D16*
D03*
X363000Y-303600D02*
G54D16*
D03*
X390400Y-271100D02*
G54D16*
D03*
X390500Y-303600D02*
G54D16*
D03*
X445400Y-271100D02*
G54D16*
D03*
X445500Y-303600D02*
G54D16*
D03*
X472900Y-271100D02*
G54D16*
D03*
X473000Y-303600D02*
G54D16*
D03*
G54D14*
X473000Y-318000D02*
X473000Y-303600D01*
G54D14*
X472900Y-271100D02*
X472900Y-246200D01*
X473000Y-246100D01*
G54D14*
X472900Y-213600D02*
X445400Y-213600D01*
G54D14*
X445500Y-246100D02*
X445500Y-271000D01*
X445400Y-271100D01*
G54D14*
X445500Y-303600D02*
X445500Y-292500D01*
X441000Y-288000D01*
X428000Y-288000D01*
X418000Y-278000D01*
X418000Y-246100D01*
G54D14*
X417900Y-213600D02*
X390400Y-213600D01*
G54D14*
X390500Y-246100D02*
X390500Y-236500D01*
X384000Y-230000D01*
X367000Y-230000D01*
X362000Y-225000D01*
X362000Y-214500D01*
X362900Y-213600D01*
G54D14*
X363000Y-246100D02*
X363000Y-271000D01*
X362900Y-271100D01*
G54D14*
X363000Y-303600D02*
X390500Y-303600D01*
G54D14*
X476000Y-80000D02*
X477000Y-80000D01*
X486000Y-89000D01*
X486000Y-157000D01*
X467000Y-176000D01*
X467000Y-191000D01*
X460000Y-198000D01*
X460000Y-198000D02*
G54D13*
D03*
X473000Y-234000D02*
G54D13*
D03*
G54D14*
X473000Y-234000D02*
X473000Y-246100D01*
G54D14*
X477000Y-109000D02*
X477000Y-123000D01*
X468000Y-132000D01*
X468000Y-148000D01*
X454000Y-162000D01*
G54D14*
X436000Y-171000D02*
X432000Y-175000D01*
X432000Y-200000D01*
X446000Y-226000D02*
G54D13*
D03*
G54D14*
X446000Y-246000D02*
X446000Y-226000D01*
X446000Y-199000D02*
G54D13*
D03*
X454000Y-163000D02*
G54D13*
D03*
X458000Y-229000D02*
G54D13*
D03*
G54D14*
X458000Y-229000D02*
X466000Y-229000D01*
X472000Y-223000D01*
X472000Y-214500D01*
X472900Y-213600D01*
G54D17*
X390400Y-271100D02*
X390400Y-277600D01*
X383000Y-285000D01*
X354000Y-285000D01*
X349000Y-280000D01*
X349000Y-201000D01*
X352000Y-198000D01*
G54D17*
X352000Y-198000D02*
X358000Y-198000D01*
X368000Y-188000D01*
X368000Y-178000D01*
X359000Y-169000D01*
X354000Y-169000D01*
X351000Y-167000D01*
G54D17*
X362900Y-213600D02*
X362900Y-204100D01*
X368000Y-199000D01*
X387000Y-199000D01*
X393000Y-193000D01*
X393000Y-182000D01*
X386000Y-175000D01*
X379000Y-175000D01*
X373000Y-169000D01*
X373000Y-150000D01*
X360000Y-137000D01*
X358500Y-234000D02*
G54D13*
D03*
G54D14*
X358000Y-234000D02*
X363000Y-239000D01*
X363000Y-246100D01*
X381000Y-165000D02*
G54D13*
D03*
X351000Y-167000D02*
G54D13*
D03*
G54D14*
X381000Y-165000D02*
X381000Y-137000D01*
X359000Y-115000D01*
X359000Y-104000D01*
G54D17*
X366000Y-78000D02*
X366000Y-83000D01*
X351000Y-98000D01*
X351000Y-142000D01*
X361000Y-152000D01*
X390000Y-291000D02*
G54D13*
D03*
G54D14*
X390000Y-291000D02*
X390000Y-303100D01*
X390500Y-303600D01*
X361000Y-152000D02*
G54D13*
D03*
X418000Y-183000D02*
G54D13*
D03*
X418000Y-191000D02*
G54D13*
D03*
G54D14*
X418000Y-183000D02*
X418000Y-191000D01*
G54D14*
X417900Y-213600D02*
X417900Y-203900D01*
X406000Y-192000D01*
X406000Y-176000D01*
X400000Y-170000D01*
G54D14*
X477000Y-137000D02*
X477000Y-152000D01*
X457000Y-172000D01*
X447000Y-172000D01*
X441000Y-178000D01*
X441000Y-194000D01*
X446000Y-199000D01*
G54D14*
X418000Y-246100D02*
X418000Y-232000D01*
X421000Y-229000D01*
X426000Y-229000D01*
X432000Y-223000D01*
G54D12*
X432000Y-223000D02*
X432000Y-200000D01*
G54D12*
X358000Y-234000D02*
X358000Y-240000D01*
X360000Y-242000D01*
G54D17*
X384000Y-275000D02*
X384000Y-284000D01*
X383000Y-285000D01*
G54D17*
X387000Y-274000D02*
X387000Y-278000D01*
G54D14*
X455000Y-326500D02*
X464500Y-326500D01*
X473000Y-318000D01*
X140750Y-418250D02*
G54D13*
D03*
X74750Y-360250D02*
G54D13*
D03*
X103750Y-359250D02*
G54D13*
D03*
X131750Y-359250D02*
G54D13*
D03*
X165750Y-400250D02*
G54D13*
D03*
X164750Y-436250D02*
G54D13*
D03*
X131750Y-476250D02*
G54D13*
D03*
X98750Y-477250D02*
G54D13*
D03*
X72750Y-470250D02*
G54D13*
D03*
G54D14*
X143750Y-418250D02*
X177750Y-418250D01*
G54D15*
X321250Y-389750D02*
X321250Y-372750D01*
G54D15*
X321250Y-463750D02*
X321250Y-446750D01*
X208350Y-473350D02*
G54D18*
D03*
X240850Y-473250D02*
G54D18*
D03*
X208350Y-445850D02*
G54D18*
D03*
X240850Y-445750D02*
G54D18*
D03*
X208350Y-418350D02*
G54D18*
D03*
X240850Y-418250D02*
G54D18*
D03*
X208350Y-390850D02*
G54D18*
D03*
X240850Y-390750D02*
G54D18*
D03*
X208350Y-363350D02*
G54D18*
D03*
X240850Y-363250D02*
G54D18*
D03*
X265850Y-473350D02*
G54D18*
D03*
X298350Y-473250D02*
G54D18*
D03*
X265850Y-445850D02*
G54D18*
D03*
X298350Y-445750D02*
G54D18*
D03*
X265850Y-390850D02*
G54D18*
D03*
X298350Y-390750D02*
G54D18*
D03*
X265850Y-363350D02*
G54D18*
D03*
X298350Y-363250D02*
G54D18*
D03*
G54D14*
X312750Y-363250D02*
X298350Y-363250D01*
G54D14*
X265850Y-363350D02*
X240950Y-363350D01*
X240850Y-363250D01*
G54D14*
X208350Y-363350D02*
X208350Y-390850D01*
G54D14*
X240850Y-390750D02*
X265750Y-390750D01*
X265850Y-390850D01*
G54D14*
X298350Y-390750D02*
X287250Y-390750D01*
X282750Y-395250D01*
X282750Y-408250D01*
X272750Y-418250D01*
X240850Y-418250D01*
G54D14*
X208350Y-418350D02*
X208350Y-445850D01*
G54D14*
X240850Y-445750D02*
X231250Y-445750D01*
X224750Y-452250D01*
X224750Y-469250D01*
X219750Y-474250D01*
X209250Y-474250D01*
X208350Y-473350D01*
G54D14*
X240850Y-473250D02*
X265750Y-473250D01*
X265850Y-473350D01*
G54D14*
X298350Y-473250D02*
X298350Y-445750D01*
G54D14*
X74750Y-360250D02*
X74750Y-359250D01*
X83750Y-350250D01*
X151750Y-350250D01*
X170750Y-369250D01*
X185750Y-369250D01*
X192750Y-376250D01*
X192750Y-376250D02*
G54D13*
D03*
X228750Y-363250D02*
G54D13*
D03*
G54D14*
X228750Y-363250D02*
X240850Y-363250D01*
G54D14*
X103750Y-359250D02*
X117750Y-359250D01*
X126750Y-368250D01*
X142750Y-368250D01*
X156750Y-382250D01*
G54D14*
X165750Y-400250D02*
X169750Y-404250D01*
X194750Y-404250D01*
X220750Y-390250D02*
G54D13*
D03*
G54D14*
X240750Y-390250D02*
X220750Y-390250D01*
X193750Y-390250D02*
G54D13*
D03*
X157750Y-382250D02*
G54D13*
D03*
X223750Y-378250D02*
G54D13*
D03*
G54D14*
X223750Y-378250D02*
X223750Y-370250D01*
X217750Y-364250D01*
X209250Y-364250D01*
X208350Y-363350D01*
G54D17*
X265850Y-445850D02*
X272350Y-445850D01*
X279750Y-453250D01*
X279750Y-482250D01*
X274750Y-487250D01*
X195750Y-487250D01*
X192750Y-484250D01*
G54D17*
X192750Y-484250D02*
X192750Y-478250D01*
X182750Y-468250D01*
X172750Y-468250D01*
X163750Y-477250D01*
X163750Y-482250D01*
X161750Y-485250D01*
G54D17*
X208350Y-473350D02*
X198850Y-473350D01*
X193750Y-468250D01*
X193750Y-449250D01*
X187750Y-443250D01*
X176750Y-443250D01*
X169750Y-450250D01*
X169750Y-457250D01*
X163750Y-463250D01*
X144750Y-463250D01*
X131750Y-476250D01*
X228750Y-477750D02*
G54D13*
D03*
G54D14*
X228750Y-478250D02*
X233750Y-473250D01*
X240850Y-473250D01*
X159750Y-455250D02*
G54D13*
D03*
X161750Y-485250D02*
G54D13*
D03*
G54D14*
X159750Y-455250D02*
X131750Y-455250D01*
X109750Y-477250D01*
X98750Y-477250D01*
G54D17*
X72750Y-470250D02*
X77750Y-470250D01*
X92750Y-485250D01*
X136750Y-485250D01*
X146750Y-475250D01*
X285750Y-446250D02*
G54D13*
D03*
G54D14*
X285750Y-446250D02*
X297850Y-446250D01*
X298350Y-445750D01*
X146750Y-475250D02*
G54D13*
D03*
X177750Y-418250D02*
G54D13*
D03*
X185750Y-418250D02*
G54D13*
D03*
G54D14*
X177750Y-418250D02*
X185750Y-418250D01*
G54D14*
X208350Y-418350D02*
X198650Y-418350D01*
X186750Y-430250D01*
X170750Y-430250D01*
X164750Y-436250D01*
G54D14*
X131750Y-359250D02*
X146750Y-359250D01*
X166750Y-379250D01*
X166750Y-389250D01*
X172750Y-395250D01*
X188750Y-395250D01*
X193750Y-390250D01*
G54D14*
X240850Y-418250D02*
X226750Y-418250D01*
X223750Y-415250D01*
X223750Y-410250D01*
X217750Y-404250D01*
G54D12*
X217750Y-404250D02*
X194750Y-404250D01*
G54D12*
X228750Y-478250D02*
X234750Y-478250D01*
X236750Y-476250D01*
G54D17*
X269750Y-452250D02*
X278750Y-452250D01*
X279750Y-453250D01*
G54D17*
X268750Y-449250D02*
X272750Y-449250D01*
G54D14*
X321250Y-381250D02*
X321250Y-371750D01*
X312750Y-363250D01*
M02*
